<svg class="w-auto max-w-[16rem] h-40 text-gray-800 dark:text-white" aria-hidden="true" width="426" height="581" viewBox="0 0 426 581" fill="none" xmlns="http://www.w3.org/2000/svg">
<path d="M248 46C248 39.3726 253.373 34 260 34H414C420.627 34 426 39.3726 426 46V323C426 329.627 420.627 335 414 335H260C253.373 335 248 329.627 248 323V46Z" fill="#d6e2fb"/>
<path d="M248 46C248 39.3726 253.373 34 260 34H414C420.627 34 426 39.3726 426 46V323C426 329.627 420.627 335 414 335H260C253.373 335 248 329.627 248 323V46Z" fill="url(#paint0_linear_411_1553)"/>
<path d="M377.792 274.865C378.121 275.055 378.121 275.53 377.792 275.719L372.737 278.638C372.408 278.828 371.997 278.591 371.997 278.211V272.374C371.997 271.994 372.408 271.757 372.737 271.946L377.792 274.865Z" fill="#9ab7f6"/>
<path fill-rule="evenodd" clip-rule="evenodd" d="M379.025 271.415C379.578 271.415 380.025 271.863 380.025 272.415V277.758C380.025 278.311 379.578 278.758 379.025 278.758C378.473 278.758 378.025 278.311 378.025 277.758V272.415C378.025 271.863 378.473 271.415 379.025 271.415Z" fill="#9ab7f6"/>
<path d="M295.268 274.701C294.939 274.891 294.939 275.365 295.268 275.555L300.323 278.474C300.652 278.664 301.063 278.427 301.063 278.047V272.21C301.063 271.83 300.652 271.593 300.323 271.782L295.268 274.701Z" fill="#9ab7f6"/>
<path fill-rule="evenodd" clip-rule="evenodd" d="M294.035 271.251C293.483 271.251 293.035 271.699 293.035 272.251V277.594C293.035 278.146 293.483 278.594 294.035 278.594C294.587 278.594 295.035 278.146 295.035 277.594V272.251C295.035 271.699 294.587 271.251 294.035 271.251Z" fill="#9ab7f6"/>
<path d="M350.259 275.128C350.259 282.619 344.186 288.691 336.696 288.691C329.205 288.691 323.133 282.619 323.133 275.128C323.133 267.638 329.205 261.565 336.696 261.565C344.186 261.565 350.259 267.638 350.259 275.128Z" fill="#9ab7f6"/>
<path fill-rule="evenodd" clip-rule="evenodd" d="M333.491 270.196C334.172 270.196 334.724 270.748 334.724 271.429V278.827C334.724 279.508 334.172 280.06 333.491 280.06C332.81 280.06 332.258 279.508 332.258 278.827V271.429C332.258 270.748 332.81 270.196 333.491 270.196Z" fill="#EBEBEB"/>
<path fill-rule="evenodd" clip-rule="evenodd" d="M339.901 270.196C340.582 270.196 341.134 270.748 341.134 271.429V278.827C341.134 279.508 340.582 280.06 339.901 280.06C339.22 280.06 338.668 279.508 338.668 278.827V271.429C338.668 270.748 339.22 270.196 339.901 270.196Z" fill="#EBEBEB"/>
<path d="M263.453 235.261C263.453 234.989 263.674 234.768 263.946 234.768H409.44C409.712 234.768 409.933 234.989 409.933 235.261C409.933 235.534 409.712 235.754 409.44 235.754H263.946C263.674 235.754 263.453 235.534 263.453 235.261Z" fill="#9ab7f6"/>
<path d="M281.371 235.179C281.371 236.495 280.304 237.563 278.987 237.563C277.671 237.563 276.604 236.495 276.604 235.179C276.604 233.862 277.671 232.795 278.987 232.795C280.304 232.795 281.371 233.862 281.371 235.179Z" fill="#F0F0F0"/>
<path fill-rule="evenodd" clip-rule="evenodd" d="M282.371 235.179C282.371 237.048 280.856 238.563 278.987 238.563C277.118 238.563 275.604 237.048 275.604 235.179C275.604 233.31 277.118 231.795 278.987 231.795C280.856 231.795 282.371 233.31 282.371 235.179ZM278.987 237.563C280.304 237.563 281.371 236.495 281.371 235.179C281.371 233.862 280.304 232.795 278.987 232.795C277.671 232.795 276.604 233.862 276.604 235.179C276.604 236.495 277.671 237.563 278.987 237.563Z" fill="#9ab7f6"/>
<path d="M263 61.3844C263 56.7538 266.754 53 271.384 53H402.575C407.206 53 410.959 56.7538 410.959 61.3844V192.575C410.959 197.206 407.206 200.959 402.575 200.959H271.384C266.754 200.959 263 197.206 263 192.575V61.3844Z" fill="#F9FAFB"/>
<path d="M327.934 142.623C329.435 148.225 325.678 154.098 319.543 155.742C313.408 157.386 307.218 154.178 305.718 148.576C304.217 142.975 307.973 137.101 314.108 135.458C320.243 133.814 326.433 137.022 327.934 142.623Z" fill="#2563eb"/>
<path fill-rule="evenodd" clip-rule="evenodd" d="M366.224 98.5677C366.224 97.9161 365.611 97.4386 364.979 97.5981L328.978 106.688C328.534 106.8 328.223 107.2 328.223 107.658V145.6H326.223V107.658C326.223 106.284 327.156 105.085 328.488 104.749L364.49 95.6589C366.385 95.1804 368.224 96.6131 368.224 98.5677V136H366.224V98.5677Z" fill="#2563eb"/>
<path d="M367.934 132.623C369.435 138.225 365.678 144.098 359.543 145.742C353.408 147.386 347.218 144.178 345.718 138.576C344.217 132.975 347.973 127.101 354.108 125.458C360.243 123.814 366.433 127.022 367.934 132.623Z" fill="#2563eb"/>
<path d="M327.324 107.662V115.2L367.324 105.1L367.325 98.662C367.326 97.3607 366.103 96.4057 364.84 96.7213L328.839 105.721C327.949 105.944 327.324 106.744 327.324 107.662Z" fill="#2563eb"/>
<path d="M154.934 36.5236C156.435 42.125 152.678 47.9984 146.543 49.6423C140.408 51.2861 134.218 48.0778 132.718 42.4764C131.217 36.8751 134.973 31.0016 141.108 29.3578C147.243 27.714 153.433 30.9222 154.934 36.5236Z" fill="#9ab7f6"/>
<path fill-rule="evenodd" clip-rule="evenodd" d="M155.223 0V39.5H153.223V0H155.223Z" fill="#9ab7f6"/>
<path d="M44.9339 295.623C46.4348 301.225 42.6782 307.098 36.5433 308.742C30.4085 310.386 24.2185 307.178 22.7176 301.576C21.2167 295.975 24.9733 290.101 31.1081 288.458C37.243 286.814 43.433 290.022 44.9339 295.623Z" fill="#9ab7f6"/>
<path fill-rule="evenodd" clip-rule="evenodd" d="M83.2242 251.568C83.2242 250.916 82.6111 250.439 81.9794 250.598L45.9778 259.688C45.5338 259.8 45.2227 260.2 45.2227 260.658V298.6H43.2227V260.658C43.2227 259.284 44.1561 258.085 45.4882 257.749L81.4898 248.659C83.3849 248.18 85.2242 249.613 85.2242 251.568V289H83.2242V251.568Z" fill="#9ab7f6"/>
<path d="M84.9339 285.623C86.4348 291.225 82.6782 297.098 76.5433 298.742C70.4085 300.386 64.2185 297.178 62.7176 291.576C61.2167 285.975 64.9733 280.101 71.1081 278.458C77.243 276.814 83.433 280.022 84.9339 285.623Z" fill="#9ab7f6"/>
<path d="M44.3242 260.662V268.2L84.3242 258.1L84.3253 251.662C84.3256 250.361 83.1027 249.406 81.8403 249.721L45.8392 258.721C44.9488 258.944 44.3242 259.744 44.3242 260.662Z" fill="#9ab7f6"/>
<path d="M24.9339 99.6235C26.4348 105.225 22.6782 111.098 16.5433 112.742C10.4085 114.386 4.21849 111.178 2.7176 105.576C1.21671 99.9749 4.97329 94.1015 11.1081 92.4577C17.243 90.8138 23.433 94.0221 24.9339 99.6235Z" fill="#9ab7f6"/>
<path fill-rule="evenodd" clip-rule="evenodd" d="M63.2242 55.5677C63.2242 54.9161 62.6111 54.4386 61.9794 54.5981L25.9778 63.6881C25.5338 63.8003 25.2227 64.1997 25.2227 64.6577V102.6H23.2227V64.6577C23.2227 63.2837 24.1561 62.0854 25.4882 61.749L61.4898 52.6589C63.3849 52.1804 65.2242 53.6131 65.2242 55.5677V92.9999H63.2242V55.5677Z" fill="#9ab7f6"/>
<path d="M64.9339 89.6235C66.4348 95.2249 62.6782 101.098 56.5433 102.742C50.4085 104.386 44.2185 101.178 42.7176 95.5763C41.2167 89.9749 44.9733 84.1015 51.1081 82.4577C57.243 80.8138 63.433 84.0221 64.9339 89.6235Z" fill="#9ab7f6"/>
<path d="M24.3242 64.6616V72.2L64.3242 62.1L64.3253 55.662C64.3256 54.3607 63.1027 53.4057 61.8403 53.7213L25.8392 62.7213C24.9488 62.9438 24.3242 63.7438 24.3242 64.6616Z" fill="#9ab7f6"/>
<path d="M105 566.5C95.8 568.9 91.8333 572.833 91 574.5V576L155 570V546.5H126.5C123.167 552.167 114.2 564.1 105 566.5Z" fill="#111928"/>
<path d="M154.907 579.5H92C90.8954 579.5 90 578.605 90 577.5V576.328C90 575.293 90.7895 574.429 91.8203 574.336L154.417 568.688C155.552 568.586 156.543 569.451 156.595 570.589L156.905 577.409C156.957 578.548 156.047 579.5 154.907 579.5Z" fill="#F9FAFB"/>
<path d="M154.907 579.5H92C90.8954 579.5 90 578.605 90 577.5V576.328C90 575.293 90.7895 574.429 91.8203 574.336L154.417 568.688C155.552 568.586 156.543 569.451 156.595 570.589L156.905 577.409C156.957 578.548 156.047 579.5 154.907 579.5Z" fill="url(#paint1_linear_411_1553)"/>
<path d="M287 545.5L291.5 574.5H318.5C318.5 566.5 312.833 551.833 310 545.5H287Z" fill="#111928"/>
<path d="M290 576C290 574.895 290.895 574 292 574H295.189C296.716 574 298.228 573.709 299.646 573.142L300.543 572.783C303.404 571.638 306.596 571.638 309.457 572.783L312.142 573.857C312.379 573.951 312.631 574 312.885 574H318C319.105 574 320 574.895 320 576V578C320 579.104 319.105 580 318 580H292C290.895 580 290 579.104 290 578V576Z" fill="#F9FAFB"/>
<path d="M290 576C290 574.895 290.895 574 292 574H295.189C296.716 574 298.228 573.709 299.646 573.142L300.543 572.783C303.404 571.638 306.596 571.638 309.457 572.783L312.142 573.857C312.379 573.951 312.631 574 312.885 574H318C319.105 574 320 574.895 320 576V578C320 579.104 319.105 580 318 580H292C290.895 580 290 579.104 290 578V576Z" fill="url(#paint2_linear_411_1553)"/>
<path d="M180.499 52.5C180.099 60.9 186.332 63.6667 189.499 64L199.5 74L215 91.5C221.5 84.1667 234.5 68 234.5 62C234.5 56 228.167 54.8333 225 55C220.5 43.5 212.5 48.5 207 49.5C201.5 50.5 180.999 42 180.499 52.5Z" fill="#111928"/>
<path d="M205.5 115L202.5 87.5L213 80L225 112C224 114.167 221.2 118.6 218 119C214.8 119.4 208.333 116.5 205.5 115Z" fill="#FDBA8C"/>
<path d="M205.5 115L202.5 87.5L213 80L225 112C224 114.167 221.2 118.6 218 119C214.8 119.4 208.333 116.5 205.5 115Z" fill="url(#paint3_linear_411_1553)"/>
<path d="M199.5 91C192.536 91 190 73.5395 189.539 63.949C189.511 63.348 189.757 62.7617 190.238 62.3996C198.043 56.5182 206.515 64.6686 207 70C207.5 75.5 210 78 212 74.5C214 71 219.5 69.5 219 74.5C218.5 79.5 208.5 91 199.5 91Z" fill="#FDBA8C"/>
<path d="M197.372 71.6975C197.596 72.3443 197.253 73.0499 196.606 73.2736C195.959 73.4972 195.254 73.1542 195.03 72.5075C194.806 71.8607 195.149 71.1551 195.796 70.9315C196.443 70.7078 197.148 71.0508 197.372 71.6975Z" fill="#111928"/>
<path fill-rule="evenodd" clip-rule="evenodd" d="M194.507 67.7202C193.682 68.0167 193.131 68.5986 192.666 69.3109C192.486 69.5863 192.116 69.6637 191.841 69.4837C191.565 69.3036 191.488 68.9344 191.668 68.659C192.206 67.8363 192.938 67.0181 194.103 66.5989C195.262 66.1819 196.753 66.1945 198.74 66.8189C199.054 66.9176 199.228 67.252 199.13 67.566C199.031 67.8799 198.697 68.0544 198.383 67.9558C196.543 67.3775 195.337 67.4215 194.507 67.7202Z" fill="#111928"/>
<path fill-rule="evenodd" clip-rule="evenodd" d="M191.249 72.0685C191.578 72.0629 191.849 72.3251 191.855 72.6541L191.993 80.8502C191.996 80.9966 192.132 81.1035 192.275 81.0707L195.698 80.2844C196.018 80.2107 196.338 80.411 196.412 80.7317C196.485 81.0524 196.285 81.3721 195.964 81.4458L192.542 82.2321C191.661 82.4345 190.817 81.7742 190.802 80.8703L190.663 72.6742C190.658 72.3452 190.92 72.074 191.249 72.0685Z" fill="#111928"/>
<path fill-rule="evenodd" clip-rule="evenodd" d="M197.673 84.8912C198.28 84.4363 198.856 83.8452 199.717 82.9161C199.941 82.6749 200.318 82.6607 200.559 82.8845C200.801 83.1083 200.815 83.4852 200.591 83.7265C199.737 84.6475 199.093 85.3163 198.388 85.8449C197.669 86.3835 196.906 86.7618 195.823 87.1473C195.513 87.2577 195.173 87.0958 195.062 86.7858C194.952 86.4758 195.114 86.1351 195.424 86.0247C196.434 85.6651 197.079 85.3362 197.673 84.8912Z" fill="#111928"/>
<path fill-rule="evenodd" clip-rule="evenodd" d="M216.358 75.443C216.56 74.5909 216.375 73.811 216.034 73.0316C215.902 72.7302 216.039 72.3789 216.34 72.2468C216.642 72.1148 216.993 72.2521 217.125 72.5535C217.519 73.4537 217.804 74.5142 217.517 75.719C217.232 76.9175 216.406 78.1577 214.796 79.4794C214.541 79.6882 214.166 79.6513 213.957 79.3969C213.748 79.1426 213.785 78.7671 214.039 78.5584C215.53 77.3346 216.153 76.3014 216.358 75.443Z" fill="#111928"/>
<path d="M158.001 137.5C170.401 123.1 191.835 115.5 201.001 113.5L208 114.5L217 115.5L227.5 110.5C233.5 110.667 248.4 114.2 260 127C271.6 139.8 273.5 170 273 183.5L253 194V230H181.001C168.168 205.167 145.601 151.9 158.001 137.5Z" fill="#F9FAFB"/>
<path d="M158.001 137.5C170.401 123.1 191.835 115.5 201.001 113.5L208 114.5L217 115.5L227.5 110.5C233.5 110.667 248.4 114.2 260 127C271.6 139.8 273.5 170 273 183.5L253 194V230H181.001C168.168 205.167 145.601 151.9 158.001 137.5Z" fill="url(#paint4_linear_411_1553)"/>
<path d="M203.5 111.5L201 113.5C214.6 121.5 224.333 114.833 227.5 110.5L225 108.5C224.167 109.833 221.1 112.7 215.5 113.5C209.9 114.3 205.167 112.5 203.5 111.5Z" fill="#F9FAFB"/>
<path d="M203.5 111.5L201 113.5C214.6 121.5 224.333 114.833 227.5 110.5L225 108.5C224.167 109.833 221.1 112.7 215.5 113.5C209.9 114.3 205.167 112.5 203.5 111.5Z" fill="url(#paint5_linear_411_1553)"/>
<path d="M323.939 546.053L251.5 230H183.5L131.5 382.5L110.292 546.243C110.137 547.44 111.069 548.5 112.276 548.5H161.753C162.753 548.5 163.6 547.76 163.734 546.768L183 404.5L218 321.5L275.118 546.991C275.343 547.878 276.141 548.5 277.057 548.5H321.99C323.275 548.5 324.226 547.306 323.939 546.053Z" fill="#2563eb"/>
<path d="M323.939 546.053L251.5 230H183.5L131.5 382.5L110.292 546.243C110.137 547.44 111.069 548.5 112.276 548.5H161.753C162.753 548.5 163.6 547.76 163.734 546.768L183 404.5L218 321.5L275.118 546.991C275.343 547.878 276.141 548.5 277.057 548.5H321.99C323.275 548.5 324.226 547.306 323.939 546.053Z" fill="url(#paint6_linear_411_1553)"/>
<path fill-rule="evenodd" clip-rule="evenodd" d="M271.32 532H320.718L320.259 530H270.814L271.32 532ZM166.005 530H112.396L112.137 532H165.734L166.005 530Z" fill="#9ab7f6"/>
<path d="M197.5 536.5L195.5 573.5V577.5H254.5C253 569 243 570.5 232 562C223.2 555.2 222 542.167 222.5 536.5H197.5Z" fill="#F9FAFB"/>
<path d="M197.5 536.5L195.5 573.5V577.5H254.5C253 569 243 570.5 232 562C223.2 555.2 222 542.167 222.5 536.5H197.5Z" fill="url(#paint7_linear_411_1553)"/>
<path d="M195.5 578.5V574.382C195.5 573.82 195.726 573.278 196.177 572.943C206.02 565.638 237.713 572.418 253.783 577.138C254.511 577.351 255 578.019 255 578.778C255 579.729 254.229 580.5 253.278 580.5H197.5C196.395 580.5 195.5 579.605 195.5 578.5Z" fill="#111928"/>
<path d="M312 467.253L325.838 501.568L327.334 505.278L382.052 483.212C377.482 475.89 368.769 481.021 355.388 477.252C344.684 474.236 338.696 462.598 337.041 457.155L312 467.253Z" fill="#F9FAFB"/>
<path d="M312 467.253L325.838 501.568L327.334 505.278L382.052 483.212C377.482 475.89 368.769 481.021 355.388 477.252C344.684 474.236 338.696 462.598 337.041 457.155L312 467.253Z" fill="url(#paint8_linear_411_1553)"/>
<path d="M327.709 506.205L326.169 502.386C325.958 501.865 325.965 501.278 326.259 500.798C332.655 490.342 364.583 484.777 381.252 483.144C382.008 483.07 382.711 483.506 382.995 484.21C383.35 485.092 382.924 486.095 382.042 486.451L330.312 507.312C329.287 507.725 328.122 507.23 327.709 506.205Z" fill="#111928"/>
<path d="M237 164.5L214.5 157L199.5 170C207.167 175 226.1 184.1 240.5 180.5C258.5 176 302.5 139 307 136C311.5 133 327 133.5 328 130C329 126.5 321.5 121.5 310.5 125C301.7 127.8 257.833 152.5 237 164.5Z" fill="#FDBA8C"/>
<path d="M237 164.5L214.5 157L199.5 170C207.167 175 226.1 184.1 240.5 180.5C258.5 176 302.5 139 307 136C311.5 133 327 133.5 328 130C329 126.5 321.5 121.5 310.5 125C301.7 127.8 257.833 152.5 237 164.5Z" fill="url(#paint9_linear_411_1553)"/>
<path d="M122.001 80.5001C130.801 77.7001 136.001 82.6668 137.501 85.5001L136.5 100L142.5 129.5L132.5 152L137.501 206.5L87.5 196C96.5 177.5 96.5 173 94.5 161C92.5 149 98 144 105.5 132C113 120 111.001 118 107.501 105C104.001 92.0001 111.001 84.0001 122.001 80.5001Z" fill="#111928"/>
<path d="M150 132.5L141 111.5L132.5 109C134.5 118.2 134.667 133.5 134.5 140L150 132.5Z" fill="#FDBA8C"/>
<path d="M150 132.5L141 111.5L132.5 109C134.5 118.2 134.667 133.5 134.5 140L150 132.5Z" fill="url(#paint10_linear_411_1553)"/>
<path d="M124.998 103.5C124.198 99.5002 127.998 99.1669 129.998 99.5002C131.164 99.8335 133.198 99.1001 131.998 93.5001C130.498 86.5001 133.998 84.0001 136.498 84.5001C138.998 85.0001 150.998 106 145.498 111C139.998 116 125.998 108.5 124.998 103.5Z" fill="#FDBA8C"/>
<path d="M138.424 95.0719C138.376 95.606 138.77 96.0779 139.304 96.126C139.838 96.1741 140.31 95.7801 140.358 95.2461C140.406 94.712 140.012 94.2401 139.478 94.192C138.944 94.1439 138.472 94.5378 138.424 95.0719Z" fill="#111928"/>
<path fill-rule="evenodd" clip-rule="evenodd" d="M138.865 91.4397C139.545 91.3445 140.139 91.5468 140.722 91.8707C140.947 91.996 141.232 91.9149 141.357 91.6895C141.482 91.4642 141.401 91.1799 141.176 91.0546C140.503 90.6805 139.696 90.3804 138.735 90.515C137.779 90.649 136.751 91.2016 135.601 92.3599C135.419 92.5429 135.42 92.8385 135.603 93.0202C135.786 93.2018 136.082 93.2008 136.263 93.0178C137.328 91.9452 138.18 91.5357 138.865 91.4397Z" fill="#111928"/>
<path fill-rule="evenodd" clip-rule="evenodd" d="M143.165 94.1177C142.932 94.2288 142.834 94.5074 142.945 94.7401L145.712 100.536C145.762 100.64 145.703 100.763 145.592 100.79L142.917 101.434C142.666 101.495 142.512 101.747 142.572 101.998C142.633 102.248 142.885 102.403 143.136 102.342L145.811 101.697C146.499 101.531 146.86 100.773 146.555 100.134L143.787 94.3378C143.676 94.1051 143.398 94.0066 143.165 94.1177Z" fill="#111928"/>
<path fill-rule="evenodd" clip-rule="evenodd" d="M146.797 108.431C144.55 108.609 141.707 107.744 140.517 105.368L146.627 104.004C146.939 105.653 147.025 107.169 146.797 108.431Z" fill="white"/>
<path fill-rule="evenodd" clip-rule="evenodd" d="M127.584 103.631C127.269 103.021 127.263 102.393 127.375 101.735C127.419 101.481 127.248 101.24 126.994 101.196C126.74 101.153 126.498 101.324 126.455 101.578C126.325 102.337 126.309 103.197 126.754 104.059C127.197 104.917 128.059 105.704 129.533 106.406C129.766 106.516 130.045 106.418 130.155 106.185C130.266 105.952 130.167 105.673 129.934 105.563C128.57 104.913 127.901 104.245 127.584 103.631Z" fill="#111928"/>
<path d="M219 155.5L208 181.5L175.5 173L195 219L149.5 239.5C142.5 214 128.5 193.5 123.5 170.5C118.5 147.5 137.5 131 152 130.5C163.6 130.1 201.5 147 219 155.5Z" fill="#F9FAFB"/>
<path d="M219 155.5L208 181.5L175.5 173L195 219L149.5 239.5C142.5 214 128.5 193.5 123.5 170.5C118.5 147.5 137.5 131 152 130.5C163.6 130.1 201.5 147 219 155.5Z" fill="url(#paint11_linear_411_1553)"/>
<path d="M203 409L160.5 273.5L217.5 292C228.333 314.833 251 365.6 255 386C258.95 406.143 247.3 496.517 240.748 540.827C240.603 541.807 239.767 542.5 238.776 542.5H191.221C190.034 542.5 189.108 541.472 189.232 540.291L203 409Z" fill="#2563eb"/>
<path d="M203 409L160.5 273.5L217.5 292C228.333 314.833 251 365.6 255 386C258.95 406.143 247.3 496.517 240.748 540.827C240.603 541.807 239.767 542.5 238.776 542.5H191.221C190.034 542.5 189.108 541.472 189.232 540.291L203 409Z" fill="url(#paint12_linear_411_1553)"/>
<path d="M195 313C159.4 290.6 150.5 254.333 150.5 239L190 218C219.167 243.833 281 299 295 313C308.837 326.837 333.581 413.12 344.615 456C344.846 456.897 344.421 457.804 343.601 458.235L307.953 476.974C306.907 477.523 305.614 477.051 305.169 475.956L255 352.5C249.833 348.667 230.6 335.4 195 313Z" fill="#2563eb"/>
<path d="M195 313C159.4 290.6 150.5 254.333 150.5 239L190 218C219.167 243.833 281 299 295 313C308.837 326.837 333.581 413.12 344.615 456C344.846 456.897 344.421 457.804 343.601 458.235L307.953 476.974C306.907 477.523 305.614 477.051 305.169 475.956L255 352.5C249.833 348.667 230.6 335.4 195 313Z" fill="url(#paint13_linear_411_1553)"/>
<path fill-rule="evenodd" clip-rule="evenodd" d="M172.571 247.582C179.523 240.473 182.428 232.199 183.014 228.829L184.984 229.171C184.336 232.899 181.263 241.554 174.001 248.98C173.493 249.499 173.584 250.266 174.072 250.616C191.24 262.951 216.535 281.26 238.52 297.467C249.512 305.57 259.679 313.15 267.592 319.197C275.474 325.22 281.187 329.773 283.206 331.793C284.339 332.926 285.679 335.202 287.164 338.229C288.67 341.299 290.385 345.272 292.248 349.917C295.973 359.209 300.308 371.243 304.758 384.238C313.659 410.233 323.038 440.12 328.956 459.711L327.042 460.289C321.127 440.713 311.756 410.85 302.866 384.886C298.42 371.903 294.098 359.906 290.391 350.661C288.537 346.038 286.843 342.116 285.368 339.109C283.871 336.058 282.659 334.074 281.792 333.207C279.889 331.304 274.306 326.845 266.377 320.786C258.479 314.75 248.321 307.177 237.333 299.077C215.357 282.876 190.069 264.572 172.905 252.241C171.322 251.104 171.296 248.885 172.571 247.582Z" fill="#9ab7f6"/>
<path d="M117.499 217C112.299 211.8 117.666 198.833 120.999 193L133.7 199.5L136.9 206.5C146.067 211 166.4 220.1 176 220.5C188 221 190 230 188 233C186 236 173.5 235 163 231.5C152.5 228 123.999 223.5 117.499 217Z" fill="#FDBA8C"/>
<path d="M117.499 217C112.299 211.8 117.666 198.833 120.999 193L133.7 199.5L136.9 206.5C146.067 211 166.4 220.1 176 220.5C188 221 190 230 188 233C186 236 173.5 235 163 231.5C152.5 228 123.999 223.5 117.499 217Z" fill="url(#paint14_linear_411_1553)"/>
<path fill-rule="evenodd" clip-rule="evenodd" d="M125.39 177.789L118.5 194L134.805 201.944C131.218 193.878 127.827 185.945 125.39 177.789Z" fill="#F9FAFB"/>
<path fill-rule="evenodd" clip-rule="evenodd" d="M125.39 177.789L118.5 194L134.805 201.944C131.218 193.878 127.827 185.945 125.39 177.789Z" fill="url(#paint15_linear_411_1553)"/>
<path d="M252.998 194C268.198 184 296.998 153.167 309.498 139C301.239 129 306.5 122.5 312.5 123C318.5 123.5 325.5 133.5 322 141.5C318.5 149.5 277.498 212.5 264.498 212.5C254.098 212.5 252.498 200.167 252.998 194Z" fill="#FDBA8C"/>
<path d="M252.998 194C268.198 184 296.998 153.167 309.498 139C301.239 129 306.5 122.5 312.5 123C318.5 123.5 325.5 133.5 322 141.5C318.5 149.5 277.498 212.5 264.498 212.5C254.098 212.5 252.498 200.167 252.998 194Z" fill="url(#paint16_linear_411_1553)"/>
<defs>
<linearGradient id="paint0_linear_411_1553" x1="419" y1="274.5" x2="179.5" y2="550" gradientUnits="userSpaceOnUse">
<stop stop-color="#9ab7f6" stop-opacity="0"/>
<stop offset="1" stop-color="#9ab7f6"/>
</linearGradient>
<linearGradient id="paint1_linear_411_1553" x1="118.851" y1="575.174" x2="119.133" y2="567.087" gradientUnits="userSpaceOnUse">
<stop stop-color="#c8d8fa"/>
<stop offset="1" stop-color="#c8d8fa" stop-opacity="0"/>
</linearGradient>
<linearGradient id="paint2_linear_411_1553" x1="302.918" y1="576.46" x2="303.339" y2="569.862" gradientUnits="userSpaceOnUse">
<stop stop-color="#c8d8fa"/>
<stop offset="1" stop-color="#c8d8fa" stop-opacity="0"/>
</linearGradient>
<linearGradient id="paint3_linear_411_1553" x1="216.782" y1="72.462" x2="216.782" y2="109.912" gradientUnits="userSpaceOnUse">
<stop stop-color="#7F270F"/>
<stop offset="1" stop-color="#7F270F" stop-opacity="0"/>
</linearGradient>
<linearGradient id="paint4_linear_411_1553" x1="205.5" y1="183" x2="223.504" y2="98.8931" gradientUnits="userSpaceOnUse">
<stop stop-color="#c8d8fa"/>
<stop offset="1" stop-color="#c8d8fa" stop-opacity="0"/>
</linearGradient>
<linearGradient id="paint5_linear_411_1553" x1="234.961" y1="117.242" x2="233.195" y2="104.301" gradientUnits="userSpaceOnUse">
<stop stop-color="#c8d8fa"/>
<stop offset="1" stop-color="#c8d8fa" stop-opacity="0"/>
</linearGradient>
<linearGradient id="paint6_linear_411_1553" x1="266.5" y1="687.5" x2="399.009" y2="469.57" gradientUnits="userSpaceOnUse">
<stop stop-color="#111928" stop-opacity="0"/>
<stop offset="1" stop-color="#111928"/>
</linearGradient>
<linearGradient id="paint7_linear_411_1553" x1="221.5" y1="576" x2="228.521" y2="532.457" gradientUnits="userSpaceOnUse">
<stop stop-color="#c8d8fa" stop-opacity="0"/>
<stop offset="1" stop-color="#c8d8fa"/>
</linearGradient>
<linearGradient id="paint8_linear_411_1553" x1="350" y1="492.5" x2="340.701" y2="451.264" gradientUnits="userSpaceOnUse">
<stop stop-color="#c8d8fa" stop-opacity="0"/>
<stop offset="1" stop-color="#c8d8fa"/>
</linearGradient>
<linearGradient id="paint9_linear_411_1553" x1="281.125" y1="112.705" x2="281.125" y2="167.878" gradientUnits="userSpaceOnUse">
<stop stop-color="#7F270F"/>
<stop offset="1" stop-color="#7F270F" stop-opacity="0"/>
</linearGradient>
<linearGradient id="paint10_linear_411_1553" x1="143.608" y1="103.014" x2="143.608" y2="132.753" gradientUnits="userSpaceOnUse">
<stop stop-color="#7F270F"/>
<stop offset="1" stop-color="#7F270F" stop-opacity="0"/>
</linearGradient>
<linearGradient id="paint11_linear_411_1553" x1="246.119" y1="239.5" x2="182.987" y2="104.687" gradientUnits="userSpaceOnUse">
<stop stop-color="#c8d8fa"/>
<stop offset="1" stop-color="#c8d8fa" stop-opacity="0"/>
</linearGradient>
<linearGradient id="paint12_linear_411_1553" x1="276" y1="488.5" x2="96" y2="190" gradientUnits="userSpaceOnUse">
<stop stop-color="#111928" stop-opacity="0"/>
<stop offset="1" stop-color="#111928"/>
</linearGradient>
<linearGradient id="paint13_linear_411_1553" x1="315" y1="363.5" x2="434.07" y2="168.749" gradientUnits="userSpaceOnUse">
<stop stop-color="#111928" stop-opacity="0"/>
<stop offset="1" stop-color="#111928"/>
</linearGradient>
<linearGradient id="paint14_linear_411_1553" x1="161.888" y1="184.933" x2="161.888" y2="225.011" gradientUnits="userSpaceOnUse">
<stop stop-color="#7F270F"/>
<stop offset="1" stop-color="#7F270F" stop-opacity="0"/>
</linearGradient>
<linearGradient id="paint15_linear_411_1553" x1="135" y1="184" x2="104.956" y2="205.589" gradientUnits="userSpaceOnUse">
<stop stop-color="#c8d8fa"/>
<stop offset="1" stop-color="#c8d8fa" stop-opacity="0"/>
</linearGradient>
<linearGradient id="paint16_linear_411_1553" x1="209.5" y1="242.5" x2="299" y2="160" gradientUnits="userSpaceOnUse">
<stop stop-color="#7F270F"/>
<stop offset="1" stop-color="#7F270F" stop-opacity="0"/>
</linearGradient>
</defs>
</svg>