<svg class="w-auto max-w-[16rem] h-40 text-gray-800 dark:text-white" aria-hidden="true" width="610" height="258" viewBox="0 0 610 258" fill="none" xmlns="http://www.w3.org/2000/svg">
<path d="M0.232565 165.209C0.108262 164.028 1.03417 163 2.22158 163H103.778C104.966 163 105.892 164.028 105.767 165.209L96.1885 256.209C96.0813 257.227 95.223 258 94.1995 258H11.8005C10.777 258 9.91866 257.227 9.81151 256.209L0.232565 165.209Z" fill="#d6e2fb"/>
<path d="M33 163H72L69.3962 124.784C68.7908 115.898 61.4063 109 52.5 109C43.5937 109 36.2092 115.898 35.6038 124.784L33 163Z" fill="#d6e2fb"/>
<path d="M33 163H72L69.3962 124.784C68.7908 115.898 61.4063 109 52.5 109C43.5937 109 36.2092 115.898 35.6038 124.784L33 163Z" fill="url(#paint0_linear_275_1148)"/>
<path d="M372 4C372 1.79086 373.791 0 376 0H564C566.209 0 568 1.79086 568 4V39C568 41.2091 566.209 43 564 43H376C373.791 43 372 41.2091 372 39V4Z" fill="#d6e2fb"/>
<path d="M372 4C372 1.79086 373.791 0 376 0H564C566.209 0 568 1.79086 568 4V39C568 41.2091 566.209 43 564 43H376C373.791 43 372 41.2091 372 39V4Z" fill="url(#paint1_linear_275_1148)"/>
<path fill-rule="evenodd" clip-rule="evenodd" d="M383 29.5V13H385V29.5H383Z" fill="#c8d8fa"/>
<path fill-rule="evenodd" clip-rule="evenodd" d="M389 29.5V13H391V29.5H389Z" fill="#c8d8fa"/>
<path fill-rule="evenodd" clip-rule="evenodd" d="M395 29.5V13H397V29.5H395Z" fill="#c8d8fa"/>
<path fill-rule="evenodd" clip-rule="evenodd" d="M401 29.5V13H403V29.5H401Z" fill="#c8d8fa"/>
<path fill-rule="evenodd" clip-rule="evenodd" d="M407 29.5V13H409V29.5H407Z" fill="#c8d8fa"/>
<path fill-rule="evenodd" clip-rule="evenodd" d="M413 29.5V13H415V29.5H413Z" fill="#c8d8fa"/>
<path fill-rule="evenodd" clip-rule="evenodd" d="M419 29.5V13H421V29.5H419Z" fill="#c8d8fa"/>
<path fill-rule="evenodd" clip-rule="evenodd" d="M425 29.5V13H427V29.5H425Z" fill="#c8d8fa"/>
<path fill-rule="evenodd" clip-rule="evenodd" d="M431 29.5V13H433V29.5H431Z" fill="#c8d8fa"/>
<path fill-rule="evenodd" clip-rule="evenodd" d="M437 29.5V13H439V29.5H437Z" fill="#c8d8fa"/>
<path fill-rule="evenodd" clip-rule="evenodd" d="M443 29.5V13H445V29.5H443Z" fill="#c8d8fa"/>
<path fill-rule="evenodd" clip-rule="evenodd" d="M449 29.5V13H451V29.5H449Z" fill="#c8d8fa"/>
<path fill-rule="evenodd" clip-rule="evenodd" d="M455 29.5V13H457V29.5H455Z" fill="#c8d8fa"/>
<path fill-rule="evenodd" clip-rule="evenodd" d="M461 29.5V13H463V29.5H461Z" fill="#c8d8fa"/>
<path fill-rule="evenodd" clip-rule="evenodd" d="M467 29.5V13H469V29.5H467Z" fill="#c8d8fa"/>
<path fill-rule="evenodd" clip-rule="evenodd" d="M473 29.5V13H475V29.5H473Z" fill="#c8d8fa"/>
<path fill-rule="evenodd" clip-rule="evenodd" d="M508 25C509.657 25 511 23.6569 511 22C511 20.3431 509.657 19 508 19C506.343 19 505 20.3431 505 22C505 23.6569 506.343 25 508 25ZM508 26C510.209 26 512 24.2091 512 22C512 19.7909 510.209 18 508 18C505.791 18 504 19.7909 504 22C504 24.2091 505.791 26 508 26Z" fill="#c8d8fa"/>
<path d="M530 22C530 24.2091 528.209 26 526 26C523.791 26 522 24.2091 522 22C522 19.7909 523.791 18 526 18C528.209 18 530 19.7909 530 22Z" fill="#c8d8fa"/>
<path d="M548 22C548 24.2091 546.209 26 544 26C541.791 26 540 24.2091 540 22C540 19.7909 541.791 18 544 18C546.209 18 548 19.7909 548 22Z" fill="#c8d8fa"/>
<path fill-rule="evenodd" clip-rule="evenodd" d="M576.998 24.3846C575.36 23.4643 573.559 23.073 572.434 22.998L572.567 21.0024C573.941 21.0941 576.041 21.5528 577.977 22.6409C579.928 23.7365 581.785 25.5157 582.47 28.2577C583.036 30.52 583.463 33.9577 583.92 37.6284C584.083 38.9426 584.25 40.2866 584.429 41.6173C585.121 46.7805 585.983 51.7296 587.395 54.553L585.606 55.4474C584.017 52.2709 583.129 46.9699 582.446 41.8832C582.257 40.4742 582.084 39.0794 581.917 37.7363C581.467 34.1197 581.064 30.8777 580.53 28.7428C580.015 26.6848 578.623 25.2973 576.998 24.3846Z" fill="#c8d8fa"/>
<path fill-rule="evenodd" clip-rule="evenodd" d="M576.998 24.3846C575.36 23.4643 573.559 23.073 572.434 22.998L572.567 21.0024C573.941 21.0941 576.041 21.5528 577.977 22.6409C579.928 23.7365 581.785 25.5157 582.47 28.2577C583.036 30.52 583.463 33.9577 583.92 37.6284C584.083 38.9426 584.25 40.2866 584.429 41.6173C585.121 46.7805 585.983 51.7296 587.395 54.553L585.606 55.4474C584.017 52.2709 583.129 46.9699 582.446 41.8832C582.257 40.4742 582.084 39.0794 581.917 37.7363C581.467 34.1197 581.064 30.8777 580.53 28.7428C580.015 26.6848 578.623 25.2973 576.998 24.3846Z" fill="url(#paint2_linear_275_1148)"/>
<path fill-rule="evenodd" clip-rule="evenodd" d="M583.501 83.032C583.115 71.0745 575.979 65.9968 572.697 64.9527L573.304 63.0469C577.356 64.3361 585.086 70.1252 585.5 82.9676C585.709 89.4451 588.068 96.1969 590.765 103.918C591.215 105.205 591.674 106.519 592.134 107.863C595.331 117.203 598.5 127.83 598.5 140.5H596.5C596.5 128.169 593.42 117.796 590.242 108.511C589.792 107.197 589.339 105.902 588.892 104.623C586.2 96.9298 583.721 89.8425 583.501 83.032Z" fill="#c8d8fa"/>
<path fill-rule="evenodd" clip-rule="evenodd" d="M583.501 83.032C583.115 71.0745 575.979 65.9968 572.697 64.9527L573.304 63.0469C577.356 64.3361 585.086 70.1252 585.5 82.9676C585.709 89.4451 588.068 96.1969 590.765 103.918C591.215 105.205 591.674 106.519 592.134 107.863C595.331 117.203 598.5 127.83 598.5 140.5H596.5C596.5 128.169 593.42 117.796 590.242 108.511C589.792 107.197 589.339 105.902 588.892 104.623C586.2 96.9298 583.721 89.8425 583.501 83.032Z" fill="url(#paint3_linear_275_1148)"/>
<path fill-rule="evenodd" clip-rule="evenodd" d="M576.789 110.57C575.164 109.274 573.267 108.927 572.059 108.998L571.941 107.002C573.567 106.906 575.97 107.359 578.036 109.006C580.138 110.68 581.787 113.507 581.999 117.953C582.248 123.188 582.746 130.506 584.169 137.809C585.597 145.133 587.935 152.327 591.796 157.394C595.142 161.787 597.426 169.108 598.941 176.319C600.466 183.576 601.246 190.902 601.499 195.444L599.502 195.555C599.254 191.098 598.485 183.874 596.984 176.731C595.474 169.542 593.258 162.613 590.205 158.606C586.065 153.173 583.653 145.617 582.206 138.191C580.755 130.744 580.252 123.312 580.001 118.048C579.813 114.093 578.379 111.837 576.789 110.57Z" fill="#c8d8fa"/>
<path fill-rule="evenodd" clip-rule="evenodd" d="M576.789 110.57C575.164 109.274 573.267 108.927 572.059 108.998L571.941 107.002C573.567 106.906 575.97 107.359 578.036 109.006C580.138 110.68 581.787 113.507 581.999 117.953C582.248 123.188 582.746 130.506 584.169 137.809C585.597 145.133 587.935 152.327 591.796 157.394C595.142 161.787 597.426 169.108 598.941 176.319C600.466 183.576 601.246 190.902 601.499 195.444L599.502 195.555C599.254 191.098 598.485 183.874 596.984 176.731C595.474 169.542 593.258 162.613 590.205 158.606C586.065 153.173 583.653 145.617 582.206 138.191C580.755 130.744 580.252 123.312 580.001 118.048C579.813 114.093 578.379 111.837 576.789 110.57Z" fill="url(#paint4_linear_275_1148)"/>
<path fill-rule="evenodd" clip-rule="evenodd" d="M575.605 154.345C574.442 153.055 573.376 152.254 572.6 151.917L573.398 150.083C574.539 150.579 575.831 151.608 577.09 153.006C578.364 154.419 579.655 156.265 580.778 158.472C583.024 162.886 584.614 168.782 583.995 175.591C583.382 182.335 581.541 186.647 579.412 189.487C577.281 192.331 574.92 193.615 573.467 194.384L572.531 192.616C573.911 191.886 575.951 190.77 577.811 188.288C579.674 185.803 581.416 181.865 582.003 175.41C582.584 169.018 581.091 163.498 578.995 159.379C577.947 157.318 576.753 155.619 575.605 154.345Z" fill="#c8d8fa"/>
<path fill-rule="evenodd" clip-rule="evenodd" d="M575.605 154.345C574.442 153.055 573.376 152.254 572.6 151.917L573.398 150.083C574.539 150.579 575.831 151.608 577.09 153.006C578.364 154.419 579.655 156.265 580.778 158.472C583.024 162.886 584.614 168.782 583.995 175.591C583.382 182.335 581.541 186.647 579.412 189.487C577.281 192.331 574.92 193.615 573.467 194.384L572.531 192.616C573.911 191.886 575.951 190.77 577.811 188.288C579.674 185.803 581.416 181.865 582.003 175.41C582.584 169.018 581.091 163.498 578.995 159.379C577.947 157.318 576.753 155.619 575.605 154.345Z" fill="url(#paint5_linear_275_1148)"/>
<path fill-rule="evenodd" clip-rule="evenodd" d="M578.556 239.425C575.95 238.35 573.455 238 572 238V236C573.712 236 576.466 236.4 579.319 237.575C582.179 238.754 585.194 240.738 587.332 243.945C587.513 244.216 587.688 244.482 587.861 244.743C589.56 247.314 590.927 249.382 593.528 251.08C596.401 252.956 600.873 254.424 609.1 255.25L608.9 257.24C600.555 256.402 595.705 254.89 592.435 252.755C589.471 250.82 587.882 248.41 586.206 245.868C586.028 245.598 585.85 245.327 585.668 245.055C583.806 242.262 581.155 240.496 578.556 239.425Z" fill="#c8d8fa"/>
<path fill-rule="evenodd" clip-rule="evenodd" d="M578.556 239.425C575.95 238.35 573.455 238 572 238V236C573.712 236 576.466 236.4 579.319 237.575C582.179 238.754 585.194 240.738 587.332 243.945C587.513 244.216 587.688 244.482 587.861 244.743C589.56 247.314 590.927 249.382 593.528 251.08C596.401 252.956 600.873 254.424 609.1 255.25L608.9 257.24C600.555 256.402 595.705 254.89 592.435 252.755C589.471 250.82 587.882 248.41 586.206 245.868C586.028 245.598 585.85 245.327 585.668 245.055C583.806 242.262 581.155 240.496 578.556 239.425Z" fill="url(#paint6_linear_275_1148)"/>
<path d="M372 47C372 44.7909 373.791 43 376 43H564C566.209 43 568 44.7909 568 47V82C568 84.2091 566.209 86 564 86H376C373.791 86 372 84.2091 372 82V47Z" fill="#d6e2fb"/>
<path d="M372 47C372 44.7909 373.791 43 376 43H564C566.209 43 568 44.7909 568 47V82C568 84.2091 566.209 86 564 86H376C373.791 86 372 84.2091 372 82V47Z" fill="url(#paint7_linear_275_1148)"/>
<path fill-rule="evenodd" clip-rule="evenodd" d="M383 72.5V56H385V72.5H383Z" fill="#c8d8fa"/>
<path fill-rule="evenodd" clip-rule="evenodd" d="M389 72.5V56H391V72.5H389Z" fill="#c8d8fa"/>
<path fill-rule="evenodd" clip-rule="evenodd" d="M395 72.5V56H397V72.5H395Z" fill="#c8d8fa"/>
<path fill-rule="evenodd" clip-rule="evenodd" d="M401 72.5V56H403V72.5H401Z" fill="#c8d8fa"/>
<path fill-rule="evenodd" clip-rule="evenodd" d="M407 72.5V56H409V72.5H407Z" fill="#c8d8fa"/>
<path fill-rule="evenodd" clip-rule="evenodd" d="M413 72.5V56H415V72.5H413Z" fill="#c8d8fa"/>
<path fill-rule="evenodd" clip-rule="evenodd" d="M419 72.5V56H421V72.5H419Z" fill="#c8d8fa"/>
<path fill-rule="evenodd" clip-rule="evenodd" d="M425 72.5V56H427V72.5H425Z" fill="#c8d8fa"/>
<path fill-rule="evenodd" clip-rule="evenodd" d="M431 72.5V56H433V72.5H431Z" fill="#c8d8fa"/>
<path fill-rule="evenodd" clip-rule="evenodd" d="M437 72.5V56H439V72.5H437Z" fill="#c8d8fa"/>
<path fill-rule="evenodd" clip-rule="evenodd" d="M443 72.5V56H445V72.5H443Z" fill="#c8d8fa"/>
<path fill-rule="evenodd" clip-rule="evenodd" d="M449 72.5V56H451V72.5H449Z" fill="#c8d8fa"/>
<path fill-rule="evenodd" clip-rule="evenodd" d="M455 72.5V56H457V72.5H455Z" fill="#c8d8fa"/>
<path fill-rule="evenodd" clip-rule="evenodd" d="M461 72.5V56H463V72.5H461Z" fill="#c8d8fa"/>
<path fill-rule="evenodd" clip-rule="evenodd" d="M467 72.5V56H469V72.5H467Z" fill="#c8d8fa"/>
<path fill-rule="evenodd" clip-rule="evenodd" d="M473 72.5V56H475V72.5H473Z" fill="#c8d8fa"/>
<path d="M512 65C512 67.2091 510.209 69 508 69C505.791 69 504 67.2091 504 65C504 62.7909 505.791 61 508 61C510.209 61 512 62.7909 512 65Z" fill="#c8d8fa"/>
<path fill-rule="evenodd" clip-rule="evenodd" d="M526 68C527.657 68 529 66.6569 529 65C529 63.3431 527.657 62 526 62C524.343 62 523 63.3431 523 65C523 66.6569 524.343 68 526 68ZM526 69C528.209 69 530 67.2091 530 65C530 62.7909 528.209 61 526 61C523.791 61 522 62.7909 522 65C522 67.2091 523.791 69 526 69Z" fill="#c8d8fa"/>
<path fill-rule="evenodd" clip-rule="evenodd" d="M544 68C545.657 68 547 66.6569 547 65C547 63.3431 545.657 62 544 62C542.343 62 541 63.3431 541 65C541 66.6569 542.343 68 544 68ZM544 69C546.209 69 548 67.2091 548 65C548 62.7909 546.209 61 544 61C541.791 61 540 62.7909 540 65C540 67.2091 541.791 69 544 69Z" fill="#c8d8fa"/>
<path d="M372 90C372 87.7909 373.791 86 376 86H564C566.209 86 568 87.7909 568 90V125C568 127.209 566.209 129 564 129H376C373.791 129 372 127.209 372 125V90Z" fill="#d6e2fb"/>
<path d="M372 90C372 87.7909 373.791 86 376 86H564C566.209 86 568 87.7909 568 90V125C568 127.209 566.209 129 564 129H376C373.791 129 372 127.209 372 125V90Z" fill="url(#paint8_linear_275_1148)"/>
<path fill-rule="evenodd" clip-rule="evenodd" d="M383 115.5V99H385V115.5H383Z" fill="#c8d8fa"/>
<path fill-rule="evenodd" clip-rule="evenodd" d="M389 115.5V99H391V115.5H389Z" fill="#c8d8fa"/>
<path fill-rule="evenodd" clip-rule="evenodd" d="M395 115.5V99H397V115.5H395Z" fill="#c8d8fa"/>
<path fill-rule="evenodd" clip-rule="evenodd" d="M401 115.5V99H403V115.5H401Z" fill="#c8d8fa"/>
<path fill-rule="evenodd" clip-rule="evenodd" d="M407 115.5V99H409V115.5H407Z" fill="#c8d8fa"/>
<path fill-rule="evenodd" clip-rule="evenodd" d="M413 115.5V99H415V115.5H413Z" fill="#c8d8fa"/>
<path fill-rule="evenodd" clip-rule="evenodd" d="M419 115.5V99H421V115.5H419Z" fill="#c8d8fa"/>
<path fill-rule="evenodd" clip-rule="evenodd" d="M425 115.5V99H427V115.5H425Z" fill="#c8d8fa"/>
<path fill-rule="evenodd" clip-rule="evenodd" d="M431 115.5V99H433V115.5H431Z" fill="#c8d8fa"/>
<path fill-rule="evenodd" clip-rule="evenodd" d="M437 115.5V99H439V115.5H437Z" fill="#c8d8fa"/>
<path fill-rule="evenodd" clip-rule="evenodd" d="M443 115.5V99H445V115.5H443Z" fill="#c8d8fa"/>
<path fill-rule="evenodd" clip-rule="evenodd" d="M449 115.5V99H451V115.5H449Z" fill="#c8d8fa"/>
<path fill-rule="evenodd" clip-rule="evenodd" d="M455 115.5V99H457V115.5H455Z" fill="#c8d8fa"/>
<path fill-rule="evenodd" clip-rule="evenodd" d="M461 115.5V99H463V115.5H461Z" fill="#c8d8fa"/>
<path fill-rule="evenodd" clip-rule="evenodd" d="M467 115.5V99H469V115.5H467Z" fill="#c8d8fa"/>
<path fill-rule="evenodd" clip-rule="evenodd" d="M473 115.5V99H475V115.5H473Z" fill="#c8d8fa"/>
<path d="M512 108C512 110.209 510.209 112 508 112C505.791 112 504 110.209 504 108C504 105.791 505.791 104 508 104C510.209 104 512 105.791 512 108Z" fill="#c8d8fa"/>
<path d="M530 108C530 110.209 528.209 112 526 112C523.791 112 522 110.209 522 108C522 105.791 523.791 104 526 104C528.209 104 530 105.791 530 108Z" fill="#c8d8fa"/>
<path fill-rule="evenodd" clip-rule="evenodd" d="M544 111C545.657 111 547 109.657 547 108C547 106.343 545.657 105 544 105C542.343 105 541 106.343 541 108C541 109.657 542.343 111 544 111ZM544 112C546.209 112 548 110.209 548 108C548 105.791 546.209 104 544 104C541.791 104 540 105.791 540 108C540 110.209 541.791 112 544 112Z" fill="#c8d8fa"/>
<path d="M372 133C372 130.791 373.791 129 376 129H564C566.209 129 568 130.791 568 133V168C568 170.209 566.209 172 564 172H376C373.791 172 372 170.209 372 168V133Z" fill="#d6e2fb"/>
<path d="M372 133C372 130.791 373.791 129 376 129H564C566.209 129 568 130.791 568 133V168C568 170.209 566.209 172 564 172H376C373.791 172 372 170.209 372 168V133Z" fill="url(#paint9_linear_275_1148)"/>
<path fill-rule="evenodd" clip-rule="evenodd" d="M383 158.5V142H385V158.5H383Z" fill="#c8d8fa"/>
<path fill-rule="evenodd" clip-rule="evenodd" d="M389 158.5V142H391V158.5H389Z" fill="#c8d8fa"/>
<path fill-rule="evenodd" clip-rule="evenodd" d="M395 158.5V142H397V158.5H395Z" fill="#c8d8fa"/>
<path fill-rule="evenodd" clip-rule="evenodd" d="M401 158.5V142H403V158.5H401Z" fill="#c8d8fa"/>
<path fill-rule="evenodd" clip-rule="evenodd" d="M407 158.5V142H409V158.5H407Z" fill="#c8d8fa"/>
<path fill-rule="evenodd" clip-rule="evenodd" d="M413 158.5V142H415V158.5H413Z" fill="#c8d8fa"/>
<path fill-rule="evenodd" clip-rule="evenodd" d="M419 158.5V142H421V158.5H419Z" fill="#c8d8fa"/>
<path fill-rule="evenodd" clip-rule="evenodd" d="M425 158.5V142H427V158.5H425Z" fill="#c8d8fa"/>
<path fill-rule="evenodd" clip-rule="evenodd" d="M431 158.5V142H433V158.5H431Z" fill="#c8d8fa"/>
<path fill-rule="evenodd" clip-rule="evenodd" d="M437 158.5V142H439V158.5H437Z" fill="#c8d8fa"/>
<path fill-rule="evenodd" clip-rule="evenodd" d="M443 158.5V142H445V158.5H443Z" fill="#c8d8fa"/>
<path fill-rule="evenodd" clip-rule="evenodd" d="M449 158.5V142H451V158.5H449Z" fill="#c8d8fa"/>
<path fill-rule="evenodd" clip-rule="evenodd" d="M455 158.5V142H457V158.5H455Z" fill="#c8d8fa"/>
<path fill-rule="evenodd" clip-rule="evenodd" d="M461 158.5V142H463V158.5H461Z" fill="#c8d8fa"/>
<path fill-rule="evenodd" clip-rule="evenodd" d="M467 158.5V142H469V158.5H467Z" fill="#c8d8fa"/>
<path fill-rule="evenodd" clip-rule="evenodd" d="M473 158.5V142H475V158.5H473Z" fill="#c8d8fa"/>
<path fill-rule="evenodd" clip-rule="evenodd" d="M508 154C509.657 154 511 152.657 511 151C511 149.343 509.657 148 508 148C506.343 148 505 149.343 505 151C505 152.657 506.343 154 508 154ZM508 155C510.209 155 512 153.209 512 151C512 148.791 510.209 147 508 147C505.791 147 504 148.791 504 151C504 153.209 505.791 155 508 155Z" fill="#c8d8fa"/>
<path d="M530 151C530 153.209 528.209 155 526 155C523.791 155 522 153.209 522 151C522 148.791 523.791 147 526 147C528.209 147 530 148.791 530 151Z" fill="#c8d8fa"/>
<path d="M548 151C548 153.209 546.209 155 544 155C541.791 155 540 153.209 540 151C540 148.791 541.791 147 544 147C546.209 147 548 148.791 548 151Z" fill="#c8d8fa"/>
<path d="M372 176C372 173.791 373.791 172 376 172H564C566.209 172 568 173.791 568 176V211C568 213.209 566.209 215 564 215H376C373.791 215 372 213.209 372 211V176Z" fill="#d6e2fb"/>
<path d="M372 176C372 173.791 373.791 172 376 172H564C566.209 172 568 173.791 568 176V211C568 213.209 566.209 215 564 215H376C373.791 215 372 213.209 372 211V176Z" fill="url(#paint10_linear_275_1148)"/>
<path fill-rule="evenodd" clip-rule="evenodd" d="M383 201.5V185H385V201.5H383Z" fill="#c8d8fa"/>
<path fill-rule="evenodd" clip-rule="evenodd" d="M389 201.5V185H391V201.5H389Z" fill="#c8d8fa"/>
<path fill-rule="evenodd" clip-rule="evenodd" d="M395 201.5V185H397V201.5H395Z" fill="#c8d8fa"/>
<path fill-rule="evenodd" clip-rule="evenodd" d="M401 201.5V185H403V201.5H401Z" fill="#c8d8fa"/>
<path fill-rule="evenodd" clip-rule="evenodd" d="M407 201.5V185H409V201.5H407Z" fill="#c8d8fa"/>
<path fill-rule="evenodd" clip-rule="evenodd" d="M413 201.5V185H415V201.5H413Z" fill="#c8d8fa"/>
<path fill-rule="evenodd" clip-rule="evenodd" d="M419 201.5V185H421V201.5H419Z" fill="#c8d8fa"/>
<path fill-rule="evenodd" clip-rule="evenodd" d="M425 201.5V185H427V201.5H425Z" fill="#c8d8fa"/>
<path fill-rule="evenodd" clip-rule="evenodd" d="M431 201.5V185H433V201.5H431Z" fill="#c8d8fa"/>
<path fill-rule="evenodd" clip-rule="evenodd" d="M437 201.5V185H439V201.5H437Z" fill="#c8d8fa"/>
<path fill-rule="evenodd" clip-rule="evenodd" d="M443 201.5V185H445V201.5H443Z" fill="#c8d8fa"/>
<path fill-rule="evenodd" clip-rule="evenodd" d="M449 201.5V185H451V201.5H449Z" fill="#c8d8fa"/>
<path fill-rule="evenodd" clip-rule="evenodd" d="M455 201.5V185H457V201.5H455Z" fill="#c8d8fa"/>
<path fill-rule="evenodd" clip-rule="evenodd" d="M461 201.5V185H463V201.5H461Z" fill="#c8d8fa"/>
<path fill-rule="evenodd" clip-rule="evenodd" d="M467 201.5V185H469V201.5H467Z" fill="#c8d8fa"/>
<path fill-rule="evenodd" clip-rule="evenodd" d="M473 201.5V185H475V201.5H473Z" fill="#c8d8fa"/>
<path d="M512 194C512 196.209 510.209 198 508 198C505.791 198 504 196.209 504 194C504 191.791 505.791 190 508 190C510.209 190 512 191.791 512 194Z" fill="#c8d8fa"/>
<path fill-rule="evenodd" clip-rule="evenodd" d="M526 197C527.657 197 529 195.657 529 194C529 192.343 527.657 191 526 191C524.343 191 523 192.343 523 194C523 195.657 524.343 197 526 197ZM526 198C528.209 198 530 196.209 530 194C530 191.791 528.209 190 526 190C523.791 190 522 191.791 522 194C522 196.209 523.791 198 526 198Z" fill="#c8d8fa"/>
<path d="M548 194C548 196.209 546.209 198 544 198C541.791 198 540 196.209 540 194C540 191.791 541.791 190 544 190C546.209 190 548 191.791 548 194Z" fill="#c8d8fa"/>
<path d="M372 219C372 216.791 373.791 215 376 215H564C566.209 215 568 216.791 568 219V254C568 256.209 566.209 258 564 258H376C373.791 258 372 256.209 372 254V219Z" fill="#d6e2fb"/>
<path d="M372 219C372 216.791 373.791 215 376 215H564C566.209 215 568 216.791 568 219V254C568 256.209 566.209 258 564 258H376C373.791 258 372 256.209 372 254V219Z" fill="url(#paint11_linear_275_1148)"/>
<path fill-rule="evenodd" clip-rule="evenodd" d="M383 244.5V228H385V244.5H383Z" fill="#c8d8fa"/>
<path fill-rule="evenodd" clip-rule="evenodd" d="M389 244.5V228H391V244.5H389Z" fill="#c8d8fa"/>
<path fill-rule="evenodd" clip-rule="evenodd" d="M395 244.5V228H397V244.5H395Z" fill="#c8d8fa"/>
<path fill-rule="evenodd" clip-rule="evenodd" d="M401 244.5V228H403V244.5H401Z" fill="#c8d8fa"/>
<path fill-rule="evenodd" clip-rule="evenodd" d="M407 244.5V228H409V244.5H407Z" fill="#c8d8fa"/>
<path fill-rule="evenodd" clip-rule="evenodd" d="M413 244.5V228H415V244.5H413Z" fill="#c8d8fa"/>
<path fill-rule="evenodd" clip-rule="evenodd" d="M419 244.5V228H421V244.5H419Z" fill="#c8d8fa"/>
<path fill-rule="evenodd" clip-rule="evenodd" d="M425 244.5V228H427V244.5H425Z" fill="#c8d8fa"/>
<path fill-rule="evenodd" clip-rule="evenodd" d="M431 244.5V228H433V244.5H431Z" fill="#c8d8fa"/>
<path fill-rule="evenodd" clip-rule="evenodd" d="M437 244.5V228H439V244.5H437Z" fill="#c8d8fa"/>
<path fill-rule="evenodd" clip-rule="evenodd" d="M443 244.5V228H445V244.5H443Z" fill="#c8d8fa"/>
<path fill-rule="evenodd" clip-rule="evenodd" d="M449 244.5V228H451V244.5H449Z" fill="#c8d8fa"/>
<path fill-rule="evenodd" clip-rule="evenodd" d="M455 244.5V228H457V244.5H455Z" fill="#c8d8fa"/>
<path fill-rule="evenodd" clip-rule="evenodd" d="M461 244.5V228H463V244.5H461Z" fill="#c8d8fa"/>
<path fill-rule="evenodd" clip-rule="evenodd" d="M467 244.5V228H469V244.5H467Z" fill="#c8d8fa"/>
<path fill-rule="evenodd" clip-rule="evenodd" d="M473 244.5V228H475V244.5H473Z" fill="#c8d8fa"/>
<path fill-rule="evenodd" clip-rule="evenodd" d="M508 240C509.657 240 511 238.657 511 237C511 235.343 509.657 234 508 234C506.343 234 505 235.343 505 237C505 238.657 506.343 240 508 240ZM508 241C510.209 241 512 239.209 512 237C512 234.791 510.209 233 508 233C505.791 233 504 234.791 504 237C504 239.209 505.791 241 508 241Z" fill="#c8d8fa"/>
<path d="M530 237C530 239.209 528.209 241 526 241C523.791 241 522 239.209 522 237C522 234.791 523.791 233 526 233C528.209 233 530 234.791 530 237Z" fill="#c8d8fa"/>
<path fill-rule="evenodd" clip-rule="evenodd" d="M544 240C545.657 240 547 238.657 547 237C547 235.343 545.657 234 544 234C542.343 234 541 235.343 541 237C541 238.657 542.343 240 544 240ZM544 241C546.209 241 548 239.209 548 237C548 234.791 546.209 233 544 233C541.791 233 540 234.791 540 237C540 239.209 541.791 241 544 241Z" fill="#c8d8fa"/>
<path d="M568 17H572C573.105 17 574 17.8954 574 19V25C574 26.1046 573.105 27 572 27H568V17Z" fill="#c8d8fa"/>
<path d="M568 59H572C573.105 59 574 59.8954 574 61V67C574 68.1046 573.105 69 572 69H568V59Z" fill="#c8d8fa"/>
<path d="M568 103H572C573.105 103 574 103.895 574 105V111C574 112.105 573.105 113 572 113H568V103Z" fill="#c8d8fa"/>
<path d="M568 146H572C573.105 146 574 146.895 574 148V154C574 155.105 573.105 156 572 156H568V146Z" fill="#c8d8fa"/>
<path d="M568 188H572C573.105 188 574 188.895 574 190V196C574 197.105 573.105 198 572 198H568V188Z" fill="#c8d8fa"/>
<path d="M568 232H572C573.105 232 574 232.895 574 234V240C574 241.105 573.105 242 572 242H568V232Z" fill="#c8d8fa"/>
<path fill-rule="evenodd" clip-rule="evenodd" d="M582.539 63.7251L583.539 60.2251L585.462 60.7745L584.462 64.2745L582.539 63.7251Z" fill="#c8d8fa" fill-opacity="0.4"/>
<path fill-rule="evenodd" clip-rule="evenodd" d="M588.02 63.1959L587.52 60.6959L589.481 60.3037L589.981 62.8037L588.02 63.1959Z" fill="#c8d8fa" fill-opacity="0.4"/>
<path fill-rule="evenodd" clip-rule="evenodd" d="M593.375 59.781L590.875 57.781L592.124 56.2192L594.624 58.2192L593.375 59.781Z" fill="#c8d8fa" fill-opacity="0.4"/>
<path fill-rule="evenodd" clip-rule="evenodd" d="M591.219 144.875L593.219 142.375L594.78 143.625L592.78 146.125L591.219 144.875Z" fill="#c8d8fa" fill-opacity="0.4"/>
<path fill-rule="evenodd" clip-rule="evenodd" d="M597 147.5V143.5H599V147.5H597Z" fill="#c8d8fa" fill-opacity="0.4"/>
<path fill-rule="evenodd" clip-rule="evenodd" d="M602.143 146.014L600.643 143.514L602.358 142.485L603.858 144.985L602.143 146.014Z" fill="#c8d8fa" fill-opacity="0.4"/>
<path fill-rule="evenodd" clip-rule="evenodd" d="M593.199 200.9L596.199 196.9L597.799 198.1L594.799 202.1L593.199 200.9Z" fill="#c8d8fa" fill-opacity="0.4"/>
<path fill-rule="evenodd" clip-rule="evenodd" d="M600.504 204.599L600.004 199.599L601.994 199.4L602.494 204.4L600.504 204.599Z" fill="#c8d8fa" fill-opacity="0.4"/>
<path fill-rule="evenodd" clip-rule="evenodd" d="M606.168 200.555L605.168 199.055L606.832 197.945L607.832 199.445L606.168 200.555Z" fill="#c8d8fa" fill-opacity="0.4"/>
<rect x="68" y="248" width="358" height="10" rx="2" fill="#c8d8fa"/>
<path d="M85 51C85 49.8954 85.8954 49 87 49H406C407.105 49 408 49.8954 408 51V248H85V51Z" fill="#d6e2fb"/>
<path d="M85 51C85 49.8954 85.8954 49 87 49H406C407.105 49 408 49.8954 408 51V248H85V51Z" fill="url(#paint12_linear_275_1148)"/>
<path fill-rule="evenodd" clip-rule="evenodd" d="M83.5 51C83.5 49.067 85.067 47.5 87 47.5H406C407.933 47.5 409.5 49.067 409.5 51V248H406.5V51C406.5 50.7239 406.276 50.5 406 50.5H87C86.7239 50.5 86.5 50.7239 86.5 51V248H83.5V51Z" fill="#2563eb"/>
<path fill-rule="evenodd" clip-rule="evenodd" d="M83.5 51C83.5 49.067 85.067 47.5 87 47.5H406C407.933 47.5 409.5 49.067 409.5 51V248H406.5V51C406.5 50.7239 406.276 50.5 406 50.5H87C86.7239 50.5 86.5 50.7239 86.5 51V248H83.5V51Z" fill="url(#paint13_linear_275_1148)"/>
<path d="M204 248H289V252C289 253.105 288.105 254 287 254H206C204.895 254 204 253.105 204 252V248Z" fill="url(#paint14_linear_275_1148)"/>
<path d="M236.09 86.8739C237.895 83.8512 241.156 82 244.676 82H247.324C250.844 82 254.105 83.8512 255.91 86.8739L323.969 200.874C327.949 207.539 323.146 216 315.383 216H176.617C168.854 216 164.051 207.539 168.031 200.874L236.09 86.8739Z" fill="#2563eb"/>
<path d="M250.426 128L249.83 171.909H242.909L242.312 128H250.426ZM246.369 189.568C244.898 189.568 243.635 189.041 242.581 187.987C241.527 186.933 241 185.67 241 184.199C241 182.727 241.527 181.464 242.581 180.411C243.635 179.357 244.898 178.83 246.369 178.83C247.841 178.83 249.104 179.357 250.158 180.411C251.212 181.464 251.739 182.727 251.739 184.199C251.739 185.173 251.49 186.068 250.993 186.884C250.516 187.699 249.869 188.355 249.054 188.852C248.259 189.33 247.364 189.568 246.369 189.568Z" fill="#d6e2fb"/>
<defs>
<linearGradient id="paint0_linear_275_1148" x1="52.5" y1="222" x2="52.5" y2="109" gradientUnits="userSpaceOnUse">
<stop stop-color="#c8d8fa"/>
<stop offset="1" stop-color="#c8d8fa" stop-opacity="0"/>
</linearGradient>
<linearGradient id="paint1_linear_275_1148" x1="470" y1="64.5" x2="470" y2="22" gradientUnits="userSpaceOnUse">
<stop stop-color="#c8d8fa"/>
<stop offset="1" stop-color="#c8d8fa" stop-opacity="0"/>
</linearGradient>
<linearGradient id="paint2_linear_275_1148" x1="579.5" y1="22.0002" x2="582.56" y2="42.8176" gradientUnits="userSpaceOnUse">
<stop stop-color="#9ab7f6"/>
<stop offset="1" stop-color="#9ab7f6" stop-opacity="0"/>
</linearGradient>
<linearGradient id="paint3_linear_275_1148" x1="585.25" y1="63.9998" x2="594.5" y2="111.5" gradientUnits="userSpaceOnUse">
<stop stop-color="#9ab7f6"/>
<stop offset="1" stop-color="#9ab7f6" stop-opacity="0"/>
</linearGradient>
<linearGradient id="paint4_linear_275_1148" x1="586.25" y1="107.99" x2="596.668" y2="162.392" gradientUnits="userSpaceOnUse">
<stop stop-color="#9ab7f6"/>
<stop offset="1" stop-color="#9ab7f6" stop-opacity="0"/>
</linearGradient>
<linearGradient id="paint5_linear_275_1148" x1="578.064" y1="151" x2="584.772" y2="176.635" gradientUnits="userSpaceOnUse">
<stop stop-color="#9ab7f6"/>
<stop offset="1" stop-color="#9ab7f6" stop-opacity="0"/>
</linearGradient>
<linearGradient id="paint6_linear_275_1148" x1="590.5" y1="237" x2="590.902" y2="249.39" gradientUnits="userSpaceOnUse">
<stop stop-color="#9ab7f6"/>
<stop offset="1" stop-color="#9ab7f6" stop-opacity="0"/>
</linearGradient>
<linearGradient id="paint7_linear_275_1148" x1="470" y1="107.5" x2="470" y2="65" gradientUnits="userSpaceOnUse">
<stop stop-color="#c8d8fa"/>
<stop offset="1" stop-color="#c8d8fa" stop-opacity="0"/>
</linearGradient>
<linearGradient id="paint8_linear_275_1148" x1="470" y1="150.5" x2="470" y2="108" gradientUnits="userSpaceOnUse">
<stop stop-color="#c8d8fa"/>
<stop offset="1" stop-color="#c8d8fa" stop-opacity="0"/>
</linearGradient>
<linearGradient id="paint9_linear_275_1148" x1="470" y1="193.5" x2="470" y2="151" gradientUnits="userSpaceOnUse">
<stop stop-color="#c8d8fa"/>
<stop offset="1" stop-color="#c8d8fa" stop-opacity="0"/>
</linearGradient>
<linearGradient id="paint10_linear_275_1148" x1="470" y1="236.5" x2="470" y2="194" gradientUnits="userSpaceOnUse">
<stop stop-color="#c8d8fa"/>
<stop offset="1" stop-color="#c8d8fa" stop-opacity="0"/>
</linearGradient>
<linearGradient id="paint11_linear_275_1148" x1="470" y1="279.5" x2="470" y2="237" gradientUnits="userSpaceOnUse">
<stop stop-color="#c8d8fa"/>
<stop offset="1" stop-color="#c8d8fa" stop-opacity="0"/>
</linearGradient>
<linearGradient id="paint12_linear_275_1148" x1="246.5" y1="-140" x2="246.5" y2="248" gradientUnits="userSpaceOnUse">
<stop stop-color="#9ab7f6"/>
<stop offset="1" stop-color="#9ab7f6" stop-opacity="0"/>
</linearGradient>
<linearGradient id="paint13_linear_275_1148" x1="246.5" y1="-18" x2="246.5" y2="248" gradientUnits="userSpaceOnUse">
<stop stop-color="#9ab7f6"/>
<stop offset="1" stop-color="#9ab7f6" stop-opacity="0"/>
</linearGradient>
<linearGradient id="paint14_linear_275_1148" x1="246.5" y1="276.125" x2="246.5" y2="248" gradientUnits="userSpaceOnUse">
<stop stop-color="#2563eb"/>
<stop offset="1" stop-color="#2563eb" stop-opacity="0"/>
</linearGradient>
</defs>
</svg>