<svg class="w-auto max-w-[16rem] h-40 text-gray-800 dark:text-white" aria-hidden="true" width="571" height="638" viewBox="0 0 571 638" fill="none" xmlns="http://www.w3.org/2000/svg">
<path d="M0 590C0 586.686 2.68629 584 6 584H288C291.314 584 294 586.686 294 590V631C294 634.314 291.314 637 288 637H6C2.68629 637 0 634.314 0 631V590Z" fill="#d6e2fb"/>
<path d="M0 590C0 586.686 2.68629 584 6 584H288C291.314 584 294 586.686 294 590V631C294 634.314 291.314 637 288 637H6C2.68629 637 0 634.314 0 631V590Z" fill="url(#paint0_linear_204_2293)"/>
<path fill-rule="evenodd" clip-rule="evenodd" d="M126.698 364.891C126.698 367.233 126.272 369.476 125.492 371.546C124.844 373.268 125.288 375.285 126.694 376.472C133.056 381.844 137.097 389.88 137.097 398.859C137.097 402.037 136.591 405.096 135.655 407.961C135.169 409.448 135.578 411.105 136.741 412.152C145.472 420.019 150.961 431.415 150.961 444.093C150.961 467.83 131.718 487.074 107.981 487.074C84.2431 487.074 65 467.83 65 444.093C65 431.533 70.3871 420.232 78.9766 412.373C80.131 411.317 80.5275 409.657 80.0303 408.174C79.0495 405.248 78.5181 402.116 78.5181 398.859C78.5181 389.88 82.5588 381.844 88.9209 376.472C90.3267 375.285 90.7708 373.268 90.1225 371.546C89.3431 369.476 88.9167 367.233 88.9167 364.891C88.9167 354.458 97.3743 346 107.807 346C118.24 346 126.698 354.458 126.698 364.891Z" fill="#d6e2fb"/>
<path fill-rule="evenodd" clip-rule="evenodd" d="M107.634 363.717C108.186 363.717 108.634 364.165 108.634 364.717L108.634 530.747C108.634 531.3 108.186 531.747 107.634 531.747C107.082 531.747 106.634 531.3 106.634 530.747L106.634 364.717C106.634 364.165 107.082 363.717 107.634 363.717Z" fill="#9ab7f6"/>
<path fill-rule="evenodd" clip-rule="evenodd" d="M127.28 438.774C127.729 439.095 127.833 439.719 127.512 440.169L108.448 466.858C108.127 467.308 107.502 467.412 107.053 467.091C106.604 466.77 106.5 466.145 106.821 465.696L125.885 439.006C126.206 438.557 126.83 438.453 127.28 438.774Z" fill="#9ab7f6"/>
<path fill-rule="evenodd" clip-rule="evenodd" d="M87.989 397.526C87.5396 397.847 87.4355 398.471 87.7565 398.921L106.821 425.61C107.142 426.06 107.766 426.164 108.215 425.843C108.665 425.522 108.769 424.897 108.448 424.448L89.384 397.758C89.063 397.309 88.4384 397.205 87.989 397.526Z" fill="#9ab7f6"/>
<path d="M80.6895 506.839C80.6396 505.701 81.5486 504.751 82.6875 504.751H132.927C134.066 504.751 134.975 505.701 134.925 506.839L131.635 581.868C131.588 582.937 130.707 583.78 129.637 583.78H85.9783C84.9078 583.78 84.0271 582.937 83.9802 581.868L80.6895 506.839Z" fill="#d6e2fb"/>
<path d="M80.6895 506.839C80.6396 505.701 81.5486 504.751 82.6875 504.751H132.927C134.066 504.751 134.975 505.701 134.925 506.839L131.635 581.868C131.588 582.937 130.707 583.78 129.637 583.78H85.9783C84.9078 583.78 84.0271 582.937 83.9802 581.868L80.6895 506.839Z" fill="url(#paint1_linear_204_2293)"/>
<path d="M39 28C39 24.6863 41.6863 22 45 22H411C414.314 22 417 24.6863 417 28V307C417 310.314 414.314 313 411 313H45C41.6863 313 39 310.314 39 307V28Z" fill="#d6e2fb"/>
<path d="M39 28C39 24.6863 41.6863 22 45 22H411C414.314 22 417 24.6863 417 28V307C417 310.314 414.314 313 411 313H45C41.6863 313 39 310.314 39 307V28Z" fill="url(#paint2_linear_204_2293)"/>
<path d="M61 6C61 2.68629 63.6863 0 67 0H433C436.314 0 439 2.68629 439 6V285C439 288.314 436.314 291 433 291H67C63.6863 291 61 288.314 61 285V6Z" fill="#d6e2fb"/>
<path d="M61 6C61 2.68629 63.6863 0 67 0H433C436.314 0 439 2.68629 439 6V285C439 288.314 436.314 291 433 291H67C63.6863 291 61 288.314 61 285V6Z" fill="url(#paint3_linear_204_2293)"/>
<path d="M170.549 133.927C170.849 133.006 172.152 133.006 172.451 133.927L175.205 142.401C175.339 142.813 175.723 143.092 176.156 143.092L185.066 143.092C186.035 143.092 186.438 144.332 185.654 144.901L178.445 150.139C178.095 150.393 177.948 150.845 178.082 151.257L180.836 159.731C181.135 160.652 180.08 161.418 179.297 160.849L172.088 155.611C171.738 155.357 171.263 155.357 170.913 155.611L163.704 160.849C162.92 161.418 161.866 160.652 162.165 159.731L164.919 151.257C165.052 150.845 164.906 150.393 164.555 150.139L157.347 144.901C156.563 144.332 156.966 143.092 157.935 143.092L166.845 143.092C167.278 143.092 167.662 142.813 167.796 142.401L170.549 133.927Z" fill="#2563eb"/>
<path d="M209.549 133.927C209.849 133.006 211.152 133.006 211.451 133.927L214.205 142.401C214.339 142.813 214.723 143.092 215.156 143.092L224.066 143.092C225.035 143.092 225.438 144.332 224.654 144.901L217.445 150.139C217.095 150.393 216.948 150.845 217.082 151.257L219.836 159.731C220.135 160.652 219.08 161.418 218.297 160.849L211.088 155.611C210.738 155.357 210.263 155.357 209.913 155.611L202.704 160.849C201.92 161.418 200.866 160.652 201.165 159.731L203.919 151.257C204.052 150.845 203.906 150.393 203.555 150.139L196.347 144.901C195.563 144.332 195.966 143.092 196.935 143.092L205.845 143.092C206.278 143.092 206.662 142.813 206.796 142.401L209.549 133.927Z" fill="#2563eb"/>
<path d="M248.549 133.927C248.849 133.006 250.152 133.006 250.451 133.927L253.205 142.401C253.339 142.813 253.723 143.092 254.156 143.092L263.066 143.092C264.035 143.092 264.438 144.332 263.654 144.901L256.445 150.139C256.095 150.393 255.948 150.845 256.082 151.257L258.836 159.731C259.135 160.652 258.08 161.418 257.297 160.849L250.088 155.611C249.738 155.357 249.263 155.357 248.913 155.611L241.704 160.849C240.92 161.418 239.866 160.652 240.165 159.731L242.919 151.257C243.052 150.845 242.906 150.393 242.555 150.139L235.347 144.901C234.563 144.332 234.966 143.092 235.935 143.092L244.845 143.092C245.278 143.092 245.662 142.813 245.796 142.401L248.549 133.927Z" fill="#2563eb"/>
<path d="M287.549 133.927C287.849 133.006 289.152 133.006 289.451 133.927L292.205 142.401C292.339 142.813 292.723 143.092 293.156 143.092L302.066 143.092C303.035 143.092 303.438 144.332 302.654 144.901L295.445 150.139C295.095 150.393 294.948 150.845 295.082 151.257L297.836 159.731C298.135 160.652 297.08 161.418 296.297 160.849L289.088 155.611C288.738 155.357 288.263 155.357 287.913 155.611L280.704 160.849C279.92 161.418 278.866 160.652 279.165 159.731L281.919 151.257C282.052 150.845 281.906 150.393 281.555 150.139L274.347 144.901C273.563 144.332 273.966 143.092 274.935 143.092L283.845 143.092C284.278 143.092 284.662 142.813 284.796 142.401L287.549 133.927Z" fill="#2563eb"/>
<path d="M326.549 133.927C326.849 133.006 328.152 133.006 328.451 133.927L331.205 142.401C331.339 142.813 331.723 143.092 332.156 143.092L341.066 143.092C342.035 143.092 342.438 144.332 341.654 144.901L334.445 150.139C334.095 150.393 333.948 150.845 334.082 151.257L336.836 159.731C337.135 160.652 336.08 161.418 335.297 160.849L328.088 155.611C327.738 155.357 327.263 155.357 326.913 155.611L319.704 160.849C318.92 161.418 317.866 160.652 318.165 159.731L320.919 151.257C321.052 150.845 320.906 150.393 320.555 150.139L313.347 144.901C312.563 144.332 312.966 143.092 313.935 143.092L322.845 143.092C323.278 143.092 323.662 142.813 323.796 142.401L326.549 133.927Z" fill="#c8d8fa"/>
<path d="M194 105C194 103.343 195.343 102 197 102H303C304.657 102 306 103.343 306 105C306 106.657 304.657 108 303 108H197C195.343 108 194 106.657 194 105Z" fill="#c8d8fa"/>
<path d="M277 60C277 74.9117 264.912 87 250 87C235.088 87 223 74.9117 223 60C223 45.0883 235.088 33 250 33C264.912 33 277 45.0883 277 60Z" fill="white"/>
<path d="M250.147 58.63C252.935 58.63 255.195 56.37 255.195 53.5821C255.195 50.7942 252.935 48.5342 250.147 48.5342C247.359 48.5342 245.099 50.7942 245.099 53.5821C245.099 56.37 247.359 58.63 250.147 58.63Z" fill="#d6e2fb"/>
<path d="M247.262 62.9568H253.031C254.561 62.9568 256.029 63.5646 257.111 64.6465C258.193 65.7284 258.8 67.1958 258.8 68.7259V71.6104H241.493V68.7259C241.493 67.1958 242.101 65.7284 243.183 64.6465C244.265 63.5646 245.732 62.9568 247.262 62.9568Z" fill="#d6e2fb"/>
<path fill-rule="evenodd" clip-rule="evenodd" d="M313.596 455H271.137C270.287 455 269.599 455.688 269.599 456.538V468.568C269.599 469.418 270.287 470.106 271.137 470.106H313.596C314.446 470.106 315.135 469.418 315.135 468.568V456.538C315.135 455.688 314.446 455 313.596 455ZM271.137 453C269.183 453 267.599 454.584 267.599 456.538V468.568C267.599 470.522 269.183 472.106 271.137 472.106H313.596C315.55 472.106 317.135 470.522 317.135 468.568V456.538C317.135 454.584 315.55 453 313.596 453H271.137Z" fill="#d6e2fb"/>
<path fill-rule="evenodd" clip-rule="evenodd" d="M285.998 479.768H243.538C242.689 479.768 242 480.456 242 481.306V493.336C242 494.186 242.689 494.874 243.538 494.874H285.998C286.847 494.874 287.536 494.186 287.536 493.336V481.306C287.536 480.456 286.847 479.768 285.998 479.768ZM243.538 477.768C241.584 477.768 240 479.352 240 481.306V493.336C240 495.29 241.584 496.874 243.538 496.874H285.998C287.952 496.874 289.536 495.29 289.536 493.336V481.306C289.536 479.352 287.952 477.768 285.998 477.768H243.538Z" fill="#d6e2fb"/>
<path fill-rule="evenodd" clip-rule="evenodd" d="M341.195 479.768H298.736C297.886 479.768 297.197 480.456 297.197 481.306V493.336C297.197 494.186 297.886 494.874 298.736 494.874H341.195C342.045 494.874 342.733 494.186 342.733 493.336V481.306C342.733 480.456 342.045 479.768 341.195 479.768ZM298.736 477.768C296.781 477.768 295.197 479.352 295.197 481.306V493.336C295.197 495.29 296.781 496.874 298.736 496.874H341.195C343.149 496.874 344.733 495.29 344.733 493.336V481.306C344.733 479.352 343.149 477.768 341.195 477.768H298.736Z" fill="#d6e2fb"/>
<path fill-rule="evenodd" clip-rule="evenodd" d="M497.137 65.8748L539.596 65.8748C540.446 65.8748 541.135 65.186 541.135 64.3365L541.135 52.3063C541.135 51.4567 540.446 50.768 539.596 50.768L497.137 50.768C496.288 50.768 495.599 51.4567 495.599 52.3063L495.599 64.3365C495.599 65.186 496.288 65.8748 497.137 65.8748ZM539.596 67.8748C541.551 67.8748 543.135 66.2906 543.135 64.3365L543.135 52.3063C543.135 50.3522 541.551 48.768 539.596 48.768L497.137 48.768C495.183 48.768 493.599 50.3522 493.599 52.3063L493.599 64.3365C493.599 66.2906 495.183 67.8748 497.137 67.8748L539.596 67.8748Z" fill="#d6e2fb"/>
<path fill-rule="evenodd" clip-rule="evenodd" d="M524.736 41.1067L567.195 41.1067C568.045 41.1067 568.733 40.418 568.733 39.5684L568.733 27.5382C568.733 26.6887 568.045 26 567.195 26L524.736 26C523.886 26 523.197 26.6887 523.197 27.5382L523.197 39.5684C523.197 40.418 523.886 41.1067 524.736 41.1067ZM567.195 43.1067C569.149 43.1067 570.733 41.5226 570.733 39.5684L570.733 27.5382C570.733 25.5841 569.149 24 567.195 24L524.736 24C522.782 24 521.197 25.5841 521.197 27.5382L521.197 39.5684C521.197 41.5225 522.782 43.1067 524.736 43.1067L567.195 43.1067Z" fill="#d6e2fb"/>
<path fill-rule="evenodd" clip-rule="evenodd" d="M469.538 41.1067L511.998 41.1067C512.847 41.1067 513.536 40.418 513.536 39.5684L513.536 27.5382C513.536 26.6887 512.847 26 511.998 26L469.538 26C468.689 26 468 26.6887 468 27.5382L468 39.5684C468 40.418 468.689 41.1067 469.538 41.1067ZM511.998 43.1067C513.952 43.1067 515.536 41.5226 515.536 39.5684L515.536 27.5382C515.536 25.5841 513.952 24 511.998 24L469.538 24C467.584 24 466 25.5841 466 27.5382L466 39.5684C466 41.5225 467.584 43.1067 469.538 43.1067L511.998 43.1067Z" fill="#d6e2fb"/>
<path d="M461.434 121C474.434 124 457.434 149 448.434 156.5C445.267 148.667 437.134 131.9 429.934 127.5C420.934 122 421.434 110.5 440.934 110.5C456.534 110.5 461.434 115.5 461.434 121Z" fill="#111928"/>
<path d="M451.411 176.056L448.345 143.205L435.205 147.585L435.643 176.056H451.411Z" fill="#FDBA8C"/>
<path d="M451.411 176.056L448.345 143.205L435.205 147.585L435.643 176.056H451.411Z" fill="url(#paint4_linear_204_2293)"/>
<path d="M431.262 155.469C423.203 153.367 426.444 132.693 429.072 122.618C435.204 121.742 440.023 138.387 443.089 134.445C446.155 130.503 451.849 130.941 452.287 135.759C452.725 140.577 441.336 158.097 431.262 155.469Z" fill="#FDBA8C"/>
<path d="M432.256 136.055C432.353 136.628 431.967 137.172 431.393 137.269C430.819 137.366 430.276 136.98 430.179 136.406C430.082 135.832 430.468 135.289 431.042 135.192C431.616 135.094 432.159 135.481 432.256 136.055Z" fill="#111928"/>
<path fill-rule="evenodd" clip-rule="evenodd" d="M430.411 132.318C429.678 132.451 429.134 132.862 428.644 133.394C428.455 133.6 428.134 133.613 427.928 133.423C427.722 133.234 427.709 132.913 427.899 132.708C428.465 132.093 429.194 131.509 430.23 131.321C431.26 131.133 432.508 131.353 434.088 132.155C434.337 132.281 434.437 132.586 434.31 132.836C434.183 133.085 433.878 133.185 433.629 133.058C432.166 132.315 431.149 132.183 430.411 132.318Z" fill="#111928"/>
<path fill-rule="evenodd" clip-rule="evenodd" d="M427.071 135.509C427.347 135.55 427.538 135.808 427.497 136.085L426.465 142.978C426.447 143.101 426.546 143.21 426.671 143.203L429.651 143.022C429.93 143.005 430.171 143.218 430.187 143.498C430.204 143.777 429.992 144.017 429.712 144.034L426.732 144.214C425.964 144.26 425.349 143.588 425.463 142.828L426.495 135.935C426.536 135.658 426.794 135.467 427.071 135.509Z" fill="#111928"/>
<path fill-rule="evenodd" clip-rule="evenodd" d="M430.711 147.112C431.339 146.963 431.988 146.697 432.975 146.264C433.231 146.152 433.53 146.269 433.642 146.525C433.755 146.781 433.638 147.08 433.382 147.192C432.403 147.621 431.675 147.925 430.945 148.098C430.202 148.274 429.48 148.311 428.504 148.245C428.225 148.226 428.014 147.984 428.033 147.705C428.052 147.426 428.294 147.215 428.573 147.234C429.483 147.296 430.097 147.258 430.711 147.112Z" fill="#111928"/>
<path fill-rule="evenodd" clip-rule="evenodd" d="M448.959 138.13C449.248 137.444 449.202 136.764 449.025 136.063C448.956 135.791 449.121 135.516 449.392 135.447C449.663 135.379 449.939 135.543 450.007 135.814C450.212 136.625 450.302 137.554 449.893 138.524C449.486 139.489 448.619 140.414 447.084 141.297C446.841 141.437 446.531 141.353 446.392 141.11C446.252 140.868 446.336 140.558 446.579 140.419C448 139.601 448.668 138.822 448.959 138.13Z" fill="#111928"/>
<path d="M325.286 164.177C325.814 163.365 327.073 163.702 327.124 164.67L327.59 173.568C327.613 174 327.911 174.369 328.33 174.481L336.936 176.787C337.872 177.038 337.94 178.34 337.036 178.687L328.718 181.88C328.313 182.035 328.055 182.433 328.077 182.866L328.544 191.764C328.594 192.731 327.377 193.199 326.768 192.446L321.16 185.521C320.888 185.184 320.429 185.062 320.025 185.217L311.706 188.41C310.802 188.757 309.982 187.744 310.509 186.932L315.362 179.459C315.598 179.096 315.573 178.622 315.301 178.285L309.693 171.36C309.084 170.608 309.794 169.514 310.729 169.765L319.336 172.071C319.754 172.183 320.198 172.013 320.433 171.65L325.286 164.177Z" fill="#2563eb"/>
<path d="M495.228 631.215H428.65V635.321C428.65 636.44 429.557 637.347 430.676 637.347H493.201C494.32 637.347 495.228 636.44 495.228 635.321V631.215Z" fill="#2563eb"/>
<path d="M495.228 631.215L489.095 587.414L463.691 577.34C466.173 588.728 462.377 612.381 450.112 615.885C433.593 620.605 428.796 627.565 428.65 631.215H495.228Z" fill="#d6e2fb"/>
<path d="M495.228 631.215L489.095 587.414L463.691 577.34C466.173 588.728 462.377 612.381 450.112 615.885C433.593 620.605 428.796 627.565 428.65 631.215H495.228Z" fill="url(#paint5_linear_204_2293)"/>
<path fill-rule="evenodd" clip-rule="evenodd" d="M441.176 619.11C440.497 619.419 439.852 619.731 439.239 620.046C441.433 622.156 444.994 624.417 449.745 624.749C455.968 625.184 481.072 624.96 494.326 624.775L494.047 622.779C480.693 622.963 455.966 623.179 449.884 622.754C446.061 622.487 443.113 620.791 441.176 619.11Z" fill="#c8d8fa"/>
<path d="M415.511 631.215H348.933V635.321C348.933 636.44 349.84 637.347 350.96 637.347H413.484C414.603 637.347 415.511 636.44 415.511 635.321V631.215Z" fill="#2563eb"/>
<path d="M420.767 576.464L415.51 631.215H348.933C350.685 622.893 355.065 623.331 375.652 614.133C392.121 606.774 396.238 585.954 396.238 576.464H420.767Z" fill="#d6e2fb"/>
<path d="M420.767 576.464L415.51 631.215H348.933C350.685 622.893 355.065 623.331 375.652 614.133C392.121 606.774 396.238 585.954 396.238 576.464H420.767Z" fill="url(#paint6_linear_204_2293)"/>
<path fill-rule="evenodd" clip-rule="evenodd" d="M364.807 618.779C366.728 620.562 369.81 622.469 373.884 622.754C379.712 623.161 402.662 622.98 416.318 622.802L416.126 624.805C402.467 624.981 379.638 625.161 373.745 624.749C368.665 624.394 364.945 621.833 362.802 619.61C363.16 619.461 363.528 619.309 363.906 619.152C364.201 619.03 364.501 618.906 364.807 618.779Z" fill="#c8d8fa"/>
<path d="M498.532 588.708L470.261 277.302L462.377 273.798L432.593 405.201L456.02 589.147C456.149 590.159 457.01 590.918 458.03 590.918H496.513C497.705 590.918 498.639 589.895 498.532 588.708Z" fill="#2563eb"/>
<path d="M498.532 588.708L470.261 277.302L462.377 273.798L432.593 405.201L456.02 589.147C456.149 590.159 457.01 590.918 458.03 590.918H496.513C497.705 590.918 498.639 589.895 498.532 588.708Z" fill="url(#paint7_linear_204_2293)"/>
<path fill-rule="evenodd" clip-rule="evenodd" d="M454.055 576.163L497.856 576.163L497.856 574.136L454.055 574.136L454.055 576.163Z" fill="#c8d8fa"/>
<path d="M429.76 588.719L470.263 281.682L413.411 281.682L385.521 588.244C385.397 589.44 386.334 590.48 387.536 590.48H427.751C428.768 590.48 429.627 589.727 429.76 588.719Z" fill="#2563eb"/>
<path fill-rule="evenodd" clip-rule="evenodd" d="M386.601 576.163L432.154 576.163L432.154 574.136L386.601 574.136L386.601 576.163Z" fill="#c8d8fa"/>
<path d="M323.933 185.5C333.133 185.5 350.766 196.167 358.433 201.5V218C352.433 213 338.233 202.1 329.433 198.5C318.433 194 312.433 185.5 323.933 185.5Z" fill="#FDBA8C"/>
<path d="M323.933 185.5C333.133 185.5 350.766 196.167 358.433 201.5V218C352.433 213 338.233 202.1 329.433 198.5C318.433 194 312.433 185.5 323.933 185.5Z" fill="url(#paint8_linear_204_2293)"/>
<path d="M473.08 237.005L473.079 240.509V280.028C473.079 281.147 472.172 282.054 471.053 282.054H451.617H412.41C411.306 282.054 410.41 281.173 410.418 280.068C410.653 250.108 416.014 199.004 417.042 194.206C418.356 188.073 426.03 166.485 448.807 170.428C466.434 173.478 473.08 209.5 473.08 237.005Z" fill="#F9FAFB"/>
<path d="M473.08 237.005L473.079 240.509V280.028C473.079 281.147 472.172 282.054 471.053 282.054H451.617H412.41C411.306 282.054 410.41 281.173 410.418 280.068C410.653 250.108 416.014 199.004 417.042 194.206C418.356 188.073 426.03 166.485 448.807 170.428C466.434 173.478 473.08 209.5 473.08 237.005Z" fill="url(#paint9_linear_204_2293)"/>
<path d="M473.08 237.005L473.079 240.509V280.028C473.079 281.147 472.172 282.054 471.053 282.054H451.617H412.41C411.306 282.054 410.41 281.173 410.418 280.068C410.653 250.108 416.014 199.004 417.042 194.206C418.356 188.073 426.03 166.485 448.807 170.428C466.434 173.478 473.08 209.5 473.08 237.005Z" fill="url(#paint10_linear_204_2293)"/>
<path fill-rule="evenodd" clip-rule="evenodd" d="M412.979 233.023L423.932 238.5C431.099 228 446.932 205.333 452.432 203.5C462.932 200 474.432 214 460.432 240C446.505 265.865 433.072 278.865 410.781 266.692C411.238 255.942 412.066 244.038 412.979 233.023Z" fill="url(#paint11_linear_204_2293)"/>
<path d="M423.933 231.5L360.552 199.809C359.095 199.081 357.324 199.648 356.56 201.087L346.31 220.406C345.545 221.847 346.064 223.631 347.489 224.426C362.903 233.028 393.432 250.055 410.433 259.5C432.933 272 446.433 259 460.433 233C474.433 207 462.933 193 452.433 196.5C446.933 198.333 431.1 221 423.933 231.5Z" fill="#F9FAFB"/>
<defs>
<linearGradient id="paint0_linear_204_2293" x1="212" y1="474" x2="212" y2="611" gradientUnits="userSpaceOnUse">
<stop stop-color="#9ab7f6"/>
<stop offset="1" stop-color="#9ab7f6" stop-opacity="0"/>
</linearGradient>
<linearGradient id="paint1_linear_204_2293" x1="200.32" y1="558.369" x2="42.7637" y2="558.369" gradientUnits="userSpaceOnUse">
<stop stop-color="#9ab7f6"/>
<stop offset="1" stop-color="#9ab7f6" stop-opacity="0"/>
</linearGradient>
<linearGradient id="paint2_linear_204_2293" x1="323.376" y1="455.628" x2="319.319" y2="163.978" gradientUnits="userSpaceOnUse">
<stop stop-color="#c8d8fa"/>
<stop offset="1" stop-color="#c8d8fa" stop-opacity="0"/>
</linearGradient>
<linearGradient id="paint3_linear_204_2293" x1="250" y1="377.261" x2="250" y2="82.1036" gradientUnits="userSpaceOnUse">
<stop stop-color="#F9FAFB"/>
<stop offset="1" stop-color="#F9FAFB" stop-opacity="0"/>
</linearGradient>
<linearGradient id="paint4_linear_204_2293" x1="418.56" y1="134.883" x2="443.221" y2="169.043" gradientUnits="userSpaceOnUse">
<stop stop-color="#7F270F"/>
<stop offset="1" stop-color="#7F270F" stop-opacity="0"/>
</linearGradient>
<linearGradient id="paint5_linear_204_2293" x1="446.539" y1="568.142" x2="446.539" y2="617.637" gradientUnits="userSpaceOnUse">
<stop stop-color="#c8d8fa"/>
<stop offset="1" stop-color="#c8d8fa" stop-opacity="0"/>
</linearGradient>
<linearGradient id="paint6_linear_204_2293" x1="368.234" y1="567.116" x2="368.234" y2="617.416" gradientUnits="userSpaceOnUse">
<stop stop-color="#c8d8fa"/>
<stop offset="1" stop-color="#c8d8fa" stop-opacity="0"/>
</linearGradient>
<linearGradient id="paint7_linear_204_2293" x1="635.325" y1="221.885" x2="392.189" y2="533.611" gradientUnits="userSpaceOnUse">
<stop stop-color="#111928"/>
<stop offset="1" stop-color="#111928" stop-opacity="0"/>
</linearGradient>
<linearGradient id="paint8_linear_204_2293" x1="339.933" y1="231" x2="346.433" y2="197.5" gradientUnits="userSpaceOnUse">
<stop stop-color="#7F270F"/>
<stop offset="1" stop-color="#7F270F" stop-opacity="0"/>
</linearGradient>
<linearGradient id="paint9_linear_204_2293" x1="632.933" y1="245" x2="463.433" y2="218.5" gradientUnits="userSpaceOnUse">
<stop stop-color="#c8d8fa"/>
<stop offset="1" stop-color="#c8d8fa" stop-opacity="0"/>
</linearGradient>
<linearGradient id="paint10_linear_204_2293" x1="434.933" y1="293" x2="434.933" y2="207.5" gradientUnits="userSpaceOnUse">
<stop stop-color="#c8d8fa"/>
<stop offset="1" stop-color="#c8d8fa" stop-opacity="0"/>
</linearGradient>
<linearGradient id="paint11_linear_204_2293" x1="436.701" y1="304.789" x2="436.008" y2="236.301" gradientUnits="userSpaceOnUse">
<stop stop-color="#c8d8fa"/>
<stop offset="1" stop-color="#c8d8fa" stop-opacity="0"/>
</linearGradient>
</defs>
</svg>