<svg class="w-auto max-w-[16rem] h-40 text-gray-800 dark:text-white" aria-hidden="true" width="477" height="450" viewBox="0 0 477 450" fill="none" xmlns="http://www.w3.org/2000/svg">
<circle cx="225" cy="225" r="225" transform="rotate(-180 225 225)" fill="#d6e2fb"/>
<rect width="26.1339" height="81.6659" rx="6" transform="matrix(1 0 -0.25342 0.967356 225.321 43)" fill="#F9FAFB"/>
<rect width="26.1339" height="96.1383" rx="6" transform="matrix(1 0 -0.25342 0.967356 268.989 29)" fill="#F9FAFB"/>
<rect width="26.1339" height="116.813" rx="6" transform="matrix(1 0 -0.25342 0.967356 314.229 8.99997)" fill="#F9FAFB"/>
<rect width="210.762" height="167" rx="6" transform="matrix(1 0 -0.25342 0.967356 243.321 94)" fill="#c8d8fa"/>
<rect width="210.762" height="167" rx="6" transform="matrix(1 0 -0.25342 0.967356 243.321 94)" fill="url(#paint0_linear_275_945)"/>
<rect width="210.762" height="167" rx="6" transform="matrix(1 0 -0.25342 0.967356 233.321 84)" fill="#c8d8fa"/>
<path fill-rule="evenodd" clip-rule="evenodd" d="M431.772 130.994L401.762 245.548H191L201.986 203.613C221.636 192.54 243.253 181.771 250.438 182.801C256.075 183.609 259.047 185.6 261.781 187.431C265.592 189.984 268.944 192.229 278.41 190.54C285.744 189.231 299.083 178.97 313.044 168.231C330.04 155.158 347.957 141.375 357.081 142.172C364.622 142.83 367.082 146.774 369.365 150.435C372.115 154.843 374.608 158.841 385.407 156.199C393.419 154.238 400.826 148.941 408.217 143.656C415.869 138.183 423.504 132.723 431.772 130.994Z" fill="url(#paint1_linear_275_945)"/>
<path fill-rule="evenodd" clip-rule="evenodd" d="M201.678 204.786L202.292 202.443C206.983 199.807 211.776 197.195 216.451 194.761C223.837 190.916 230.954 187.503 236.918 185.145C239.9 183.966 242.618 183.042 244.95 182.461C247.264 181.884 249.288 181.623 250.83 181.844C256.669 182.681 259.786 184.772 262.529 186.611C263.059 186.967 263.575 187.313 264.095 187.639C265.692 188.643 267.322 189.465 269.509 189.876C271.697 190.288 274.503 190.298 278.469 189.59C280.302 189.263 282.645 188.294 285.437 186.762C288.213 185.24 291.353 183.208 294.752 180.83C300.221 177.005 306.285 172.34 312.505 167.556L312.507 167.554C314.027 166.385 315.556 165.209 317.088 164.036C324.863 158.084 332.707 152.222 339.661 147.939C343.14 145.797 346.432 144.027 349.407 142.837C352.374 141.65 355.108 141.007 357.422 141.209C365.372 141.903 368.004 146.132 370.289 149.804C370.522 150.179 370.752 150.547 370.983 150.906C372.238 152.854 373.511 154.468 375.583 155.353C377.635 156.229 380.598 156.438 385.391 155.265C390.131 154.105 394.694 151.717 399.255 148.792C402.103 146.966 404.875 144.983 407.679 142.977C409.411 141.738 411.156 140.49 412.938 139.265C418.997 135.1 425.283 131.357 432.032 130.002L431.512 131.989C425.452 133.311 419.691 136.722 413.865 140.727C412.182 141.884 410.476 143.104 408.756 144.333L408.755 144.334C405.895 146.379 402.997 148.451 400.105 150.305C395.427 153.305 390.566 155.874 385.423 157.133C380.332 158.379 376.89 158.225 374.374 157.151C371.879 156.086 370.422 154.163 369.145 152.181C368.908 151.813 368.675 151.441 368.443 151.07L368.442 151.068C366.16 147.418 363.872 143.758 356.741 143.136C354.9 142.975 352.568 143.48 349.785 144.593C347.012 145.702 343.872 147.383 340.467 149.48C333.653 153.676 325.917 159.453 318.134 165.411C316.617 166.573 315.097 167.742 313.583 168.907C307.359 173.694 301.226 178.412 295.698 182.279C292.259 184.685 289.023 186.783 286.118 188.376C283.229 189.96 280.584 191.091 278.352 191.49C274.188 192.233 271.118 192.243 268.646 191.778C266.172 191.313 264.355 190.382 262.678 189.329C262.121 188.979 261.579 188.617 261.033 188.252L261.033 188.252C258.308 186.429 255.482 184.538 250.045 183.759C248.889 183.593 247.196 183.777 244.993 184.326C242.808 184.87 240.207 185.751 237.287 186.905C231.448 189.214 224.426 192.578 217.078 196.403C211.993 199.051 206.764 201.912 201.678 204.786Z" fill="#F9FAFB"/>
<rect width="46" height="6" rx="3" transform="matrix(1 0 -0.25342 0.967356 240.787 93.6736)" fill="#F9FAFB"/>
<rect width="28" height="6" rx="3" transform="matrix(1 0 -0.25342 0.967356 237.746 105.282)" fill="#F9FAFB"/>
<rect width="46" height="6" rx="3" transform="matrix(1 0 -0.25342 0.967356 350.055 230.071)" fill="#F9FAFB"/>
<path d="M166.198 102.611C171.399 98.153 173.628 99.639 172.885 93.695C174.09 91.7968 175.6 87.0002 172 83.0002C168.4 79.0002 162.669 79 160.254 79.5C158.836 77.1666 154.4 72.5 148 72.5C141.6 72.5 137 79.5001 135.5 83.0002C131.167 83.6668 121.6 86.2 118 91C114.4 95.8 116.5 102.333 118 105C115.5 108.376 111 116.401 113 121.5C115 126.599 120.833 131.291 123.5 133C122.582 139.167 124.697 153 140.5 159C156.303 165 158.085 145.833 157 135.5L149.109 127.873L160.254 124.901L166.198 102.611Z" fill="#111928"/>
<path d="M137.763 157.878C146.085 152.529 151.632 142.275 153.366 137.817L166.74 148.962L167.483 180.168L134.791 180.911L137.763 157.878Z" fill="#FDBA8C"/>
<path d="M137.763 157.878C146.085 152.529 151.632 142.275 153.366 137.817L166.74 148.962L167.483 180.168L134.791 180.911L137.763 157.878Z" fill="url(#paint2_linear_275_945)"/>
<path d="M141.389 122.76C148.224 136.26 165.795 154.488 178.323 148.501C183.317 146.114 183.803 136.959 182.245 126.067C182.013 124.444 185.908 125.776 185.594 124.093C185.164 121.794 180.493 116.461 179.945 114.123C178.319 107.177 176.263 100.244 174.324 94.438C173.377 91.603 170.078 90.3173 167.943 92.4089C161.621 98.6012 159.833 108.494 159.419 110.787C158.918 113.555 158.545 117.203 155.904 117.583C155.17 117.688 154.091 117.049 152.901 116.045C149.452 113.133 144.039 113.263 141.708 117.128C140.67 118.849 140.481 120.967 141.389 122.76Z" fill="#FDBA8C"/>
<path fill-rule="evenodd" clip-rule="evenodd" d="M177.74 134.067C176.612 133.965 175.418 133.665 173.595 133.16C173.121 133.029 172.631 133.307 172.5 133.78C172.369 134.253 172.647 134.743 173.12 134.875C174.927 135.375 176.269 135.72 177.58 135.839C178.915 135.96 180.18 135.843 181.858 135.484C182.338 135.381 182.644 134.909 182.541 134.428C182.439 133.948 181.966 133.642 181.486 133.745C179.92 134.08 178.843 134.167 177.74 134.067Z" fill="#111928"/>
<path fill-rule="evenodd" clip-rule="evenodd" d="M146.112 123.62C145.438 122.5 145.348 121.306 145.481 120.043C145.532 119.555 145.178 119.117 144.689 119.066C144.201 119.015 143.763 119.369 143.712 119.858C143.559 121.317 143.635 122.954 144.589 124.537C145.537 126.113 147.274 127.503 150.163 128.653C150.619 128.835 151.136 128.612 151.318 128.156C151.5 127.7 151.277 127.183 150.821 127.001C148.146 125.936 146.792 124.748 146.112 123.62Z" fill="#111928"/>
<path fill-rule="evenodd" clip-rule="evenodd" d="M237.2 449.675C233.161 449.891 229.093 450 225 450C182.146 450 142.091 438.02 108 417.225V364H222L237.2 449.675Z" fill="#2563eb"/>
<path fill-rule="evenodd" clip-rule="evenodd" d="M237.2 449.675C233.161 449.891 229.093 450 225 450C182.146 450 142.091 438.02 108 417.225V364H222L237.2 449.675Z" fill="url(#paint3_linear_275_945)"/>
<path d="M217 379.5C213.5 385.5 200.3 398.6 175.5 403L178.5 444" stroke="#c8d8fa" stroke-width="2"/>
<path fill-rule="evenodd" clip-rule="evenodd" d="M159.203 112.021L149.711 114.346C150.853 114.672 151.951 115.243 152.901 116.045C153.578 116.616 154.219 117.069 154.781 117.334L171 118L170.5 114L169.5 109.5L159.203 112.021Z" fill="#111928"/>
<path fill-rule="evenodd" clip-rule="evenodd" d="M173.105 103.469C174.866 102.96 179.648 102 182 102L181 104.5L179.55 104.319C184.43 116.09 187.482 125.286 187 128.5C186.333 129 182 131 180 131C177.938 131 175 130 172.5 126.5C170 123 166 107.5 169.5 105C170.523 104.269 171.799 103.783 173.105 103.469Z" fill="#111928"/>
<path fill-rule="evenodd" clip-rule="evenodd" d="M173.105 103.469C174.866 102.96 179.648 102 182 102L181 104.5L179.55 104.319C184.43 116.09 187.482 125.286 187 128.5C186.333 129 182 131 180 131C177.938 131 175 130 172.5 126.5C170 123 166 107.5 169.5 105C170.523 104.269 171.799 103.783 173.105 103.469Z" fill="url(#paint4_linear_275_945)"/>
<path d="M174.5 104C176.635 102.474 179.877 102.016 182.182 101.958C183.3 101.93 184.277 102.648 184.685 103.689C188.739 114.04 189.373 122.353 189.123 126.28C189.073 127.066 188.65 127.773 187.975 128.18C187.15 128.677 186.046 129.238 185 129.5C183 130 180 129 177.5 125.5C175 122 171 106.5 174.5 104Z" fill="#111928"/>
<path d="M174.5 104C176.635 102.474 179.877 102.016 182.182 101.958C183.3 101.93 184.277 102.648 184.685 103.689C188.739 114.04 189.373 122.353 189.123 126.28C189.073 127.066 188.65 127.773 187.975 128.18C187.15 128.677 186.046 129.238 185 129.5C183 130 180 129 177.5 125.5C175 122 171 106.5 174.5 104Z" fill="url(#paint5_linear_275_945)"/>
<path d="M297.5 295.5C285.5 297.1 266.833 287.167 259 282L283 256.5C297.667 229 329.8 170.9 341 158.5C355 143 358.5 142 358 144C357.6 145.6 350.833 154.333 347.5 158.5C367 157.5 355 173.5 350 178C346 181.6 341.333 190.167 339.5 194C330.5 227.167 309.5 293.9 297.5 295.5Z" fill="#FDBA8C"/>
<path d="M297.5 295.5C285.5 297.1 266.833 287.167 259 282L283 256.5C297.667 229 329.8 170.9 341 158.5C355 143 358.5 142 358 144C357.6 145.6 350.833 154.333 347.5 158.5C367 157.5 355 173.5 350 178C346 181.6 341.333 190.167 339.5 194C330.5 227.167 309.5 293.9 297.5 295.5Z" fill="url(#paint6_linear_275_945)"/>
<path d="M258.048 301.339L226.5 274.5V366H98.5C99.1667 341.167 100.9 282 102.5 244C104.1 206 121.167 183.167 129.5 176.5C141.5 179.3 159.167 177.667 166.5 176.5C174.333 177.667 193.4 181.2 207 186C220.6 190.8 263.333 235 283 256.5L261.136 300.703C260.559 301.869 259.039 302.183 258.048 301.339Z" fill="#F9FAFB"/>
<path d="M258.048 301.339L226.5 274.5V366H98.5C99.1667 341.167 100.9 282 102.5 244C104.1 206 121.167 183.167 129.5 176.5C141.5 179.3 159.167 177.667 166.5 176.5C174.333 177.667 193.4 181.2 207 186C220.6 190.8 263.333 235 283 256.5L261.136 300.703C260.559 301.869 259.039 302.183 258.048 301.339Z" fill="url(#paint7_linear_275_945)" fill-opacity="0.7"/>
<path d="M151 181.5C139.8 181.1 130.333 179.667 127 178.5L130.5 175C132 175.333 137.6 176.2 148 177C158.4 177.8 166.333 176 169 175L172.5 177.5C170 179.333 162.2 181.9 151 181.5Z" fill="#c8d8fa"/>
<path d="M159.5 366L175.5 228L226.5 274.718V366H159.5Z" fill="url(#paint8_linear_275_945)" fill-opacity="0.7"/>
<path d="M100 355H224.5" stroke="#c8d8fa" stroke-width="2"/>
<defs>
<linearGradient id="paint0_linear_275_945" x1="30.4496" y1="131.286" x2="264.711" y2="-30.8192" gradientUnits="userSpaceOnUse">
<stop stop-color="#2563eb"/>
<stop offset="1" stop-color="#2563eb" stop-opacity="0"/>
</linearGradient>
<linearGradient id="paint1_linear_275_945" x1="351.697" y1="12.8992" x2="351.697" y2="267.314" gradientUnits="userSpaceOnUse">
<stop stop-color="#F9FAFB"/>
<stop offset="1" stop-color="#F9FAFB" stop-opacity="0"/>
</linearGradient>
<linearGradient id="paint2_linear_275_945" x1="177.885" y1="125.929" x2="154.852" y2="169.766" gradientUnits="userSpaceOnUse">
<stop stop-color="#7F270F"/>
<stop offset="1" stop-color="#7F270F" stop-opacity="0"/>
</linearGradient>
<linearGradient id="paint3_linear_275_945" x1="172.6" y1="297.5" x2="172.6" y2="450" gradientUnits="userSpaceOnUse">
<stop stop-color="#111928"/>
<stop offset="1" stop-color="#111928" stop-opacity="0"/>
</linearGradient>
<linearGradient id="paint4_linear_275_945" x1="186" y1="136" x2="179.311" y2="120.367" gradientUnits="userSpaceOnUse">
<stop stop-color="#2563eb"/>
<stop offset="1" stop-color="#2563eb" stop-opacity="0"/>
</linearGradient>
<linearGradient id="paint5_linear_275_945" x1="179.5" y1="92.5" x2="182" y2="122" gradientUnits="userSpaceOnUse">
<stop stop-color="#2563eb"/>
<stop offset="1" stop-color="#2563eb" stop-opacity="0"/>
</linearGradient>
<linearGradient id="paint6_linear_275_945" x1="176.5" y1="321.5" x2="310.349" y2="255.409" gradientUnits="userSpaceOnUse">
<stop stop-color="#7F270F"/>
<stop offset="1" stop-color="#7F270F" stop-opacity="0"/>
</linearGradient>
<linearGradient id="paint7_linear_275_945" x1="144.5" y1="416.5" x2="114.813" y2="282.581" gradientUnits="userSpaceOnUse">
<stop stop-color="#c8d8fa"/>
<stop offset="1" stop-color="#c8d8fa" stop-opacity="0"/>
</linearGradient>
<linearGradient id="paint8_linear_275_945" x1="242" y1="275" x2="195.5" y2="286" gradientUnits="userSpaceOnUse">
<stop stop-color="#c8d8fa"/>
<stop offset="1" stop-color="#c8d8fa" stop-opacity="0"/>
</linearGradient>
</defs>
</svg>