<svg class="w-auto max-w-[16rem] h-40 text-gray-800 dark:text-white" aria-hidden="true" width="506" height="575" viewBox="0 0 506 575" fill="none" xmlns="http://www.w3.org/2000/svg">
<path d="M0 527C0 523.686 2.68629 521 6 521H288C291.314 521 294 523.686 294 527V568C294 571.314 291.314 574 288 574H6C2.68629 574 0 571.314 0 568V527Z" fill="#d6e2fb"/>
<path d="M0 527C0 523.686 2.68629 521 6 521H288C291.314 521 294 523.686 294 527V568C294 571.314 291.314 574 288 574H6C2.68629 574 0 571.314 0 568V527Z" fill="url(#paint0_linear_204_2030)"/>
<path d="M23 40C23 17.9086 40.9086 0 63 0H231C253.091 0 271 17.9086 271 40V481C271 503.091 253.091 521 231 521H63C40.9086 521 23 503.091 23 481V40Z" fill="#d6e2fb"/>
<path fill-rule="evenodd" clip-rule="evenodd" d="M231 10H63C46.4315 10 33 23.4315 33 40V481C33 497.569 46.4315 511 63 511H231C247.569 511 261 497.569 261 481V40C261 23.4315 247.569 10 231 10ZM63 0C40.9086 0 23 17.9086 23 40V481C23 503.091 40.9086 521 63 521H231C253.091 521 271 503.091 271 481V40C271 17.9086 253.091 0 231 0H63Z" fill="#d6e2fb"/>
<path fill-rule="evenodd" clip-rule="evenodd" d="M231 10H63C46.4315 10 33 23.4315 33 40V481C33 497.569 46.4315 511 63 511H231C247.569 511 261 497.569 261 481V40C261 23.4315 247.569 10 231 10ZM63 0C40.9086 0 23 17.9086 23 40V481C23 503.091 40.9086 521 63 521H231C253.091 521 271 503.091 271 481V40C271 17.9086 253.091 0 231 0H63Z" fill="url(#paint1_linear_204_2030)"/>
<path d="M116 27C116 23.134 119.134 20 123 20H172C175.866 20 179 23.134 179 27C179 30.866 175.866 34 172 34H123C119.134 34 116 30.866 116 27Z" fill="#2563eb" fill-opacity="0.2"/>
<path d="M84 430C84 421.163 91.1634 414 100 414H194C202.837 414 210 421.163 210 430C210 438.837 202.837 446 194 446H100C91.1634 446 84 438.837 84 430Z" fill="#2563eb"/>
<path d="M84 430C84 421.163 91.1634 414 100 414H194C202.837 414 210 421.163 210 430C210 438.837 202.837 446 194 446H100C91.1634 446 84 438.837 84 430Z" fill="url(#paint2_linear_204_2030)"/>
<path d="M115 430C115 428.343 116.343 427 118 427L177 427C178.657 427 180 428.343 180 430C180 431.657 178.657 433 177 433L118 433C116.343 433 115 431.657 115 430Z" fill="#c8d8fa" fill-opacity="0.5"/>
<path d="M435.818 174.005H455.966C457.285 179.67 456.722 192.9 443.922 200.5C427.922 210 367.922 224 351.922 227C335.922 230 329.422 226.5 332.922 222C335.695 218.433 341.807 217.517 351.643 216.042L351.922 216C361.921 214.5 435.818 181.014 435.818 181.014V174.005Z" fill="#FDBA8C"/>
<path d="M435.818 174.005H455.966C457.285 179.67 456.722 192.9 443.922 200.5C427.922 210 367.922 224 351.922 227C335.922 230 329.422 226.5 332.922 222C335.695 218.433 341.807 217.517 351.643 216.042L351.922 216C361.921 214.5 435.818 181.014 435.818 181.014V174.005Z" fill="url(#paint3_linear_204_2030)"/>
<path d="M227.035 148.659C228.464 143.325 233.948 140.159 239.282 141.588L382.239 179.893C387.574 181.323 390.74 186.806 389.31 192.141L368.864 268.449C367.434 273.784 361.951 276.949 356.616 275.52L213.659 237.215C208.325 235.785 205.159 230.302 206.588 224.967L227.035 148.659Z" fill="#2563eb"/>
<path d="M227.035 148.659C228.464 143.325 233.948 140.159 239.282 141.588L382.239 179.893C387.574 181.323 390.74 186.806 389.31 192.141L368.864 268.449C367.434 273.784 361.951 276.949 356.616 275.52L213.659 237.215C208.325 235.785 205.159 230.302 206.588 224.967L227.035 148.659Z" fill="url(#paint4_linear_204_2030)"/>
<path fill-rule="evenodd" clip-rule="evenodd" d="M388.017 196.97L225.741 153.489L226.259 151.557L388.534 195.039L388.017 196.97Z" fill="url(#paint5_linear_204_2030)"/>
<path d="M235.543 198.044C236.044 196.177 237.963 195.069 239.83 195.569L260.114 201.004C261.982 201.505 263.09 203.424 262.589 205.291C262.089 207.158 260.17 208.266 258.303 207.766L238.018 202.331C236.151 201.83 235.043 199.911 235.543 198.044Z" fill="#9ab7f6"/>
<path d="M267.419 206.585C267.92 204.718 269.839 203.61 271.706 204.11L291.99 209.545C293.858 210.046 294.966 211.965 294.465 213.832C293.965 215.699 292.046 216.807 290.179 216.307L269.894 210.872C268.027 210.371 266.919 208.452 267.419 206.585Z" fill="#9ab7f6"/>
<path d="M299.294 215.126C299.795 213.259 301.714 212.151 303.581 212.651L323.865 218.086C325.733 218.587 326.841 220.506 326.34 222.373C325.84 224.24 323.921 225.348 322.054 224.848L301.769 219.413C299.902 218.912 298.794 216.993 299.294 215.126Z" fill="#9ab7f6"/>
<path d="M331.17 223.667C331.671 221.8 333.59 220.692 335.457 221.192L355.741 226.627C357.608 227.128 358.717 229.047 358.216 230.914C357.716 232.781 355.797 233.889 353.93 233.389L333.645 227.954C331.778 227.453 330.67 225.534 331.17 223.667Z" fill="#9ab7f6"/>
<mask id="mask0_204_2030" style="mask-type:alpha" maskUnits="userSpaceOnUse" x="322" y="240" width="31" height="22">
<path fill-rule="evenodd" clip-rule="evenodd" d="M335.542 257.579C338.096 256.559 340.133 254.435 340.883 251.634C341.634 248.834 340.931 245.975 339.23 243.815C341.054 243.087 343.142 242.922 345.211 243.476C350.178 244.807 353.161 249.778 351.875 254.579C350.588 259.38 345.519 262.194 340.552 260.863C338.483 260.308 336.758 259.122 335.542 257.579ZM335.542 257.579C333.718 258.307 331.631 258.472 329.561 257.918C324.594 256.587 321.611 251.616 322.897 246.815C324.184 242.013 329.253 239.2 334.22 240.531C336.289 241.086 338.015 242.272 339.23 243.815C336.677 244.835 334.639 246.959 333.889 249.76C333.138 252.56 333.841 255.419 335.542 257.579Z" fill="#c8d8fa"/>
</mask>
<g mask="url(#mask0_204_2030)">
<path d="M320.396 236.827L339.715 242.004L333.245 266.152L313.926 260.975L320.396 236.827Z" fill="#d6e2fb"/>
</g>
<path fill-rule="evenodd" clip-rule="evenodd" d="M335.542 257.579C338.096 256.559 340.133 254.435 340.883 251.634C341.634 248.834 340.931 245.975 339.23 243.815C341.054 243.087 343.142 242.922 345.211 243.476C350.178 244.807 353.161 249.778 351.875 254.579C350.588 259.38 345.519 262.194 340.552 260.863C338.483 260.308 336.758 259.122 335.542 257.579ZM335.542 257.579C333.718 258.307 331.631 258.472 329.561 257.918C324.594 256.587 321.611 251.616 322.897 246.815C324.184 242.013 329.253 239.2 334.22 240.531C336.289 241.086 338.015 242.272 339.23 243.815C336.677 244.835 334.639 246.959 333.889 249.76C333.138 252.56 333.841 255.419 335.542 257.579Z" fill="#c8d8fa"/>
<path d="M430.905 52.1723C423.897 57.0781 431.197 62.6846 435.723 64.8747L454.119 88.9651C459.083 87.6511 469.8 83.0082 472.954 74.9488C476.896 64.8745 467.26 69.6926 467.698 58.3044C468.136 46.9161 458.5 48.2302 454.996 47.3542C451.491 46.4782 449.739 41.2221 443.169 42.0981C436.599 42.9741 439.665 46.0402 430.905 52.1723Z" fill="#111928"/>
<path d="M458.5 113.056L455.434 80.2051L442.294 84.5852L442.732 113.056H458.5Z" fill="#FDBA8C"/>
<path d="M458.5 113.056L455.434 80.2051L442.294 84.5852L442.732 113.056H458.5Z" fill="url(#paint6_linear_204_2030)"/>
<path d="M438.35 92.4692C430.291 90.3668 433.532 69.6927 436.16 59.6184C442.292 58.7424 447.11 75.3868 450.177 71.4447C453.243 67.5026 458.936 67.9406 459.374 72.7588C459.812 77.5769 448.424 95.0973 438.35 92.4692Z" fill="#FDBA8C"/>
<path d="M439.344 73.0548C439.441 73.6286 439.055 74.1724 438.481 74.2694C437.907 74.3664 437.364 73.9799 437.267 73.4062C437.169 72.8324 437.556 72.2887 438.13 72.1916C438.703 72.0946 439.247 72.4811 439.344 73.0548Z" fill="#111928"/>
<path fill-rule="evenodd" clip-rule="evenodd" d="M437.499 69.3177C436.766 69.451 436.222 69.8619 435.732 70.3941C435.542 70.5999 435.222 70.6131 435.016 70.4235C434.81 70.2339 434.797 69.9134 434.987 69.7076C435.553 69.0929 436.281 68.5093 437.318 68.3208C438.348 68.1334 439.596 68.3526 441.176 69.1546C441.425 69.2813 441.525 69.5862 441.398 69.8357C441.271 70.0852 440.966 70.1847 440.717 70.058C439.254 69.3154 438.237 69.1834 437.499 69.3177Z" fill="#111928"/>
<path fill-rule="evenodd" clip-rule="evenodd" d="M434.158 72.5088C434.435 72.5502 434.626 72.8081 434.585 73.0848L433.553 79.9783C433.535 80.1015 433.634 80.2103 433.758 80.2028L436.739 80.0225C437.018 80.0056 437.258 80.2183 437.275 80.4976C437.292 80.7769 437.08 81.017 436.8 81.0339L433.82 81.2142C433.052 81.2606 432.437 80.5886 432.551 79.8284L433.582 72.9349C433.624 72.6582 433.882 72.4674 434.158 72.5088Z" fill="#111928"/>
<path fill-rule="evenodd" clip-rule="evenodd" d="M437.799 84.112C438.427 83.963 439.076 83.6969 440.063 83.2643C440.319 83.152 440.618 83.2686 440.73 83.5249C440.843 83.7812 440.726 84.08 440.47 84.1923C439.491 84.6212 438.763 84.9247 438.033 85.0979C437.29 85.2743 436.567 85.3112 435.592 85.2449C435.313 85.2259 435.102 84.9843 435.121 84.7051C435.14 84.4259 435.382 84.215 435.661 84.234C436.571 84.2958 437.185 84.2578 437.799 84.112Z" fill="#111928"/>
<path fill-rule="evenodd" clip-rule="evenodd" d="M456.047 75.1306C456.336 74.4443 456.29 73.7642 456.113 73.0627C456.044 72.7914 456.209 72.516 456.48 72.4474C456.751 72.3789 457.027 72.5433 457.095 72.8145C457.3 73.6248 457.39 74.554 456.981 75.5243C456.573 76.4895 455.707 77.4141 454.172 78.2972C453.929 78.4367 453.619 78.3531 453.48 78.1106C453.34 77.868 453.424 77.5583 453.666 77.4188C455.088 76.6012 455.755 75.8219 456.047 75.1306Z" fill="#111928"/>
<path d="M502.316 568.215H435.739V572.321C435.739 573.44 436.646 574.347 437.765 574.347H500.29C501.409 574.347 502.316 573.44 502.316 572.321V568.215Z" fill="#2563eb"/>
<path d="M502.316 568.215L496.184 524.414L470.78 514.34C473.262 525.728 469.466 549.381 457.201 552.885C440.682 557.605 435.885 564.565 435.739 568.215H502.316Z" fill="#d6e2fb"/>
<path d="M502.316 568.215L496.184 524.414L470.78 514.34C473.262 525.728 469.466 549.381 457.201 552.885C440.682 557.605 435.885 564.565 435.739 568.215H502.316Z" fill="url(#paint7_linear_204_2030)"/>
<mask id="mask1_204_2030" style="mask-type:alpha" maskUnits="userSpaceOnUse" x="435" y="514" width="68" height="55">
<path d="M502.316 568.215L496.184 524.414L470.78 514.34C473.262 525.728 469.466 549.381 457.201 552.885C440.682 557.605 435.885 564.565 435.739 568.215H502.316Z" fill="#d6e2fb"/>
<path d="M502.316 568.215L496.184 524.414L470.78 514.34C473.262 525.728 469.466 549.381 457.201 552.885C440.682 557.605 435.885 564.565 435.739 568.215H502.316Z" fill="url(#paint8_linear_204_2030)"/>
</mask>
<g mask="url(#mask1_204_2030)">
<path d="M453.26 550.695H434.863V568.215H456.764L453.26 550.695Z" fill="#c8d8fa"/>
</g>
<path fill-rule="evenodd" clip-rule="evenodd" d="M486.986 553.048C484.477 553.048 482.443 551.014 482.443 548.505C482.443 545.995 484.477 543.961 486.986 543.961C489.496 543.961 491.53 545.995 491.53 548.505C491.53 551.014 489.496 553.048 486.986 553.048ZM486.986 555.075C483.358 555.075 480.416 552.133 480.416 548.505C480.416 544.876 483.358 541.935 486.986 541.935C490.615 541.935 493.557 544.876 493.557 548.505C493.557 552.133 490.615 555.075 486.986 555.075Z" fill="#c8d8fa"/>
<path d="M422.6 568.215H356.022V572.321C356.022 573.44 356.929 574.347 358.048 574.347H420.573C421.692 574.347 422.6 573.44 422.6 572.321V568.215Z" fill="#2563eb"/>
<path d="M427.855 513.464L422.599 568.215H356.022C357.774 559.893 362.154 560.331 382.74 551.133C399.21 543.774 403.327 522.954 403.327 513.464H427.855Z" fill="#d6e2fb"/>
<path d="M427.855 513.464L422.599 568.215H356.022C357.774 559.893 362.154 560.331 382.74 551.133C399.21 543.774 403.327 522.954 403.327 513.464H427.855Z" fill="url(#paint9_linear_204_2030)"/>
<mask id="mask2_204_2030" style="mask-type:alpha" maskUnits="userSpaceOnUse" x="356" y="513" width="72" height="56">
<path d="M427.855 513.464L422.599 568.215H356.022C357.774 559.893 362.154 560.331 382.74 551.133C399.21 543.774 403.327 522.954 403.327 513.464H427.855Z" fill="#d6e2fb"/>
<path d="M427.855 513.464L422.599 568.215H356.022C357.774 559.893 362.154 560.331 382.74 551.133C399.21 543.774 403.327 522.954 403.327 513.464H427.855Z" fill="url(#paint10_linear_204_2030)"/>
</mask>
<g mask="url(#mask2_204_2030)">
<path d="M373.543 550.695H355.146V568.215H377.047L373.543 550.695Z" fill="#c8d8fa"/>
</g>
<path fill-rule="evenodd" clip-rule="evenodd" d="M410.773 553.048C408.263 553.048 406.229 551.014 406.229 548.505C406.229 545.995 408.263 543.961 410.773 543.961C413.282 543.961 415.316 545.995 415.316 548.505C415.316 551.014 413.282 553.048 410.773 553.048ZM410.773 555.075C407.144 555.075 404.202 552.133 404.202 548.505C404.202 544.876 407.144 541.935 410.773 541.935C414.401 541.935 417.343 544.876 417.343 548.505C417.343 552.133 414.401 555.075 410.773 555.075Z" fill="#c8d8fa"/>
<path d="M505.62 525.708L477.35 214.302L469.466 210.798L439.681 342.201L463.109 526.147C463.237 527.159 464.099 527.918 465.119 527.918H503.602C504.794 527.918 505.728 526.895 505.62 525.708Z" fill="#2563eb"/>
<path d="M505.62 525.708L477.35 214.302L469.466 210.798L439.681 342.201L463.109 526.147C463.237 527.159 464.099 527.918 465.119 527.918H503.602C504.794 527.918 505.728 526.895 505.62 525.708Z" fill="url(#paint11_linear_204_2030)"/>
<path fill-rule="evenodd" clip-rule="evenodd" d="M461.144 513.163L504.945 513.163L504.945 511.136L461.144 511.136L461.144 513.163Z" fill="#c8d8fa"/>
<path d="M436.849 525.719L477.352 218.682L420.5 218.682L392.609 525.244C392.485 526.44 393.423 527.48 394.625 527.48H434.84C435.857 527.48 436.716 526.727 436.849 525.719Z" fill="#2563eb"/>
<path fill-rule="evenodd" clip-rule="evenodd" d="M393.691 513.163L439.244 513.163L439.244 511.136L393.691 511.136L393.691 513.163Z" fill="#c8d8fa"/>
<path fill-rule="evenodd" clip-rule="evenodd" d="M446.667 234.904C451.124 236.95 456.015 237.933 459.657 238.512L460.605 238.663L428.493 512.117L426.507 511.883L458.395 240.332C454.806 239.724 450.152 238.704 445.833 236.721C441.122 234.559 436.703 231.199 434.572 225.871L436.428 225.129C438.298 229.801 442.212 232.858 446.667 234.904Z" fill="#c8d8fa"/>
<path d="M482.169 178.385H472.533L462.896 185.394V216.054H480.142C481.262 216.054 482.169 215.147 482.169 214.028V178.385Z" fill="url(#paint12_linear_204_2030)"/>
<path d="M486.188 174.005H482.169V177.509V217.028C482.169 218.147 481.262 219.054 480.143 219.054H460.707H421.5C420.395 219.054 419.499 218.173 419.508 217.068C419.743 187.108 425.104 136.004 426.132 131.206C427.446 125.073 435.12 103.485 457.897 107.428C475.524 110.478 487.001 150.395 488.198 171.897C488.262 173.048 487.34 174.005 486.188 174.005Z" fill="#F9FAFB"/>
<path d="M486.188 174.005H482.169V177.509V217.028C482.169 218.147 481.262 219.054 480.143 219.054H460.707H421.5C420.395 219.054 419.499 218.173 419.508 217.068C419.743 187.108 425.104 136.004 426.132 131.206C427.446 125.073 435.12 103.485 457.897 107.428C475.524 110.478 487.001 150.395 488.198 171.897C488.262 173.048 487.34 174.005 486.188 174.005Z" fill="url(#paint13_linear_204_2030)"/>
<path d="M456.764 174.005H462.896L466.4 182.766L456.764 191.526V174.005Z" fill="url(#paint14_linear_204_2030)"/>
<path fill-rule="evenodd" clip-rule="evenodd" d="M456.628 142.469V174.005H458.654V142.469H456.628Z" fill="#c8d8fa"/>
<path d="M462.896 174.005H483.045C484.363 179.67 483.8 192.9 471 200.5C455 210 395 224 379 227C363 230 356.5 226.5 360 222C362.774 218.433 368.885 217.517 378.722 216.042L379 216C389 214.5 462.896 181.014 462.896 181.014V174.005Z" fill="#FDBA8C"/>
<path d="M52 123C52 114.163 59.1634 107 68 107H227C235.837 107 243 114.163 243 123V303C243 311.837 235.837 319 227 319H68C59.1634 319 52 311.837 52 303V123Z" fill="#F9FAFB"/>
<path d="M78 136C78 134.895 78.8954 134 80 134H112C113.105 134 114 134.895 114 136V168C114 169.105 113.105 170 112 170H80C78.8954 170 78 169.105 78 168V136Z" fill="#c8d8fa"/>
<path d="M134 152C134 150.343 135.343 149 137 149H167C168.657 149 170 150.343 170 152C170 153.657 168.657 155 167 155H137C135.343 155 134 153.657 134 152Z" fill="#c8d8fa"/>
<path d="M200 152C200 150.343 201.343 149 203 149H214C215.657 149 217 150.343 217 152C217 153.657 215.657 155 214 155H203C201.343 155 200 153.657 200 152Z" fill="#c8d8fa"/>
<path d="M78 184C78 182.895 78.8954 182 80 182H112C113.105 182 114 182.895 114 184V216C114 217.105 113.105 218 112 218H80C78.8954 218 78 217.105 78 216V184Z" fill="#c8d8fa"/>
<path d="M134 200C134 198.343 135.343 197 137 197H167C168.657 197 170 198.343 170 200C170 201.657 168.657 203 167 203H137C135.343 203 134 201.657 134 200Z" fill="#c8d8fa"/>
<path d="M200 200C200 198.343 201.343 197 203 197H214C215.657 197 217 198.343 217 200C217 201.657 215.657 203 214 203H203C201.343 203 200 201.657 200 200Z" fill="#c8d8fa"/>
<path d="M78 232C78 230.895 78.8954 230 80 230H112C113.105 230 114 230.895 114 232V264C114 265.105 113.105 266 112 266H80C78.8954 266 78 265.105 78 264V232Z" fill="#c8d8fa"/>
<path d="M134 248C134 246.343 135.343 245 137 245H167C168.657 245 170 246.343 170 248C170 249.657 168.657 251 167 251H137C135.343 251 134 249.657 134 248Z" fill="#c8d8fa"/>
<path d="M200 248C200 246.343 201.343 245 203 245H214C215.657 245 217 246.343 217 248C217 249.657 215.657 251 214 251H203C201.343 251 200 249.657 200 248Z" fill="#c8d8fa"/>
<path d="M98 296C98 294.343 99.3431 293 101 293H193C194.657 293 196 294.343 196 296C196 297.657 194.657 299 193 299H101C99.3431 299 98 297.657 98 296Z" fill="#c8d8fa"/>
<defs>
<linearGradient id="paint0_linear_204_2030" x1="212" y1="411" x2="212" y2="548" gradientUnits="userSpaceOnUse">
<stop stop-color="#9ab7f6"/>
<stop offset="1" stop-color="#9ab7f6" stop-opacity="0"/>
</linearGradient>
<linearGradient id="paint1_linear_204_2030" x1="207.749" y1="688" x2="207.749" y2="-305" gradientUnits="userSpaceOnUse">
<stop stop-color="#9ab7f6"/>
<stop offset="1" stop-color="#9ab7f6" stop-opacity="0"/>
</linearGradient>
<linearGradient id="paint2_linear_204_2030" x1="146.816" y1="562" x2="146.816" y2="430" gradientUnits="userSpaceOnUse">
<stop stop-color="#111928"/>
<stop offset="1" stop-color="#111928" stop-opacity="0"/>
</linearGradient>
<linearGradient id="paint3_linear_204_2030" x1="443" y1="272.5" x2="389" y2="205" gradientUnits="userSpaceOnUse">
<stop stop-color="#7F270F"/>
<stop offset="1" stop-color="#7F270F" stop-opacity="0"/>
</linearGradient>
<linearGradient id="paint4_linear_204_2030" x1="-12.5" y1="121" x2="312.5" y2="209" gradientUnits="userSpaceOnUse">
<stop stop-color="#111928"/>
<stop offset="1" stop-color="#111928" stop-opacity="0"/>
</linearGradient>
<linearGradient id="paint5_linear_204_2030" x1="476" y1="106.499" x2="226" y2="192.5" gradientUnits="userSpaceOnUse">
<stop stop-color="#9ab7f6"/>
<stop offset="1" stop-color="#9ab7f6" stop-opacity="0"/>
</linearGradient>
<linearGradient id="paint6_linear_204_2030" x1="425.649" y1="71.8829" x2="450.31" y2="106.043" gradientUnits="userSpaceOnUse">
<stop stop-color="#7F270F"/>
<stop offset="1" stop-color="#7F270F" stop-opacity="0"/>
</linearGradient>
<linearGradient id="paint7_linear_204_2030" x1="453.628" y1="505.142" x2="453.628" y2="554.637" gradientUnits="userSpaceOnUse">
<stop stop-color="#c8d8fa"/>
<stop offset="1" stop-color="#c8d8fa" stop-opacity="0"/>
</linearGradient>
<linearGradient id="paint8_linear_204_2030" x1="453.628" y1="505.142" x2="453.628" y2="554.637" gradientUnits="userSpaceOnUse">
<stop stop-color="#c8d8fa"/>
<stop offset="1" stop-color="#c8d8fa" stop-opacity="0"/>
</linearGradient>
<linearGradient id="paint9_linear_204_2030" x1="375.323" y1="504.116" x2="375.323" y2="554.416" gradientUnits="userSpaceOnUse">
<stop stop-color="#c8d8fa"/>
<stop offset="1" stop-color="#c8d8fa" stop-opacity="0"/>
</linearGradient>
<linearGradient id="paint10_linear_204_2030" x1="375.323" y1="504.116" x2="375.323" y2="554.416" gradientUnits="userSpaceOnUse">
<stop stop-color="#c8d8fa"/>
<stop offset="1" stop-color="#c8d8fa" stop-opacity="0"/>
</linearGradient>
<linearGradient id="paint11_linear_204_2030" x1="642.414" y1="158.885" x2="399.278" y2="470.611" gradientUnits="userSpaceOnUse">
<stop stop-color="#111928"/>
<stop offset="1" stop-color="#111928" stop-opacity="0"/>
</linearGradient>
<linearGradient id="paint12_linear_204_2030" x1="468.075" y1="158.609" x2="468.075" y2="200.987" gradientUnits="userSpaceOnUse">
<stop stop-color="#c8d8fa"/>
<stop offset="1" stop-color="#c8d8fa" stop-opacity="0"/>
</linearGradient>
<linearGradient id="paint13_linear_204_2030" x1="438.652" y1="-6.89323" x2="438.652" y2="161.741" gradientUnits="userSpaceOnUse">
<stop stop-color="#c8d8fa"/>
<stop offset="1" stop-color="#c8d8fa" stop-opacity="0"/>
</linearGradient>
<linearGradient id="paint14_linear_204_2030" x1="459.353" y1="164.807" x2="459.353" y2="184.518" gradientUnits="userSpaceOnUse">
<stop stop-color="#c8d8fa"/>
<stop offset="1" stop-color="#c8d8fa" stop-opacity="0"/>
</linearGradient>
</defs>
</svg>