<svg class="w-auto max-w-[16rem] h-40 text-gray-800 dark:text-white" aria-hidden="true" width="763" height="654" viewBox="0 0 763 654" fill="none" xmlns="http://www.w3.org/2000/svg">
<path d="M466.835 0C441.013 0 414.439 20.1594 407.482 45.0273L268.597 541.453C261.64 566.321 276.933 586.48 302.756 586.48L512.954 586.497C531.197 586.499 549.969 572.244 554.86 554.675L569.523 502L680.452 105.5L693.812 57.7983C702.752 25.8799 683.126 0 649.982 0H595.5H466.835Z" fill="#d6e2fb"/>
<path d="M466.835 0C441.013 0 414.439 20.1594 407.482 45.0273L268.597 541.453C261.64 566.321 276.933 586.48 302.756 586.48L512.954 586.497C531.197 586.499 549.969 572.244 554.86 554.675L569.523 502L680.452 105.5L693.812 57.7983C702.752 25.8799 683.126 0 649.982 0H595.5H466.835Z" fill="url(#paint0_linear_243_1601)" fill-opacity="0.5"/>
<path d="M391.482 45.0273C398.439 20.1594 425.013 0 450.835 0H647.212C673.034 0 688.328 20.1594 681.371 45.0273L542.486 541.453C535.528 566.321 508.955 586.48 483.132 586.48H286.756C260.933 586.48 245.64 566.321 252.597 541.453L391.482 45.0273Z" fill="#d6e2fb"/>
<path fill-rule="evenodd" clip-rule="evenodd" d="M644.062 11.2568H447.686C428.319 11.2568 408.389 26.3764 403.171 45.0273L264.286 541.453C259.068 560.104 270.538 575.223 289.905 575.223H486.282C505.649 575.223 525.579 560.104 530.797 541.453L669.681 45.0273C674.899 26.3764 663.429 11.2568 644.062 11.2568ZM450.835 0C425.013 0 398.439 20.1594 391.482 45.0273L252.597 541.453C245.64 566.321 260.933 586.48 286.756 586.48H483.132C508.955 586.48 535.528 566.321 542.486 541.453L681.371 45.0273C688.328 20.1594 673.034 0 647.212 0H450.835Z" fill="#d6e2fb"/>
<path fill-rule="evenodd" clip-rule="evenodd" d="M644.062 11.2568H447.686C428.319 11.2568 408.389 26.3764 403.171 45.0273L264.286 541.453C259.068 560.104 270.538 575.223 289.905 575.223H486.282C505.649 575.223 525.579 560.104 530.797 541.453L669.681 45.0273C674.899 26.3764 663.429 11.2568 644.062 11.2568ZM450.835 0C425.013 0 398.439 20.1594 391.482 45.0273L252.597 541.453C245.64 566.321 260.933 586.48 286.756 586.48H483.132C508.955 586.48 535.528 566.321 542.486 541.453L681.371 45.0273C688.328 20.1594 673.034 0 647.212 0H450.835Z" fill="url(#paint1_linear_243_1601)" fill-opacity="0.6"/>
<path d="M504.284 30.3934C505.501 26.0416 510.152 22.5137 514.671 22.5137H571.947C576.466 22.5137 579.142 26.0416 577.925 30.3934C576.707 34.7453 572.057 38.2732 567.538 38.2732H510.262C505.743 38.2732 503.066 34.7453 504.284 30.3934Z" fill="#2563eb" fill-opacity="0.2"/>
<path d="M417.274 68.6302C418.762 63.3116 424.445 59 429.968 59H635.968C641.491 59 644.762 63.3116 643.274 68.6302L586.694 270.865C585.206 276.183 579.523 280.495 574 280.495H368C362.477 280.495 359.206 276.183 360.694 270.865L417.274 68.6302Z" fill="#c8d8fa"/>
<mask id="mask0_243_1601" style="mask-type:alpha" maskUnits="userSpaceOnUse" x="360" y="59" width="284" height="222">
<path d="M417.274 68.6302C418.762 63.3116 424.445 59 429.968 59H635.968C641.491 59 644.762 63.3116 643.274 68.6302L586.694 270.865C585.206 276.183 579.523 280.495 574 280.495H368C362.477 280.495 359.206 276.183 360.694 270.865L417.274 68.6302Z" fill="#c8d8fa"/>
</mask>
<g mask="url(#mask0_243_1601)">
<path fill-rule="evenodd" clip-rule="evenodd" d="M601.733 151.636C588.276 160.266 573.177 167.963 558.796 161.978C549.635 158.165 539.63 161.129 528.718 167.466C520.481 172.249 511.894 178.853 502.932 185.746C499.95 188.04 496.926 190.365 493.86 192.666C481.603 201.864 471.457 207.529 461.2 209.566C450.941 211.603 440.747 209.977 428.367 204.949C424.281 203.29 419.12 203.698 413.345 205.547C407.567 207.398 401.258 210.667 394.991 214.61C382.616 222.396 370.598 232.688 363.496 239.405L351.865 280.976H593.865L634.952 134.117C630.909 134.097 626.153 136.121 620.71 139.301C617.099 141.411 613.333 143.936 609.383 146.584C606.908 148.243 604.36 149.951 601.733 151.636ZM619.972 137.742C625.907 134.275 631.584 131.816 636.564 132.237L637.457 132.313L595.327 282.902H349.327L361.675 238.766L361.944 238.51C369.089 231.724 381.414 221.127 394.171 213.1C400.548 209.088 407.084 205.686 413.165 203.738C419.25 201.79 424.962 201.273 429.579 203.148C441.817 208.118 451.62 209.606 461.299 207.684C470.98 205.762 480.714 200.394 492.839 191.295C495.827 189.052 498.801 186.765 501.754 184.494C510.759 177.567 519.569 170.791 527.987 165.903C539.228 159.375 550.062 156.037 560.021 160.182C573.407 165.753 587.496 158.73 600.891 150.14C603.398 148.532 605.899 146.857 608.361 145.207C612.384 142.512 616.302 139.886 619.972 137.742Z" fill="#2563eb"/>
<path fill-rule="evenodd" clip-rule="evenodd" d="M601.733 151.636C588.276 160.266 573.177 167.963 558.797 161.978C549.635 158.165 539.631 161.129 528.718 167.466C520.482 172.249 511.895 178.853 502.932 185.746C499.95 188.04 496.926 190.365 493.86 192.666C481.603 201.864 471.457 207.529 461.2 209.566C450.941 211.603 440.747 209.977 428.367 204.949C424.282 203.29 419.12 203.698 413.346 205.547C407.567 207.398 401.258 210.667 394.991 214.61C382.458 222.495 370.291 232.951 363.227 239.66L361.945 238.51C369.09 231.724 381.414 221.127 394.171 213.1C400.549 209.088 407.085 205.686 413.165 203.738C419.25 201.79 424.962 201.273 429.58 203.148C441.817 208.118 451.62 209.606 461.3 207.684C470.981 205.762 480.714 200.394 492.839 191.295C495.827 189.052 498.801 186.765 501.754 184.494C510.76 177.567 519.57 170.791 527.987 165.903C539.229 159.375 550.062 156.037 560.021 160.182C573.408 165.753 587.496 158.73 600.891 150.14C603.399 148.532 605.899 146.857 608.361 145.207C612.384 142.512 616.302 139.886 619.972 137.742C625.907 134.275 631.584 131.816 636.564 132.237L635.856 134.156C631.623 133.799 626.564 135.881 620.71 139.301C617.099 141.411 613.334 143.936 609.383 146.584C606.908 148.243 604.361 149.951 601.733 151.636Z" fill="#2563eb"/>
</g>
<path d="M469.191 97.5207C466.215 108.158 454.848 116.781 443.802 116.781C432.756 116.781 426.215 108.158 429.191 97.5207C432.167 86.8834 443.533 78.2603 454.579 78.2603C465.625 78.2603 472.167 86.8834 469.191 97.5207Z" fill="#d6e2fb"/>
<path d="M458.332 95.7105C459.325 93.4124 457.887 92.1771 455.677 91.3531L457.34 88.2402L455.539 87.768L453.921 90.799C453.448 90.6747 452.959 90.5576 452.473 90.4416L454.102 87.3906L452.303 86.9185L450.641 90.0304C450.246 89.9365 449.859 89.8437 449.486 89.746L449.491 89.7362L447.009 89.0836L445.928 91.1075C445.928 91.1075 447.272 91.4298 447.236 91.4496C447.965 91.6412 447.965 92.1491 447.828 92.5517L445.935 96.0981C445.985 96.1115 446.049 96.1309 446.118 96.1613C446.058 96.1456 445.994 96.1285 445.928 96.1117L443.274 101.08C443.113 101.313 442.772 101.663 442.263 101.53C442.274 101.557 440.954 101.186 440.954 101.186L439.388 103.355L441.731 103.97C442.166 104.085 442.591 104.205 443.011 104.318L441.33 107.467L443.129 107.939L444.792 104.824C445.28 104.964 445.756 105.094 446.222 105.216L444.566 108.316L446.366 108.789L448.045 105.646C451.169 106.257 453.716 106.011 455.577 103.088C457.075 100.735 456.573 99.3779 455.087 98.4928C456.429 98.2073 457.608 97.3929 458.333 95.7107L458.332 95.7105ZM452.218 101.781C450.963 104.135 447.278 102.863 446.057 102.544L448.286 98.3722C449.506 98.6929 453.529 99.3275 452.218 101.781ZM454.524 95.6764C453.38 97.8168 450.322 96.7293 449.305 96.4627L451.326 92.6795C452.342 92.9462 455.716 93.4438 454.524 95.6764Z" fill="#c8d8fa"/>
<path d="M350.26 309.652C351.704 304.321 357.352 300 362.875 300H568.875C574.398 300 577.704 304.321 576.26 309.652L561.615 363.703C560.171 369.034 554.523 373.355 549 373.355H343C337.477 373.355 334.171 369.034 335.615 363.703L350.26 309.652Z" fill="#c8d8fa"/>
<path d="M428.629 341.503C428.918 340.437 430.048 339.573 431.152 339.573H437.152C438.257 339.573 438.918 340.437 438.629 341.503L435.23 354.051C434.941 355.117 433.811 355.981 432.707 355.981H426.707C425.602 355.981 424.941 355.117 425.23 354.051L428.629 341.503Z" fill="#2563eb"/>
<path d="M444.983 332.817C445.272 331.75 446.401 330.886 447.506 330.886H453.506C454.61 330.886 455.272 331.75 454.983 332.817L449.229 354.051C448.941 355.117 447.811 355.981 446.706 355.981H440.706C439.602 355.981 438.941 355.117 439.229 354.051L444.983 332.817Z" fill="#2563eb"/>
<path d="M461.86 322.199C462.149 321.133 463.278 320.269 464.383 320.269H470.383C471.487 320.269 472.149 321.133 471.86 322.199L463.23 354.051C462.941 355.117 461.811 355.981 460.707 355.981H454.707C453.602 355.981 452.941 355.117 453.23 354.051L461.86 322.199Z" fill="#2563eb"/>
<path d="M472.983 332.817C473.272 331.75 474.401 330.886 475.506 330.886H481.506C482.61 330.886 483.272 331.75 482.983 332.817L477.229 354.051C476.941 355.117 475.811 355.981 474.706 355.981H468.706C467.602 355.981 466.941 355.117 467.229 354.051L472.983 332.817Z" fill="#2563eb"/>
<path d="M488.29 327.99C488.579 326.924 489.709 326.06 490.813 326.06H496.813C497.918 326.06 498.579 326.924 498.29 327.99L491.23 354.051C490.941 355.117 489.811 355.981 488.706 355.981H482.706C481.602 355.981 480.941 355.117 481.23 354.051L488.29 327.99Z" fill="#2563eb"/>
<path d="M503.076 325.095C503.364 324.029 504.494 323.165 505.599 323.165H511.599C512.703 323.165 513.364 324.029 513.076 325.095L505.23 354.051C504.941 355.117 503.812 355.981 502.707 355.981H496.707C495.603 355.981 494.941 355.117 495.23 354.051L503.076 325.095Z" fill="#2563eb"/>
<path d="M514.46 334.747C514.749 333.681 515.879 332.816 516.983 332.816H522.983C524.088 332.816 524.749 333.681 524.46 334.747L519.23 354.051C518.941 355.117 517.812 355.981 516.707 355.981H510.707C509.602 355.981 508.941 355.117 509.23 354.051L514.46 334.747Z" fill="#2563eb"/>
<path d="M529.768 329.921C530.057 328.855 531.186 327.991 532.291 327.991H538.291C539.396 327.991 540.057 328.855 539.768 329.921L533.23 354.051C532.941 355.117 531.812 355.982 530.707 355.982H524.707C523.602 355.982 522.941 355.117 523.23 354.051L529.768 329.921Z" fill="#2563eb"/>
<path d="M540.629 341.503C540.918 340.437 542.048 339.573 543.152 339.573H549.152C550.257 339.573 550.918 340.437 550.629 341.503L547.23 354.051C546.941 355.117 545.811 355.981 544.707 355.981H538.707C537.602 355.981 536.941 355.117 537.23 354.051L540.629 341.503Z" fill="#2563eb"/>
<path d="M402.938 336.678C400.049 347.339 388.753 355.982 377.707 355.982C366.662 355.982 360.049 347.339 362.938 336.678C365.826 326.016 377.122 317.374 388.168 317.374C399.214 317.374 405.826 326.016 402.938 336.678Z" fill="#d6e2fb"/>
<path fill-rule="evenodd" clip-rule="evenodd" d="M391.434 336.754C391.434 336.754 391.469 336.8 391.457 336.846C391.54 336.892 391.432 336.938 391.384 336.938C390.892 337.168 390.449 337.399 390.005 337.629L390.004 337.629C388.709 338.273 387.428 338.907 386.148 339.54C384.867 340.173 383.586 340.806 382.291 341.45C382.291 341.45 382.23 341.497 382.183 341.497C381.993 341.43 381.841 341.314 381.696 341.203C381.641 341.161 381.587 341.12 381.532 341.082C379.486 339.655 377.427 338.274 375.368 336.892L375.368 336.892L375.381 336.846H375.428C375.628 336.649 375.814 336.434 376.006 336.213C376.128 336.073 376.252 335.93 376.383 335.787C379.042 332.84 381.713 329.848 384.384 326.855L384.385 326.855L386.851 324.092C386.863 324.046 386.876 324 386.923 324C387.019 324 387.006 324.046 386.994 324.092C387.1 324.387 387.209 324.686 387.319 324.988C387.603 325.767 387.893 326.564 388.159 327.361C389.219 330.492 390.327 333.623 391.434 336.754L391.434 336.754ZM385.328 341.243C386.498 340.668 387.668 340.092 388.825 339.517C389.545 339.148 390.265 338.78 390.877 338.458C390.901 338.458 390.916 338.446 390.931 338.435C390.946 338.423 390.961 338.412 390.985 338.412C390.979 338.435 390.964 338.446 390.949 338.458C390.934 338.469 390.919 338.481 390.912 338.504C389.114 340.299 387.319 342.083 385.524 343.868C383.728 345.652 381.933 347.436 380.135 349.232L380.014 349.324C379.979 349.278 379.959 349.22 379.939 349.163C379.919 349.105 379.898 349.048 379.863 349.002C379.236 347.62 378.596 346.239 377.957 344.858C377.317 343.476 376.678 342.095 376.05 340.714C375.888 340.345 375.713 339.977 375.539 339.609C375.364 339.24 375.19 338.872 375.027 338.504C375.027 338.504 374.992 338.458 375.004 338.412L375.857 338.964C376.844 339.632 377.823 340.288 378.802 340.944C379.781 341.6 380.761 342.256 381.748 342.924C381.772 342.924 381.781 342.935 381.79 342.947C381.799 342.958 381.807 342.97 381.831 342.97C382.989 342.394 384.159 341.819 385.328 341.243Z" fill="#c8d8fa"/>
<path d="M323.26 402.652C324.704 397.321 330.352 393 335.875 393H541.875C547.398 393 550.704 397.321 549.26 402.652L534.615 456.703C533.171 462.034 527.523 466.355 522 466.355H316C310.477 466.355 307.171 462.034 308.615 456.703L323.26 402.652Z" fill="#c8d8fa"/>
<path d="M401.629 434.503C401.918 433.437 403.048 432.573 404.152 432.573H410.152C411.257 432.573 411.918 433.437 411.629 434.503L408.23 447.051C407.941 448.117 406.811 448.981 405.707 448.981H399.707C398.602 448.981 397.941 448.117 398.23 447.051L401.629 434.503Z" fill="#2563eb"/>
<path d="M417.983 425.817C418.272 424.75 419.401 423.886 420.506 423.886H426.506C427.61 423.886 428.272 424.75 427.983 425.817L422.229 447.051C421.941 448.117 420.811 448.981 419.706 448.981H413.706C412.602 448.981 411.941 448.117 412.229 447.051L417.983 425.817Z" fill="#2563eb"/>
<path d="M434.86 415.199C435.149 414.133 436.278 413.269 437.383 413.269H443.383C444.487 413.269 445.149 414.133 444.86 415.199L436.23 447.051C435.941 448.117 434.811 448.981 433.707 448.981H427.707C426.602 448.981 425.941 448.117 426.23 447.051L434.86 415.199Z" fill="#2563eb"/>
<path d="M445.983 425.817C446.272 424.75 447.401 423.886 448.506 423.886H454.506C455.61 423.886 456.272 424.75 455.983 425.817L450.229 447.051C449.941 448.117 448.811 448.981 447.706 448.981H441.706C440.602 448.981 439.941 448.117 440.229 447.051L445.983 425.817Z" fill="#2563eb"/>
<path d="M461.29 420.99C461.579 419.924 462.709 419.06 463.813 419.06H469.813C470.918 419.06 471.579 419.924 471.29 420.99L464.23 447.051C463.941 448.117 462.811 448.981 461.706 448.981H455.706C454.602 448.981 453.941 448.117 454.23 447.051L461.29 420.99Z" fill="#2563eb"/>
<path d="M476.076 418.095C476.364 417.029 477.494 416.165 478.599 416.165H484.599C485.703 416.165 486.364 417.029 486.076 418.095L478.23 447.051C477.941 448.117 476.812 448.981 475.707 448.981H469.707C468.603 448.981 467.941 448.117 468.23 447.051L476.076 418.095Z" fill="#2563eb"/>
<path d="M487.46 427.747C487.749 426.681 488.879 425.816 489.983 425.816H495.983C497.088 425.816 497.749 426.681 497.46 427.747L492.23 447.051C491.941 448.117 490.812 448.981 489.707 448.981H483.707C482.602 448.981 481.941 448.117 482.23 447.051L487.46 427.747Z" fill="#2563eb"/>
<path d="M502.768 422.921C503.057 421.855 504.186 420.991 505.291 420.991H511.291C512.396 420.991 513.057 421.855 512.768 422.921L506.23 447.051C505.941 448.117 504.812 448.982 503.707 448.982H497.707C496.602 448.982 495.941 448.117 496.23 447.051L502.768 422.921Z" fill="#2563eb"/>
<path d="M513.629 434.503C513.918 433.437 515.048 432.573 516.152 432.573H522.152C523.257 432.573 523.918 433.437 523.629 434.503L520.23 447.051C519.941 448.117 518.811 448.981 517.707 448.981H511.707C510.602 448.981 509.941 448.117 510.23 447.051L513.629 434.503Z" fill="#2563eb"/>
<path d="M375.938 429.678C373.049 440.339 361.753 448.982 350.707 448.982C339.662 448.982 333.049 440.339 335.938 429.678C338.826 419.016 350.122 410.374 361.168 410.374C372.214 410.374 378.826 419.016 375.938 429.678Z" fill="#d6e2fb"/>
<path fill-rule="evenodd" clip-rule="evenodd" d="M351.701 422.195C351.866 422.072 352.061 422 352.241 422H369.065C369.372 422 369.429 422.359 369.154 422.569L364.96 425.782C364.8 425.905 364.606 425.977 364.42 425.977H347.596C347.289 425.977 347.232 425.618 347.507 425.408L351.701 422.195ZM348.45 434.191C348.611 434.068 348.805 433.996 348.991 433.996H365.814C366.122 433.996 366.178 434.355 365.904 434.565L361.71 437.778C361.55 437.901 361.355 437.973 361.17 437.973H344.346C344.039 437.973 343.982 437.614 344.256 437.404L348.45 434.191ZM363.883 427.96C364.068 427.96 364.224 428.031 364.318 428.154L366.771 431.368C366.931 431.578 366.68 431.936 366.373 431.936H349.549C349.363 431.936 349.208 431.865 349.114 431.742L346.661 428.529C346.501 428.318 346.752 427.96 347.059 427.96H363.883Z" fill="#c8d8fa"/>
<path d="M28.2063 406.695C20.6231 418.665 43.4451 446.721 79.1806 469.359C114.916 491.997 150.033 500.645 157.616 488.675C158.872 486.692 163.347 478.5 164.847 475C163.17 461.058 136.458 444.899 106.642 426.01C76.0494 406.63 48.1459 388.216 35.3466 393.5C33.3466 397 29.2977 404.972 28.2063 406.695Z" fill="#c8d8fa"/>
<path d="M28.2063 406.695C20.6231 418.665 43.4451 446.721 79.1806 469.359C114.916 491.997 150.033 500.645 157.616 488.675C158.872 486.692 163.347 478.5 164.847 475C163.17 461.058 136.458 444.899 106.642 426.01C76.0494 406.63 48.1459 388.216 35.3466 393.5C33.3466 397 29.2977 404.972 28.2063 406.695Z" fill="url(#paint2_linear_243_1601)"/>
<path d="M35.2063 393.694C27.623 405.665 50.445 433.721 86.1805 456.359C121.916 478.997 157.033 487.645 164.616 475.675C172.199 463.704 149.377 435.648 113.642 413.01C77.9062 390.372 42.7895 381.724 35.2063 393.694Z" fill="#c8d8fa"/>
<path d="M35.2063 393.694C27.623 405.665 50.445 433.721 86.1805 456.359C121.916 478.997 157.033 487.645 164.616 475.675C172.199 463.704 149.377 435.648 113.642 413.01C77.9062 390.372 42.7895 381.724 35.2063 393.694Z" fill="url(#paint3_linear_243_1601)"/>
<path fill-rule="evenodd" clip-rule="evenodd" d="M52.7836 409.915C51.3387 406.883 51.441 405.123 52.0202 404.209C52.5993 403.295 54.1471 402.45 57.5054 402.461C60.7441 402.472 65.0781 403.292 70.2548 404.92C80.5793 408.168 93.8129 414.486 107.465 423.134C121.117 431.783 132.483 441.048 139.83 448.996C143.514 452.981 146.107 456.549 147.501 459.473C148.946 462.504 148.843 464.264 148.264 465.179C147.685 466.093 146.137 466.937 142.779 466.926C139.54 466.915 135.206 466.095 130.029 464.467C119.705 461.22 106.471 454.902 92.8194 446.253C79.1674 437.605 67.8009 428.339 60.4539 420.392C56.7702 416.407 54.177 412.839 52.7836 409.915ZM91.7491 447.943C64.239 430.515 45.6953 410.456 50.3307 403.139C54.966 395.821 81.0251 404.017 108.535 421.445C136.045 438.872 154.589 458.932 149.954 466.249C145.318 473.566 119.259 465.37 91.7491 447.943Z" fill="#d6e2fb"/>
<path d="M7.98583 508.424C3.76683 521.913 32.0722 543.354 71.2075 556.313C110.343 569.273 145.488 568.844 149.707 555.355C150.805 551.845 152.347 546.5 153.847 540.5C145.533 528.283 115.438 517.053 86.4859 507.466C57.3635 497.822 25.9505 488.451 12.3466 493.5C10.3467 499 9.06529 504.973 7.98583 508.424Z" fill="#c8d8fa"/>
<path d="M7.98583 508.424C3.76683 521.913 32.0722 543.354 71.2075 556.313C110.343 569.273 145.488 568.844 149.707 555.355C150.805 551.845 152.347 546.5 153.847 540.5C145.533 528.283 115.438 517.053 86.4859 507.466C57.3635 497.822 25.9505 488.451 12.3466 493.5C10.3467 499 9.06529 504.973 7.98583 508.424Z" fill="url(#paint4_linear_243_1601)"/>
<path d="M11.9859 494.424C7.76686 507.913 36.0722 529.354 75.2075 542.313C114.343 555.273 149.488 554.844 153.707 541.355C157.927 527.866 129.621 506.425 90.4859 493.466C51.3505 480.506 16.2049 480.935 11.9859 494.424Z" fill="#c8d8fa"/>
<path d="M11.9859 494.424C7.76686 507.913 36.0722 529.354 75.2075 542.313C114.343 555.273 149.488 554.844 153.707 541.355C157.927 527.866 129.621 506.425 90.4859 493.466C51.3505 480.506 16.2049 480.935 11.9859 494.424Z" fill="url(#paint5_linear_243_1601)"/>
<path fill-rule="evenodd" clip-rule="evenodd" d="M32.5135 505.742C30.4278 503.184 30.0852 501.454 30.4133 500.405C30.7413 499.356 32.0005 498.156 35.1446 497.33C38.1855 496.531 42.4545 496.239 47.7166 496.517C58.2114 497.073 72.1926 499.871 87.1377 504.82C102.083 509.769 115.026 515.887 123.865 521.734C128.298 524.666 131.6 527.465 133.617 529.939C135.702 532.497 136.045 534.228 135.717 535.276C135.389 536.325 134.13 537.525 130.986 538.351C127.945 539.15 123.676 539.443 118.414 539.164C107.919 538.608 93.9376 535.81 78.9926 530.861C64.0475 525.912 51.1047 519.794 42.265 513.947C37.8327 511.015 34.5307 508.216 32.5135 505.742ZM78.3956 532.77C48.2682 522.793 25.9357 508.022 28.5147 499.776C31.0936 491.531 57.6073 492.934 87.7347 502.911C117.862 512.888 140.195 527.66 137.616 535.905C135.037 544.15 108.523 542.747 78.3956 532.77Z" fill="#d6e2fb"/>
<path d="M734.14 406.695C741.724 418.665 718.902 446.721 683.166 469.359C647.431 491.997 612.314 500.645 604.731 488.675C603.475 486.692 599 478.5 597.5 475C599.177 461.058 625.888 444.899 655.705 426.01C686.297 406.63 714.201 388.216 727 393.5C729 397 733.049 404.972 734.14 406.695Z" fill="#c8d8fa"/>
<path d="M734.14 406.695C741.724 418.665 718.902 446.721 683.166 469.359C647.431 491.997 612.314 500.645 604.731 488.675C603.475 486.692 599 478.5 597.5 475C599.177 461.058 625.888 444.899 655.705 426.01C686.297 406.63 714.201 388.216 727 393.5C729 397 733.049 404.972 734.14 406.695Z" fill="url(#paint6_linear_243_1601)"/>
<path d="M727.14 393.694C734.724 405.665 711.902 433.721 676.166 456.359C640.431 478.997 605.314 487.645 597.731 475.675C590.147 463.704 612.969 435.648 648.705 413.01C684.44 390.372 719.557 381.724 727.14 393.694Z" fill="#c8d8fa"/>
<path d="M727.14 393.694C734.724 405.665 711.902 433.721 676.166 456.359C640.431 478.997 605.314 487.645 597.731 475.675C590.147 463.704 612.969 435.648 648.705 413.01C684.44 390.372 719.557 381.724 727.14 393.694Z" fill="url(#paint7_linear_243_1601)"/>
<path fill-rule="evenodd" clip-rule="evenodd" d="M709.563 409.915C711.008 406.883 710.906 405.123 710.326 404.209C709.747 403.295 708.2 402.45 704.841 402.461C701.603 402.472 697.269 403.292 692.092 404.92C681.767 408.168 668.534 414.486 654.882 423.134C641.23 431.783 629.863 441.048 622.516 448.996C618.833 452.981 616.239 456.549 614.846 459.473C613.401 462.504 613.503 464.264 614.083 465.179C614.662 466.093 616.209 466.937 619.568 466.926C622.806 466.915 627.14 466.095 632.317 464.467C642.642 461.22 655.875 454.902 669.527 446.253C683.179 437.605 694.546 428.339 701.893 420.392C705.577 416.407 708.17 412.839 709.563 409.915ZM670.598 447.943C698.108 430.515 716.651 410.456 712.016 403.139C707.381 395.821 681.322 404.017 653.811 421.445C626.301 438.872 607.758 458.932 612.393 466.249C617.028 473.566 643.087 465.37 670.598 447.943Z" fill="#d6e2fb"/>
<path d="M754.361 508.424C758.58 521.913 730.275 543.354 691.139 556.313C652.004 569.273 616.858 568.844 612.639 555.355C611.541 551.845 610 546.5 608.5 540.5C616.814 528.283 646.908 517.053 675.861 507.466C704.983 497.822 736.396 488.451 750 493.5C752 499 753.281 504.973 754.361 508.424Z" fill="#c8d8fa"/>
<path d="M754.361 508.424C758.58 521.913 730.275 543.354 691.139 556.313C652.004 569.273 616.858 568.844 612.639 555.355C611.541 551.845 610 546.5 608.5 540.5C616.814 528.283 646.908 517.053 675.861 507.466C704.983 497.822 736.396 488.451 750 493.5C752 499 753.281 504.973 754.361 508.424Z" fill="url(#paint8_linear_243_1601)"/>
<path d="M750.361 494.424C754.58 507.913 726.275 529.354 687.139 542.313C648.004 555.273 612.858 554.844 608.639 541.355C604.42 527.866 632.725 506.425 671.861 493.466C710.996 480.506 746.142 480.935 750.361 494.424Z" fill="#c8d8fa"/>
<path d="M750.361 494.424C754.58 507.913 726.275 529.354 687.139 542.313C648.004 555.273 612.858 554.844 608.639 541.355C604.42 527.866 632.725 506.425 671.861 493.466C710.996 480.506 746.142 480.935 750.361 494.424Z" fill="url(#paint9_linear_243_1601)"/>
<path fill-rule="evenodd" clip-rule="evenodd" d="M729.832 505.742C731.918 503.184 732.26 501.454 731.932 500.405C731.604 499.356 730.345 498.156 727.201 497.33C724.16 496.531 719.891 496.239 714.629 496.517C704.134 497.073 690.153 499.871 675.208 504.82C660.263 509.769 647.32 515.887 638.48 521.734C634.048 524.666 630.746 527.465 628.729 529.939C626.643 532.497 626.301 534.228 626.629 535.276C626.957 536.325 628.216 537.525 631.36 538.351C634.401 539.15 638.67 539.443 643.932 539.164C654.427 538.608 668.408 535.81 683.353 530.861C698.298 525.912 711.241 519.794 720.081 513.947C724.513 511.015 727.815 508.216 729.832 505.742ZM683.95 532.77C714.078 522.793 736.41 508.022 733.831 499.776C731.252 491.531 704.738 492.934 674.611 502.911C644.484 512.888 622.151 527.66 624.73 535.905C627.309 544.15 653.823 542.747 683.95 532.77Z" fill="#d6e2fb"/>
<path d="M655 596C655 590.477 650.523 586 645 586H535C529.477 586 525 590.477 525 596V643C525 648.523 529.477 653 535 653H645C650.523 653 655 648.523 655 643V596Z" fill="#d6e2fb"/>
<path d="M655 596C655 590.477 650.523 586 645 586H535C529.477 586 525 590.477 525 596V643C525 648.523 529.477 653 535 653H645C650.523 653 655 648.523 655 643V596Z" fill="url(#paint10_linear_243_1601)" fill-opacity="0.6"/>
<path d="M207 596C207 590.477 211.477 586 217 586H556C561.523 586 566 590.477 566 596V643C566 648.523 561.523 653 556 653H217C211.477 653 207 648.523 207 643V596Z" fill="#d6e2fb"/>
<path d="M169.5 155.5C172.3 163.9 163.333 171 158.5 173.5C154.833 167.166 147 152.7 145 145.5C143 138.3 147.833 134.833 150.5 134C151.5 127.5 157.5 119 168 120C178.5 121 185 128.5 185.5 132.5C186 136.5 184.5 135.5 181 138.5L177 153.5L169.5 155.5Z" fill="#111928"/>
<path d="M158.5 173C164.1 169.4 167.833 162.5 169 159.5L178 167L178.5 188L156.5 188.5L158.5 173Z" fill="#FDBA8C"/>
<path d="M158.5 173C164.1 169.4 167.833 162.5 169 159.5L178 167L178.5 188L156.5 188.5L158.5 173Z" fill="url(#paint11_linear_243_1601)"/>
<path d="M164.508 152.219C167.23 160.278 175.548 171.828 182.999 169.5C185.969 168.572 186.972 163.516 186.978 157.33C186.979 156.409 189.039 157.462 188.999 156.5C188.944 155.187 186.772 151.845 186.654 150.5C186.191 145.197 185.306 139.848 184.499 136C178.499 138 175.999 145.5 175.499 147C174.999 148.5 174.499 150.5 172.999 150.5C172.582 150.5 172.033 150.058 171.452 149.404C169.765 147.508 166.743 147.147 165.136 149.11C164.421 149.985 164.146 151.148 164.508 152.219Z" fill="#FDBA8C"/>
<path d="M182.183 150.17C182.398 150.703 183.003 150.961 183.536 150.747C184.069 150.532 184.327 149.927 184.113 149.394C183.898 148.861 183.293 148.603 182.76 148.817C182.227 149.032 181.969 149.637 182.183 150.17Z" fill="#111928"/>
<path fill-rule="evenodd" clip-rule="evenodd" d="M181.809 146.074C182.494 145.808 183.164 145.873 183.85 146.068C184.116 146.143 184.393 145.989 184.468 145.723C184.543 145.458 184.389 145.181 184.123 145.106C183.33 144.881 182.416 144.766 181.447 145.142C180.483 145.516 179.546 146.344 178.631 147.834C178.487 148.069 178.56 148.377 178.796 148.521C179.031 148.666 179.339 148.592 179.483 148.357C180.331 146.978 181.118 146.342 181.809 146.074Z" fill="#111928"/>
<path fill-rule="evenodd" clip-rule="evenodd" d="M186.403 149.287C186.142 149.378 186.004 149.663 186.095 149.924L188.354 156.421C188.394 156.537 188.317 156.661 188.195 156.676L185.271 157.046C184.997 157.08 184.803 157.33 184.838 157.604C184.873 157.878 185.123 158.072 185.397 158.038L188.32 157.669C189.073 157.574 189.547 156.81 189.298 156.093L187.04 149.595C186.949 149.334 186.664 149.196 186.403 149.287Z" fill="#111928"/>
<path fill-rule="evenodd" clip-rule="evenodd" d="M184.108 161.205C183.488 161.058 182.848 160.795 181.874 160.368C181.621 160.257 181.326 160.373 181.215 160.625C181.104 160.878 181.219 161.173 181.472 161.284C182.438 161.707 183.157 162.007 183.877 162.178C184.61 162.352 185.323 162.388 186.286 162.323C186.561 162.304 186.77 162.066 186.751 161.79C186.732 161.515 186.494 161.307 186.218 161.325C185.32 161.386 184.714 161.349 184.108 161.205Z" fill="#111928"/>
<path fill-rule="evenodd" clip-rule="evenodd" d="M167.345 152.859C167.059 152.182 167.105 151.51 167.28 150.818C167.347 150.55 167.185 150.279 166.917 150.211C166.65 150.143 166.378 150.305 166.31 150.573C166.108 151.373 166.02 152.29 166.423 153.248C166.825 154.2 167.68 155.113 169.196 155.984C169.435 156.122 169.741 156.039 169.878 155.8C170.016 155.561 169.934 155.255 169.694 155.117C168.291 154.31 167.633 153.541 167.345 152.859Z" fill="#111928"/>
<path d="M238 193.5L209 276.5L187.5 244L216.5 187.5L238 193.5Z" fill="#F9FAFB"/>
<path d="M238 193.5L209 276.5L187.5 244L216.5 187.5L238 193.5Z" fill="url(#paint12_linear_243_1601)"/>
<path d="M238 193.5L209 276.5L187.5 244L216.5 187.5L238 193.5Z" fill="url(#paint13_linear_243_1601)"/>
<path d="M85.571 633.973C85.2287 633.691 85.1209 633.221 85.297 632.814L107.5 581.5L126 586.5C121.833 596.667 116 619.9 126 631.5C134.473 641.328 135.886 648.501 135.715 651.983C135.671 652.888 134.87 653.5 133.963 653.5H119C111.185 653.5 93.8274 640.776 85.571 633.973Z" fill="#F9FAFB"/>
<path d="M85.571 633.973C85.2287 633.691 85.1209 633.221 85.297 632.814L107.5 581.5L126 586.5C121.833 596.667 116 619.9 126 631.5C134.473 641.328 135.886 648.501 135.715 651.983C135.671 652.888 134.87 653.5 133.963 653.5H119C111.185 653.5 93.8274 640.776 85.571 633.973Z" fill="url(#paint14_linear_243_1601)"/>
<path fill-rule="evenodd" clip-rule="evenodd" d="M128.566 634.638C128.988 635.185 129.39 635.722 129.772 636.249C122.781 640.337 119.668 646.813 118.973 649.732L117.027 649.268C117.817 645.953 121.16 639.052 128.566 634.638ZM90.8486 619.984L91.6998 618.017C94.578 620.723 96.9179 624.781 98.7144 628.832C100.854 633.657 102.299 638.649 102.978 641.789L101.023 642.211C100.368 639.185 98.963 634.326 96.8861 629.643C95.2304 625.909 93.1945 622.396 90.8486 619.984Z" fill="#c8d8fa"/>
<path d="M119 653.5C111.187 653.5 93.8362 640.782 85.5773 633.978C85.2322 633.694 85.1256 633.218 85.3072 632.809L86.8916 629.244C86.9458 629.122 87.0973 629.082 87.1992 629.169C95.124 635.889 112.257 649 119 649H135.501C136.054 649 136.5 649.448 136.5 650V652.5C136.5 653.052 136.055 653.5 135.503 653.5H119Z" fill="#111928"/>
<path d="M249.5 653.5L240.5 611H269C273.667 617.833 285.5 632.8 295.5 638C305.5 643.2 308 650.5 308 653.5H249.5Z" fill="#F9FAFB"/>
<path d="M249.5 653.5L240.5 611H269C273.667 617.833 285.5 632.8 295.5 638C305.5 643.2 308 650.5 308 653.5H249.5Z" fill="url(#paint15_linear_243_1601)"/>
<path fill-rule="evenodd" clip-rule="evenodd" d="M272.886 653.5H270.421C268.298 650.716 265.306 647.915 261.752 645.586C257.311 642.676 252.066 640.551 246.661 640.092L246.229 638.055C252.254 638.436 258.038 640.761 262.848 643.914C267.052 646.669 270.572 650.095 272.886 653.5ZM288.527 653.5H286.467C287.212 650.386 288.556 646.936 290.195 643.9C291.232 641.98 292.402 640.198 293.638 638.756C293.994 638.34 294.36 637.948 294.734 637.585C294.991 637.729 295.246 637.868 295.5 638C295.875 638.195 296.239 638.393 296.593 638.593C296.124 639 295.643 639.489 295.157 640.057C294.036 641.364 292.944 643.02 291.955 644.85C290.464 647.611 289.245 650.706 288.527 653.5Z" fill="#c8d8fa"/>
<path d="M248.239 650.196C248.116 649.577 248.589 649 249.22 649H307C307.553 649 308 649.448 308 650V653C308 653.552 307.553 654 307 654H249.82C249.343 654 248.933 653.664 248.839 653.196L248.239 650.196Z" fill="#111928"/>
<path d="M142 450L139.5 298H212.5L285.436 614.551C285.725 615.804 284.773 617 283.487 617H234.597C233.663 617 232.854 616.353 232.647 615.442L191.5 434L188.867 463.619C187.961 473.813 185.496 483.807 181.557 493.252L134.473 606.167C133.976 607.358 132.498 607.774 131.453 607.017L100.175 584.351C99.4744 583.844 99.1797 582.943 99.4451 582.119L142 450Z" fill="#2563eb"/>
<path d="M142 450L139.5 298H212.5L285.436 614.551C285.725 615.804 284.773 617 283.487 617H234.597C233.663 617 232.854 616.353 232.647 615.442L191.5 434L188.867 463.619C187.961 473.813 185.496 483.807 181.557 493.252L134.473 606.167C133.976 607.358 132.498 607.774 131.453 607.017L100.175 584.351C99.4744 583.844 99.1797 582.943 99.4451 582.119L142 450Z" fill="url(#paint16_linear_243_1601)"/>
<path fill-rule="evenodd" clip-rule="evenodd" d="M191.494 434.069L188.868 463.619C187.961 473.813 185.496 483.807 181.557 493.252L151.162 566.145L170.5 466L174.5 358.5L191.494 434.069Z" fill="url(#paint17_linear_243_1601)"/>
<path fill-rule="evenodd" clip-rule="evenodd" d="M196.992 326.639C205.533 321.592 209.253 313.865 210.03 310.757L211.971 311.242C211.102 314.717 207.255 322.624 198.641 327.978L263.974 605.271L262.027 605.729L196.358 327.013L196.992 326.639Z" fill="#c8d8fa"/>
<path fill-rule="evenodd" clip-rule="evenodd" d="M285 225.998C318.735 225.729 346 198.299 346 164.5C346 130.701 318.735 103.271 285 103.002V103H284.5H278V103.339C247.09 106.586 223 132.73 223 164.5C223 196.27 247.09 222.414 278 225.661V226H284.5H285V225.998Z" fill="#2563eb"/>
<path fill-rule="evenodd" clip-rule="evenodd" d="M285 225.998C318.735 225.729 346 198.299 346 164.5C346 130.701 318.735 103.271 285 103.002V103H284.5H278V103.339C247.09 106.586 223 132.73 223 164.5C223 196.27 247.09 222.414 278 225.661V226H284.5H285V225.998Z" fill="url(#paint18_linear_243_1601)"/>
<path d="M339 164.5C339 198.466 311.466 226 277.5 226C243.534 226 216 198.466 216 164.5C216 130.534 243.534 103 277.5 103C311.466 103 339 130.534 339 164.5Z" fill="#2563eb"/>
<path d="M339 164.5C339 198.466 311.466 226 277.5 226C243.534 226 216 198.466 216 164.5C216 130.534 243.534 103 277.5 103C311.466 103 339 130.534 339 164.5Z" fill="url(#paint19_linear_243_1601)"/>
<path fill-rule="evenodd" clip-rule="evenodd" d="M277.5 212C303.734 212 325 190.734 325 164.5C325 138.266 303.734 117 277.5 117C251.266 117 230 138.266 230 164.5C230 190.734 251.266 212 277.5 212ZM277.5 213C304.286 213 326 191.286 326 164.5C326 137.714 304.286 116 277.5 116C250.714 116 229 137.714 229 164.5C229 191.286 250.714 213 277.5 213Z" fill="url(#paint20_linear_243_1601)"/>
<path d="M299.88 157.925C300.837 151.41 295.966 147.908 289.305 145.572L291.466 136.747L286.19 135.408L284.086 144.001C282.699 143.649 281.275 143.317 279.859 142.988L281.978 134.339L276.705 133L274.543 141.822C273.396 141.556 272.268 141.293 271.175 141.016L271.181 140.988L263.905 139.138L262.502 144.876C262.502 144.876 266.416 145.789 266.333 145.845C268.47 146.388 268.856 147.828 268.792 148.97L266.331 159.023C266.478 159.061 266.669 159.116 266.879 159.203C266.703 159.158 266.516 159.11 266.321 159.062L262.871 173.146C262.61 173.807 261.948 174.798 260.454 174.422C260.507 174.5 256.619 173.447 256.619 173.447L254 179.597L260.866 181.339C262.143 181.665 263.395 182.007 264.627 182.327L262.444 191.254L267.714 192.592L269.876 183.761C271.315 184.159 272.712 184.526 274.08 184.872L271.925 193.661L277.201 195L279.384 186.091C288.381 187.824 295.145 187.125 297.993 178.84C300.287 172.169 297.879 168.321 293.146 165.812C296.593 165.003 299.189 162.694 299.882 157.925L299.88 157.925ZM287.826 175.135C286.195 181.806 275.165 178.2 271.588 177.296L274.486 165.47C278.062 166.379 289.53 168.178 287.826 175.135ZM289.457 157.828C287.97 163.896 278.789 160.813 275.811 160.057L278.438 149.332C281.416 150.088 291.006 151.499 289.457 157.828Z" fill="url(#paint21_linear_243_1601)"/>
<path d="M314.5 200C310.5 206 304.5 211.833 302 214C302.5 218.5 305.2 225.9 312 219.5C320.5 211.5 330 193.5 327.5 191.5C325 189.5 319.5 192.5 314.5 200Z" fill="#FDBA8C"/>
<path d="M314.5 200C310.5 206 304.5 211.833 302 214C302.5 218.5 305.2 225.9 312 219.5C320.5 211.5 330 193.5 327.5 191.5C325 189.5 319.5 192.5 314.5 200Z" fill="url(#paint22_linear_243_1601)"/>
<path d="M168.5 187.5C163.083 187.5 156.716 186.413 153.444 185.711C152.846 185.583 152.217 185.72 151.75 186.114C140.76 195.395 137.663 210.816 137.5 217.5L134.574 300.43C134.534 301.561 135.44 302.5 136.572 302.5H215.294C216.476 302.5 217.4 301.48 217.284 300.304L211 236.5L245.423 270.532C250.772 275.819 259.342 275.936 264.833 270.797L315.853 223.042C316.729 222.222 316.691 220.821 315.771 220.05L303.17 209.481C302.48 208.902 301.487 208.856 300.746 209.37L259.304 238.097C258.54 238.626 257.516 238.563 256.832 237.935C251.008 232.579 238.556 220.546 227 207.5C214.865 193.798 195.673 186.323 187.048 184.135C186.686 184.044 186.316 184.063 185.96 184.177C182.186 185.386 174.211 187.5 168.5 187.5Z" fill="#F9FAFB"/>
<path d="M168.5 187.5C163.083 187.5 156.716 186.413 153.444 185.711C152.846 185.583 152.217 185.72 151.75 186.114C140.76 195.395 137.663 210.816 137.5 217.5L134.574 300.43C134.534 301.561 135.44 302.5 136.572 302.5H215.294C216.476 302.5 217.4 301.48 217.284 300.304L211 236.5L245.423 270.532C250.772 275.819 259.342 275.936 264.833 270.797L315.853 223.042C316.729 222.222 316.691 220.821 315.771 220.05L303.17 209.481C302.48 208.902 301.487 208.856 300.746 209.37L259.304 238.097C258.54 238.626 257.516 238.563 256.832 237.935C251.008 232.579 238.556 220.546 227 207.5C214.865 193.798 195.673 186.323 187.048 184.135C186.686 184.044 186.316 184.063 185.96 184.177C182.186 185.386 174.211 187.5 168.5 187.5Z" fill="url(#paint23_linear_243_1601)"/>
<path d="M168.5 187.5C163.083 187.5 156.716 186.413 153.444 185.711C152.846 185.583 152.217 185.72 151.75 186.114C140.76 195.395 137.663 210.816 137.5 217.5L134.574 300.43C134.534 301.561 135.44 302.5 136.572 302.5H215.294C216.476 302.5 217.4 301.48 217.284 300.304L211 236.5L245.423 270.532C250.772 275.819 259.342 275.936 264.833 270.797L315.853 223.042C316.729 222.222 316.691 220.821 315.771 220.05L303.17 209.481C302.48 208.902 301.487 208.856 300.746 209.37L259.304 238.097C258.54 238.626 257.516 238.563 256.832 237.935C251.008 232.579 238.556 220.546 227 207.5C214.865 193.798 195.673 186.323 187.048 184.135C186.686 184.044 186.316 184.063 185.96 184.177C182.186 185.386 174.211 187.5 168.5 187.5Z" fill="url(#paint24_linear_243_1601)"/>
<path fill-rule="evenodd" clip-rule="evenodd" d="M216.515 292.5H134.853L134.782 294.5H216.712L216.515 292.5Z" fill="#c8d8fa"/>
<path fill-rule="evenodd" clip-rule="evenodd" d="M290.646 216.371L292.347 215.192L309.084 229.378L307.614 230.754L290.646 216.371Z" fill="#c8d8fa"/>
<defs>
<linearGradient id="paint0_linear_243_1601" x1="598" y1="485.5" x2="378.367" y2="-131.553" gradientUnits="userSpaceOnUse">
<stop stop-color="#2563eb"/>
<stop offset="1" stop-color="#2563eb" stop-opacity="0"/>
</linearGradient>
<linearGradient id="paint1_linear_243_1601" x1="403.361" y1="774.469" x2="403.361" y2="-343.333" gradientUnits="userSpaceOnUse">
<stop stop-color="#9ab7f6"/>
<stop offset="1" stop-color="#9ab7f6" stop-opacity="0"/>
</linearGradient>
<linearGradient id="paint2_linear_243_1601" x1="255.847" y1="480.5" x2="78.7459" y2="469.084" gradientUnits="userSpaceOnUse">
<stop stop-color="#2563eb"/>
<stop offset="1" stop-color="#2563eb" stop-opacity="0"/>
</linearGradient>
<linearGradient id="paint3_linear_243_1601" x1="44.1961" y1="358.397" x2="117.388" y2="487.528" gradientUnits="userSpaceOnUse">
<stop stop-color="#d6e2fb"/>
<stop offset="1" stop-color="#d6e2fb" stop-opacity="0"/>
</linearGradient>
<linearGradient id="paint4_linear_243_1601" x1="236.347" y1="558.5" x2="46.441" y2="552.838" gradientUnits="userSpaceOnUse">
<stop stop-color="#2563eb"/>
<stop offset="1" stop-color="#2563eb" stop-opacity="0"/>
</linearGradient>
<linearGradient id="paint5_linear_243_1601" x1="11.8467" y1="458" x2="115.12" y2="561.72" gradientUnits="userSpaceOnUse">
<stop stop-color="#d6e2fb"/>
<stop offset="1" stop-color="#d6e2fb" stop-opacity="0"/>
</linearGradient>
<linearGradient id="paint6_linear_243_1601" x1="506.5" y1="480.5" x2="683.601" y2="469.084" gradientUnits="userSpaceOnUse">
<stop stop-color="#2563eb"/>
<stop offset="1" stop-color="#2563eb" stop-opacity="0"/>
</linearGradient>
<linearGradient id="paint7_linear_243_1601" x1="718.151" y1="358.397" x2="644.959" y2="487.528" gradientUnits="userSpaceOnUse">
<stop stop-color="#d6e2fb"/>
<stop offset="1" stop-color="#d6e2fb" stop-opacity="0"/>
</linearGradient>
<linearGradient id="paint8_linear_243_1601" x1="526" y1="558.5" x2="715.906" y2="552.838" gradientUnits="userSpaceOnUse">
<stop stop-color="#2563eb"/>
<stop offset="1" stop-color="#2563eb" stop-opacity="0"/>
</linearGradient>
<linearGradient id="paint9_linear_243_1601" x1="750.5" y1="458" x2="647.227" y2="561.72" gradientUnits="userSpaceOnUse">
<stop stop-color="#d6e2fb"/>
<stop offset="1" stop-color="#d6e2fb" stop-opacity="0"/>
</linearGradient>
<linearGradient id="paint10_linear_243_1601" x1="569.463" y1="797.5" x2="631.228" y2="563.825" gradientUnits="userSpaceOnUse">
<stop stop-color="#2563eb"/>
<stop offset="1" stop-color="#2563eb" stop-opacity="0"/>
</linearGradient>
<linearGradient id="paint11_linear_243_1601" x1="185.5" y1="151.5" x2="170" y2="181" gradientUnits="userSpaceOnUse">
<stop stop-color="#7F270F"/>
<stop offset="1" stop-color="#7F270F" stop-opacity="0"/>
</linearGradient>
<linearGradient id="paint12_linear_243_1601" x1="195.275" y1="413.568" x2="101.514" y2="319.544" gradientUnits="userSpaceOnUse">
<stop stop-color="#c8d8fa"/>
<stop offset="1" stop-color="#c8d8fa" stop-opacity="0"/>
</linearGradient>
<linearGradient id="paint13_linear_243_1601" x1="170.5" y1="229" x2="258" y2="192" gradientUnits="userSpaceOnUse">
<stop stop-color="#c8d8fa"/>
<stop offset="1" stop-color="#c8d8fa" stop-opacity="0"/>
</linearGradient>
<linearGradient id="paint14_linear_243_1601" x1="128.5" y1="577.134" x2="139.093" y2="640.645" gradientUnits="userSpaceOnUse">
<stop stop-color="#c8d8fa"/>
<stop offset="1" stop-color="#c8d8fa" stop-opacity="0"/>
</linearGradient>
<linearGradient id="paint15_linear_243_1601" x1="245.5" y1="598.5" x2="271" y2="639" gradientUnits="userSpaceOnUse">
<stop stop-color="#c8d8fa"/>
<stop offset="1" stop-color="#c8d8fa" stop-opacity="0"/>
</linearGradient>
<linearGradient id="paint16_linear_243_1601" x1="192.5" y1="124.5" x2="192.5" y2="386" gradientUnits="userSpaceOnUse">
<stop stop-color="#111928"/>
<stop offset="1" stop-color="#111928" stop-opacity="0"/>
</linearGradient>
<linearGradient id="paint17_linear_243_1601" x1="236" y1="327" x2="187.5" y2="473" gradientUnits="userSpaceOnUse">
<stop stop-color="#111928"/>
<stop offset="1" stop-color="#111928" stop-opacity="0"/>
</linearGradient>
<linearGradient id="paint18_linear_243_1601" x1="327.5" y1="241" x2="327.5" y2="61" gradientUnits="userSpaceOnUse">
<stop stop-color="#111928"/>
<stop offset="1" stop-color="#111928" stop-opacity="0"/>
</linearGradient>
<linearGradient id="paint19_linear_243_1601" x1="277.5" y1="23" x2="277.5" y2="189" gradientUnits="userSpaceOnUse">
<stop stop-color="#c8d8fa"/>
<stop offset="1" stop-color="#c8d8fa" stop-opacity="0"/>
</linearGradient>
<linearGradient id="paint20_linear_243_1601" x1="277.5" y1="116" x2="277.5" y2="269.5" gradientUnits="userSpaceOnUse">
<stop stop-color="#d6e2fb"/>
<stop offset="1" stop-color="#d6e2fb" stop-opacity="0"/>
</linearGradient>
<linearGradient id="paint21_linear_243_1601" x1="277" y1="133" x2="277" y2="247.5" gradientUnits="userSpaceOnUse">
<stop stop-color="#d6e2fb"/>
<stop offset="1" stop-color="#d6e2fb" stop-opacity="0"/>
</linearGradient>
<linearGradient id="paint22_linear_243_1601" x1="268.5" y1="248" x2="317.5" y2="208.5" gradientUnits="userSpaceOnUse">
<stop stop-color="#7F270F"/>
<stop offset="1" stop-color="#7F270F" stop-opacity="0"/>
</linearGradient>
<linearGradient id="paint23_linear_243_1601" x1="162.675" y1="485" x2="82.0203" y2="264.872" gradientUnits="userSpaceOnUse">
<stop stop-color="#c8d8fa"/>
<stop offset="1" stop-color="#c8d8fa" stop-opacity="0"/>
</linearGradient>
<linearGradient id="paint24_linear_243_1601" x1="245.908" y1="49.0001" x2="245.908" y2="230" gradientUnits="userSpaceOnUse">
<stop stop-color="#c8d8fa"/>
<stop offset="1" stop-color="#c8d8fa" stop-opacity="0"/>
</linearGradient>
</defs>
</svg>