<svg class="w-auto max-w-[16rem] h-40 text-gray-800 dark:text-white" aria-hidden="true" width="772" height="463" viewBox="0 0 772 463" fill="none" xmlns="http://www.w3.org/2000/svg">
<path d="M656 81H115C111.686 81 109 83.6863 109 87V444C109 445.105 109.895 446 111 446H660C661.105 446 662 445.105 662 444V87C662 83.6863 659.314 81 656 81Z" fill="#d6e2fb"/>
<path d="M656 81H115C111.686 81 109 83.6863 109 87V444C109 445.105 109.895 446 111 446H660C661.105 446 662 445.105 662 444V87C662 83.6863 659.314 81 656 81Z" fill="url(#paint0_linear_749_12)"/>
<path d="M772 448C772 446.895 771.105 446 770 446L2 446C0.895447 446 -7.8281e-08 446.895 -1.74846e-07 448L-1.31135e-06 461C-1.40791e-06 462.105 0.895445 463 2 463L770 463C771.105 463 772 462.105 772 461L772 448Z" fill="#d6e2fb"/>
<path d="M772 448C772 446.895 771.105 446 770 446L2 446C0.895447 446 -7.8281e-08 446.895 -1.74846e-07 448L-1.31135e-06 461C-1.40791e-06 462.105 0.895445 463 2 463L770 463C771.105 463 772 462.105 772 461L772 448Z" fill="url(#paint1_linear_749_12)"/>
<path d="M509 114C509 112.895 509.895 112 511 112H633C634.105 112 635 112.895 635 114V343C635 344.105 634.105 345 633 345H511C509.895 345 509 344.105 509 343V114Z" fill="#F9FAFB"/>
<path d="M509 114C509 112.895 509.895 112 511 112H633C634.105 112 635 112.895 635 114V343C635 344.105 634.105 345 633 345H511C509.895 345 509 344.105 509 343V114Z" fill="url(#paint2_linear_749_12)"/>
<path fill-rule="evenodd" clip-rule="evenodd" d="M633 114L511 114L511 343H633V114ZM511 112C509.895 112 509 112.895 509 114V343C509 344.105 509.895 345 511 345H633C634.105 345 635 344.105 635 343V114C635 112.895 634.105 112 633 112H511Z" fill="#9ab7f6"/>
<path d="M509 274C509 272.895 509.895 272 511 272H633C634.105 272 635 272.895 635 274V343C635 344.105 634.105 345 633 345H511C509.895 345 509 344.105 509 343V274Z" fill="#c8d8fa"/>
<path fill-rule="evenodd" clip-rule="evenodd" d="M633 274H511L511 343H633V274ZM511 272C509.895 272 509 272.895 509 274V343C509 344.105 509.895 345 511 345H633C634.105 345 635 344.105 635 343V274C635 272.895 634.105 272 633 272H511Z" fill="#9ab7f6"/>
<path d="M502 358C502 359.105 502.895 360 504 360H640C641.105 360 642 359.105 642 358V345C642 343.895 641.105 343 640 343H504C502.895 343 502 343.895 502 345V358Z" fill="#9ab7f6"/>
<path d="M502 358C502 359.105 502.895 360 504 360H640C641.105 360 642 359.105 642 358V345C642 343.895 641.105 343 640 343H504C502.895 343 502 343.895 502 345V358Z" fill="url(#paint3_linear_749_12)"/>
<path d="M572.978 226.527V224.413C572.978 222.716 573.344 221.151 574.074 219.715C574.818 218.28 575.894 217.125 577.303 216.251C578.712 215.377 580.428 214.94 582.45 214.94C584.524 214.94 586.266 215.37 587.675 216.231C589.097 217.093 590.174 218.241 590.904 219.676C591.635 221.112 592 222.69 592 224.413V226.527C592 228.223 591.628 229.789 590.885 231.224C590.154 232.66 589.078 233.814 587.656 234.689C586.234 235.563 584.498 236 582.45 236C580.402 236 578.673 235.563 577.264 234.689C575.855 233.814 574.785 232.66 574.055 231.224C573.337 229.789 572.978 228.223 572.978 226.527ZM579.789 224.413V226.527C579.789 227.27 579.971 228.008 580.337 228.738C580.715 229.456 581.419 229.815 582.45 229.815C583.533 229.815 584.244 229.463 584.583 228.758C584.935 228.053 585.112 227.31 585.112 226.527V224.413C585.112 223.63 584.948 222.873 584.622 222.142C584.296 221.412 583.572 221.046 582.45 221.046C581.419 221.046 580.715 221.412 580.337 222.142C579.971 222.873 579.789 223.63 579.789 224.413ZM552 203.587V201.473C552 199.751 552.372 198.172 553.115 196.737C553.872 195.301 554.955 194.153 556.364 193.292C557.773 192.431 559.476 192 561.472 192C563.546 192 565.288 192.431 566.697 193.292C568.119 194.153 569.195 195.301 569.926 196.737C570.656 198.172 571.022 199.751 571.022 201.473V203.587C571.022 205.31 570.65 206.882 569.906 208.304C569.175 209.727 568.099 210.862 566.677 211.71C565.255 212.558 563.52 212.982 561.472 212.982C559.423 212.982 557.695 212.552 556.286 211.69C554.877 210.829 553.807 209.687 553.076 208.265C552.359 206.843 552 205.284 552 203.587ZM558.888 201.473V203.587C558.888 204.37 559.071 205.114 559.436 205.819C559.802 206.523 560.48 206.875 561.472 206.875C562.554 206.875 563.265 206.523 563.605 205.819C563.957 205.114 564.133 204.37 564.133 203.587V201.473C564.133 200.69 563.97 199.934 563.644 199.203C563.318 198.472 562.594 198.107 561.472 198.107C560.441 198.107 559.75 198.485 559.397 199.242C559.058 199.986 558.888 200.73 558.888 201.473ZM555.327 234.043L582.881 193.957H588.438L560.885 234.043H555.327Z" fill="#2563eb"/>
<path d="M136 114C136 112.895 136.895 112 138 112H260C261.105 112 262 112.895 262 114V343C262 344.105 261.105 345 260 345H138C136.895 345 136 344.105 136 343V114Z" fill="#F9FAFB"/>
<path d="M136 114C136 112.895 136.895 112 138 112H260C261.105 112 262 112.895 262 114V343C262 344.105 261.105 345 260 345H138C136.895 345 136 344.105 136 343V114Z" fill="url(#paint4_linear_749_12)"/>
<path fill-rule="evenodd" clip-rule="evenodd" d="M260 114L138 114L138 343H260V114ZM138 112C136.895 112 136 112.895 136 114V343C136 344.105 136.895 345 138 345H260C261.105 345 262 344.105 262 343V114C262 112.895 261.105 112 260 112H138Z" fill="#9ab7f6"/>
<path d="M136 274C136 272.895 136.895 272 138 272H260C261.105 272 262 272.895 262 274V343C262 344.105 261.105 345 260 345H138C136.895 345 136 344.105 136 343V274Z" fill="#c8d8fa"/>
<path fill-rule="evenodd" clip-rule="evenodd" d="M260 274H138L138 343H260V274ZM138 272C136.895 272 136 272.895 136 274V343C136 344.105 136.895 345 138 345H260C261.105 345 262 344.105 262 343V274C262 272.895 261.105 272 260 272H138Z" fill="#9ab7f6"/>
<path d="M129 358C129 359.105 129.895 360 131 360H267C268.105 360 269 359.105 269 358V345C269 343.895 268.105 343 267 343H131C129.895 343 129 343.895 129 345V358Z" fill="#9ab7f6"/>
<path d="M129 358C129 359.105 129.895 360 131 360H267C268.105 360 269 359.105 269 358V345C269 343.895 268.105 343 267 343H131C129.895 343 129 343.895 129 345V358Z" fill="url(#paint5_linear_749_12)"/>
<path d="M199.978 226.527V224.413C199.978 222.716 200.344 221.151 201.074 219.715C201.818 218.28 202.894 217.125 204.303 216.251C205.712 215.377 207.428 214.94 209.45 214.94C211.524 214.94 213.266 215.37 214.675 216.231C216.097 217.093 217.174 218.241 217.904 219.676C218.635 221.112 219 222.69 219 224.413V226.527C219 228.223 218.628 229.789 217.885 231.224C217.154 232.66 216.078 233.814 214.656 234.689C213.234 235.563 211.498 236 209.45 236C207.402 236 205.673 235.563 204.264 234.689C202.855 233.814 201.785 232.66 201.055 231.224C200.337 229.789 199.978 228.223 199.978 226.527ZM206.789 224.413V226.527C206.789 227.27 206.971 228.008 207.337 228.738C207.715 229.456 208.419 229.815 209.45 229.815C210.533 229.815 211.244 229.463 211.583 228.758C211.935 228.053 212.112 227.31 212.112 226.527V224.413C212.112 223.63 211.948 222.873 211.622 222.142C211.296 221.412 210.572 221.046 209.45 221.046C208.419 221.046 207.715 221.412 207.337 222.142C206.971 222.873 206.789 223.63 206.789 224.413ZM179 203.587V201.473C179 199.751 179.372 198.172 180.115 196.737C180.872 195.301 181.955 194.153 183.364 193.292C184.773 192.431 186.476 192 188.472 192C190.546 192 192.288 192.431 193.697 193.292C195.119 194.153 196.195 195.301 196.926 196.737C197.656 198.172 198.022 199.751 198.022 201.473V203.587C198.022 205.31 197.65 206.882 196.906 208.304C196.175 209.727 195.099 210.862 193.677 211.71C192.255 212.558 190.52 212.982 188.472 212.982C186.423 212.982 184.695 212.552 183.286 211.69C181.877 210.829 180.807 209.687 180.076 208.265C179.359 206.843 179 205.284 179 203.587ZM185.888 201.473V203.587C185.888 204.37 186.071 205.114 186.436 205.819C186.802 206.523 187.48 206.875 188.472 206.875C189.554 206.875 190.265 206.523 190.605 205.819C190.957 205.114 191.133 204.37 191.133 203.587V201.473C191.133 200.69 190.97 199.934 190.644 199.203C190.318 198.472 189.594 198.107 188.472 198.107C187.441 198.107 186.75 198.485 186.397 199.242C186.058 199.986 185.888 200.73 185.888 201.473ZM182.327 234.043L209.881 193.957H215.438L187.885 234.043H182.327Z" fill="#2563eb"/>
<path d="M312 114C312 112.895 312.895 112 314 112H458C459.105 112 460 112.895 460 114V444C460 445.105 459.105 446 458 446H314C312.895 446 312 445.105 312 444V114Z" fill="#F9FAFB"/>
<path d="M312 114C312 112.895 312.895 112 314 112H458C459.105 112 460 112.895 460 114V444C460 445.105 459.105 446 458 446H314C312.895 446 312 445.105 312 444V114Z" fill="url(#paint6_linear_749_12)"/>
<path fill-rule="evenodd" clip-rule="evenodd" d="M458 114L314 114L314 444H458V114ZM314 112C312.895 112 312 112.895 312 114V444C312 445.105 312.895 446 314 446H458C459.105 446 460 445.105 460 444V114C460 112.895 459.105 112 458 112H314Z" fill="#9ab7f6"/>
<path d="M323 114C323 112.895 323.895 112 325 112H447C448.105 112 449 112.895 449 114V343C449 344.105 448.105 345 447 345H325C323.895 345 323 344.105 323 343V114Z" fill="#F9FAFB"/>
<path d="M323 114C323 112.895 323.895 112 325 112H447C448.105 112 449 112.895 449 114V343C449 344.105 448.105 345 447 345H325C323.895 345 323 344.105 323 343V114Z" fill="url(#paint7_linear_749_12)"/>
<path fill-rule="evenodd" clip-rule="evenodd" d="M447 114L325 114L325 343H447V114ZM325 112C323.895 112 323 112.895 323 114V343C323 344.105 323.895 345 325 345H447C448.105 345 449 344.105 449 343V114C449 112.895 448.105 112 447 112H325Z" fill="#9ab7f6"/>
<path d="M332 255C332 252.791 333.791 251 336 251C338.209 251 340 252.791 340 255V288C340 290.209 338.209 292 336 292C333.791 292 332 290.209 332 288V255Z" fill="#F9FAFB"/>
<path d="M332 255C332 252.791 333.791 251 336 251C338.209 251 340 252.791 340 255V288C340 290.209 338.209 292 336 292C333.791 292 332 290.209 332 288V255Z" fill="url(#paint8_linear_749_12)"/>
<path fill-rule="evenodd" clip-rule="evenodd" d="M338 288V255C338 253.895 337.105 253 336 253C334.895 253 334 253.895 334 255V288C334 289.105 334.895 290 336 290C337.105 290 338 289.105 338 288ZM336 251C333.791 251 332 252.791 332 255V288C332 290.209 333.791 292 336 292C338.209 292 340 290.209 340 288V255C340 252.791 338.209 251 336 251Z" fill="#9ab7f6"/>
<path d="M349 204C349 202.895 349.895 202 351 202H421C422.105 202 423 202.895 423 204V245C423 246.105 422.105 247 421 247H351C349.895 247 349 246.105 349 245V204Z" fill="#9ab7f6"/>
<path fill-rule="evenodd" clip-rule="evenodd" d="M421 204H351L351 245H421V204ZM351 202C349.895 202 349 202.895 349 204V245C349 246.105 349.895 247 351 247H421C422.105 247 423 246.105 423 245V204C423 202.895 422.105 202 421 202H351Z" fill="#9ab7f6"/>
<path d="M409.001 218.177V231.112H406.07L401.396 224.316H401.32V231.112H397.809V218.177H400.79L405.388 224.948H405.489V218.177H409.001Z" fill="#d6e2fb"/>
<path d="M387.453 231.112V218.177H396.776V221.006H390.965V223.23H396.296V226.059H390.965V228.282H396.75V231.112H387.453Z" fill="#d6e2fb"/>
<path d="M376.496 231.112V218.177H382.079C383.039 218.177 383.88 218.366 384.6 218.745C385.32 219.124 385.88 219.657 386.28 220.343C386.68 221.029 386.88 221.832 386.88 222.75C386.88 223.676 386.673 224.478 386.261 225.156C385.852 225.834 385.277 226.356 384.536 226.722C383.8 227.089 382.938 227.272 381.953 227.272H378.618V224.543H381.246C381.658 224.543 382.01 224.472 382.301 224.329C382.595 224.181 382.821 223.973 382.976 223.703C383.136 223.434 383.216 223.116 383.216 222.75C383.216 222.379 383.136 222.063 382.976 221.802C382.821 221.537 382.595 221.335 382.301 221.196C382.01 221.053 381.658 220.981 381.246 220.981H380.008V231.112H376.496Z" fill="#d6e2fb"/>
<path d="M375.581 224.644C375.581 226.084 375.301 227.299 374.741 228.289C374.181 229.274 373.426 230.021 372.474 230.531C371.522 231.036 370.461 231.289 369.291 231.289C368.112 231.289 367.046 231.034 366.095 230.525C365.147 230.011 364.394 229.261 363.834 228.276C363.278 227.287 363 226.076 363 224.644C363 223.204 363.278 221.992 363.834 221.006C364.394 220.017 365.147 219.27 366.095 218.764C367.046 218.255 368.112 218 369.291 218C370.461 218 371.522 218.255 372.474 218.764C373.426 219.27 374.181 220.017 374.741 221.006C375.301 221.992 375.581 223.204 375.581 224.644ZM371.969 224.644C371.969 223.87 371.866 223.217 371.659 222.686C371.457 222.152 371.156 221.747 370.756 221.474C370.36 221.196 369.872 221.057 369.291 221.057C368.71 221.057 368.219 221.196 367.819 221.474C367.423 221.747 367.122 222.152 366.916 222.686C366.714 223.217 366.613 223.87 366.613 224.644C366.613 225.419 366.714 226.074 366.916 226.609C367.122 227.139 367.423 227.543 367.819 227.821C368.219 228.095 368.71 228.232 369.291 228.232C369.872 228.232 370.36 228.095 370.756 227.821C371.156 227.543 371.457 227.139 371.659 226.609C371.866 226.074 371.969 225.419 371.969 224.644Z" fill="#d6e2fb"/>
<path fill-rule="evenodd" clip-rule="evenodd" d="M78 116.347L97.9669 0H661.033L681 116.347C675.338 120.898 660.117 130 644.53 130C629.208 130 617.781 121.205 613.758 116.583C607.875 121.205 592.908 130 577.586 130C562.264 130 550.836 121.205 546.814 116.583C540.931 121.205 525.963 130 510.641 130C495.319 130 483.892 121.205 479.869 116.583C473.986 121.205 459.019 130 443.697 130C428.375 130 416.947 121.205 412.925 116.583C407.042 121.205 392.074 130 376.752 130C361.43 130 350.003 121.205 345.98 116.583C340.097 121.205 325.13 130 309.808 130C294.486 130 283.058 121.205 279.036 116.583C273.153 121.205 258.185 130 242.863 130C227.541 130 216.114 121.205 212.091 116.583C206.208 121.205 191.241 130 175.919 130C160.597 130 149.169 121.205 145.147 116.583C139.264 121.205 124.296 130 108.974 130C93.3872 130 81.8302 120.898 78 116.347Z" fill="#d6e2fb"/>
<path fill-rule="evenodd" clip-rule="evenodd" d="M78 116.347L97.9669 0H661.033L681 116.347C675.338 120.898 660.117 130 644.53 130C629.208 130 617.781 121.205 613.758 116.583C607.875 121.205 592.908 130 577.586 130C562.264 130 550.836 121.205 546.814 116.583C540.931 121.205 525.963 130 510.641 130C495.319 130 483.892 121.205 479.869 116.583C473.986 121.205 459.019 130 443.697 130C428.375 130 416.947 121.205 412.925 116.583C407.042 121.205 392.074 130 376.752 130C361.43 130 350.003 121.205 345.98 116.583C340.097 121.205 325.13 130 309.808 130C294.486 130 283.058 121.205 279.036 116.583C273.153 121.205 258.185 130 242.863 130C227.541 130 216.114 121.205 212.091 116.583C206.208 121.205 191.241 130 175.919 130C160.597 130 149.169 121.205 145.147 116.583C139.264 121.205 124.296 130 108.974 130C93.3872 130 81.8302 120.898 78 116.347Z" fill="url(#paint9_linear_749_12)"/>
<path fill-rule="evenodd" clip-rule="evenodd" d="M78 116.347L97.9669 0H661.033L681 116.347C675.338 120.898 660.117 130 644.53 130C629.208 130 617.781 121.205 613.758 116.583C607.875 121.205 592.908 130 577.586 130C562.264 130 550.836 121.205 546.814 116.583C540.931 121.205 525.963 130 510.641 130C495.319 130 483.892 121.205 479.869 116.583C473.986 121.205 459.019 130 443.697 130C428.375 130 416.947 121.205 412.925 116.583C407.042 121.205 392.074 130 376.752 130C361.43 130 350.003 121.205 345.98 116.583C340.097 121.205 325.13 130 309.808 130C294.486 130 283.058 121.205 279.036 116.583C273.153 121.205 258.185 130 242.863 130C227.541 130 216.114 121.205 212.091 116.583C206.208 121.205 191.241 130 175.919 130C160.597 130 149.169 121.205 145.147 116.583C139.264 121.205 124.296 130 108.974 130C93.3872 130 81.8302 120.898 78 116.347Z" fill="url(#paint10_linear_749_12)"/>
<path fill-rule="evenodd" clip-rule="evenodd" d="M680 111.598H79V109.224H680V111.598Z" fill="#c8d8fa"/>
<path fill-rule="evenodd" clip-rule="evenodd" d="M604.996 1.05714L614.996 109.094L613.008 109.353L603.008 1.3165L604.996 1.05714Z" fill="#c8d8fa"/>
<path fill-rule="evenodd" clip-rule="evenodd" d="M539.996 1.08316L547.996 109.12L546.004 109.328L538.004 1.29111L539.996 1.08316Z" fill="#c8d8fa"/>
<path fill-rule="evenodd" clip-rule="evenodd" d="M155.004 1.05714L145.004 109.094L146.992 109.353L156.992 1.3165L155.004 1.05714Z" fill="#c8d8fa"/>
<path fill-rule="evenodd" clip-rule="evenodd" d="M220.004 1.08316L212.004 109.12L213.996 109.328L221.996 1.29111L220.004 1.08316Z" fill="#c8d8fa"/>
<path fill-rule="evenodd" clip-rule="evenodd" d="M285.004 1.10902L279.004 109.146L281 109.302L287 1.26523L285.004 1.10902Z" fill="#c8d8fa"/>
<path fill-rule="evenodd" clip-rule="evenodd" d="M349.001 1.14793L346.001 109.184L348 109.263L351 1.22617L349.001 1.14793Z" fill="#c8d8fa"/>
<path fill-rule="evenodd" clip-rule="evenodd" d="M474.996 1.10902L480.996 109.146L479 109.302L473 1.26523L474.996 1.10902Z" fill="#c8d8fa"/>
<path fill-rule="evenodd" clip-rule="evenodd" d="M410.999 1.14793L413.999 109.184L412 109.263L409 1.22617L410.999 1.14793Z" fill="#c8d8fa"/>
<path fill-rule="evenodd" clip-rule="evenodd" d="M64.698 277.554C64.698 279.483 64.2716 281.33 63.4922 283.034C62.8438 284.452 63.288 286.112 64.6937 287.089C71.0559 291.513 75.0966 298.129 75.0966 305.523C75.0966 308.139 74.5907 310.658 73.6549 313.016C73.1692 314.241 73.5784 315.605 74.7407 316.467C83.4721 322.945 88.9613 332.328 88.9613 342.766C88.9613 362.311 69.7182 378.155 45.9807 378.155C22.2431 378.155 3 362.311 3 342.766C3 332.425 8.38707 323.12 16.9766 316.65C18.131 315.78 18.5275 314.413 18.0303 313.192C17.0495 310.783 16.5181 308.204 16.5181 305.523C16.5181 298.129 20.5588 291.513 26.9209 287.089C28.3267 286.112 28.7708 284.452 28.1225 283.034C27.3431 281.33 26.9167 279.483 26.9167 277.554C26.9167 268.964 35.3743 262 45.8073 262C56.2404 262 64.698 268.964 64.698 277.554Z" fill="#d6e2fb"/>
<path fill-rule="evenodd" clip-rule="evenodd" d="M45.6328 276.588C46.1851 276.588 46.6328 276.957 46.6328 277.411L46.6328 414.115C46.6328 414.57 46.1851 414.938 45.6328 414.938C45.0805 414.938 44.6328 414.57 44.6328 414.115L44.6328 277.411C44.6328 276.957 45.0805 276.588 45.6328 276.588Z" fill="#9ab7f6"/>
<path fill-rule="evenodd" clip-rule="evenodd" d="M65.2786 338.387C65.728 338.651 65.8321 339.165 65.5111 339.535L46.4471 361.511C46.1261 361.881 45.5015 361.966 45.0521 361.702C44.6027 361.438 44.4986 360.924 44.8196 360.554L63.8836 338.578C64.2046 338.208 64.8292 338.122 65.2786 338.387Z" fill="#9ab7f6"/>
<path fill-rule="evenodd" clip-rule="evenodd" d="M25.987 304.424C25.5376 304.689 25.4335 305.203 25.7546 305.573L44.8185 327.548C45.1396 327.918 45.7641 328.004 46.2135 327.74C46.6629 327.475 46.767 326.961 46.446 326.591L27.382 304.616C27.061 304.246 26.4365 304.16 25.987 304.424Z" fill="#9ab7f6"/>
<path d="M19.002 394.4C18.9523 393.637 19.8573 393 20.9912 393H71.0088C72.1427 393 73.0477 393.637 72.998 394.4L69.7219 444.717C69.6752 445.435 68.7984 446 67.7326 446H24.2674C23.2016 446 22.3248 445.435 22.2781 444.717L19.002 394.4Z" fill="#d6e2fb"/>
<path d="M19.002 394.4C18.9523 393.637 19.8573 393 20.9912 393H71.0088C72.1427 393 73.0477 393.637 72.998 394.4L69.7219 444.717C69.6752 445.435 68.7984 446 67.7326 446H24.2674C23.2016 446 22.3248 445.435 22.2781 444.717L19.002 394.4Z" fill="url(#paint11_linear_749_12)"/>
<path fill-rule="evenodd" clip-rule="evenodd" d="M706.263 277.554C706.263 279.483 706.689 281.33 707.469 283.034C708.117 284.452 707.673 286.112 706.267 287.089C699.905 291.513 695.864 298.129 695.864 305.523C695.864 308.139 696.37 310.658 697.306 313.016C697.792 314.241 697.383 315.605 696.22 316.467C687.489 322.945 682 332.328 682 342.766C682 362.311 701.243 378.155 724.98 378.155C748.718 378.155 767.961 362.311 767.961 342.766C767.961 332.425 762.574 323.12 753.984 316.65C752.83 315.78 752.433 314.413 752.931 313.192C753.911 310.783 754.443 308.204 754.443 305.523C754.443 298.129 750.402 291.513 744.04 287.089C742.634 286.112 742.19 284.452 742.838 283.034C743.618 281.33 744.044 279.483 744.044 277.554C744.044 268.964 735.587 262 725.154 262C714.721 262 706.263 268.964 706.263 277.554Z" fill="#d6e2fb"/>
<path fill-rule="evenodd" clip-rule="evenodd" d="M725.328 276.588C724.776 276.588 724.328 276.957 724.328 277.411L724.328 414.115C724.328 414.57 724.776 414.938 725.328 414.938C725.88 414.938 726.328 414.57 726.328 414.115L726.328 277.411C726.328 276.957 725.88 276.588 725.328 276.588Z" fill="#9ab7f6"/>
<path fill-rule="evenodd" clip-rule="evenodd" d="M705.682 338.387C705.233 338.651 705.129 339.165 705.45 339.535L724.514 361.511C724.835 361.881 725.459 361.966 725.909 361.702C726.358 361.438 726.462 360.924 726.141 360.554L707.077 338.578C706.756 338.208 706.132 338.122 705.682 338.387Z" fill="#9ab7f6"/>
<path fill-rule="evenodd" clip-rule="evenodd" d="M744.974 304.424C745.423 304.689 745.527 305.203 745.206 305.573L726.142 327.548C725.821 327.918 725.197 328.004 724.747 327.74C724.298 327.475 724.194 326.961 724.515 326.591L743.579 304.616C743.9 304.246 744.524 304.16 744.974 304.424Z" fill="#9ab7f6"/>
<path d="M751.959 394.4C752.009 393.637 751.104 393 749.97 393H699.952C698.818 393 697.913 393.637 697.963 394.4L701.239 444.717C701.286 445.435 702.163 446 703.228 446H746.694C747.759 446 748.636 445.435 748.683 444.717L751.959 394.4Z" fill="#d6e2fb"/>
<path d="M751.959 394.4C752.009 393.637 751.104 393 749.97 393H699.952C698.818 393 697.913 393.637 697.963 394.4L701.239 444.717C701.286 445.435 702.163 446 703.228 446H746.694C747.759 446 748.636 445.435 748.683 444.717L751.959 394.4Z" fill="url(#paint12_linear_749_12)"/>
<defs>
<linearGradient id="paint0_linear_749_12" x1="275.333" y1="25" x2="275.333" y2="271" gradientUnits="userSpaceOnUse">
<stop stop-color="#c8d8fa"/>
<stop offset="1" stop-color="#c8d8fa" stop-opacity="0"/>
</linearGradient>
<linearGradient id="paint1_linear_749_12" x1="203.121" y1="409.5" x2="203.121" y2="468.5" gradientUnits="userSpaceOnUse">
<stop stop-color="#9ab7f6"/>
<stop offset="0.830726" stop-color="#9ab7f6" stop-opacity="0"/>
</linearGradient>
<linearGradient id="paint2_linear_749_12" x1="572" y1="228.5" x2="572" y2="2.47606" gradientUnits="userSpaceOnUse">
<stop stop-color="#c8d8fa" stop-opacity="0"/>
<stop offset="1" stop-color="#c8d8fa"/>
</linearGradient>
<linearGradient id="paint3_linear_749_12" x1="559.5" y1="395.5" x2="633" y2="225" gradientUnits="userSpaceOnUse">
<stop stop-color="#2563eb" stop-opacity="0"/>
<stop offset="1" stop-color="#2563eb"/>
</linearGradient>
<linearGradient id="paint4_linear_749_12" x1="199" y1="228.5" x2="199" y2="2.47606" gradientUnits="userSpaceOnUse">
<stop stop-color="#c8d8fa" stop-opacity="0"/>
<stop offset="1" stop-color="#c8d8fa"/>
</linearGradient>
<linearGradient id="paint5_linear_749_12" x1="186.5" y1="395.5" x2="260" y2="225" gradientUnits="userSpaceOnUse">
<stop stop-color="#2563eb" stop-opacity="0"/>
<stop offset="1" stop-color="#2563eb"/>
</linearGradient>
<linearGradient id="paint6_linear_749_12" x1="386" y1="279" x2="386" y2="-45" gradientUnits="userSpaceOnUse">
<stop stop-color="#c8d8fa" stop-opacity="0"/>
<stop offset="1" stop-color="#c8d8fa"/>
</linearGradient>
<linearGradient id="paint7_linear_749_12" x1="386" y1="228.5" x2="386" y2="2.47606" gradientUnits="userSpaceOnUse">
<stop stop-color="#c8d8fa" stop-opacity="0"/>
<stop offset="1" stop-color="#c8d8fa"/>
</linearGradient>
<linearGradient id="paint8_linear_749_12" x1="336" y1="271.5" x2="336" y2="231.728" gradientUnits="userSpaceOnUse">
<stop stop-color="#c8d8fa" stop-opacity="0"/>
<stop offset="1" stop-color="#c8d8fa"/>
</linearGradient>
<linearGradient id="paint9_linear_749_12" x1="379.5" y1="130.594" x2="379.5" y2="47.4886" gradientUnits="userSpaceOnUse">
<stop stop-color="#F9FAFB"/>
<stop offset="1" stop-color="#F9FAFB" stop-opacity="0"/>
</linearGradient>
<linearGradient id="paint10_linear_749_12" x1="379.5" y1="17.8082" x2="379.5" y2="99.726" gradientUnits="userSpaceOnUse">
<stop stop-color="#F9FAFB"/>
<stop offset="1" stop-color="#F9FAFB" stop-opacity="0"/>
</linearGradient>
<linearGradient id="paint11_linear_749_12" x1="58" y1="328.5" x2="-18.7561" y2="428.958" gradientUnits="userSpaceOnUse">
<stop stop-color="#9ab7f6"/>
<stop offset="1" stop-color="#9ab7f6" stop-opacity="0"/>
</linearGradient>
<linearGradient id="paint12_linear_749_12" x1="712.961" y1="328.5" x2="789.717" y2="428.958" gradientUnits="userSpaceOnUse">
<stop stop-color="#9ab7f6"/>
<stop offset="1" stop-color="#9ab7f6" stop-opacity="0"/>
</linearGradient>
</defs>
</svg>