<svg class="w-auto max-w-[16rem] h-40 text-gray-800 dark:text-white" aria-hidden="true" width="406" height="594" viewBox="0 0 406 594" fill="none" xmlns="http://www.w3.org/2000/svg">
<path d="M28 413.554C28 412.143 29.6723 411 31.7352 411H372.265C374.328 411 376 412.143 376 413.554V571.446C376 572.857 374.328 574 372.265 574H31.7352C29.6723 574 28 572.857 28 571.446V413.554Z" fill="#d6e2fb"/>
<path d="M28 413.554C28 412.143 29.6723 411 31.7352 411H372.265C374.328 411 376 412.143 376 413.554V571.446C376 572.857 374.328 574 372.265 574H31.7352C29.6723 574 28 572.857 28 571.446V413.554Z" fill="url(#paint0_linear_748_172)"/>
<path d="M406 203C406 315.114 315.114 406 203 406C90.8862 406 0 315.114 0 203C0 90.8862 90.8862 0 203 0C315.114 0 406 90.8862 406 203Z" fill="#d6e2fb"/>
<path d="M406 203C406 315.114 315.114 406 203 406C90.8862 406 0 315.114 0 203C0 90.8862 90.8862 0 203 0C315.114 0 406 90.8862 406 203Z" fill="url(#paint1_linear_748_172)"/>
<path d="M203.5 397C201.5 397.4 200.333 395.833 200 395L204 333.5C209 330 216 335.5 220.5 335C224.1 334.6 230.667 332.833 233.5 332V353C227.167 356.333 213.9 364.9 211.5 372.5C208.5 382 206 396.5 203.5 397Z" fill="#FDBA8C"/>
<path d="M203.5 397C201.5 397.4 200.333 395.833 200 395L204 333.5C209 330 216 335.5 220.5 335C224.1 334.6 230.667 332.833 233.5 332V353C227.167 356.333 213.9 364.9 211.5 372.5C208.5 382 206 396.5 203.5 397Z" fill="url(#paint2_linear_748_172)"/>
<path d="M209.5 380C208.7 376.8 202.833 373.667 200 372.5L202 347C207.333 350.833 218.1 359.6 218.5 364C218.9 368.4 212.667 376.5 209.5 380Z" fill="#111928"/>
<path d="M200.623 398.568L204.721 334.377C204.872 332.006 202.99 330 200.614 330C198.342 330 196.5 331.842 196.5 334.115V398.436C196.5 399.576 197.424 400.5 198.564 400.5C199.653 400.5 200.554 399.654 200.623 398.568Z" fill="#111928"/>
<path d="M164 574C160.8 581.2 159.667 585.667 159.5 587H190C190 584.5 189.5 584.5 187.5 579C185.9 574.6 186.5 559.833 187 553H166.5C167 557 167.2 566.8 164 574Z" fill="#FDBA8C"/>
<path d="M164 574C160.8 581.2 159.667 585.667 159.5 587H190C190 584.5 189.5 584.5 187.5 579C185.9 574.6 186.5 559.833 187 553H166.5C167 557 167.2 566.8 164 574Z" fill="url(#paint3_linear_748_172)"/>
<path d="M190.5 594H159.5C157.567 594 156 592.433 156 590.5C156 588.567 157.567 587 159.5 587H190.5C192.433 587 194 588.567 194 590.5C194 592.433 192.433 594 190.5 594Z" fill="#111928"/>
<path d="M174.999 575C162.999 575 160.333 583 160.499 587H158.5C158.667 582.5 162.2 573.5 174.999 573.5C187.799 573.5 191 582.5 191 587H189C189.333 583 186.999 575 174.999 575Z" fill="#111928"/>
<path d="M149.999 324.5C149.199 300.1 158.332 257 162.999 238.5L223.5 237V242C255.667 255.833 320.3 287.6 321.5 304C322.561 318.5 320 328 312.5 331.5L230.718 362.955C229.408 363.458 228 362.492 228 361.088V328.236C228 327.479 228.428 326.786 229.106 326.447L262 310L198.5 302.5L193.538 560.039C193.517 561.128 192.628 562 191.538 562H163.897C162.833 562 161.958 561.211 161.902 560.149C158.2 490.457 150.791 348.684 149.999 324.5Z" fill="#2563eb"/>
<path d="M149.999 324.5C149.199 300.1 158.332 257 162.999 238.5L223.5 237V242C255.667 255.833 320.3 287.6 321.5 304C322.561 318.5 320 328 312.5 331.5L230.718 362.955C229.408 363.458 228 362.492 228 361.088V328.236C228 327.479 228.428 326.786 229.106 326.447L262 310L198.5 302.5L193.538 560.039C193.517 561.128 192.628 562 191.538 562H163.897C162.833 562 161.958 561.211 161.902 560.149C158.2 490.457 150.791 348.684 149.999 324.5Z" fill="url(#paint4_linear_748_172)"/>
<path fill-rule="evenodd" clip-rule="evenodd" d="M169.478 232.712L160.58 273.699C155.555 296.842 153.729 320.565 155.151 344.204L167.499 549.44L165.503 549.56L153.155 344.324C151.721 320.502 153.562 296.596 158.625 273.275L167.524 232.288L169.478 232.712Z" fill="#d6e2fb"/>
<path d="M199 277L198.5 302.5L260.3 309.8L272 294L199 277Z" fill="url(#paint5_linear_748_172)"/>
<path fill-rule="evenodd" clip-rule="evenodd" d="M161.364 550C161.329 549.338 161.293 548.671 161.258 548H193.77L193.732 550H161.364ZM241 320.5L243 319.5V358.231L241 359V320.5Z" fill="#d6e2fb"/>
<path fill-rule="evenodd" clip-rule="evenodd" d="M187.999 135.5H184.999C180.666 135.333 170.199 135.8 162.999 139C156.165 142.037 143.687 165.432 137.447 178.492C136.934 179.566 137.483 180.835 138.61 181.219L159.999 188.5L161.442 237.559C161.474 238.64 162.359 239.5 163.441 239.5H187.999H197.499H222.538C223.627 239.5 224.516 238.628 224.537 237.539L225.499 188.5L246.888 181.219C248.015 180.835 248.564 179.566 248.05 178.492C241.811 165.432 229.332 142.037 222.499 139C215.299 135.8 204.832 135.333 200.499 135.5H197.499H187.999Z" fill="#F9FAFB"/>
<path fill-rule="evenodd" clip-rule="evenodd" d="M187.999 135.5H184.999C180.666 135.333 170.199 135.8 162.999 139C156.165 142.037 143.687 165.432 137.447 178.492C136.934 179.566 137.483 180.835 138.61 181.219L159.999 188.5L161.442 237.559C161.474 238.64 162.359 239.5 163.441 239.5H187.999H197.499H222.538C223.627 239.5 224.516 238.628 224.537 237.539L225.499 188.5L246.888 181.219C248.015 180.835 248.564 179.566 248.05 178.492C241.811 165.432 229.332 142.037 222.499 139C215.299 135.8 204.832 135.333 200.499 135.5H197.499H187.999Z" fill="url(#paint6_linear_748_172)"/>
<path fill-rule="evenodd" clip-rule="evenodd" d="M187.999 135.5H184.999C180.666 135.333 170.199 135.8 162.999 139C156.165 142.037 143.687 165.432 137.447 178.492C136.934 179.566 137.483 180.835 138.61 181.219L159.999 188.5L161.442 237.559C161.474 238.64 162.359 239.5 163.441 239.5H187.999H197.499H222.538C223.627 239.5 224.516 238.628 224.537 237.539L225.499 188.5L246.888 181.219C248.015 180.835 248.564 179.566 248.05 178.492C241.811 165.432 229.332 142.037 222.499 139C215.299 135.8 204.832 135.333 200.499 135.5H197.499H187.999Z" fill="url(#paint7_linear_748_172)"/>
<path fill-rule="evenodd" clip-rule="evenodd" d="M225.061 203.424L193 153.5L160.461 204.168L161.118 226.498C175.143 212.778 188.033 197.364 193 191C202.587 205.38 216.276 218.587 224.411 225.543L225.061 203.424Z" fill="url(#paint8_linear_748_172)"/>
<path d="M186 135.5L188 116.5H200.5L203 135.5C202.167 137.667 200.2 142 195 142C189.8 142 187.167 137.667 186 135.5Z" fill="#FDBA8C"/>
<path d="M186 135.5L188 116.5H200.5L203 135.5C202.167 137.667 200.2 142 195 142C189.8 142 187.167 137.667 186 135.5Z" fill="url(#paint9_linear_748_172)"/>
<path d="M209.907 101.753C209.516 99.6952 208.114 99.8667 207.463 100.21C205.996 103.638 203.649 110.394 205.996 109.982C208.929 109.468 210.396 104.324 209.907 101.753Z" fill="#FDBA8C"/>
<path d="M209.907 101.753C209.516 99.6952 208.114 99.8667 207.463 100.21C205.996 103.638 203.649 110.394 205.996 109.982C208.929 109.468 210.396 104.324 209.907 101.753Z" fill="url(#paint10_linear_748_172)"/>
<path d="M202.426 98.5142C204.348 99.784 207.097 102.421 208.937 104.314C209.524 104.919 210.567 104.597 210.667 103.76C213.26 81.993 200.081 78.5667 192.885 78.0573C186.948 77.637 185.465 79.6332 185.466 80.6838C180.166 78.5826 175.395 84.361 177.515 94.3419C179.211 102.327 182.109 106.774 183.346 108C188.823 103.973 199.881 96.8332 202.426 98.5142Z" fill="#111928"/>
<path d="M198 70C198 77.732 191.732 84 184 84C176.268 84 170 77.732 170 70C170 62.268 176.268 56 184 56C191.732 56 198 62.268 198 70Z" fill="#111928"/>
<path d="M181.093 101.753C181.484 99.6952 182.886 99.8667 183.537 100.21C185.004 103.638 187.351 110.394 185.004 109.982C182.071 109.468 180.604 104.324 181.093 101.753Z" fill="#FDBA8C"/>
<path d="M181.093 101.753C181.484 99.6952 182.886 99.8667 183.537 100.21C185.004 103.638 187.351 110.394 185.004 109.982C182.071 109.468 180.604 104.324 181.093 101.753Z" fill="url(#paint11_linear_748_172)"/>
<path d="M192.708 123.89C184.542 122.634 182.841 102.773 183.011 93C186.099 95.816 192.768 96.6106 197.141 96.6889C198.593 96.7149 200.06 96.9161 201.33 97.6215C204.309 99.2774 206.296 101.413 207 102.424C205.979 109.754 202.916 125.461 192.708 123.89Z" fill="#FDBA8C"/>
<path d="M124 227.5C120 220.7 132.168 194 139.001 181L160.001 188C164.168 184.667 173.701 176.5 178.501 170.5C184.501 163 187.501 157.5 188.001 152C188.257 149.182 189.621 147.445 190.962 146.472C191.938 145.763 193.09 146.564 193.141 147.769C193.249 150.292 193.289 154.18 193.001 158.5C192.501 166 190.001 176 169.001 201C148.001 226 129 236 124 227.5Z" fill="#FDBA8C"/>
<path d="M124 227.5C120 220.7 132.168 194 139.001 181L160.001 188C164.168 184.667 173.701 176.5 178.501 170.5C184.501 163 187.501 157.5 188.001 152C188.257 149.182 189.621 147.445 190.962 146.472C191.938 145.763 193.09 146.564 193.141 147.769C193.249 150.292 193.289 154.18 193.001 158.5C192.501 166 190.001 176 169.001 201C148.001 226 129 236 124 227.5Z" fill="url(#paint12_linear_748_172)"/>
<path fill-rule="evenodd" clip-rule="evenodd" d="M130.371 199.219C133.256 192.407 136.489 185.778 139 181L159.998 187.999L159.999 188L137.999 204.5L130.371 199.219Z" fill="url(#paint13_linear_748_172)"/>
<path d="M262.223 227.5C266.223 220.7 254.055 194 247.222 181L226.222 188C222.055 184.667 212.522 176.5 207.722 170.5C201.722 163 198.722 157.5 198.222 152C197.966 149.182 196.602 147.445 195.261 146.472C194.284 145.763 193.133 146.564 193.081 147.769C192.974 150.292 192.934 154.18 193.222 158.5C193.722 166 196.222 176 217.222 201C238.222 226 257.223 236 262.223 227.5Z" fill="#FDBA8C"/>
<path d="M262.223 227.5C266.223 220.7 254.055 194 247.222 181L226.222 188C222.055 184.667 212.522 176.5 207.722 170.5C201.722 163 198.722 157.5 198.222 152C197.966 149.182 196.602 147.445 195.261 146.472C194.284 145.763 193.133 146.564 193.081 147.769C192.974 150.292 192.934 154.18 193.222 158.5C193.722 166 196.222 176 217.222 201C238.222 226 257.223 236 262.223 227.5Z" fill="url(#paint14_linear_748_172)"/>
<path fill-rule="evenodd" clip-rule="evenodd" d="M255.832 199.219C252.947 192.407 249.714 185.778 247.203 181L226.205 187.999L226.204 188L248.204 204.5L255.832 199.219Z" fill="url(#paint15_linear_748_172)"/>
<path d="M202.485 105.621C202.742 106.135 202.534 106.76 202.02 107.016C201.507 107.273 200.882 107.065 200.625 106.551C200.368 106.038 200.577 105.413 201.09 105.156C201.604 104.899 202.229 105.108 202.485 105.621Z" fill="#111928"/>
<path fill-rule="evenodd" clip-rule="evenodd" d="M200.622 102.174C199.907 102.345 199.393 102.779 198.939 103.33C198.763 103.543 198.448 103.573 198.235 103.397C198.022 103.222 197.992 102.906 198.168 102.693C198.692 102.057 199.379 101.443 200.39 101.201C201.395 100.961 202.637 101.11 204.237 101.815C204.489 101.926 204.604 102.221 204.492 102.474C204.381 102.727 204.086 102.841 203.833 102.73C202.352 102.077 201.342 102.002 200.622 102.174Z" fill="#111928"/>
<path d="M188.081 105.621C187.824 106.135 188.032 106.76 188.546 107.016C189.06 107.273 189.684 107.065 189.941 106.551C190.198 106.038 189.99 105.413 189.476 105.156C188.962 104.899 188.338 105.108 188.081 105.621Z" fill="#111928"/>
<path fill-rule="evenodd" clip-rule="evenodd" d="M189.944 102.174C190.659 102.345 191.173 102.779 191.627 103.33C191.803 103.543 192.118 103.573 192.331 103.397C192.544 103.222 192.574 102.906 192.399 102.693C191.874 102.057 191.187 101.443 190.177 101.201C189.171 100.961 187.929 101.11 186.33 101.815C186.077 101.926 185.963 102.221 186.074 102.474C186.185 102.727 186.481 102.841 186.733 102.73C188.214 102.077 189.224 102.002 189.944 102.174Z" fill="#111928"/>
<path fill-rule="evenodd" clip-rule="evenodd" d="M194.196 104.08C194.471 104.1 194.679 104.34 194.659 104.615L194.166 111.476C194.157 111.599 194.264 111.699 194.385 111.682L197.305 111.279C197.578 111.241 197.831 111.432 197.868 111.705C197.906 111.979 197.715 112.231 197.441 112.269L194.522 112.672C193.771 112.776 193.114 112.161 193.169 111.405L193.661 104.543C193.681 104.268 193.921 104.061 194.196 104.08Z" fill="#111928"/>
<path d="M190 114H200L-nan -nanL200 114C200 116.761 197.761 119 195 119L-nan -nanL195 119C192.239 119 190 116.761 190 114L-nan -nanL190 114Z" fill="white"/>
<defs>
<linearGradient id="paint0_linear_748_172" x1="202.517" y1="427.698" x2="202.517" y2="540.605" gradientUnits="userSpaceOnUse">
<stop stop-color="white" stop-opacity="0"/>
<stop offset="1" stop-color="white"/>
</linearGradient>
<linearGradient id="paint1_linear_748_172" x1="203.603" y1="41.5902" x2="203.603" y2="322.82" gradientUnits="userSpaceOnUse">
<stop stop-color="white" stop-opacity="0"/>
<stop offset="1" stop-color="white"/>
</linearGradient>
<linearGradient id="paint2_linear_748_172" x1="172.731" y1="322.046" x2="237.839" y2="365.377" gradientUnits="userSpaceOnUse">
<stop stop-color="#7F270F"/>
<stop offset="1" stop-color="#7F270F" stop-opacity="0"/>
</linearGradient>
<linearGradient id="paint3_linear_748_172" x1="134.673" y1="547.798" x2="171.155" y2="590.1" gradientUnits="userSpaceOnUse">
<stop stop-color="#7F270F"/>
<stop offset="1" stop-color="#7F270F" stop-opacity="0"/>
</linearGradient>
<linearGradient id="paint4_linear_748_172" x1="232.567" y1="89.2539" x2="261.5" y2="339.5" gradientUnits="userSpaceOnUse">
<stop stop-color="#111928"/>
<stop offset="1" stop-color="#111928" stop-opacity="0"/>
</linearGradient>
<linearGradient id="paint5_linear_748_172" x1="235.25" y1="277" x2="142" y2="312" gradientUnits="userSpaceOnUse">
<stop stop-color="#111928" stop-opacity="0"/>
<stop offset="1" stop-color="#111928"/>
</linearGradient>
<linearGradient id="paint6_linear_748_172" x1="251.487" y1="36.064" x2="148.783" y2="213.701" gradientUnits="userSpaceOnUse">
<stop stop-color="#c8d8fa"/>
<stop offset="1" stop-color="#c8d8fa" stop-opacity="0"/>
</linearGradient>
<linearGradient id="paint7_linear_748_172" x1="159.499" y1="261" x2="159.499" y2="197.5" gradientUnits="userSpaceOnUse">
<stop stop-color="#c8d8fa"/>
<stop offset="1" stop-color="#c8d8fa" stop-opacity="0"/>
</linearGradient>
<linearGradient id="paint8_linear_748_172" x1="193" y1="234.5" x2="193" y2="114" gradientUnits="userSpaceOnUse">
<stop stop-color="#9ab7f6" stop-opacity="0"/>
<stop offset="1" stop-color="#9ab7f6"/>
</linearGradient>
<linearGradient id="paint9_linear_748_172" x1="194.5" y1="96.1079" x2="194.5" y2="142" gradientUnits="userSpaceOnUse">
<stop stop-color="#7F270F"/>
<stop offset="1" stop-color="#7F270F" stop-opacity="0"/>
</linearGradient>
<linearGradient id="paint10_linear_748_172" x1="207.5" y1="92.0031" x2="207.5" y2="110" gradientUnits="userSpaceOnUse">
<stop stop-color="#7F270F"/>
<stop offset="1" stop-color="#7F270F" stop-opacity="0"/>
</linearGradient>
<linearGradient id="paint11_linear_748_172" x1="183.5" y1="92.0031" x2="183.5" y2="110" gradientUnits="userSpaceOnUse">
<stop stop-color="#7F270F"/>
<stop offset="1" stop-color="#7F270F" stop-opacity="0"/>
</linearGradient>
<linearGradient id="paint12_linear_748_172" x1="66.2227" y1="132.5" x2="158.216" y2="230.473" gradientUnits="userSpaceOnUse">
<stop stop-color="#7F270F"/>
<stop offset="1" stop-color="#7F270F" stop-opacity="0"/>
</linearGradient>
<linearGradient id="paint13_linear_748_172" x1="178.5" y1="112" x2="115.929" y2="180.079" gradientUnits="userSpaceOnUse">
<stop stop-color="#7F270F"/>
<stop offset="1" stop-color="#7F270F" stop-opacity="0"/>
</linearGradient>
<linearGradient id="paint14_linear_748_172" x1="320" y1="132.5" x2="228.006" y2="230.473" gradientUnits="userSpaceOnUse">
<stop stop-color="#7F270F"/>
<stop offset="1" stop-color="#7F270F" stop-opacity="0"/>
</linearGradient>
<linearGradient id="paint15_linear_748_172" x1="207.703" y1="112" x2="270.274" y2="180.079" gradientUnits="userSpaceOnUse">
<stop stop-color="#7F270F"/>
<stop offset="1" stop-color="#7F270F" stop-opacity="0"/>
</linearGradient>
</defs>
</svg>