<svg class="w-auto max-w-[16rem] h-40 text-gray-800 dark:text-white" aria-hidden="true" width="622" height="546" viewBox="0 0 622 546" fill="none" xmlns="http://www.w3.org/2000/svg">
<path d="M288 143C280.8 145.8 281.333 152.167 282.5 155L332 247.5C344.167 246.5 368.9 242.8 370.5 236C372.5 227.5 334.5 155 331 150.5C327.5 146 314.5 141 309 139C303.5 137 297 139.5 288 143Z" fill="#F9FAFB"/>
<path d="M288 143C280.8 145.8 281.333 152.167 282.5 155L332 247.5C344.167 246.5 368.9 242.8 370.5 236C372.5 227.5 334.5 155 331 150.5C327.5 146 314.5 141 309 139C303.5 137 297 139.5 288 143Z" fill="url(#paint0_linear_204_2681)"/>
<path d="M288 143C280.8 145.8 281.333 152.167 282.5 155L332 247.5C344.167 246.5 368.9 242.8 370.5 236C372.5 227.5 334.5 155 331 150.5C327.5 146 314.5 141 309 139C303.5 137 297 139.5 288 143Z" fill="url(#paint1_linear_204_2681)"/>
<path fill-rule="evenodd" clip-rule="evenodd" d="M329.316 148.449C322.788 150.625 308.95 155.339 305.406 156.914C303.936 157.567 303.335 158.609 303.132 159.664C302.918 160.776 303.149 161.929 303.428 162.629L301.571 163.371C301.185 162.404 300.865 160.857 301.168 159.286C301.481 157.658 302.464 156.033 304.594 155.086C308.25 153.461 322.212 148.709 328.684 146.551L329.316 148.449Z" fill="#c8d8fa"/>
<path fill-rule="evenodd" clip-rule="evenodd" d="M353.923 205.571C355.437 205.124 357.039 205.927 357.587 207.408L364.732 226.743C365.314 228.317 364.491 230.062 362.906 230.615L345.175 236.801C343.636 237.337 341.95 236.547 341.378 235.021L333.818 214.863C333.207 213.232 334.107 211.426 335.777 210.932L353.923 205.571ZM355.711 208.101C355.528 207.608 354.994 207.34 354.489 207.489L336.344 212.85C335.787 213.015 335.487 213.617 335.691 214.16L343.25 234.319C343.441 234.828 344.003 235.091 344.516 234.912L362.247 228.727C362.776 228.542 363.05 227.961 362.856 227.436L355.711 208.101Z" fill="#c8d8fa"/>
<path d="M180.943 443C173.343 446.2 167.11 450 164.943 451.5L163.943 454.5L164.443 456L167.443 459C188.61 457.833 231.143 454.2 231.943 449C232.943 442.5 227.443 439 227.443 431.5V413H203.943C201.943 431.5 190.443 439 180.943 443Z" fill="#F9FAFB"/>
<path d="M180.943 443C173.343 446.2 167.11 450 164.943 451.5L163.943 454.5L164.443 456L167.443 459C188.61 457.833 231.143 454.2 231.943 449C232.943 442.5 227.443 439 227.443 431.5V413H203.943C201.943 431.5 190.443 439 180.943 443Z" fill="url(#paint2_linear_204_2681)"/>
<path d="M170.943 457.5C164.543 457.5 164.276 453.5 164.943 451.5C160.143 454.7 162.276 458.5 163.943 460H230.443C231.548 460 232.443 459.105 232.443 458V449C223.943 441.5 178.943 457.5 170.943 457.5Z" fill="#374151"/>
<path d="M190.943 443C183.343 446.2 177.11 450 174.943 451.5L173.943 454.5L174.443 456L177.443 459C198.61 457.833 241.143 454.2 241.943 449C242.943 442.5 237.443 439 237.443 431.5V413H213.943C211.943 431.5 200.443 439 190.943 443Z" fill="#F9FAFB"/>
<path d="M190.943 443C183.343 446.2 177.11 450 174.943 451.5L173.943 454.5L174.443 456L177.443 459C198.61 457.833 241.143 454.2 241.943 449C242.943 442.5 237.443 439 237.443 431.5V413H213.943C211.943 431.5 200.443 439 190.943 443Z" fill="url(#paint3_linear_204_2681)"/>
<path d="M180.943 457.5C174.543 457.5 174.276 453.5 174.943 451.5C170.143 454.7 172.276 458.5 173.943 460H240.443C241.548 460 242.443 459.105 242.443 458V449C233.943 441.5 188.943 457.5 180.943 457.5Z" fill="#374151"/>
<path d="M272.445 160.797L267.689 143.505L276.335 135.292L284.116 155.177C281.695 158.289 275.326 160.22 272.445 160.797Z" fill="#FDBA8C"/>
<path d="M272.445 160.797L267.689 143.505L276.335 135.292L284.116 155.177C281.695 158.289 275.326 160.22 272.445 160.797Z" fill="url(#paint4_linear_204_2681)"/>
<path d="M278.929 104.6C264.75 101.487 258.9 110.22 257.747 114.975C260.485 124.773 268.381 143.506 278.064 140.047C290.168 135.724 296.653 108.49 278.929 104.6Z" fill="#111928"/>
<path d="M302.825 101.392C299.072 108.932 290.75 112.416 284.237 109.174C277.724 105.931 275.488 97.1911 279.241 89.6516C282.994 82.112 291.317 78.6283 297.829 81.8704C304.342 85.1125 306.579 93.8528 302.825 101.392Z" fill="#111928"/>
<path d="M279.793 126.646C281.955 128.375 275.47 146.531 263.366 145.234C259.182 144.786 257.161 140.879 256.39 135.807C256.332 135.429 255.988 135.89 255.944 135.5C255.901 135.12 256.158 133.89 256.127 133.5C255.632 127.236 256.656 119.844 257.746 114.975C259.62 116.127 263.712 119.557 265.096 124.053C266.825 129.672 271.147 131.401 273.309 129.24C275.637 126.912 277.632 124.917 279.793 126.646Z" fill="#FDBA8C"/>
<path d="M261.782 128.302C261.877 128.868 261.496 129.404 260.93 129.5C260.363 129.596 259.827 129.215 259.731 128.648C259.635 128.082 260.017 127.545 260.583 127.45C261.149 127.354 261.686 127.735 261.782 128.302Z" fill="#111928"/>
<path fill-rule="evenodd" clip-rule="evenodd" d="M259.96 124.613C259.237 124.745 258.7 125.15 258.216 125.676C258.029 125.879 257.713 125.892 257.51 125.705C257.307 125.518 257.294 125.201 257.481 124.998C258.039 124.392 258.759 123.815 259.781 123.629C260.798 123.444 262.03 123.661 263.589 124.452C263.835 124.577 263.933 124.878 263.808 125.125C263.683 125.371 263.382 125.469 263.136 125.344C261.693 124.611 260.689 124.481 259.96 124.613Z" fill="#111928"/>
<path fill-rule="evenodd" clip-rule="evenodd" d="M256.663 127.763C256.936 127.804 257.124 128.058 257.084 128.331L256.066 135.135C256.047 135.256 256.146 135.363 256.268 135.356L259.21 135.178C259.486 135.161 259.723 135.371 259.739 135.647C259.756 135.923 259.546 136.16 259.27 136.176L256.329 136.354C255.571 136.4 254.964 135.737 255.077 134.987L256.095 128.183C256.135 127.91 256.39 127.722 256.663 127.763Z" fill="#111928"/>
<path fill-rule="evenodd" clip-rule="evenodd" d="M260.256 139.214C260.876 139.067 261.516 138.805 262.49 138.378C262.743 138.267 263.038 138.382 263.149 138.635C263.26 138.888 263.145 139.183 262.892 139.293C261.926 139.717 261.207 140.016 260.487 140.187C259.754 140.361 259.041 140.398 258.078 140.332C257.803 140.314 257.595 140.075 257.613 139.8C257.632 139.524 257.871 139.316 258.146 139.335C259.044 139.396 259.65 139.358 260.256 139.214Z" fill="#111928"/>
<path fill-rule="evenodd" clip-rule="evenodd" d="M277.266 131.35C277.551 130.673 277.505 130.002 277.331 129.309C277.263 129.042 277.425 128.77 277.693 128.702C277.961 128.634 278.232 128.797 278.3 129.064C278.502 129.864 278.591 130.781 278.187 131.739C277.785 132.691 276.93 133.604 275.415 134.475C275.175 134.613 274.87 134.531 274.732 134.291C274.594 134.052 274.677 133.746 274.916 133.608C276.319 132.802 276.978 132.032 277.266 131.35Z" fill="#111928"/>
<path d="M343.5 317C330.5 328.5 273 322.167 239.5 319.5L234 425H191.5C188.333 386.167 186.5 304.4 204.5 288C222.5 271.6 300 266.5 337 262.5C346.5 282.5 353.858 307.837 343.5 317Z" fill="#2563eb"/>
<path d="M343.5 317C330.5 328.5 273 322.167 239.5 319.5L234 425H191.5C188.333 386.167 186.5 304.4 204.5 288C222.5 271.6 300 266.5 337 262.5C346.5 282.5 353.858 307.837 343.5 317Z" fill="url(#paint5_linear_204_2681)"/>
<path fill-rule="evenodd" clip-rule="evenodd" d="M235 411H190.5V409H235V411Z" fill="#c8d8fa"/>
<path d="M353.5 317C340.5 328.5 283 322.167 249.5 319.5L244 425H201.5C198.333 386.167 196.5 304.4 214.5 288C232.5 271.6 310.333 264.167 347 262.5C356.5 282.5 363.858 307.837 353.5 317Z" fill="#2563eb"/>
<path d="M353.5 317C340.5 328.5 283 322.167 249.5 319.5L244 425H201.5C198.333 386.167 196.5 304.4 214.5 288C232.5 271.6 310.333 264.167 347 262.5C356.5 282.5 363.858 307.837 353.5 317Z" fill="url(#paint6_linear_204_2681)"/>
<path fill-rule="evenodd" clip-rule="evenodd" d="M343.21 283.043C335.299 285.44 325.931 283.272 320.013 277.473C316.801 274.327 314.566 270.067 314.176 264.806C313.515 264.867 312.851 264.929 312.185 264.992C312.613 270.683 315.026 275.387 318.613 278.902C325.069 285.228 335.202 287.56 343.79 284.957C347.793 283.744 351.753 283.678 355.451 284.301C355.246 283.596 355.032 282.889 354.811 282.181C351.133 281.681 347.202 281.833 343.21 283.043ZM358.528 303.35C357.399 302.93 356.257 302.54 355.116 302.193C351.995 301.244 348.839 300.605 345.97 300.575C343.109 300.544 340.432 301.119 338.386 302.711C336.295 304.338 335.322 306.82 335.038 309.589C334.755 312.355 335.145 315.519 335.889 318.702C336.188 319.982 336.547 321.274 336.947 322.556C337.63 322.466 338.299 322.37 338.953 322.267C338.527 320.928 338.148 319.579 337.837 318.247C337.118 315.172 336.777 312.249 337.028 309.792C337.279 307.338 338.106 305.462 339.614 304.289C341.169 303.08 343.333 302.547 345.949 302.575C348.558 302.603 351.514 303.189 354.535 304.107C355.835 304.502 357.14 304.956 358.424 305.449C358.48 304.765 358.514 304.065 358.528 303.35ZM311.913 323.616C312.445 322.383 313.024 321.118 313.611 319.835C314.96 316.887 316.352 313.844 317.312 310.869C318.734 306.458 319.309 301.925 317.417 297.599C315.465 293.138 311.293 291.218 306.387 290.541C301.497 289.865 295.627 290.382 289.892 291.006C289.104 291.091 288.319 291.179 287.538 291.266C282.577 291.82 277.809 292.352 273.783 292.219C269.066 292.064 265.827 291.004 264.364 288.496C261.875 284.229 263.336 279.949 266.543 276.103C268.628 273.603 271.374 271.397 273.981 269.689C272.512 269.918 271.051 270.153 269.599 270.394C267.947 271.716 266.355 273.205 265.007 274.822C261.564 278.951 259.526 284.171 262.637 289.504C264.673 292.995 268.935 294.061 273.718 294.218C277.9 294.356 282.835 293.804 287.778 293.252C288.556 293.165 289.333 293.078 290.108 292.994C295.874 292.367 301.504 291.885 306.114 292.522C310.708 293.157 314.036 294.862 315.584 298.401C317.192 302.075 316.767 306.042 315.408 310.255C314.485 313.119 313.178 315.973 311.856 318.859L311.856 318.86C311.212 320.267 310.564 321.681 309.956 323.108C309.889 323.263 309.823 323.419 309.758 323.576C310.48 323.592 311.199 323.605 311.913 323.616ZM275.649 321.665C275.658 320.263 275.331 318.756 274.505 317.225C272.433 313.385 267.35 309.658 257.252 307.032C247.602 304.523 241.296 297.808 237.321 290.33C235.283 286.498 233.871 282.486 232.944 278.784C232.3 278.996 231.666 279.21 231.044 279.427C232.007 283.231 233.464 287.337 235.555 291.269C239.704 299.075 246.398 306.277 256.748 308.968C266.65 311.542 271.067 315.065 272.745 318.175C273.365 319.324 273.629 320.452 273.646 321.506C274.311 321.559 274.979 321.612 275.649 321.665ZM245.945 387.702C245.918 387.672 245.89 387.643 245.863 387.613C239.73 380.9 231.463 374.867 221.177 373.016C218.111 372.464 216.22 371.689 215.142 370.827C214.134 370.019 213.817 369.126 213.917 368.08C214.027 366.943 214.64 365.566 215.701 363.949C216.751 362.349 218.167 360.617 219.757 358.779C220.417 358.015 221.107 357.233 221.81 356.437L221.81 356.436L221.81 356.436C224.451 353.444 227.267 350.255 229.293 347.121C231.839 343.183 233.407 338.933 231.388 335.04C228.321 329.125 221.136 327.062 213.887 326.701C209.805 326.498 205.565 326.826 201.749 327.39C201.669 328.071 201.591 328.757 201.515 329.448C205.354 328.852 209.666 328.493 213.788 328.699C220.931 329.054 227.079 331.074 229.612 335.96C231.094 338.817 230.099 342.191 227.613 346.035C225.677 349.03 222.998 352.066 220.37 355.044C219.652 355.858 218.938 356.668 218.244 357.471C216.645 359.32 215.155 361.135 214.029 362.852C212.914 364.551 212.083 366.26 211.927 367.889C211.761 369.608 212.359 371.16 213.893 372.388C215.358 373.561 217.639 374.411 220.823 374.984C230.537 376.733 238.437 382.45 244.387 388.962C244.87 389.491 245.339 390.024 245.796 390.56L245.945 387.702ZM199.689 390.457C202.556 391.414 205.786 392.813 208.942 394.741C214.554 398.168 219.867 403.222 222.565 410.354L224.436 409.646C221.534 401.977 215.847 396.615 209.984 393.034C206.441 390.87 202.809 389.341 199.636 388.337C199.652 389.047 199.67 389.753 199.689 390.457ZM204.062 312.61C206.55 313.282 209.005 313.883 211.357 314.378C216.638 315.491 221.498 316.095 225.079 315.726C226.865 315.542 228.448 315.106 229.606 314.269C230.821 313.392 231.5 312.12 231.5 310.5C231.5 307.589 230.13 304.702 228.069 301.998C225.999 299.283 223.161 296.657 220.05 294.247C217.837 292.532 215.469 290.913 213.113 289.437C212.691 289.928 212.282 290.459 211.883 291.026C214.243 292.499 216.616 294.116 218.825 295.828C221.86 298.18 224.553 300.685 226.478 303.211C228.412 305.748 229.5 308.211 229.5 310.5C229.5 311.48 229.127 312.148 228.435 312.648C227.686 313.189 226.507 313.568 224.874 313.736C221.616 314.072 217.008 313.525 211.769 312.421C209.422 311.927 206.967 311.325 204.477 310.651C204.335 311.295 204.196 311.948 204.062 312.61Z" fill="#9ab7f6"/>
<path fill-rule="evenodd" clip-rule="evenodd" d="M245 411H200.5V409H245V411Z" fill="#c8d8fa"/>
<path d="M190 217.5L266 222L293.5 224.5C292.5 231.167 288.3 244.4 279.5 244C268.5 243.5 197 228 189.5 226.5C183.5 225.3 173.667 227.667 169.5 229C167.9 228.2 168.167 226.333 168.5 225.5C171.7 220.3 184.167 218 190 217.5Z" fill="#FDBA8C"/>
<path d="M190 217.5L266 222L293.5 224.5C292.5 231.167 288.3 244.4 279.5 244C268.5 243.5 197 228 189.5 226.5C183.5 225.3 173.667 227.667 169.5 229C167.9 228.2 168.167 226.333 168.5 225.5C171.7 220.3 184.167 218 190 217.5Z" fill="url(#paint7_linear_204_2681)"/>
<path d="M295 224.5L266.052 222.075C265.552 202.575 265.499 174 275.5 163C286.08 151.363 297.667 204.5 295 224.5Z" fill="#F9FAFB"/>
<path d="M295 224.5L266.052 222.075C265.552 202.575 265.499 174 275.5 163C286.08 151.363 297.667 204.5 295 224.5Z" fill="url(#paint8_linear_204_2681)"/>
<path d="M292 267.5C286.166 252.5 273.7 218.5 270.5 202.5C267.3 186.5 267.5 166.5 272 159C277.334 153.5 290.8 148.7 306 165.5C321.2 182.3 339.5 236.833 347 262.5L292 267.5Z" fill="#F9FAFB"/>
<path d="M292 267.5C286.166 252.5 273.7 218.5 270.5 202.5C267.3 186.5 267.5 166.5 272 159C277.334 153.5 290.8 148.7 306 165.5C321.2 182.3 339.5 236.833 347 262.5L292 267.5Z" fill="url(#paint9_linear_204_2681)"/>
<path d="M292 267.5C286.166 252.5 273.7 218.5 270.5 202.5C267.3 186.5 267.5 166.5 272 159C277.334 153.5 290.8 148.7 306 165.5C321.2 182.3 339.5 236.833 347 262.5L292 267.5Z" fill="url(#paint10_linear_204_2681)"/>
<path d="M293.5 254C305.1 254.8 309.333 243.333 310 237.5L280.5 231C257.667 227.167 208.9 218.8 196.5 216C181 212.5 170.5 218.5 168 221.5C166 223.9 167.166 225.5 168 226C174.8 221.2 186.166 223 191 224.5C220.333 234 281.9 253.2 293.5 254Z" fill="#FDBA8C"/>
<path d="M293.5 254C305.1 254.8 309.333 243.333 310 237.5L280.5 231C257.667 227.167 208.9 218.8 196.5 216C181 212.5 170.5 218.5 168 221.5C166 223.9 167.166 225.5 168 226C174.8 221.2 186.166 223 191 224.5C220.333 234 281.9 253.2 293.5 254Z" fill="url(#paint11_linear_204_2681)"/>
<path d="M287.5 201.5C297.486 228.5 325.833 235.167 338 234L340 240C329 242.667 301.2 239.3 284 208.5C266.8 177.7 280.5 159.667 289.5 154.5C293.1 154.5 298 158 299.5 159.5C291.167 161.333 276.7 172.3 287.5 201.5Z" fill="#F9FAFB"/>
<path d="M287.5 201.5C297.486 228.5 325.833 235.167 338 234L340 240C329 242.667 301.2 239.3 284 208.5C266.8 177.7 280.5 159.667 289.5 154.5C293.1 154.5 298 158 299.5 159.5C291.167 161.333 276.7 172.3 287.5 201.5Z" fill="url(#paint12_linear_204_2681)"/>
<path d="M310 237.5L280.5 231C280 211.5 282.9 173 298.5 175C314.1 177 312.667 217.5 310 237.5Z" fill="#F9FAFB"/>
<path d="M507 486.5C507 519.361 480.361 546 447.5 546C414.639 546 388 519.361 388 486.5C388 453.639 414.639 427 447.5 427C480.361 427 507 453.639 507 486.5Z" fill="#374151"/>
<path d="M507 486.5C507 519.361 480.361 546 447.5 546C414.639 546 388 519.361 388 486.5C388 453.639 414.639 427 447.5 427C480.361 427 507 453.639 507 486.5Z" fill="url(#paint13_linear_204_2681)"/>
<path d="M480 486.5C480 504.449 465.449 519 447.5 519C429.551 519 415 504.449 415 486.5C415 468.551 429.551 454 447.5 454C465.449 454 480 468.551 480 486.5Z" fill="#d6e2fb"/>
<path d="M480 486.5C480 504.449 465.449 519 447.5 519C429.551 519 415 504.449 415 486.5C415 468.551 429.551 454 447.5 454C465.449 454 480 468.551 480 486.5Z" fill="url(#paint14_linear_204_2681)"/>
<path d="M99 329.571C99 329.256 99.2558 329 99.5714 329H115C123.837 329 131 336.163 131 345C131 353.837 123.837 361 115 361H99.5714C99.2558 361 99 360.744 99 360.429V329.571Z" fill="#d6e2fb"/>
<path d="M99 329.571C99 329.256 99.2558 329 99.5714 329H115C123.837 329 131 336.163 131 345C131 353.837 123.837 361 115 361H99.5714C99.2558 361 99 360.744 99 360.429V329.571Z" fill="url(#paint15_linear_204_2681)"/>
<path d="M611.5 336H444.5H422V382.5H462L496 348.5H611.5C612.605 348.5 613.5 347.605 613.5 346.5V338C613.5 336.895 612.605 336 611.5 336Z" fill="#d6e2fb"/>
<path d="M611.5 336H444.5H422V382.5H462L496 348.5H611.5C612.605 348.5 613.5 347.605 613.5 346.5V338C613.5 336.895 612.605 336 611.5 336Z" fill="url(#paint16_linear_204_2681)"/>
<path d="M129 486.5C129 519.361 102.361 546 69.5 546C36.6391 546 10 519.361 10 486.5C10 453.639 36.6391 427 69.5 427C102.361 427 129 453.639 129 486.5Z" fill="#374151"/>
<path d="M129 486.5C129 519.361 102.361 546 69.5 546C36.6391 546 10 519.361 10 486.5C10 453.639 36.6391 427 69.5 427C102.361 427 129 453.639 129 486.5Z" fill="url(#paint17_linear_204_2681)"/>
<path d="M102 486.5C102 504.449 87.4493 519 69.5 519C51.5507 519 37 504.449 37 486.5C37 468.551 51.5507 454 69.5 454C87.4493 454 102 468.551 102 486.5Z" fill="#d6e2fb"/>
<path d="M102 486.5C102 504.449 87.4493 519 69.5 519C51.5507 519 37 504.449 37 486.5C37 468.551 51.5507 454 69.5 454C87.4493 454 102 468.551 102 486.5Z" fill="url(#paint18_linear_204_2681)"/>
<path fill-rule="evenodd" clip-rule="evenodd" d="M69.5 502C78.0604 502 85 495.06 85 486.5C85 477.94 78.0604 471 69.5 471C60.9396 471 54 477.94 54 486.5C54 495.06 60.9396 502 69.5 502ZM69.5 504C79.165 504 87 496.165 87 486.5C87 476.835 79.165 469 69.5 469C59.835 469 52 476.835 52 486.5C52 496.165 59.835 504 69.5 504Z" fill="#374151"/>
<path d="M185 283C189.4 265.4 181.834 247 177.5 240H173.5L95 403.5L147.5 478.5H539C531 410.1 474.667 368 447.5 355.5H313C318 364.667 328.8 389 332 413C334.142 429.063 325.951 442.139 317.201 450.731C310.005 457.796 299.724 460 289.639 460H192C183 460 173 446 165.5 420C158 394 179.5 305 185 283Z" fill="#d6e2fb"/>
<path d="M185 283C189.4 265.4 181.834 247 177.5 240H173.5L95 403.5L147.5 478.5H539C531 410.1 474.667 368 447.5 355.5H313C318 364.667 328.8 389 332 413C334.142 429.063 325.951 442.139 317.201 450.731C310.005 457.796 299.724 460 289.639 460H192C183 460 173 446 165.5 420C158 394 179.5 305 185 283Z" fill="url(#paint19_linear_204_2681)"/>
<path d="M437 357.5H298C288.611 357.5 281 349.889 281 340.5C281 331.111 288.606 323.5 297.995 323.5H320C345 323.5 370 312 402.5 312C435 312 451 322.5 451 339.5C451 353.1 441.667 357.167 437 357.5Z" fill="#374151"/>
<path d="M437 357.5H298C288.611 357.5 281 349.889 281 340.5C281 331.111 288.606 323.5 297.995 323.5H320C345 323.5 370 312 402.5 312C435 312 451 322.5 451 339.5C451 353.1 441.667 357.167 437 357.5Z" fill="url(#paint20_linear_204_2681)"/>
<path d="M544.621 500H350C348.895 500 348 499.106 348 498.002V446C348 420.5 384.5 373.5 459 398C516.866 417.03 541.079 470.907 546.558 497.669C546.807 498.886 545.863 500 544.621 500Z" fill="#d6e2fb"/>
<path d="M544.621 500H350C348.895 500 348 499.106 348 498.002V446C348 420.5 384.5 373.5 459 398C516.866 417.03 541.079 470.907 546.558 497.669C546.807 498.886 545.863 500 544.621 500Z" fill="url(#paint21_linear_204_2681)"/>
<path d="M146.094 497.882L1.91447 451.121C0.859134 450.779 0.277164 449.656 0.652306 448.612C10.3436 421.638 42.4541 376.182 99.5001 396.5C156.479 416.794 156.216 470.468 148.584 496.597C148.274 497.659 147.146 498.223 146.094 497.882Z" fill="#d6e2fb"/>
<path d="M146.094 497.882L1.91447 451.121C0.859134 450.779 0.277164 449.656 0.652306 448.612C10.3436 421.638 42.4541 376.182 99.5001 396.5C156.479 416.794 156.216 470.468 148.584 496.597C148.274 497.659 147.146 498.223 146.094 497.882Z" fill="url(#paint22_linear_204_2681)"/>
<path d="M186 234.5C186 239.747 181.747 244 176.5 244C171.253 244 167 239.747 167 234.5C167 229.253 171.253 225 176.5 225C181.747 225 186 229.253 186 234.5Z" fill="#374151"/>
<path fill-rule="evenodd" clip-rule="evenodd" d="M545 493H348V491H545V493Z" fill="#c8d8fa"/>
<path fill-rule="evenodd" clip-rule="evenodd" d="M149.189 492.951L2.18945 444.951L2.81026 443.049L149.81 491.049L149.189 492.951Z" fill="#c8d8fa"/>
<path fill-rule="evenodd" clip-rule="evenodd" d="M541.224 33.4722C539.179 30.1319 538 26.2036 538 22C538 9.84973 547.85 0 560 0C572.15 0 582 9.84973 582 22C582 26.2036 580.821 30.1319 578.776 33.4722L561.807 69.1967C561.083 70.7192 558.917 70.7192 558.193 69.1967L541.224 33.4722ZM560 33C566.075 33 571 28.0751 571 22C571 15.9249 566.075 11 560 11C553.925 11 549 15.9249 549 22C549 28.0751 553.925 33 560 33Z" fill="#F9FAFB"/>
<path fill-rule="evenodd" clip-rule="evenodd" d="M541.224 33.4722C539.179 30.1319 538 26.2036 538 22C538 9.84973 547.85 0 560 0C572.15 0 582 9.84973 582 22C582 26.2036 580.821 30.1319 578.776 33.4722L561.807 69.1967C561.083 70.7192 558.917 70.7192 558.193 69.1967L541.224 33.4722ZM560 33C566.075 33 571 28.0751 571 22C571 15.9249 566.075 11 560 11C553.925 11 549 15.9249 549 22C549 28.0751 553.925 33 560 33Z" fill="url(#paint23_linear_204_2681)"/>
<path d="M613 241C613 239.895 612.105 239 611 239H579C577.895 239 577 239.895 577 241V334C577 335.105 577.895 336 579 336H611C612.105 336 613 335.105 613 334V241Z" fill="#FDBA8C"/>
<path d="M613 241C613 239.895 612.105 239 611 239H579C577.895 239 577 239.895 577 241V334C577 335.105 577.895 336 579 336H611C612.105 336 613 335.105 613 334V241Z" fill="url(#paint24_linear_204_2681)"/>
<path d="M603 159C603 157.895 602.105 157 601 157H564C562.895 157 562 157.895 562 159V237C562 238.105 562.895 239 564 239H601C602.105 239 603 238.105 603 237V159Z" fill="#FDBA8C"/>
<path d="M603 159C603 157.895 602.105 157 601 157H564C562.895 157 562 157.895 562 159V237C562 238.105 562.895 239 564 239H601C602.105 239 603 238.105 603 237V159Z" fill="url(#paint25_linear_204_2681)"/>
<path d="M622 72C622 70.8954 621.105 70 620 70H583C581.895 70 581 70.8954 581 72V155C581 156.105 581.895 157 583 157H620C621.105 157 622 156.105 622 155V72Z" fill="#FDBA8C"/>
<path d="M622 72C622 70.8954 621.105 70 620 70H583C581.895 70 581 70.8954 581 72V155C581 156.105 581.895 157 583 157H620C621.105 157 622 156.105 622 155V72Z" fill="url(#paint26_linear_204_2681)"/>
<path d="M475 241C475 239.895 475.895 239 477 239H584C585.105 239 586 239.895 586 241V334C586 335.105 585.105 336 584 336H477C475.895 336 475 335.105 475 334V241Z" fill="#FDBA8C"/>
<path d="M475 241C475 239.895 475.895 239 477 239H584C585.105 239 586 239.895 586 241V334C586 335.105 585.105 336 584 336H477C475.895 336 475 335.105 475 334V241Z" fill="url(#paint27_linear_204_2681)"/>
<path d="M448 159C448 157.895 448.895 157 450 157H571C572.105 157 573 157.895 573 159V237C573 238.105 572.105 239 571 239H450C448.895 239 448 238.105 448 237V159Z" fill="#FDBA8C"/>
<path d="M448 159C448 157.895 448.895 157 450 157H571C572.105 157 573 157.895 573 159V237C573 238.105 572.105 239 571 239H450C448.895 239 448 238.105 448 237V159Z" fill="url(#paint28_linear_204_2681)"/>
<path d="M503 72C503 70.8954 503.895 70 505 70H584C585.105 70 586 70.8954 586 72V155C586 156.105 585.105 157 584 157H505C503.895 157 503 156.105 503 155V72Z" fill="#FDBA8C"/>
<path d="M503 72C503 70.8954 503.895 70 505 70H584C585.105 70 586 70.8954 586 72V155C586 156.105 585.105 157 584 157H505C503.895 157 503 156.105 503 155V72Z" fill="url(#paint29_linear_204_2681)"/>
<path d="M549 134C549 132.895 549.895 132 551 132H575C576.105 132 577 132.895 577 134V147C577 148.105 576.105 149 575 149H551C549.895 149 549 148.105 549 147V134Z" fill="#F9FAFB"/>
<path d="M539 305C539 303.895 539.895 303 541 303H575C576.105 303 577 303.895 577 305V324C577 325.105 576.105 326 575 326H541C539.895 326 539 325.105 539 324V305Z" fill="#F9FAFB"/>
<path d="M456 207C456 205.895 456.895 205 458 205H492C493.105 205 494 205.895 494 207V226C494 227.105 493.105 228 492 228H458C456.895 228 456 227.105 456 226V207Z" fill="#F9FAFB"/>
<defs>
<linearGradient id="paint0_linear_204_2681" x1="297.5" y1="301" x2="290.875" y2="153.155" gradientUnits="userSpaceOnUse">
<stop stop-color="#c8d8fa"/>
<stop offset="1" stop-color="#c8d8fa" stop-opacity="0"/>
</linearGradient>
<linearGradient id="paint1_linear_204_2681" x1="266" y1="147.5" x2="319.025" y2="147.755" gradientUnits="userSpaceOnUse">
<stop stop-color="#c8d8fa"/>
<stop offset="1" stop-color="#c8d8fa" stop-opacity="0"/>
</linearGradient>
<linearGradient id="paint2_linear_204_2681" x1="211" y1="444" x2="178" y2="425.5" gradientUnits="userSpaceOnUse">
<stop stop-color="#c8d8fa"/>
<stop offset="1" stop-color="#c8d8fa" stop-opacity="0"/>
</linearGradient>
<linearGradient id="paint3_linear_204_2681" x1="160.577" y1="389.964" x2="157.311" y2="445.588" gradientUnits="userSpaceOnUse">
<stop stop-color="#c8d8fa"/>
<stop offset="1" stop-color="#c8d8fa" stop-opacity="0"/>
</linearGradient>
<linearGradient id="paint4_linear_204_2681" x1="275.991" y1="130.695" x2="275.991" y2="155.352" gradientUnits="userSpaceOnUse">
<stop stop-color="#7F270F"/>
<stop offset="1" stop-color="#7F270F" stop-opacity="0"/>
</linearGradient>
<linearGradient id="paint5_linear_204_2681" x1="259.5" y1="457" x2="208" y2="296.5" gradientUnits="userSpaceOnUse">
<stop stop-color="#111928"/>
<stop offset="1" stop-color="#111928" stop-opacity="0"/>
</linearGradient>
<linearGradient id="paint6_linear_204_2681" x1="426.5" y1="533" x2="251.5" y2="320.5" gradientUnits="userSpaceOnUse">
<stop stop-color="#111928"/>
<stop offset="1" stop-color="#111928" stop-opacity="0"/>
</linearGradient>
<linearGradient id="paint7_linear_204_2681" x1="355.5" y1="195.5" x2="231" y2="235" gradientUnits="userSpaceOnUse">
<stop stop-color="#7F270F"/>
<stop offset="1" stop-color="#7F270F" stop-opacity="0"/>
</linearGradient>
<linearGradient id="paint8_linear_204_2681" x1="276" y1="168.5" x2="280.691" y2="248.64" gradientUnits="userSpaceOnUse">
<stop stop-color="#c8d8fa"/>
<stop offset="1" stop-color="#c8d8fa" stop-opacity="0"/>
</linearGradient>
<linearGradient id="paint9_linear_204_2681" x1="261.5" y1="37.5" x2="308" y2="231" gradientUnits="userSpaceOnUse">
<stop stop-color="#c8d8fa"/>
<stop offset="1" stop-color="#c8d8fa" stop-opacity="0"/>
</linearGradient>
<linearGradient id="paint10_linear_204_2681" x1="285" y1="298" x2="308" y2="231" gradientUnits="userSpaceOnUse">
<stop stop-color="#c8d8fa"/>
<stop offset="1" stop-color="#c8d8fa" stop-opacity="0"/>
</linearGradient>
<linearGradient id="paint11_linear_204_2681" x1="266" y1="312.5" x2="250" y2="244.5" gradientUnits="userSpaceOnUse">
<stop stop-color="#7F270F"/>
<stop offset="1" stop-color="#7F270F" stop-opacity="0"/>
</linearGradient>
<linearGradient id="paint12_linear_204_2681" x1="356.5" y1="263" x2="289.026" y2="182.492" gradientUnits="userSpaceOnUse">
<stop stop-color="#c8d8fa"/>
<stop offset="1" stop-color="#c8d8fa" stop-opacity="0"/>
</linearGradient>
<linearGradient id="paint13_linear_204_2681" x1="447.5" y1="502" x2="447.5" y2="546" gradientUnits="userSpaceOnUse">
<stop stop-color="#111928"/>
<stop offset="1" stop-color="#111928" stop-opacity="0"/>
</linearGradient>
<linearGradient id="paint14_linear_204_2681" x1="454.246" y1="501" x2="454.246" y2="544.5" gradientUnits="userSpaceOnUse">
<stop stop-color="#9ab7f6"/>
<stop offset="1" stop-color="#9ab7f6" stop-opacity="0"/>
</linearGradient>
<linearGradient id="paint15_linear_204_2681" x1="122.839" y1="379" x2="122.839" y2="329" gradientUnits="userSpaceOnUse">
<stop stop-color="#9ab7f6"/>
<stop offset="0.830726" stop-color="#9ab7f6" stop-opacity="0"/>
</linearGradient>
<linearGradient id="paint16_linear_204_2681" x1="382.5" y1="459" x2="700" y2="327" gradientUnits="userSpaceOnUse">
<stop stop-color="#9ab7f6"/>
<stop offset="0.830726" stop-color="#9ab7f6" stop-opacity="0"/>
</linearGradient>
<linearGradient id="paint17_linear_204_2681" x1="93.5" y1="486" x2="69.5" y2="546" gradientUnits="userSpaceOnUse">
<stop stop-color="#111928"/>
<stop offset="1" stop-color="#111928" stop-opacity="0"/>
</linearGradient>
<linearGradient id="paint18_linear_204_2681" x1="76.2461" y1="501" x2="76.2461" y2="544.5" gradientUnits="userSpaceOnUse">
<stop stop-color="#9ab7f6"/>
<stop offset="1" stop-color="#9ab7f6" stop-opacity="0"/>
</linearGradient>
<linearGradient id="paint19_linear_204_2681" x1="425.761" y1="503" x2="425.761" y2="310.5" gradientUnits="userSpaceOnUse">
<stop stop-color="#9ab7f6"/>
<stop offset="0.830726" stop-color="#9ab7f6" stop-opacity="0"/>
</linearGradient>
<linearGradient id="paint20_linear_204_2681" x1="281" y1="335" x2="414" y2="357" gradientUnits="userSpaceOnUse">
<stop stop-color="#111928"/>
<stop offset="1" stop-color="#111928" stop-opacity="0"/>
</linearGradient>
<linearGradient id="paint21_linear_204_2681" x1="496.247" y1="587" x2="496.247" y2="440" gradientUnits="userSpaceOnUse">
<stop stop-color="#9ab7f6"/>
<stop offset="1" stop-color="#9ab7f6" stop-opacity="0"/>
</linearGradient>
<linearGradient id="paint22_linear_204_2681" x1="113.362" y1="584.069" x2="113.362" y2="439.487" gradientUnits="userSpaceOnUse">
<stop stop-color="#9ab7f6"/>
<stop offset="1" stop-color="#9ab7f6" stop-opacity="0"/>
</linearGradient>
<linearGradient id="paint23_linear_204_2681" x1="556.435" y1="112.5" x2="540.327" y2="-10.3886" gradientUnits="userSpaceOnUse">
<stop stop-color="#c8d8fa"/>
<stop offset="1" stop-color="#c8d8fa" stop-opacity="0"/>
</linearGradient>
<linearGradient id="paint24_linear_204_2681" x1="594.964" y1="174.5" x2="594.964" y2="309.5" gradientUnits="userSpaceOnUse">
<stop stop-color="#7F270F"/>
<stop offset="1" stop-color="#7F270F" stop-opacity="0"/>
</linearGradient>
<linearGradient id="paint25_linear_204_2681" x1="582.459" y1="102.474" x2="582.459" y2="216.598" gradientUnits="userSpaceOnUse">
<stop stop-color="#7F270F"/>
<stop offset="1" stop-color="#7F270F" stop-opacity="0"/>
</linearGradient>
<linearGradient id="paint26_linear_204_2681" x1="601.459" y1="12.1495" x2="601.459" y2="133.232" gradientUnits="userSpaceOnUse">
<stop stop-color="#7F270F"/>
<stop offset="1" stop-color="#7F270F" stop-opacity="0"/>
</linearGradient>
<linearGradient id="paint27_linear_204_2681" x1="530.612" y1="50.5" x2="530.612" y2="309.5" gradientUnits="userSpaceOnUse">
<stop stop-color="#7F270F"/>
<stop offset="1" stop-color="#7F270F" stop-opacity="0"/>
</linearGradient>
<linearGradient id="paint28_linear_204_2681" x1="510.626" y1="-2.35051" x2="510.626" y2="216.598" gradientUnits="userSpaceOnUse">
<stop stop-color="#7F270F"/>
<stop offset="1" stop-color="#7F270F" stop-opacity="0"/>
</linearGradient>
<linearGradient id="paint29_linear_204_2681" x1="544.584" y1="-99.067" x2="544.584" y2="133.232" gradientUnits="userSpaceOnUse">
<stop stop-color="#7F270F"/>
<stop offset="1" stop-color="#7F270F" stop-opacity="0"/>
</linearGradient>
</defs>
</svg>