<svg class="w-auto max-w-[16rem] h-40 text-gray-800 dark:text-white" aria-hidden="true" width="604" height="533" viewBox="0 0 604 533" fill="none" xmlns="http://www.w3.org/2000/svg">
<path d="M604 529H50.5V483.5C50.5 482.395 51.3954 481.5 52.5 481.5H90.5C91.6046 481.5 92.5 480.605 92.5 479.5V434.5C92.5 433.395 93.3954 432.5 94.5 432.5H134C135.105 432.5 136 433.395 136 434.5V459C136 460.105 136.895 461 138 461H154.5C155.605 461 156.5 461.895 156.5 463V501.5C156.5 502.605 157.395 503.5 158.5 503.5H164.5C165.605 503.5 166.5 502.605 166.5 501.5V410.828C166.5 409.047 168.654 408.154 169.914 409.414L200.414 439.914C200.789 440.289 201 440.798 201 441.328V474C201 475.105 201.895 476 203 476H227C228.105 476 229 475.105 229 474V421C229 419.895 229.895 419 231 419H256.5C257.605 419 258.5 419.895 258.5 421V452C258.5 453.105 259.395 454 260.5 454H275C276.105 454 277 454.895 277 456V491.5C277 492.605 277.895 493.5 279 493.5H305.5C306.605 493.5 307.5 492.605 307.5 491.5V456C307.5 454.895 308.395 454 309.5 454H334C335.105 454 336 453.105 336 452V442.5C336 441.395 336.895 440.5 338 440.5H357C358.105 440.5 359 439.605 359 438.5V396.5C359 395.395 359.895 394.5 361 394.5H408C409.105 394.5 410 395.395 410 396.5V446C410 447.105 410.895 448 412 448H457C458.105 448 459 447.105 459 446V396.5C459 395.395 459.895 394.5 461 394.5H537.5C538.605 394.5 539.5 395.395 539.5 396.5V430.5C539.5 431.605 540.395 432.5 541.5 432.5H558.5C559.605 432.5 560.5 433.395 560.5 434.5V471.5C560.5 472.605 561.395 473.5 562.5 473.5H602C603.105 473.5 604 474.395 604 475.5V529Z" fill="#d6e2fb"/>
<path d="M604 529H50.5V483.5C50.5 482.395 51.3954 481.5 52.5 481.5H90.5C91.6046 481.5 92.5 480.605 92.5 479.5V434.5C92.5 433.395 93.3954 432.5 94.5 432.5H134C135.105 432.5 136 433.395 136 434.5V459C136 460.105 136.895 461 138 461H154.5C155.605 461 156.5 461.895 156.5 463V501.5C156.5 502.605 157.395 503.5 158.5 503.5H164.5C165.605 503.5 166.5 502.605 166.5 501.5V410.828C166.5 409.047 168.654 408.154 169.914 409.414L200.414 439.914C200.789 440.289 201 440.798 201 441.328V474C201 475.105 201.895 476 203 476H227C228.105 476 229 475.105 229 474V421C229 419.895 229.895 419 231 419H256.5C257.605 419 258.5 419.895 258.5 421V452C258.5 453.105 259.395 454 260.5 454H275C276.105 454 277 454.895 277 456V491.5C277 492.605 277.895 493.5 279 493.5H305.5C306.605 493.5 307.5 492.605 307.5 491.5V456C307.5 454.895 308.395 454 309.5 454H334C335.105 454 336 453.105 336 452V442.5C336 441.395 336.895 440.5 338 440.5H357C358.105 440.5 359 439.605 359 438.5V396.5C359 395.395 359.895 394.5 361 394.5H408C409.105 394.5 410 395.395 410 396.5V446C410 447.105 410.895 448 412 448H457C458.105 448 459 447.105 459 446V396.5C459 395.395 459.895 394.5 461 394.5H537.5C538.605 394.5 539.5 395.395 539.5 396.5V430.5C539.5 431.605 540.395 432.5 541.5 432.5H558.5C559.605 432.5 560.5 433.395 560.5 434.5V471.5C560.5 472.605 561.395 473.5 562.5 473.5H602C603.105 473.5 604 474.395 604 475.5V529Z" fill="url(#paint0_linear_749_4)"/>
<path d="M143 10C143 5.58173 146.582 2 151 2H297C301.418 2 305 5.58172 305 10V157C305 161.418 301.418 165 297 165H151C146.582 165 143 161.418 143 157V10Z" fill="#d6e2fb"/>
<path d="M223 48H225V32H223V48Z" fill="#9ab7f6"/>
<path d="M223 48H225V32H223V48Z" fill="url(#paint1_linear_749_4)"/>
<path d="M200 59H248V136H200V59Z" fill="#9ab7f6"/>
<path d="M200 59H248V136H200V59Z" fill="url(#paint2_linear_749_4)"/>
<path fill-rule="evenodd" clip-rule="evenodd" d="M257 137H191V135H257V137Z" fill="#9ab7f6"/>
<path d="M239 43L209 43L209 59L239 59L239 43Z" fill="#9ab7f6"/>
<path d="M239 43L209 43L209 59L239 59L239 43Z" fill="url(#paint3_linear_749_4)"/>
<path d="M211 67H237V71H211V67Z" fill="#c8d8fa"/>
<path d="M211 76H237V80H211V76Z" fill="#c8d8fa"/>
<path d="M211 85H237V89H211V85Z" fill="#c8d8fa"/>
<path d="M211 94H237V98H211V94Z" fill="#c8d8fa"/>
<path d="M211 103H237V107H211V103Z" fill="#c8d8fa"/>
<path d="M211 112H237V116H211V112Z" fill="#c8d8fa"/>
<path d="M181 193C181 188.582 184.582 185 189 185H297C301.418 185 305 188.582 305 193V302C305 306.418 301.418 310 297 310H189C184.582 310 181 306.418 181 302V193Z" fill="#d6e2fb"/>
<path d="M219 235L243 225L267 235V270H219V235Z" fill="#9ab7f6"/>
<path d="M219 235L243 225L267 235V270H219V235Z" fill="url(#paint4_linear_749_4)"/>
<path d="M228 241H234V248H228V241Z" fill="#c8d8fa" fill-opacity="0.77"/>
<path d="M246 241H252V248H246V241Z" fill="#c8d8fa" fill-opacity="0.77"/>
<path d="M255 241H261V248H255V241Z" fill="#c8d8fa" fill-opacity="0.77"/>
<path d="M227 255H235V270H227V255Z" fill="#c8d8fa" fill-opacity="0.77"/>
<path d="M246 255H261V267H246V255Z" fill="#c8d8fa" fill-opacity="0.77"/>
<path fill-rule="evenodd" clip-rule="evenodd" d="M276 271H210V269H276V271Z" fill="#9ab7f6"/>
<path d="M2 49C2 44.5817 5.58172 41 10 41H118C122.418 41 126 44.5817 126 49V158C126 162.418 122.418 166 118 166H10C5.58172 166 2 162.418 2 158V49Z" fill="#d6e2fb"/>
<path fill-rule="evenodd" clip-rule="evenodd" d="M49 82L29 94.1948V126H69H100V94.4232L84.5 85L69 94L49 82Z" fill="#9ab7f6"/>
<path fill-rule="evenodd" clip-rule="evenodd" d="M49 82L29 94.1948V126H69H100V94.4232L84.5 85L69 94L49 82Z" fill="url(#paint5_linear_749_4)"/>
<path d="M45 111H53V126H45V111Z" fill="#c8d8fa"/>
<path d="M35 111H41V118H35V111Z" fill="#c8d8fa"/>
<path d="M57 111H63V118H57V111Z" fill="#c8d8fa"/>
<path d="M35 98H41V105H35V98Z" fill="#c8d8fa"/>
<path d="M57 98H63V105H57V98Z" fill="#c8d8fa"/>
<path d="M82 98H88V105H82V98Z" fill="#c8d8fa"/>
<path d="M76 111H93V126H76V111Z" fill="#c8d8fa"/>
<path fill-rule="evenodd" clip-rule="evenodd" d="M105 127H24V125H105V127Z" fill="#9ab7f6"/>
<path d="M37 194C37 189.582 40.5817 186 45 186H153C157.418 186 161 189.582 161 194V303C161 307.418 157.418 311 153 311H45C40.5817 311 37 307.418 37 303V194Z" fill="#d6e2fb"/>
<path d="M99 283C92.2754 283 85.7019 281.006 80.1106 277.27C74.5194 273.534 70.1615 268.224 67.5881 262.011C65.0147 255.799 64.3414 248.962 65.6533 242.367C66.9652 235.772 70.2034 229.713 74.9584 224.958C79.7134 220.203 85.7716 216.965 92.3669 215.653C98.9623 214.341 105.799 215.015 112.011 217.588C118.224 220.161 123.534 224.519 127.27 230.111C131.006 235.702 133 242.275 133 249L118.052 249C118.052 245.232 116.935 241.548 114.841 238.415C112.748 235.282 109.772 232.84 106.291 231.398C102.81 229.956 98.9789 229.579 95.2831 230.314C91.5874 231.049 88.1926 232.864 85.5281 235.528C82.8636 238.193 81.0491 241.587 80.314 245.283C79.5788 248.979 79.9561 252.81 81.3981 256.291C82.8402 259.772 85.2821 262.748 88.4152 264.841C91.5483 266.935 95.2319 268.052 99 268.052L99 283Z" fill="#9ab7f6"/>
<path d="M99 283C92.2754 283 85.7019 281.006 80.1106 277.27C74.5194 273.534 70.1615 268.224 67.5881 262.011C65.0147 255.799 64.3414 248.962 65.6533 242.367C66.9652 235.772 70.2034 229.713 74.9584 224.958C79.7134 220.203 85.7716 216.965 92.3669 215.653C98.9623 214.341 105.799 215.015 112.011 217.588C118.224 220.161 123.534 224.519 127.27 230.111C131.006 235.702 133 242.275 133 249L118.052 249C118.052 245.232 116.935 241.548 114.841 238.415C112.748 235.282 109.772 232.84 106.291 231.398C102.81 229.956 98.9789 229.579 95.2831 230.314C91.5874 231.049 88.1926 232.864 85.5281 235.528C82.8636 238.193 81.0491 241.587 80.314 245.283C79.5788 248.979 79.9561 252.81 81.3981 256.291C82.8402 259.772 85.2821 262.748 88.4152 264.841C91.5483 266.935 95.2319 268.052 99 268.052L99 283Z" fill="url(#paint6_linear_749_4)"/>
<path d="M133 249C133 239.983 129.418 231.335 123.042 224.958L112.472 235.528C116.045 239.101 118.052 243.947 118.052 249C118.052 254.053 116.045 258.899 112.472 262.472C108.899 266.045 104.053 268.052 99 268.052L99 283C108.017 283 116.665 279.418 123.042 273.042C129.418 266.665 133 258.017 133 249Z" fill="#c8d8fa"/>
<path fill-rule="evenodd" clip-rule="evenodd" d="M0 2C0 0.89543 0.89543 0 2 0H85C86.1046 0 87 0.89543 87 2C87 3.10457 86.1046 4 85 4H2C0.89543 4 0 3.10457 0 2Z" fill="#c8d8fa"/>
<path fill-rule="evenodd" clip-rule="evenodd" d="M0 12C0 10.8954 0.89543 10 2 10H53C54.1046 10 55 10.8954 55 12C55 13.1046 54.1046 14 53 14H2C0.89543 14 0 13.1046 0 12Z" fill="#c8d8fa"/>
<path fill-rule="evenodd" clip-rule="evenodd" d="M0 22C0 20.8954 0.89543 20 2 20H24C25.1046 20 26 20.8954 26 22C26 23.1046 25.1046 24 24 24H2C0.89543 24 0 23.1046 0 22Z" fill="#c8d8fa"/>
<path d="M476.977 513.56C470.806 519.03 469.915 524.4 470.241 526.401L471.99 528.448L525.487 507.157L526.58 504.147L509.933 462.802L486.729 470.663C487.643 474.401 489.449 483.679 489.357 490.889C489.243 499.902 484.691 506.724 476.977 513.56Z" fill="#374151"/>
<path d="M525.75 513.402L472.713 531.37C471.275 531.857 469.715 531.086 469.228 529.649C468.772 528.301 469.419 526.828 470.72 526.253L521.941 503.62C524.764 502.373 528.05 503.817 529.04 506.74C529.971 509.488 528.498 512.471 525.75 513.402Z" fill="#d6e2fb"/>
<path d="M525.75 513.402L472.713 531.37C471.275 531.857 469.715 531.086 469.228 529.649C468.772 528.301 469.419 526.828 470.72 526.253L521.941 503.62C524.764 502.373 528.05 503.817 529.04 506.74C529.971 509.488 528.498 512.471 525.75 513.402Z" fill="url(#paint7_linear_749_4)"/>
<path fill-rule="evenodd" clip-rule="evenodd" d="M520.297 488.309C511.524 494.178 508.63 504.882 508.29 509.494L507.293 509.42C507.645 504.647 510.611 493.586 519.741 487.478L520.297 488.309Z" fill="black"/>
<path d="M381.5 516.5C373.9 519.7 371.333 524.5 371 526.5L372 529L429.5 526L431.5 523.5L429 479H404.5C404.167 482.833 402.9 492.2 400.5 499C397.5 507.5 391 512.5 381.5 516.5Z" fill="#374151"/>
<path d="M427.746 532H371.748C370.23 532 369 530.77 369 529.252C369 527.829 370.086 526.642 371.503 526.515L427.277 521.513C430.351 521.238 433 523.659 433 526.746C433 529.648 430.648 532 427.746 532Z" fill="#d6e2fb"/>
<path d="M427.746 532H371.748C370.23 532 369 530.77 369 529.252C369 527.829 370.086 526.642 371.503 526.515L427.277 521.513C430.351 521.238 433 523.659 433 526.746C433 529.648 430.648 532 427.746 532Z" fill="url(#paint8_linear_749_4)"/>
<path fill-rule="evenodd" clip-rule="evenodd" d="M430.63 506.483C420.437 509.227 414.262 518.436 412.46 522.695L411.539 522.305C413.404 517.897 419.762 508.373 430.37 505.517L430.63 506.483Z" fill="black"/>
<path d="M387.137 481.872L406 188L459.5 165C465.334 170.833 478.9 190.3 486.5 221.5C494.026 252.396 514.268 406.46 523.725 481.801C523.875 482.995 522.937 484 521.734 484H478.658C477.696 484 476.871 483.316 476.692 482.372L447.5 328L436.632 482.141C436.558 483.188 435.686 484 434.636 484H389.133C387.978 484 387.063 483.024 387.137 481.872Z" fill="#2563eb"/>
<path d="M387.137 481.872L406 188L459.5 165C465.334 170.833 478.9 190.3 486.5 221.5C494.026 252.396 514.268 406.46 523.725 481.801C523.875 482.995 522.937 484 521.734 484H478.658C477.696 484 476.871 483.316 476.692 482.372L447.5 328L436.632 482.141C436.558 483.188 435.686 484 434.636 484H389.133C387.978 484 387.063 483.024 387.137 481.872Z" fill="url(#paint9_linear_749_4)"/>
<path fill-rule="evenodd" clip-rule="evenodd" d="M435.484 261.312L448.855 331.312L446.89 331.688L433.52 261.688L435.484 261.312Z" fill="#c8d8fa"/>
<path fill-rule="evenodd" clip-rule="evenodd" d="M448.046 194.662C457.058 200.54 466.148 201.658 469.452 201.501L470.252 201.463L470.464 202.235C488.491 267.935 505.663 417.425 511.995 483.905L510.004 484.095C503.693 417.827 486.638 269.398 468.74 203.515C464.595 203.493 455.72 202.055 446.953 196.338L448.046 194.662Z" fill="#c8d8fa"/>
<path d="M422.631 29.6548C420.964 27.9881 419.131 23.3548 425.131 18.1548C428.42 15.873 436.8 12.6786 444 18.1548C453 25 451 35 460 39.5C469 44 480 48.5 478.5 58C477 67.5 473 71 479.5 76C486 81 499 99 479.5 112C463.9 122.4 451.167 91.1667 447 74C430 70.5 428.963 35.9881 422.631 29.6548Z" fill="#111928"/>
<path d="M264 75C286.4 76.2 334.666 85.1667 356 89.5L355 110C337 107.2 288.5 92.8333 266 86.5C249.2 88.1 247 83.5 247 79.5C243 79.8333 236.725 81.3166 235.5 80.5C234 79.5 239 75.5 264 75Z" fill="#FDBA8C"/>
<path d="M264 75C286.4 76.2 334.666 85.1667 356 89.5L355 110C337 107.2 288.5 92.8333 266 86.5C249.2 88.1 247 83.5 247 79.5C243 79.8333 236.725 81.3166 235.5 80.5C234 79.5 239 75.5 264 75Z" fill="url(#paint10_linear_749_4)"/>
<path d="M356.529 86.1937L414.592 74.5812C414.86 74.5276 415.136 74.5295 415.403 74.5868L421.269 75.8437C421.739 75.9445 422.23 75.8724 422.652 75.6405L431.508 70.7695C431.829 70.5932 432.186 70.5065 432.551 70.5284C440.657 71.0146 458.226 74.9923 467.998 87.5C477.639 99.8398 488.673 134.237 493.486 151.627C493.775 152.672 493.17 153.747 492.131 154.057L467.947 161.27C466.702 161.641 466.136 163.082 466.795 164.202L480.221 186.985C481.007 188.318 480.046 190 478.498 190H403.924C403.071 190 402.31 189.468 402.07 188.649C398.404 176.152 395.642 142.753 394.595 125.625C394.537 124.678 393.825 123.901 392.886 123.764L355.292 118.263C354.274 118.114 353.535 117.216 353.584 116.189L354.924 88.0598C354.967 87.1431 355.629 86.3737 356.529 86.1937Z" fill="#F9FAFB"/>
<path d="M356.529 86.1937L414.592 74.5812C414.86 74.5276 415.136 74.5295 415.403 74.5868L421.269 75.8437C421.739 75.9445 422.23 75.8724 422.652 75.6405L431.508 70.7695C431.829 70.5932 432.186 70.5065 432.551 70.5284C440.657 71.0146 458.226 74.9923 467.998 87.5C477.639 99.8398 488.673 134.237 493.486 151.627C493.775 152.672 493.17 153.747 492.131 154.057L467.947 161.27C466.702 161.641 466.136 163.082 466.795 164.202L480.221 186.985C481.007 188.318 480.046 190 478.498 190H403.924C403.071 190 402.31 189.468 402.07 188.649C398.404 176.152 395.642 142.753 394.595 125.625C394.537 124.678 393.825 123.901 392.886 123.764L355.292 118.263C354.274 118.114 353.535 117.216 353.584 116.189L354.924 88.0598C354.967 87.1431 355.629 86.3737 356.529 86.1937Z" fill="url(#paint11_linear_749_4)"/>
<path d="M356.529 86.1937L414.592 74.5812C414.86 74.5276 415.136 74.5295 415.403 74.5868L421.269 75.8437C421.739 75.9445 422.23 75.8724 422.652 75.6405L431.508 70.7695C431.829 70.5932 432.186 70.5065 432.551 70.5284C440.657 71.0146 458.226 74.9923 467.998 87.5C477.639 99.8398 488.673 134.237 493.486 151.627C493.775 152.672 493.17 153.747 492.131 154.057L467.947 161.27C466.702 161.641 466.136 163.082 466.795 164.202L480.221 186.985C481.007 188.318 480.046 190 478.498 190H403.924C403.071 190 402.31 189.468 402.07 188.649C398.404 176.152 395.642 142.753 394.595 125.625C394.537 124.678 393.825 123.901 392.886 123.764L355.292 118.263C354.274 118.114 353.535 117.216 353.584 116.189L354.924 88.0598C354.967 87.1431 355.629 86.3737 356.529 86.1937Z" fill="url(#paint12_linear_749_4)"/>
<mask id="mask0_749_4" style="mask-type:alpha" maskUnits="userSpaceOnUse" x="353" y="70" width="141" height="120">
<path d="M356.529 86.1937L414.592 74.5812C414.86 74.5276 415.136 74.5295 415.403 74.5868L421.269 75.8437C421.739 75.9445 422.23 75.8724 422.652 75.6405L431.508 70.7695C431.829 70.5932 432.186 70.5065 432.551 70.5284C440.657 71.0146 458.226 74.9923 467.998 87.5C477.639 99.8398 488.673 134.237 493.486 151.627C493.775 152.672 493.17 153.747 492.131 154.057L467.947 161.27C466.702 161.641 466.136 163.082 466.795 164.202L480.221 186.985C481.007 188.318 480.046 190 478.498 190H403.924C403.071 190 402.31 189.468 402.07 188.649C398.404 176.152 395.642 142.753 394.595 125.625C394.537 124.678 393.825 123.901 392.886 123.764L355.292 118.263C354.274 118.114 353.535 117.216 353.584 116.189L354.924 88.0598C354.967 87.1431 355.629 86.3737 356.529 86.1937Z" fill="#F9FAFB"/>
<path d="M356.529 86.1937L414.592 74.5812C414.86 74.5276 415.136 74.5295 415.403 74.5868L421.269 75.8437C421.739 75.9445 422.23 75.8724 422.652 75.6405L431.508 70.7695C431.829 70.5932 432.186 70.5065 432.551 70.5284C440.657 71.0146 458.226 74.9923 467.998 87.5C477.639 99.8398 488.673 134.237 493.486 151.627C493.775 152.672 493.17 153.747 492.131 154.057L467.947 161.27C466.702 161.641 466.136 163.082 466.795 164.202L480.221 186.985C481.007 188.318 480.046 190 478.498 190H403.924C403.071 190 402.31 189.468 402.07 188.649C398.404 176.152 395.642 142.753 394.595 125.625C394.537 124.678 393.825 123.901 392.886 123.764L355.292 118.263C354.274 118.114 353.535 117.216 353.584 116.189L354.924 88.0598C354.967 87.1431 355.629 86.3737 356.529 86.1937Z" fill="url(#paint13_linear_749_4)"/>
<path d="M356.529 86.1937L414.592 74.5812C414.86 74.5276 415.136 74.5295 415.403 74.5868L421.269 75.8437C421.739 75.9445 422.23 75.8724 422.652 75.6405L431.508 70.7695C431.829 70.5932 432.186 70.5065 432.551 70.5284C440.657 71.0146 458.226 74.9923 467.998 87.5C477.639 99.8398 488.673 134.237 493.486 151.627C493.775 152.672 493.17 153.747 492.131 154.057L467.947 161.27C466.702 161.641 466.136 163.082 466.795 164.202L480.221 186.985C481.007 188.318 480.046 190 478.498 190H403.924C403.071 190 402.31 189.468 402.07 188.649C398.404 176.152 395.642 142.753 394.595 125.625C394.537 124.678 393.825 123.901 392.886 123.764L355.292 118.263C354.274 118.114 353.535 117.216 353.584 116.189L354.924 88.0598C354.967 87.1431 355.629 86.3737 356.529 86.1937Z" fill="url(#paint14_linear_749_4)"/>
</mask>
<g mask="url(#mask0_749_4)">
<path fill-rule="evenodd" clip-rule="evenodd" d="M369.5 80C371.985 80 374 77.9853 374 75.5C374 73.0147 371.985 71 369.5 71C367.015 71 365 73.0147 365 75.5C365 77.9853 367.015 80 369.5 80ZM369.5 82C373.09 82 376 79.0899 376 75.5C376 71.9101 373.09 69 369.5 69C365.91 69 363 71.9101 363 75.5C363 79.0899 365.91 82 369.5 82Z" fill="#c8d8fa"/>
<path d="M395 75.5C395 79.0899 392.09 82 388.5 82C384.91 82 382 79.0899 382 75.5C382 71.9101 384.91 69 388.5 69C392.09 69 395 71.9101 395 75.5Z" fill="#c8d8fa"/>
<path fill-rule="evenodd" clip-rule="evenodd" d="M407.5 80C409.985 80 412 77.9853 412 75.5C412 73.0147 409.985 71 407.5 71C405.015 71 403 73.0147 403 75.5C403 77.9853 405.015 80 407.5 80ZM407.5 82C411.09 82 414 79.0899 414 75.5C414 71.9101 411.09 69 407.5 69C403.91 69 401 71.9101 401 75.5C401 79.0899 403.91 82 407.5 82Z" fill="#c8d8fa"/>
<path d="M433 75.5C433 79.0899 430.09 82 426.5 82C422.91 82 420 79.0899 420 75.5C420 71.9101 422.91 69 426.5 69C430.09 69 433 71.9101 433 75.5Z" fill="#c8d8fa"/>
<path fill-rule="evenodd" clip-rule="evenodd" d="M445.5 80C447.985 80 450 77.9853 450 75.5C450 73.0147 447.985 71 445.5 71C443.015 71 441 73.0147 441 75.5C441 77.9853 443.015 80 445.5 80ZM445.5 82C449.09 82 452 79.0899 452 75.5C452 71.9101 449.09 69 445.5 69C441.91 69 439 71.9101 439 75.5C439 79.0899 441.91 82 445.5 82Z" fill="#c8d8fa"/>
<path d="M471 75.5C471 79.0899 468.09 82 464.5 82C460.91 82 458 79.0899 458 75.5C458 71.9101 460.91 69 464.5 69C468.09 69 471 71.9101 471 75.5Z" fill="#c8d8fa"/>
<path fill-rule="evenodd" clip-rule="evenodd" d="M483.5 80C485.985 80 488 77.9853 488 75.5C488 73.0147 485.985 71 483.5 71C481.015 71 479 73.0147 479 75.5C479 77.9853 481.015 80 483.5 80ZM483.5 82C487.09 82 490 79.0899 490 75.5C490 71.9101 487.09 69 483.5 69C479.91 69 477 71.9101 477 75.5C477 79.0899 479.91 82 483.5 82Z" fill="#c8d8fa"/>
<path d="M376 93.5C376 97.0899 373.09 100 369.5 100C365.91 100 363 97.0899 363 93.5C363 89.9101 365.91 87 369.5 87C373.09 87 376 89.9101 376 93.5Z" fill="#c8d8fa"/>
<path fill-rule="evenodd" clip-rule="evenodd" d="M388.5 98C390.985 98 393 95.9853 393 93.5C393 91.0147 390.985 89 388.5 89C386.015 89 384 91.0147 384 93.5C384 95.9853 386.015 98 388.5 98ZM388.5 100C392.09 100 395 97.0899 395 93.5C395 89.9101 392.09 87 388.5 87C384.91 87 382 89.9101 382 93.5C382 97.0899 384.91 100 388.5 100Z" fill="#c8d8fa"/>
<path d="M414 93.5C414 97.0899 411.09 100 407.5 100C403.91 100 401 97.0899 401 93.5C401 89.9101 403.91 87 407.5 87C411.09 87 414 89.9101 414 93.5Z" fill="#c8d8fa"/>
<path fill-rule="evenodd" clip-rule="evenodd" d="M426.5 98C428.985 98 431 95.9853 431 93.5C431 91.0147 428.985 89 426.5 89C424.015 89 422 91.0147 422 93.5C422 95.9853 424.015 98 426.5 98ZM426.5 100C430.09 100 433 97.0899 433 93.5C433 89.9101 430.09 87 426.5 87C422.91 87 420 89.9101 420 93.5C420 97.0899 422.91 100 426.5 100Z" fill="#c8d8fa"/>
<path d="M452 93.5C452 97.0899 449.09 100 445.5 100C441.91 100 439 97.0899 439 93.5C439 89.9101 441.91 87 445.5 87C449.09 87 452 89.9101 452 93.5Z" fill="#c8d8fa"/>
<path fill-rule="evenodd" clip-rule="evenodd" d="M464.5 98C466.985 98 469 95.9853 469 93.5C469 91.0147 466.985 89 464.5 89C462.015 89 460 91.0147 460 93.5C460 95.9853 462.015 98 464.5 98ZM464.5 100C468.09 100 471 97.0899 471 93.5C471 89.9101 468.09 87 464.5 87C460.91 87 458 89.9101 458 93.5C458 97.0899 460.91 100 464.5 100Z" fill="#c8d8fa"/>
<path d="M490 93.5C490 97.0899 487.09 100 483.5 100C479.91 100 477 97.0899 477 93.5C477 89.9101 479.91 87 483.5 87C487.09 87 490 89.9101 490 93.5Z" fill="#c8d8fa"/>
<path fill-rule="evenodd" clip-rule="evenodd" d="M369.5 116C371.985 116 374 113.985 374 111.5C374 109.015 371.985 107 369.5 107C367.015 107 365 109.015 365 111.5C365 113.985 367.015 116 369.5 116ZM369.5 118C373.09 118 376 115.09 376 111.5C376 107.91 373.09 105 369.5 105C365.91 105 363 107.91 363 111.5C363 115.09 365.91 118 369.5 118Z" fill="#c8d8fa"/>
<path d="M395 111.5C395 115.09 392.09 118 388.5 118C384.91 118 382 115.09 382 111.5C382 107.91 384.91 105 388.5 105C392.09 105 395 107.91 395 111.5Z" fill="#c8d8fa"/>
<path fill-rule="evenodd" clip-rule="evenodd" d="M407.5 116C409.985 116 412 113.985 412 111.5C412 109.015 409.985 107 407.5 107C405.015 107 403 109.015 403 111.5C403 113.985 405.015 116 407.5 116ZM407.5 118C411.09 118 414 115.09 414 111.5C414 107.91 411.09 105 407.5 105C403.91 105 401 107.91 401 111.5C401 115.09 403.91 118 407.5 118Z" fill="#c8d8fa"/>
<path d="M433 111.5C433 115.09 430.09 118 426.5 118C422.91 118 420 115.09 420 111.5C420 107.91 422.91 105 426.5 105C430.09 105 433 107.91 433 111.5Z" fill="#c8d8fa"/>
<path fill-rule="evenodd" clip-rule="evenodd" d="M445.5 116C447.985 116 450 113.985 450 111.5C450 109.015 447.985 107 445.5 107C443.015 107 441 109.015 441 111.5C441 113.985 443.015 116 445.5 116ZM445.5 118C449.09 118 452 115.09 452 111.5C452 107.91 449.09 105 445.5 105C441.91 105 439 107.91 439 111.5C439 115.09 441.91 118 445.5 118Z" fill="#c8d8fa"/>
<path d="M471 111.5C471 115.09 468.09 118 464.5 118C460.91 118 458 115.09 458 111.5C458 107.91 460.91 105 464.5 105C468.09 105 471 107.91 471 111.5Z" fill="#c8d8fa"/>
<path fill-rule="evenodd" clip-rule="evenodd" d="M483.5 116C485.985 116 488 113.985 488 111.5C488 109.015 485.985 107 483.5 107C481.015 107 479 109.015 479 111.5C479 113.985 481.015 116 483.5 116ZM483.5 118C487.09 118 490 115.09 490 111.5C490 107.91 487.09 105 483.5 105C479.91 105 477 107.91 477 111.5C477 115.09 479.91 118 483.5 118Z" fill="#c8d8fa"/>
<path d="M376 129.5C376 133.09 373.09 136 369.5 136C365.91 136 363 133.09 363 129.5C363 125.91 365.91 123 369.5 123C373.09 123 376 125.91 376 129.5Z" fill="#c8d8fa"/>
<path fill-rule="evenodd" clip-rule="evenodd" d="M388.5 134C390.985 134 393 131.985 393 129.5C393 127.015 390.985 125 388.5 125C386.015 125 384 127.015 384 129.5C384 131.985 386.015 134 388.5 134ZM388.5 136C392.09 136 395 133.09 395 129.5C395 125.91 392.09 123 388.5 123C384.91 123 382 125.91 382 129.5C382 133.09 384.91 136 388.5 136Z" fill="#c8d8fa"/>
<path d="M414 129.5C414 133.09 411.09 136 407.5 136C403.91 136 401 133.09 401 129.5C401 125.91 403.91 123 407.5 123C411.09 123 414 125.91 414 129.5Z" fill="#c8d8fa"/>
<path fill-rule="evenodd" clip-rule="evenodd" d="M426.5 134C428.985 134 431 131.985 431 129.5C431 127.015 428.985 125 426.5 125C424.015 125 422 127.015 422 129.5C422 131.985 424.015 134 426.5 134ZM426.5 136C430.09 136 433 133.09 433 129.5C433 125.91 430.09 123 426.5 123C422.91 123 420 125.91 420 129.5C420 133.09 422.91 136 426.5 136Z" fill="#c8d8fa"/>
<path d="M452 129.5C452 133.09 449.09 136 445.5 136C441.91 136 439 133.09 439 129.5C439 125.91 441.91 123 445.5 123C449.09 123 452 125.91 452 129.5Z" fill="#c8d8fa"/>
<path fill-rule="evenodd" clip-rule="evenodd" d="M464.5 134C466.985 134 469 131.985 469 129.5C469 127.015 466.985 125 464.5 125C462.015 125 460 127.015 460 129.5C460 131.985 462.015 134 464.5 134ZM464.5 136C468.09 136 471 133.09 471 129.5C471 125.91 468.09 123 464.5 123C460.91 123 458 125.91 458 129.5C458 133.09 460.91 136 464.5 136Z" fill="#c8d8fa"/>
<path d="M490 129.5C490 133.09 487.09 136 483.5 136C479.91 136 477 133.09 477 129.5C477 125.91 479.91 123 483.5 123C487.09 123 490 125.91 490 129.5Z" fill="#c8d8fa"/>
<path fill-rule="evenodd" clip-rule="evenodd" d="M369.5 152C371.985 152 374 149.985 374 147.5C374 145.015 371.985 143 369.5 143C367.015 143 365 145.015 365 147.5C365 149.985 367.015 152 369.5 152ZM369.5 154C373.09 154 376 151.09 376 147.5C376 143.91 373.09 141 369.5 141C365.91 141 363 143.91 363 147.5C363 151.09 365.91 154 369.5 154Z" fill="#c8d8fa"/>
<path d="M395 147.5C395 151.09 392.09 154 388.5 154C384.91 154 382 151.09 382 147.5C382 143.91 384.91 141 388.5 141C392.09 141 395 143.91 395 147.5Z" fill="#c8d8fa"/>
<path fill-rule="evenodd" clip-rule="evenodd" d="M407.5 152C409.985 152 412 149.985 412 147.5C412 145.015 409.985 143 407.5 143C405.015 143 403 145.015 403 147.5C403 149.985 405.015 152 407.5 152ZM407.5 154C411.09 154 414 151.09 414 147.5C414 143.91 411.09 141 407.5 141C403.91 141 401 143.91 401 147.5C401 151.09 403.91 154 407.5 154Z" fill="#c8d8fa"/>
<path d="M433 147.5C433 151.09 430.09 154 426.5 154C422.91 154 420 151.09 420 147.5C420 143.91 422.91 141 426.5 141C430.09 141 433 143.91 433 147.5Z" fill="#c8d8fa"/>
<path fill-rule="evenodd" clip-rule="evenodd" d="M445.5 152C447.985 152 450 149.985 450 147.5C450 145.015 447.985 143 445.5 143C443.015 143 441 145.015 441 147.5C441 149.985 443.015 152 445.5 152ZM445.5 154C449.09 154 452 151.09 452 147.5C452 143.91 449.09 141 445.5 141C441.91 141 439 143.91 439 147.5C439 151.09 441.91 154 445.5 154Z" fill="#c8d8fa"/>
<path d="M471 147.5C471 151.09 468.09 154 464.5 154C460.91 154 458 151.09 458 147.5C458 143.91 460.91 141 464.5 141C468.09 141 471 143.91 471 147.5Z" fill="#c8d8fa"/>
<path fill-rule="evenodd" clip-rule="evenodd" d="M483.5 152C485.985 152 488 149.985 488 147.5C488 145.015 485.985 143 483.5 143C481.015 143 479 145.015 479 147.5C479 149.985 481.015 152 483.5 152ZM483.5 154C487.09 154 490 151.09 490 147.5C490 143.91 487.09 141 483.5 141C479.91 141 477 143.91 477 147.5C477 151.09 479.91 154 483.5 154Z" fill="#c8d8fa"/>
<path d="M376 165.5C376 169.09 373.09 172 369.5 172C365.91 172 363 169.09 363 165.5C363 161.91 365.91 159 369.5 159C373.09 159 376 161.91 376 165.5Z" fill="#c8d8fa"/>
<path fill-rule="evenodd" clip-rule="evenodd" d="M388.5 170C390.985 170 393 167.985 393 165.5C393 163.015 390.985 161 388.5 161C386.015 161 384 163.015 384 165.5C384 167.985 386.015 170 388.5 170ZM388.5 172C392.09 172 395 169.09 395 165.5C395 161.91 392.09 159 388.5 159C384.91 159 382 161.91 382 165.5C382 169.09 384.91 172 388.5 172Z" fill="#c8d8fa"/>
<path d="M414 165.5C414 169.09 411.09 172 407.5 172C403.91 172 401 169.09 401 165.5C401 161.91 403.91 159 407.5 159C411.09 159 414 161.91 414 165.5Z" fill="#c8d8fa"/>
<path fill-rule="evenodd" clip-rule="evenodd" d="M426.5 170C428.985 170 431 167.985 431 165.5C431 163.015 428.985 161 426.5 161C424.015 161 422 163.015 422 165.5C422 167.985 424.015 170 426.5 170ZM426.5 172C430.09 172 433 169.09 433 165.5C433 161.91 430.09 159 426.5 159C422.91 159 420 161.91 420 165.5C420 169.09 422.91 172 426.5 172Z" fill="#c8d8fa"/>
<path d="M452 165.5C452 169.09 449.09 172 445.5 172C441.91 172 439 169.09 439 165.5C439 161.91 441.91 159 445.5 159C449.09 159 452 161.91 452 165.5Z" fill="#c8d8fa"/>
<path fill-rule="evenodd" clip-rule="evenodd" d="M464.5 170C466.985 170 469 167.985 469 165.5C469 163.015 466.985 161 464.5 161C462.015 161 460 163.015 460 165.5C460 167.985 462.015 170 464.5 170ZM464.5 172C468.09 172 471 169.09 471 165.5C471 161.91 468.09 159 464.5 159C460.91 159 458 161.91 458 165.5C458 169.09 460.91 172 464.5 172Z" fill="#c8d8fa"/>
<path d="M490 165.5C490 169.09 487.09 172 483.5 172C479.91 172 477 169.09 477 165.5C477 161.91 479.91 159 483.5 159C487.09 159 490 161.91 490 165.5Z" fill="#c8d8fa"/>
<path fill-rule="evenodd" clip-rule="evenodd" d="M369.5 188C371.985 188 374 185.985 374 183.5C374 181.015 371.985 179 369.5 179C367.015 179 365 181.015 365 183.5C365 185.985 367.015 188 369.5 188ZM369.5 190C373.09 190 376 187.09 376 183.5C376 179.91 373.09 177 369.5 177C365.91 177 363 179.91 363 183.5C363 187.09 365.91 190 369.5 190Z" fill="#c8d8fa"/>
<path d="M395 183.5C395 187.09 392.09 190 388.5 190C384.91 190 382 187.09 382 183.5C382 179.91 384.91 177 388.5 177C392.09 177 395 179.91 395 183.5Z" fill="#c8d8fa"/>
<path fill-rule="evenodd" clip-rule="evenodd" d="M407.5 188C409.985 188 412 185.985 412 183.5C412 181.015 409.985 179 407.5 179C405.015 179 403 181.015 403 183.5C403 185.985 405.015 188 407.5 188ZM407.5 190C411.09 190 414 187.09 414 183.5C414 179.91 411.09 177 407.5 177C403.91 177 401 179.91 401 183.5C401 187.09 403.91 190 407.5 190Z" fill="#c8d8fa"/>
<path d="M433 183.5C433 187.09 430.09 190 426.5 190C422.91 190 420 187.09 420 183.5C420 179.91 422.91 177 426.5 177C430.09 177 433 179.91 433 183.5Z" fill="#c8d8fa"/>
<path fill-rule="evenodd" clip-rule="evenodd" d="M445.5 188C447.985 188 450 185.985 450 183.5C450 181.015 447.985 179 445.5 179C443.015 179 441 181.015 441 183.5C441 185.985 443.015 188 445.5 188ZM445.5 190C449.09 190 452 187.09 452 183.5C452 179.91 449.09 177 445.5 177C441.91 177 439 179.91 439 183.5C439 187.09 441.91 190 445.5 190Z" fill="#c8d8fa"/>
<path d="M471 183.5C471 187.09 468.09 190 464.5 190C460.91 190 458 187.09 458 183.5C458 179.91 460.91 177 464.5 177C468.09 177 471 179.91 471 183.5Z" fill="#c8d8fa"/>
<path fill-rule="evenodd" clip-rule="evenodd" d="M483.5 188C485.985 188 488 185.985 488 183.5C488 181.015 485.985 179 483.5 179C481.015 179 479 181.015 479 183.5C479 185.985 481.015 188 483.5 188ZM483.5 190C487.09 190 490 187.09 490 183.5C490 179.91 487.09 177 483.5 177C479.91 177 477 179.91 477 183.5C477 187.09 479.91 190 483.5 190Z" fill="#c8d8fa"/>
</g>
<path d="M424.087 51.8729L436 47.0002C435.011 50.7704 435.196 58.8001 437.996 64.0001C440.796 69.2001 445.83 72.5001 447.996 73.5001C446.996 76.6668 442.496 83 432.496 83C422.496 83 416.663 77.3333 414.996 74.5C417.523 73.6579 419.622 72.502 421.195 71.4257C423.207 70.0488 424.087 67.6546 424.087 65.2167L424.087 51.8729Z" fill="#FDBA8C"/>
<path d="M424.087 51.8729L436 47.0002C435.011 50.7704 435.196 58.8001 437.996 64.0001C440.796 69.2001 445.83 72.5001 447.996 73.5001C446.996 76.6668 442.496 83 432.496 83C422.496 83 416.663 77.3333 414.996 74.5C417.523 73.6579 419.622 72.502 421.195 71.4257C423.207 70.0488 424.087 67.6546 424.087 65.2167L424.087 51.8729Z" fill="url(#paint15_linear_749_4)"/>
<path d="M419.042 53.1652C411.148 49.2551 418.084 32.1679 422.538 24.1131C430.228 27.4962 430.069 34.6755 431.702 38.368C432.416 39.9805 434.339 40.2843 436.089 40.0686C439.119 39.695 441.005 39.6311 441.394 43.3345C441.821 47.3973 428.909 58.0528 419.042 53.1652Z" fill="#FDBA8C"/>
<path d="M424.023 36.3698C424.051 36.9434 423.609 37.4313 423.035 37.4595C422.462 37.4876 421.974 37.0455 421.946 36.4719C421.917 35.8983 422.36 35.4104 422.933 35.3823C423.507 35.3541 423.995 35.7962 424.023 36.3698Z" fill="#111928"/>
<path fill-rule="evenodd" clip-rule="evenodd" d="M423.707 32.464C422.984 32.3324 422.338 32.523 421.701 32.8442C421.454 32.9684 421.154 32.8692 421.029 32.6226C420.905 32.376 421.004 32.0753 421.251 31.9511C421.987 31.5801 422.863 31.2941 423.886 31.4801C424.903 31.6651 425.98 32.3013 427.16 33.591C427.346 33.7947 427.332 34.111 427.128 34.2974C426.925 34.4838 426.608 34.4698 426.422 34.2661C425.329 33.0719 424.435 32.5965 423.707 32.464Z" fill="#111928"/>
<path fill-rule="evenodd" clip-rule="evenodd" d="M418.991 35.1435C419.235 35.2725 419.329 35.575 419.2 35.8192L415.985 41.9011C415.928 42.0098 415.985 42.1437 416.103 42.1773L418.938 42.9839C419.203 43.0595 419.358 43.3361 419.282 43.6017C419.206 43.8673 418.93 44.0213 418.664 43.9458L415.83 43.1391C415.1 42.9315 414.747 42.1046 415.101 41.4339L418.316 35.3519C418.445 35.1078 418.747 35.0145 418.991 35.1435Z" fill="#111928"/>
<path fill-rule="evenodd" clip-rule="evenodd" d="M415.45 45.7506L423.864 46.7516C422.505 49.4458 420.193 51.1537 416.412 50.553C415.732 49.2253 415.444 47.5817 415.45 45.7506Z" fill="white"/>
<path fill-rule="evenodd" clip-rule="evenodd" d="M437.865 44.9041C438.228 44.2653 438.262 43.5934 438.171 42.8853C438.135 42.6114 438.328 42.3606 438.602 42.3251C438.876 42.2895 439.127 42.4827 439.162 42.7566C439.268 43.5745 439.248 44.4956 438.734 45.3988C438.222 46.2973 437.266 47.1024 435.658 47.7887C435.404 47.8972 435.11 47.7792 435.002 47.5252C434.893 47.2712 435.011 46.9774 435.265 46.869C436.754 46.2335 437.498 45.5476 437.865 44.9041Z" fill="#111928"/>
<path d="M461 163.5L474 159.5L475 190H438.5L449 127.5L461 163.5Z" fill="url(#paint16_linear_749_4)"/>
<path d="M327.344 133.614C326.928 132.323 327.891 131 329.248 131H371.045C371.913 131 372.682 131.56 372.948 132.386L391.658 190.386C392.074 191.677 391.111 193 389.754 193H347.957C347.089 193 346.32 192.44 346.054 191.614L327.344 133.614Z" fill="#d6e2fb"/>
<path d="M327.344 133.614C326.928 132.323 327.891 131 329.248 131H371.045C371.913 131 372.682 131.56 372.948 132.386L391.658 190.386C392.074 191.677 391.111 193 389.754 193H347.957C347.089 193 346.32 192.44 346.054 191.614L327.344 133.614Z" fill="url(#paint17_linear_749_4)"/>
<path d="M467.001 170L465.5 162L489.5 155C492.5 164.5 495.8 184.7 485 189.5C474.2 194.3 411.833 178.5 382 170C377.167 169.667 366.701 168.7 363.501 167.5C359.501 166 357.501 157 371.001 157C381.801 157 439.501 165.667 467.001 170Z" fill="#FDBA8C"/>
<path d="M467.001 170L465.5 162L489.5 155C492.5 164.5 495.8 184.7 485 189.5C474.2 194.3 411.833 178.5 382 170C377.167 169.667 366.701 168.7 363.501 167.5C359.501 166 357.501 157 371.001 157C381.801 157 439.501 165.667 467.001 170Z" fill="url(#paint18_linear_749_4)"/>
<defs>
<linearGradient id="paint0_linear_749_4" x1="431.5" y1="643" x2="344.358" y2="442.405" gradientUnits="userSpaceOnUse">
<stop stop-color="#c8d8fa"/>
<stop offset="1" stop-color="#c8d8fa" stop-opacity="0"/>
</linearGradient>
<linearGradient id="paint1_linear_749_4" x1="224" y1="45.3333" x2="224" y2="27.3778" gradientUnits="userSpaceOnUse">
<stop stop-color="#2563eb" stop-opacity="0"/>
<stop offset="1" stop-color="#2563eb"/>
</linearGradient>
<linearGradient id="paint2_linear_749_4" x1="224" y1="71.8333" x2="224" y2="158.244" gradientUnits="userSpaceOnUse">
<stop stop-color="#2563eb" stop-opacity="0"/>
<stop offset="1" stop-color="#2563eb"/>
</linearGradient>
<linearGradient id="paint3_linear_749_4" x1="224" y1="45.6667" x2="224" y2="63.6222" gradientUnits="userSpaceOnUse">
<stop stop-color="#2563eb" stop-opacity="0"/>
<stop offset="1" stop-color="#2563eb"/>
</linearGradient>
<linearGradient id="paint4_linear_749_4" x1="243" y1="232.5" x2="243" y2="283" gradientUnits="userSpaceOnUse">
<stop stop-color="#2563eb" stop-opacity="0"/>
<stop offset="1" stop-color="#2563eb"/>
</linearGradient>
<linearGradient id="paint5_linear_749_4" x1="64.5" y1="89.3333" x2="64.5" y2="138.711" gradientUnits="userSpaceOnUse">
<stop stop-color="#2563eb" stop-opacity="0"/>
<stop offset="1" stop-color="#2563eb"/>
</linearGradient>
<linearGradient id="paint6_linear_749_4" x1="58" y1="223" x2="149" y2="235" gradientUnits="userSpaceOnUse">
<stop stop-color="#2563eb" stop-opacity="0"/>
<stop offset="1" stop-color="#2563eb"/>
</linearGradient>
<linearGradient id="paint7_linear_749_4" x1="481.498" y1="547.5" x2="495.589" y2="525.735" gradientUnits="userSpaceOnUse">
<stop stop-color="#c8d8fa"/>
<stop offset="1" stop-color="#c8d8fa" stop-opacity="0"/>
</linearGradient>
<linearGradient id="paint8_linear_749_4" x1="374.894" y1="550.096" x2="395.223" y2="534.003" gradientUnits="userSpaceOnUse">
<stop stop-color="#c8d8fa"/>
<stop offset="1" stop-color="#c8d8fa" stop-opacity="0"/>
</linearGradient>
<linearGradient id="paint9_linear_749_4" x1="622.688" y1="-174.196" x2="471.719" y2="345.429" gradientUnits="userSpaceOnUse">
<stop stop-color="#111928"/>
<stop offset="1" stop-color="#111928" stop-opacity="0"/>
</linearGradient>
<linearGradient id="paint10_linear_749_4" x1="449.29" y1="76.8645" x2="409.804" y2="161.045" gradientUnits="userSpaceOnUse">
<stop stop-color="#7F270F"/>
<stop offset="1" stop-color="#7F270F" stop-opacity="0"/>
</linearGradient>
<linearGradient id="paint11_linear_749_4" x1="438.998" y1="238" x2="430.998" y2="130" gradientUnits="userSpaceOnUse">
<stop stop-color="#c8d8fa"/>
<stop offset="1" stop-color="#c8d8fa" stop-opacity="0"/>
</linearGradient>
<linearGradient id="paint12_linear_749_4" x1="349.998" y1="150.5" x2="395.498" y2="108" gradientUnits="userSpaceOnUse">
<stop stop-color="#c8d8fa"/>
<stop offset="1" stop-color="#c8d8fa" stop-opacity="0"/>
</linearGradient>
<linearGradient id="paint13_linear_749_4" x1="438.998" y1="238" x2="430.998" y2="130" gradientUnits="userSpaceOnUse">
<stop stop-color="#c8d8fa"/>
<stop offset="1" stop-color="#c8d8fa" stop-opacity="0"/>
</linearGradient>
<linearGradient id="paint14_linear_749_4" x1="349.998" y1="150.5" x2="395.498" y2="108" gradientUnits="userSpaceOnUse">
<stop stop-color="#c8d8fa"/>
<stop offset="1" stop-color="#c8d8fa" stop-opacity="0"/>
</linearGradient>
<linearGradient id="paint15_linear_749_4" x1="463.286" y1="42.4927" x2="437.487" y2="85.9736" gradientUnits="userSpaceOnUse">
<stop stop-color="#7F270F"/>
<stop offset="1" stop-color="#7F270F" stop-opacity="0"/>
</linearGradient>
<linearGradient id="paint16_linear_749_4" x1="470" y1="149.5" x2="449.5" y2="146" gradientUnits="userSpaceOnUse">
<stop stop-color="#c8d8fa"/>
<stop offset="1" stop-color="#c8d8fa" stop-opacity="0"/>
</linearGradient>
<linearGradient id="paint17_linear_749_4" x1="348.001" y1="162" x2="385.001" y2="218.5" gradientUnits="userSpaceOnUse">
<stop stop-color="#9ab7f6" stop-opacity="0"/>
<stop offset="1" stop-color="#9ab7f6"/>
</linearGradient>
<linearGradient id="paint18_linear_749_4" x1="594.563" y1="157.113" x2="557.116" y2="244.138" gradientUnits="userSpaceOnUse">
<stop stop-color="#7F270F"/>
<stop offset="1" stop-color="#7F270F" stop-opacity="0"/>
</linearGradient>
</defs>
</svg>