<svg class="w-auto max-w-[16rem] h-40 text-gray-800 dark:text-white" aria-hidden="true" width="770" height="531" viewBox="0 0 770 531" fill="none" xmlns="http://www.w3.org/2000/svg">
<path d="M549.266 0C525.886 0 501.827 18.2518 495.528 40.7666L369.786 490.218C363.487 512.733 377.333 530.984 400.712 530.984L591.02 531C607.537 531.001 624.532 518.096 628.96 502.189L642.237 454.498L742.669 95.5171L754.765 52.3291C762.858 23.431 745.09 0 715.082 0H665.755H549.266Z" fill="#d6e2fb"/>
<path d="M549.266 0C525.886 0 501.827 18.2518 495.528 40.7666L369.786 490.218C363.487 512.733 377.333 530.984 400.712 530.984L591.02 531C607.537 531.001 624.532 518.096 628.96 502.189L642.237 454.498L742.669 95.5171L754.765 52.3291C762.858 23.431 745.09 0 715.082 0H665.755H549.266Z" fill="url(#paint0_linear_749_8)" fill-opacity="0.5"/>
<path d="M481.04 40.7666C487.339 18.2518 511.398 0 534.777 0H712.571C735.951 0 749.797 18.2518 743.498 40.7666L617.755 490.218C611.456 512.733 587.397 530.985 564.018 530.985H386.224C362.845 530.985 348.998 512.733 355.297 490.218L481.04 40.7666Z" fill="#d6e2fb"/>
<path fill-rule="evenodd" clip-rule="evenodd" d="M709.72 10.1916H531.926C514.391 10.1916 496.347 23.8805 491.623 40.7666L365.88 490.218C361.156 507.104 371.541 520.793 389.075 520.793H566.869C584.404 520.793 602.448 507.104 607.172 490.218L732.915 40.7666C737.639 23.8805 727.255 10.1916 709.72 10.1916ZM534.777 0C511.398 0 487.339 18.2518 481.04 40.7666L355.297 490.218C348.998 512.733 362.845 530.985 386.224 530.985H564.018C587.397 530.985 611.456 512.733 617.755 490.218L743.498 40.7666C749.797 18.2518 735.951 0 712.571 0H534.777Z" fill="#d6e2fb"/>
<path fill-rule="evenodd" clip-rule="evenodd" d="M709.72 10.1916H531.926C514.391 10.1916 496.347 23.8805 491.623 40.7666L365.88 490.218C361.156 507.104 371.541 520.793 389.075 520.793H566.869C584.404 520.793 602.448 507.104 607.172 490.218L732.915 40.7666C737.639 23.8805 727.255 10.1916 709.72 10.1916ZM534.777 0C511.398 0 487.339 18.2518 481.04 40.7666L355.297 490.218C348.998 512.733 362.845 530.985 386.224 530.985H564.018C587.397 530.985 611.456 512.733 617.755 490.218L743.498 40.7666C749.797 18.2518 735.951 0 712.571 0H534.777Z" fill="url(#paint1_linear_749_8)" fill-opacity="0.6"/>
<path d="M583.168 27.5174C584.27 23.5774 588.481 20.3833 592.572 20.3833H644.429C648.52 20.3833 650.943 23.5774 649.841 27.5174C648.739 31.4575 644.528 34.6516 640.437 34.6516H588.58C584.489 34.6516 582.066 31.4575 583.168 27.5174Z" fill="#2563eb" fill-opacity="0.2"/>
<path d="M430.515 318.739C431.823 313.912 436.936 310 441.937 310H628.444C633.444 310 636.438 313.912 635.13 318.739L621.871 367.675C620.563 372.501 615.45 376.414 610.449 376.414H423.942C418.942 376.414 415.948 372.501 417.256 367.675L430.515 318.739Z" fill="#c8d8fa"/>
<path d="M437.763 321.248C438.34 319.116 440.599 317.387 442.809 317.387H488.809C491.018 317.387 492.34 319.116 491.763 321.248L479.733 365.647C479.155 367.78 476.896 369.508 474.687 369.508H428.687C426.478 369.508 425.155 367.78 425.733 365.647L437.763 321.248Z" fill="#F9FAFB"/>
<path d="M500.638 325.887C501.161 323.954 503.209 322.387 505.212 322.387H551.96C553.962 322.387 555.161 323.954 554.638 325.887C554.114 327.82 552.066 329.387 550.063 329.387H503.316C501.313 329.387 500.114 327.82 500.638 325.887Z" fill="#F9FAFB"/>
<path d="M495.044 344.387C495.343 343.283 496.514 342.387 497.658 342.387H587.479C588.623 342.387 589.309 343.283 589.009 344.387C588.71 345.492 587.54 346.387 586.395 346.387H496.574C495.43 346.387 494.745 345.492 495.044 344.387Z" fill="#9ab7f6"/>
<path d="M492.044 354.387C492.343 353.283 493.514 352.387 494.658 352.387H552.215C553.359 352.387 554.044 353.283 553.745 354.387C553.446 355.492 552.275 356.387 551.131 356.387H493.574C492.43 356.387 491.745 355.492 492.044 354.387Z" fill="#9ab7f6"/>
<path d="M601.774 325.887C602.298 323.954 604.346 322.387 606.349 322.387H619.96C621.963 322.387 623.162 323.954 622.638 325.887C622.114 327.82 620.066 329.387 618.064 329.387H604.452C602.45 329.387 601.251 327.82 601.774 325.887Z" fill="#F9FAFB"/>
<path d="M454.515 232.739C455.823 227.912 460.936 224 465.937 224H652.444C657.444 224 660.438 227.912 659.13 232.739L645.871 281.675C644.563 286.501 639.45 290.414 634.449 290.414H447.942C442.942 290.414 439.948 286.501 441.256 281.675L454.515 232.739Z" fill="#c8d8fa"/>
<path d="M461.763 235.248C462.34 233.116 464.599 231.387 466.809 231.387H512.809C515.018 231.387 516.34 233.116 515.763 235.248L503.733 279.647C503.155 281.78 500.896 283.508 498.687 283.508H452.687C450.478 283.508 449.155 281.78 449.733 279.647L461.763 235.248Z" fill="#F9FAFB"/>
<path d="M524.638 239.887C525.161 237.954 527.209 236.387 529.212 236.387H575.96C577.962 236.387 579.161 237.954 578.638 239.887C578.114 241.82 576.066 243.387 574.063 243.387H527.316C525.313 243.387 524.114 241.82 524.638 239.887Z" fill="#F9FAFB"/>
<path d="M519.044 258.387C519.343 257.283 520.514 256.387 521.658 256.387H611.479C612.623 256.387 613.309 257.283 613.009 258.387C612.71 259.492 611.54 260.387 610.395 260.387H520.574C519.43 260.387 518.745 259.492 519.044 258.387Z" fill="#9ab7f6"/>
<path d="M516.044 268.387C516.343 267.283 517.514 266.387 518.658 266.387H576.215C577.359 266.387 578.044 267.283 577.745 268.387C577.446 269.492 576.275 270.387 575.131 270.387H517.574C516.43 270.387 515.745 269.492 516.044 268.387Z" fill="#9ab7f6"/>
<path d="M625.774 239.887C626.298 237.954 628.346 236.387 630.349 236.387H643.96C645.963 236.387 647.162 237.954 646.638 239.887C646.114 241.82 644.066 243.387 642.064 243.387H628.452C626.45 243.387 625.251 241.82 625.774 239.887Z" fill="#F9FAFB"/>
<path d="M406.515 404.739C407.823 399.912 412.936 396 417.937 396H604.444C609.444 396 612.438 399.912 611.13 404.739L597.871 453.675C596.563 458.501 591.45 462.414 586.449 462.414H399.942C394.942 462.414 391.948 458.501 393.256 453.675L406.515 404.739Z" fill="#c8d8fa"/>
<path d="M413.763 407.248C414.34 405.116 416.599 403.387 418.809 403.387H464.809C467.018 403.387 468.34 405.116 467.763 407.248L455.733 451.647C455.155 453.78 452.896 455.508 450.687 455.508H404.687C402.478 455.508 401.155 453.78 401.733 451.647L413.763 407.248Z" fill="#F9FAFB"/>
<path d="M476.638 411.887C477.161 409.954 479.209 408.387 481.212 408.387H527.96C529.962 408.387 531.161 409.954 530.638 411.887C530.114 413.82 528.066 415.387 526.063 415.387H479.316C477.313 415.387 476.114 413.82 476.638 411.887Z" fill="#F9FAFB"/>
<path d="M471.044 430.387C471.343 429.283 472.514 428.387 473.658 428.387H563.479C564.623 428.387 565.309 429.283 565.009 430.387C564.71 431.492 563.54 432.387 562.395 432.387H472.574C471.43 432.387 470.745 431.492 471.044 430.387Z" fill="#9ab7f6"/>
<path d="M468.044 440.387C468.343 439.283 469.514 438.387 470.658 438.387H528.215C529.359 438.387 530.044 439.283 529.745 440.387C529.446 441.492 528.275 442.387 527.131 442.387H469.574C468.43 442.387 467.745 441.492 468.044 440.387Z" fill="#9ab7f6"/>
<path d="M577.774 411.887C578.298 409.954 580.346 408.387 582.349 408.387H595.96C597.963 408.387 599.162 409.954 598.638 411.887C598.114 413.82 596.066 415.387 594.064 415.387H580.452C578.45 415.387 577.251 413.82 577.774 411.887Z" fill="#F9FAFB"/>
<path d="M583.72 160.944L584.774 157.176C585.574 154.316 586.937 151.688 588.863 149.293C590.82 146.874 593.207 144.944 596.025 143.502C598.874 142.037 602.05 141.304 605.551 141.304C609.101 141.304 611.882 142.025 613.893 143.467C615.929 144.909 617.224 146.839 617.779 149.258C618.365 151.653 618.254 154.293 617.447 157.176L616.393 160.944C615.593 163.804 614.227 166.444 612.294 168.862C610.368 171.258 607.984 173.176 605.142 174.618C602.293 176.083 599.118 176.816 595.616 176.816C592.066 176.816 589.289 176.083 587.284 174.618C585.272 173.176 583.974 171.258 583.388 168.862C582.809 166.444 582.92 163.804 583.72 160.944ZM595.315 157.176L594.261 160.944C593.799 162.595 593.774 164.153 594.185 165.618C594.62 167.083 595.936 167.816 598.134 167.816C600.331 167.816 602.03 167.095 603.231 165.653C604.455 164.211 605.305 162.642 605.78 160.944L606.834 157.176C607.309 155.479 607.365 153.897 607.002 152.432C606.639 150.967 605.323 150.235 603.053 150.235C600.879 150.235 599.165 150.967 597.91 152.432C596.655 153.897 595.79 155.479 595.315 157.176ZM557.088 120.06L558.142 116.293C558.948 113.409 560.327 110.77 562.277 108.374C564.233 105.956 566.621 104.026 569.439 102.584C572.281 101.142 575.429 100.421 578.882 100.421C582.456 100.421 585.249 101.142 587.261 102.584C589.272 104.026 590.567 105.956 591.146 108.374C591.732 110.77 591.621 113.409 590.815 116.293L589.761 120.06C588.954 122.944 587.576 125.584 585.626 127.979C583.7 130.374 581.315 132.293 578.473 133.735C575.661 135.153 572.493 135.863 568.967 135.863C565.441 135.863 562.661 135.142 560.625 133.7C558.62 132.235 557.321 130.316 556.729 127.944C556.168 125.549 556.287 122.921 557.088 120.06ZM568.755 116.293L567.701 120.06C567.226 121.758 567.197 123.328 567.615 124.77C568.057 126.211 569.34 126.932 571.465 126.932C573.687 126.932 575.398 126.211 576.598 124.77C577.823 123.328 578.672 121.758 579.147 120.06L580.201 116.293C580.676 114.595 580.732 113.014 580.369 111.549C580.007 110.084 578.678 109.351 576.384 109.351C574.235 109.351 572.541 110.095 571.304 111.584C570.067 113.072 569.217 114.642 568.755 116.293ZM546.683 174.339L617.673 102.898H627.163L556.174 174.339H546.683Z" fill="#2563eb"/>
<path d="M204.257 512.751C197.118 516.576 190.091 520.418 187.758 522.251C178.758 533.751 257.757 532.251 253.257 520.251C249.657 510.651 257.091 493.251 261.257 485.751C254.257 476.251 238.757 461.651 232.757 479.251C225.257 501.251 218.258 505.251 204.257 512.751Z" fill="#374151"/>
<path fill-rule="evenodd" clip-rule="evenodd" d="M252.867 507.5C241.215 507.014 236.342 516.376 234.342 520.71L233.434 520.291C235.433 515.958 240.56 505.986 252.908 506.501L252.867 507.5Z" fill="#c8d8fa"/>
<path d="M184.887 526.833C184.887 524.666 186.547 522.861 188.706 522.68L247.763 517.724C252.116 517.358 255.633 521.219 254.865 525.519C254.299 528.691 251.541 531 248.319 531H189.054C186.753 531 184.887 529.134 184.887 526.833Z" fill="#2563eb"/>
<path d="M489.229 466.864C491.076 474.75 492.968 482.531 494.135 485.259C502.914 496.929 521.912 420.234 509.156 421.474C498.951 422.467 484.068 410.784 477.902 404.818C466.914 409.12 448.8 420.314 464.247 430.664C483.556 443.603 485.608 451.399 489.229 466.864Z" fill="#374151"/>
<path fill-rule="evenodd" clip-rule="evenodd" d="M496.736 418.552C493.251 429.682 501.032 436.811 504.701 439.865L504.061 440.634C500.394 437.581 492.089 430.048 495.782 418.254L496.736 418.552Z" fill="#c8d8fa"/>
<path d="M497.818 489.219C495.725 488.658 494.411 486.587 494.795 484.455L505.293 426.127C506.067 421.828 510.706 419.43 514.661 421.285C517.578 422.652 519.095 425.914 518.261 429.026L502.922 486.272C502.326 488.495 500.041 489.814 497.818 489.219Z" fill="#2563eb"/>
<path d="M316.254 272.655L366.255 212.655C368.623 228.81 379.887 343.5 394.387 355C405.987 364.2 464.553 390.167 492.387 402L468.387 452.5C438.887 442.333 375.087 416.4 355.887 394C336.687 371.6 321.465 303.77 316.254 272.655Z" fill="#2563eb"/>
<path d="M316.254 272.655L366.255 212.655C368.623 228.81 379.887 343.5 394.387 355C405.987 364.2 464.553 390.167 492.387 402L468.387 452.5C438.887 442.333 375.087 416.4 355.887 394C336.687 371.6 321.465 303.77 316.254 272.655Z" fill="url(#paint2_linear_749_8)"/>
<path d="M270.905 489.543L218.658 472.283C217.608 471.936 217.039 470.803 217.388 469.754L315.756 173.655H361.256C370.756 215.655 369.756 228.155 356.256 261.655C345.554 288.211 296.985 422.675 273.4 488.362C273.033 489.383 271.935 489.883 270.905 489.543Z" fill="#2563eb"/>
<path d="M270.905 489.543L218.658 472.283C217.608 471.936 217.039 470.803 217.388 469.754L315.756 173.655H361.256C370.756 215.655 369.756 228.155 356.256 261.655C345.554 288.211 296.985 422.675 273.4 488.362C273.033 489.383 271.935 489.883 270.905 489.543Z" fill="url(#paint3_linear_749_8)"/>
<path fill-rule="evenodd" clip-rule="evenodd" d="M351.653 203.149C336.753 201.608 328.867 192.849 324.5 187.81L326.011 186.5C330.311 191.461 337.759 199.701 351.859 201.16L351.653 203.149Z" fill="#F9FAFB"/>
<path fill-rule="evenodd" clip-rule="evenodd" d="M279.453 471.108L222.953 453.108L223.56 451.202L280.06 469.202L279.453 471.108Z" fill="#F9FAFB"/>
<path fill-rule="evenodd" clip-rule="evenodd" d="M474.293 394.422L450.293 445.922L448.48 445.078L472.48 393.578L474.293 394.422Z" fill="#F9FAFB"/>
<path d="M307.759 16.1548C301.759 21.3548 303.593 25.9881 305.259 27.6548C311.592 33.9881 325.858 53.2548 332.258 79.6548C340.258 112.655 356.258 137.155 376.258 124.155C396.152 111.223 370.53 81.4704 355.004 63.4402L354.758 63.1548C339.258 45.1548 349.258 34.1548 341.758 22.1548C334.258 10.1548 315.259 9.65476 307.759 16.1548Z" fill="#111928"/>
<path d="M333.258 63.1548C362.258 78.6548 364.591 102.821 364.258 111.155L355.258 121.655L356.258 179.155H313.259C310.759 164.821 306.059 132.255 307.259 116.655C308.459 101.055 318.426 79.4881 323.259 70.6548C329.259 70.2548 332.091 65.4881 333.258 63.1548Z" fill="#F9FAFB"/>
<path d="M333.258 63.1548C362.258 78.6548 364.591 102.821 364.258 111.155L355.258 121.655L356.258 179.155H313.259C310.759 164.821 306.059 132.255 307.259 116.655C308.459 101.055 318.426 79.4881 323.259 70.6548C329.259 70.2548 332.091 65.4881 333.258 63.1548Z" fill="url(#paint4_linear_749_8)"/>
<path d="M333.258 63.1548C362.258 78.6548 364.591 102.821 364.258 111.155L355.258 121.655L356.258 179.155H313.259C310.759 164.821 306.059 132.255 307.259 116.655C308.459 101.055 318.426 79.4881 323.259 70.6548C329.259 70.2548 332.091 65.4881 333.258 63.1548Z" fill="url(#paint5_linear_749_8)"/>
<path d="M364.944 179.627L325.758 179.155L361.387 112.5L366.95 177.361C367.112 178.57 366.164 179.642 364.944 179.627Z" fill="#F9FAFB"/>
<path d="M364.944 179.627L325.758 179.155L361.387 112.5L366.95 177.361C367.112 178.57 366.164 179.642 364.944 179.627Z" fill="url(#paint6_linear_749_8)"/>
<path d="M314.906 164.655L327.406 146.655L350.406 151.655C347.906 157.321 342.006 170.355 338.406 177.155C333.906 185.655 270.906 184.155 254.906 186.655C238.906 189.155 228.906 202.155 230.406 189.155C231.606 178.755 287.239 168.488 314.906 164.655Z" fill="#FDBA8C"/>
<path d="M314.906 164.655L327.406 146.655L350.406 151.655C347.906 157.321 342.006 170.355 338.406 177.155C333.906 185.655 270.906 184.155 254.906 186.655C238.906 189.155 228.906 202.155 230.406 189.155C231.606 178.755 287.239 168.488 314.906 164.655Z" fill="url(#paint7_linear_749_8)"/>
<path d="M313.387 164.5L325.078 120.175C330.887 99.0001 354.713 104.685 363.621 106.234C367.887 113 351.887 191 329.887 199C307.887 207 272.72 204 259.887 199V174L313.387 164.5Z" fill="#F9FAFB"/>
<path d="M313.387 164.5L325.078 120.175C330.887 99.0001 354.713 104.685 363.621 106.234C367.887 113 351.887 191 329.887 199C307.887 207 272.72 204 259.887 199V174L313.387 164.5Z" fill="url(#paint8_linear_749_8)"/>
<path d="M313.387 164.5L325.078 120.175C330.887 99.0001 354.713 104.685 363.621 106.234C367.887 113 351.887 191 329.887 199C307.887 207 272.72 204 259.887 199V174L313.387 164.5Z" fill="url(#paint9_linear_749_8)"/>
<path d="M315.258 51.6548C320.458 59.6548 323.258 67.4881 323.258 71.1548C324.463 79.6548 339.258 70.1548 334.258 64.1548C330.258 59.3548 326.258 46.4881 324.758 40.6548L315.258 51.6548Z" fill="#FDBA8C"/>
<path d="M315.258 51.6548C320.458 59.6548 323.258 67.4881 323.258 71.1548C324.463 79.6548 339.258 70.1548 334.258 64.1548C330.258 59.3548 326.258 46.4881 324.758 40.6548L315.258 51.6548Z" fill="url(#paint10_linear_749_8)"/>
<path d="M313.757 52.6548C304.957 52.2548 304.424 33.8215 305.257 24.6548C315.757 24.6548 317.258 34.6548 321.758 35.1548C326.258 35.6548 328.258 31.1548 330.258 34.6548C332.258 38.1548 324.757 53.1548 313.757 52.6548Z" fill="#FDBA8C"/>
<path d="M311.552 35.276C311.809 35.7897 311.6 36.4143 311.087 36.6711C310.573 36.9279 309.948 36.7197 309.692 36.206C309.435 35.6923 309.643 35.0677 310.157 34.8109C310.67 34.5541 311.295 34.7623 311.552 35.276Z" fill="#111928"/>
<path fill-rule="evenodd" clip-rule="evenodd" d="M309.689 31.8285C308.974 31.9993 308.46 32.4336 308.005 32.9845C307.83 33.1975 307.515 33.2277 307.302 33.052C307.089 32.8763 307.058 32.5612 307.234 32.3482C307.759 31.7119 308.445 31.0974 309.456 30.8559C310.462 30.6156 311.703 30.7643 313.303 31.4695C313.556 31.5809 313.67 31.8761 313.559 32.1287C313.447 32.3814 313.152 32.4959 312.9 32.3845C311.418 31.7316 310.409 31.6564 309.689 31.8285Z" fill="#111928"/>
<path fill-rule="evenodd" clip-rule="evenodd" d="M306.454 36.1791C306.729 36.1989 306.937 36.4382 306.917 36.7136L306.424 43.5751C306.415 43.6976 306.521 43.7971 306.643 43.7803L309.562 43.3772C309.836 43.3394 310.088 43.5305 310.126 43.804C310.164 44.0776 309.973 44.33 309.699 44.3677L306.78 44.7709C306.028 44.8747 305.372 44.2601 305.427 43.5034L305.919 36.642C305.939 36.3666 306.178 36.1593 306.454 36.1791Z" fill="#111928"/>
<path fill-rule="evenodd" clip-rule="evenodd" d="M307.484 47.3147L315.589 44.8425C315.43 47.8559 314.002 50.3502 310.3 51.3227C309.142 50.3816 308.217 48.993 307.484 47.3147Z" fill="white"/>
<path fill-rule="evenodd" clip-rule="evenodd" d="M327.66 37.5124C327.735 36.7812 327.496 36.1526 327.127 35.5414C326.984 35.3051 327.06 34.9977 327.296 34.8549C327.532 34.7121 327.84 34.7879 327.982 35.0243C328.409 35.7302 328.761 36.5815 328.654 37.6153C328.548 38.6437 327.997 39.7659 326.801 41.0417C326.613 41.2432 326.296 41.2535 326.095 41.0647C325.893 40.8759 325.883 40.5595 326.072 40.3579C327.178 39.1767 327.584 38.249 327.66 37.5124Z" fill="#111928"/>
<path d="M117.887 230C117.887 228.895 118.782 228 119.887 228H180.887C181.991 228 182.887 228.895 182.887 230V286C182.887 287.105 181.991 288 180.887 288H119.887C118.782 288 117.887 287.105 117.887 286V230Z" fill="#d6e2fb"/>
<path d="M117.887 230C117.887 228.895 118.782 228 119.887 228H180.887C181.991 228 182.887 228.895 182.887 230V286C182.887 287.105 181.991 288 180.887 288H119.887C118.782 288 117.887 287.105 117.887 286V230Z" fill="url(#paint11_linear_749_8)" fill-opacity="0.4"/>
<path d="M134.887 238.5C134.887 240.985 132.872 243 130.387 243C127.901 243 125.887 240.985 125.887 238.5C125.887 236.015 127.901 234 130.387 234C132.872 234 134.887 236.015 134.887 238.5Z" fill="#F9FAFB"/>
<path d="M147.887 238.5C147.887 240.985 145.872 243 143.387 243C140.901 243 138.887 240.985 138.887 238.5C138.887 236.015 140.901 234 143.387 234C145.872 234 147.887 236.015 147.887 238.5Z" fill="#F9FAFB"/>
<path d="M160.887 238.5C160.887 240.985 158.872 243 156.387 243C153.901 243 151.887 240.985 151.887 238.5C151.887 236.015 153.901 234 156.387 234C158.872 234 160.887 236.015 160.887 238.5Z" fill="#F9FAFB"/>
<path d="M173.887 238.5C173.887 240.985 171.872 243 169.387 243C166.901 243 164.887 240.985 164.887 238.5C164.887 236.015 166.901 234 169.387 234C171.872 234 173.887 236.015 173.887 238.5Z" fill="#F9FAFB"/>
<path d="M134.887 258.5C134.887 260.985 132.872 263 130.387 263C127.901 263 125.887 260.985 125.887 258.5C125.887 256.015 127.901 254 130.387 254C132.872 254 134.887 256.015 134.887 258.5Z" fill="#F9FAFB"/>
<path d="M147.887 258.5C147.887 260.985 145.872 263 143.387 263C140.901 263 138.887 260.985 138.887 258.5C138.887 256.015 140.901 254 143.387 254C145.872 254 147.887 256.015 147.887 258.5Z" fill="#F9FAFB"/>
<path d="M160.887 258.5C160.887 260.985 158.872 263 156.387 263C153.901 263 151.887 260.985 151.887 258.5C151.887 256.015 153.901 254 156.387 254C158.872 254 160.887 256.015 160.887 258.5Z" fill="#F9FAFB"/>
<path d="M173.887 258.5C173.887 260.985 171.872 263 169.387 263C166.901 263 164.887 260.985 164.887 258.5C164.887 256.015 166.901 254 169.387 254C171.872 254 173.887 256.015 173.887 258.5Z" fill="#F9FAFB"/>
<path d="M134.887 278.5C134.887 280.985 132.872 283 130.387 283C127.901 283 125.887 280.985 125.887 278.5C125.887 276.015 127.901 274 130.387 274C132.872 274 134.887 276.015 134.887 278.5Z" fill="#F9FAFB"/>
<path d="M147.887 278.5C147.887 280.985 145.872 283 143.387 283C140.901 283 138.887 280.985 138.887 278.5C138.887 276.015 140.901 274 143.387 274C145.872 274 147.887 276.015 147.887 278.5Z" fill="#F9FAFB"/>
<path d="M160.887 278.5C160.887 280.985 158.872 283 156.387 283C153.901 283 151.887 280.985 151.887 278.5C151.887 276.015 153.901 274 156.387 274C158.872 274 160.887 276.015 160.887 278.5Z" fill="#F9FAFB"/>
<path d="M173.887 278.5C173.887 280.985 171.872 283 169.387 283C166.901 283 164.887 280.985 164.887 278.5C164.887 276.015 166.901 274 169.387 274C171.872 274 173.887 276.015 173.887 278.5Z" fill="#F9FAFB"/>
<path d="M154.844 259.932C155.128 258.865 156.225 258.231 157.292 258.516L216.229 274.245C217.296 274.53 217.93 275.626 217.646 276.693L203.206 330.799C202.921 331.867 201.825 332.501 200.757 332.216L141.82 316.487C140.753 316.202 140.119 315.106 140.404 314.039L154.844 259.932Z" fill="#d6e2fb"/>
<path d="M154.844 259.932C155.128 258.865 156.225 258.231 157.292 258.516L216.229 274.245C217.296 274.53 217.93 275.626 217.646 276.693L203.206 330.799C202.921 331.867 201.825 332.501 200.757 332.216L141.82 316.487C140.753 316.202 140.119 315.106 140.404 314.039L154.844 259.932Z" fill="url(#paint12_linear_749_8)" fill-opacity="0.4"/>
<path d="M4.10938 240.122L97.5736 218.203L117.666 303.878L24.2019 325.797L4.10938 240.122Z" fill="#d6e2fb"/>
<path d="M4.10938 240.122L97.5736 218.203L117.666 303.878L24.2019 325.797L4.10938 240.122Z" fill="url(#paint13_linear_749_8)"/>
<path fill-rule="evenodd" clip-rule="evenodd" d="M55.7094 228.021L45.9735 230.304L54.8782 268.274L13.014 278.092L15.2973 287.828L57.1614 278.01L66.0661 315.979L75.8019 313.696L66.8973 275.726L108.761 265.908L106.478 256.173L64.614 265.99L55.7094 228.021Z" fill="#F9FAFB"/>
<path d="M49.6591 413.739C49.79 412.744 50.6383 412 51.642 412H136.134C137.138 412 137.986 412.744 138.117 413.739L147.59 485.739C147.748 486.937 146.816 488 145.607 488H42.1683C40.9601 488 40.0278 486.937 40.1854 485.739L49.6591 413.739Z" fill="#c8d8fa"/>
<path d="M49.6591 413.739C49.79 412.744 50.6383 412 51.642 412H136.134C137.138 412 137.986 412.744 138.117 413.739L147.59 485.739C147.748 486.937 146.816 488 145.607 488H42.1683C40.9601 488 40.0278 486.937 40.1854 485.739L49.6591 413.739Z" fill="url(#paint14_linear_749_8)"/>
<path fill-rule="evenodd" clip-rule="evenodd" d="M69.8867 412C69.8867 425.255 80.6319 436 93.8867 436C107.142 436 117.887 425.255 117.887 412H119.887C119.887 426.359 108.246 438 93.8867 438C79.5273 438 67.8867 426.359 67.8867 412H69.8867Z" fill="#d6e2fb"/>
<path d="M70.7643 285.739C70.8953 284.744 71.7435 284 72.7472 284H175.765C176.769 284 177.617 284.744 177.748 285.739L189.327 373.739C189.485 374.937 188.553 376 187.344 376H61.1683C59.9601 376 59.0278 374.937 59.1854 373.739L70.7643 285.739Z" fill="#d6e2fb"/>
<path d="M70.7643 285.739C70.8953 284.744 71.7435 284 72.7472 284H175.765C176.769 284 177.617 284.744 177.748 285.739L189.327 373.739C189.485 374.937 188.553 376 187.344 376H61.1683C59.9601 376 59.0278 374.937 59.1854 373.739L70.7643 285.739Z" fill="url(#paint15_linear_749_8)" fill-opacity="0.6"/>
<path fill-rule="evenodd" clip-rule="evenodd" d="M160.831 376H86.9429C86.9056 375.321 86.8867 374.636 86.8867 373.947C86.8867 353.542 103.452 337 123.887 337C144.321 337 160.887 353.542 160.887 373.947C160.887 374.636 160.868 375.321 160.831 376Z" fill="url(#paint16_linear_749_8)" fill-opacity="0.3"/>
<path fill-rule="evenodd" clip-rule="evenodd" d="M94.9922 284C94.9922 300.162 108.094 313.263 124.255 313.263C140.417 313.263 153.519 300.162 153.519 284H155.519C155.519 301.266 141.522 315.263 124.255 315.263C106.989 315.263 92.9922 301.266 92.9922 284H94.9922Z" fill="#F9FAFB"/>
<path d="M32.8867 318C32.8867 316.895 33.7821 316 34.8867 316H96.8867C97.9913 316 98.8867 316.895 98.8867 318V374C98.8867 375.105 97.9913 376 96.8867 376H34.8867C33.7821 376 32.8867 375.105 32.8867 374V318Z" fill="#d6e2fb"/>
<path d="M32.8867 318C32.8867 316.895 33.7821 316 34.8867 316H96.8867C97.9913 316 98.8867 316.895 98.8867 318V374C98.8867 375.105 97.9913 376 96.8867 376H34.8867C33.7821 376 32.8867 375.105 32.8867 374V318Z" fill="url(#paint17_linear_749_8)"/>
<path fill-rule="evenodd" clip-rule="evenodd" d="M93.0218 316L98.8867 321.865V339.18L75.707 316H93.0218ZM68.7818 316H51.4705L98.8867 363.416V346.105L68.7818 316ZM98.8867 370.341L44.5454 316H34.8867C33.7821 316 32.8867 316.895 32.8867 318V321.656L87.2305 376H96.8867C97.9913 376 98.8867 375.105 98.8867 374V370.341ZM80.3054 376L32.8867 328.581V345.892L62.9944 376H80.3054ZM56.0693 376L32.8867 352.817V370.133L38.7542 376H56.0693Z" fill="#d6e2fb"/>
<path fill-rule="evenodd" clip-rule="evenodd" d="M93.0218 316L98.8867 321.865V339.18L75.707 316H93.0218ZM68.7818 316H51.4705L98.8867 363.416V346.105L68.7818 316ZM98.8867 370.341L44.5454 316H34.8867C33.7821 316 32.8867 316.895 32.8867 318V321.656L87.2305 376H96.8867C97.9913 376 98.8867 375.105 98.8867 374V370.341ZM80.3054 376L32.8867 328.581V345.892L62.9944 376H80.3054ZM56.0693 376L32.8867 352.817V370.133L38.7542 376H56.0693Z" fill="url(#paint18_linear_749_8)"/>
<path fill-rule="evenodd" clip-rule="evenodd" d="M242.814 197.562C243.608 197.798 244.061 198.634 243.824 199.428L210.881 310.133C210.863 310.339 210.803 310.533 210.71 310.707L158.25 486.998C157.808 488.482 156.444 489.5 154.895 489.5H26.8866C26.0582 489.5 25.3866 488.828 25.3866 488C25.3866 487.171 26.0582 486.5 26.8866 486.5H154.895C155.116 486.5 155.311 486.355 155.374 486.143L187.555 378H32.416C30.8362 378 29.4522 376.942 29.0383 375.417L23.7658 355.997C23.53 355.732 23.3867 355.383 23.3867 355C23.3867 354.899 23.3966 354.801 23.4154 354.706L0.124237 268.917C-0.479991 266.691 1.19583 264.5 3.50197 264.5H221.33L240.949 198.572C241.185 197.778 242.02 197.326 242.814 197.562ZM27.011 356.5L31.9335 374.631C31.9926 374.849 32.1903 375 32.416 375H188.448L193.953 356.5H27.011ZM194.846 353.5H26.1965L21.0382 334.5H200.5L194.846 353.5ZM208.237 308.5L213.891 289.5H8.82096L13.9793 308.5H208.237ZM14.7938 311.5H207.344L201.393 331.5H20.2237L14.7938 311.5ZM220.437 267.5H3.50197C3.17252 267.5 2.93312 267.813 3.01943 268.131L8.00648 286.5H214.784L220.437 267.5Z" fill="#c8d8fa"/>
<path d="M142.266 488H121.421L126.848 510.796C126.969 511.303 127.423 511.662 127.945 511.662H135.742C136.264 511.662 136.717 511.303 136.838 510.796L142.266 488Z" fill="#c8d8fa"/>
<path d="M142.266 488H121.421L126.848 510.796C126.969 511.303 127.423 511.662 127.945 511.662H135.742C136.264 511.662 136.717 511.303 136.838 510.796L142.266 488Z" fill="url(#paint19_linear_749_8)"/>
<path d="M116.35 514.479C116.35 523.19 123.412 530.253 132.124 530.253C140.836 530.253 147.898 523.19 147.898 514.479C147.898 505.767 140.836 498.704 132.124 498.704C123.412 498.704 116.35 505.767 116.35 514.479Z" fill="#d6e2fb"/>
<path d="M116.35 514.479C116.35 523.19 123.412 530.253 132.124 530.253C140.836 530.253 147.898 523.19 147.898 514.479C147.898 505.767 140.836 498.704 132.124 498.704C123.412 498.704 116.35 505.767 116.35 514.479Z" fill="url(#paint20_linear_749_8)"/>
<path d="M123.673 514.478C123.673 519.146 127.457 522.929 132.124 522.929C136.791 522.929 140.574 519.146 140.574 514.478C140.574 509.811 136.791 506.028 132.124 506.028C127.457 506.028 123.673 509.811 123.673 514.478Z" fill="#c8d8fa"/>
<path d="M123.673 514.478C123.673 519.146 127.457 522.929 132.124 522.929C136.791 522.929 140.574 519.146 140.574 514.478C140.574 509.811 136.791 506.028 132.124 506.028C127.457 506.028 123.673 509.811 123.673 514.478Z" fill="url(#paint21_linear_749_8)"/>
<path d="M59.8008 488H38.956L44.3836 510.796C44.5045 511.303 44.958 511.662 45.4797 511.662H53.2771C53.7988 511.662 54.2523 511.303 54.3732 510.796L59.8008 488Z" fill="#c8d8fa"/>
<path d="M59.8008 488H38.956L44.3836 510.796C44.5045 511.303 44.958 511.662 45.4797 511.662H53.2771C53.7988 511.662 54.2523 511.303 54.3732 510.796L59.8008 488Z" fill="url(#paint22_linear_749_8)"/>
<path d="M33.8848 514.479C33.8848 523.19 40.9472 530.253 49.6592 530.253C58.3711 530.253 65.4336 523.19 65.4336 514.479C65.4336 505.767 58.3711 498.704 49.6592 498.704C40.9472 498.704 33.8848 505.767 33.8848 514.479Z" fill="#d6e2fb"/>
<path d="M33.8848 514.479C33.8848 523.19 40.9472 530.253 49.6592 530.253C58.3711 530.253 65.4336 523.19 65.4336 514.479C65.4336 505.767 58.3711 498.704 49.6592 498.704C40.9472 498.704 33.8848 505.767 33.8848 514.479Z" fill="url(#paint23_linear_749_8)"/>
<path d="M41.2082 514.478C41.2082 519.146 44.9917 522.929 49.6588 522.929C54.3259 522.929 58.1094 519.146 58.1094 514.478C58.1094 509.811 54.3259 506.028 49.6588 506.028C44.9917 506.028 41.2082 509.811 41.2082 514.478Z" fill="#c8d8fa"/>
<path d="M41.2082 514.478C41.2082 519.146 44.9917 522.929 49.6588 522.929C54.3259 522.929 58.1094 519.146 58.1094 514.478C58.1094 509.811 54.3259 506.028 49.6588 506.028C44.9917 506.028 41.2082 509.811 41.2082 514.478Z" fill="url(#paint24_linear_749_8)"/>
<path d="M247.887 197C247.887 200.314 245.2 203 241.887 203C238.573 203 235.887 200.314 235.887 197C235.887 193.686 238.573 191 241.887 191C245.2 191 247.887 193.686 247.887 197Z" fill="#c8d8fa"/>
<defs>
<linearGradient id="paint0_linear_749_8" x1="668.019" y1="439.56" x2="469.169" y2="-119.105" gradientUnits="userSpaceOnUse">
<stop stop-color="#2563eb"/>
<stop offset="1" stop-color="#2563eb" stop-opacity="0"/>
</linearGradient>
<linearGradient id="paint1_linear_749_8" x1="491.795" y1="701.185" x2="491.795" y2="-310.845" gradientUnits="userSpaceOnUse">
<stop stop-color="#9ab7f6"/>
<stop offset="1" stop-color="#9ab7f6" stop-opacity="0"/>
</linearGradient>
<linearGradient id="paint2_linear_749_8" x1="225.887" y1="96" x2="501.78" y2="236.923" gradientUnits="userSpaceOnUse">
<stop stop-color="#111928"/>
<stop offset="1" stop-color="#111928" stop-opacity="0"/>
</linearGradient>
<linearGradient id="paint3_linear_749_8" x1="475.756" y1="-162.345" x2="347.256" y2="291.155" gradientUnits="userSpaceOnUse">
<stop stop-color="#111928"/>
<stop offset="1" stop-color="#111928" stop-opacity="0"/>
</linearGradient>
<linearGradient id="paint4_linear_749_8" x1="267.758" y1="49.1548" x2="343.992" y2="90.524" gradientUnits="userSpaceOnUse">
<stop stop-color="#c8d8fa"/>
<stop offset="1" stop-color="#c8d8fa" stop-opacity="0"/>
</linearGradient>
<linearGradient id="paint5_linear_749_8" x1="304.758" y1="184.655" x2="294.597" y2="126.87" gradientUnits="userSpaceOnUse">
<stop stop-color="#c8d8fa"/>
<stop offset="1" stop-color="#c8d8fa" stop-opacity="0"/>
</linearGradient>
<linearGradient id="paint6_linear_749_8" x1="425.517" y1="131.476" x2="396.637" y2="193.416" gradientUnits="userSpaceOnUse">
<stop stop-color="#c8d8fa"/>
<stop offset="1" stop-color="#c8d8fa" stop-opacity="0"/>
</linearGradient>
<linearGradient id="paint7_linear_749_8" x1="443.424" y1="149.532" x2="379.521" y2="248.865" gradientUnits="userSpaceOnUse">
<stop stop-color="#7F270F"/>
<stop offset="1" stop-color="#7F270F" stop-opacity="0"/>
</linearGradient>
<linearGradient id="paint8_linear_749_8" x1="188.622" y1="93.376" x2="267.847" y2="182.244" gradientUnits="userSpaceOnUse">
<stop stop-color="#c8d8fa"/>
<stop offset="1" stop-color="#c8d8fa" stop-opacity="0"/>
</linearGradient>
<linearGradient id="paint9_linear_749_8" x1="255.701" y1="212.218" x2="251.289" y2="160.346" gradientUnits="userSpaceOnUse">
<stop stop-color="#c8d8fa"/>
<stop offset="1" stop-color="#c8d8fa" stop-opacity="0"/>
</linearGradient>
<linearGradient id="paint10_linear_749_8" x1="335.258" y1="25.6548" x2="329.915" y2="72.3592" gradientUnits="userSpaceOnUse">
<stop stop-color="#7F270F"/>
<stop offset="1" stop-color="#7F270F" stop-opacity="0"/>
</linearGradient>
<linearGradient id="paint11_linear_749_8" x1="174.989" y1="267.693" x2="148.341" y2="217.468" gradientUnits="userSpaceOnUse">
<stop stop-color="#9ab7f6"/>
<stop offset="1" stop-color="#9ab7f6" stop-opacity="0"/>
</linearGradient>
<linearGradient id="paint12_linear_749_8" x1="200.296" y1="311.075" x2="187.5" y2="255.677" gradientUnits="userSpaceOnUse">
<stop stop-color="#2563eb"/>
<stop offset="1" stop-color="#2563eb" stop-opacity="0"/>
</linearGradient>
<linearGradient id="paint13_linear_749_8" x1="92.3867" y1="302" x2="68.0337" y2="255.275" gradientUnits="userSpaceOnUse">
<stop stop-color="#c8d8fa"/>
<stop offset="1" stop-color="#c8d8fa" stop-opacity="0"/>
</linearGradient>
<linearGradient id="paint14_linear_749_8" x1="5.40898" y1="516.916" x2="34.8222" y2="411.185" gradientUnits="userSpaceOnUse">
<stop stop-color="#2563eb"/>
<stop offset="1" stop-color="#2563eb" stop-opacity="0"/>
</linearGradient>
<linearGradient id="paint15_linear_749_8" x1="17.1503" y1="411.003" x2="55.9862" y2="252.601" gradientUnits="userSpaceOnUse">
<stop stop-color="#2563eb"/>
<stop offset="1" stop-color="#2563eb" stop-opacity="0"/>
</linearGradient>
<linearGradient id="paint16_linear_749_8" x1="168.081" y1="345.724" x2="117.05" y2="398.073" gradientUnits="userSpaceOnUse">
<stop stop-color="#2563eb"/>
<stop offset="1" stop-color="#2563eb" stop-opacity="0"/>
</linearGradient>
<linearGradient id="paint17_linear_749_8" x1="105.769" y1="382.804" x2="62.6585" y2="341.063" gradientUnits="userSpaceOnUse">
<stop stop-color="#c8d8fa"/>
<stop offset="1" stop-color="#c8d8fa" stop-opacity="0"/>
</linearGradient>
<linearGradient id="paint18_linear_749_8" x1="46.3867" y1="305.5" x2="37.2166" y2="489.651" gradientUnits="userSpaceOnUse">
<stop stop-color="#c8d8fa"/>
<stop offset="1" stop-color="#c8d8fa" stop-opacity="0"/>
</linearGradient>
<linearGradient id="paint19_linear_749_8" x1="131.843" y1="482.085" x2="131.843" y2="501.803" gradientUnits="userSpaceOnUse">
<stop stop-color="#d6e2fb"/>
<stop offset="1" stop-color="#d6e2fb" stop-opacity="0"/>
</linearGradient>
<linearGradient id="paint20_linear_749_8" x1="132.124" y1="549.408" x2="124.611" y2="509.119" gradientUnits="userSpaceOnUse">
<stop stop-color="#c8d8fa"/>
<stop offset="1" stop-color="#c8d8fa" stop-opacity="0"/>
</linearGradient>
<linearGradient id="paint21_linear_749_8" x1="132.124" y1="483.775" x2="132.124" y2="524.337" gradientUnits="userSpaceOnUse">
<stop stop-color="#2563eb"/>
<stop offset="1" stop-color="#2563eb" stop-opacity="0"/>
</linearGradient>
<linearGradient id="paint22_linear_749_8" x1="49.3784" y1="482.085" x2="49.3784" y2="501.803" gradientUnits="userSpaceOnUse">
<stop stop-color="#d6e2fb"/>
<stop offset="1" stop-color="#d6e2fb" stop-opacity="0"/>
</linearGradient>
<linearGradient id="paint23_linear_749_8" x1="49.6592" y1="549.408" x2="42.1458" y2="509.119" gradientUnits="userSpaceOnUse">
<stop stop-color="#c8d8fa"/>
<stop offset="1" stop-color="#c8d8fa" stop-opacity="0"/>
</linearGradient>
<linearGradient id="paint24_linear_749_8" x1="49.6588" y1="483.775" x2="49.6588" y2="524.337" gradientUnits="userSpaceOnUse">
<stop stop-color="#2563eb"/>
<stop offset="1" stop-color="#2563eb" stop-opacity="0"/>
</linearGradient>
</defs>
</svg>