<svg class="w-auto max-w-[16rem] h-40 text-gray-800 dark:text-white" aria-hidden="true" width="589" height="512" viewBox="0 0 589 512" fill="none" xmlns="http://www.w3.org/2000/svg">
<path d="M93 5.75556C93 2.57685 95.729 0 99.0955 0H469.905C473.271 0 476 2.57685 476 5.75556V253.244C476 256.423 473.271 259 469.905 259H99.0955C95.729 259 93 256.423 93 253.244V5.75556Z" fill="#c8d8fa"/>
<path d="M154 52C154 48.6863 156.686 46 160 46H285C288.314 46 291 48.6863 291 52V165C291 168.314 288.314 171 285 171H160C156.686 171 154 168.314 154 165V52Z" fill="#d6e2fb"/>
<path d="M154 52C154 48.6863 156.686 46 160 46H285C288.314 46 291 48.6863 291 52V165C291 168.314 288.314 171 285 171H160C156.686 171 154 168.314 154 165V52Z" fill="url(#paint0_linear_204_2758)"/>
<path fill-rule="evenodd" clip-rule="evenodd" d="M285 47H160C157.239 47 155 49.2386 155 52V165C155 167.761 157.239 170 160 170H285C287.761 170 290 167.761 290 165V52C290 49.2386 287.761 47 285 47ZM160 46C156.686 46 154 48.6863 154 52V165C154 168.314 156.686 171 160 171H285C288.314 171 291 168.314 291 165V52C291 48.6863 288.314 46 285 46H160Z" fill="#d6e2fb"/>
<path d="M183 149C183 142.925 187.925 138 194 138H250C256.075 138 261 142.925 261 149C261 155.075 256.075 160 250 160H194C187.925 160 183 155.075 183 149Z" fill="#2563eb"/>
<path d="M194 69C194 67.3431 195.343 66 197 66H247C248.657 66 250 67.3431 250 69V119C250 120.657 248.657 122 247 122H197C195.343 122 194 120.657 194 119V69Z" fill="white"/>
<path d="M0 52C0 48.6863 2.68629 46 6 46H131C134.314 46 137 48.6863 137 52V165C137 168.314 134.314 171 131 171H6C2.6863 171 0 168.314 0 165V52Z" fill="#d6e2fb"/>
<path d="M0 52C0 48.6863 2.68629 46 6 46H131C134.314 46 137 48.6863 137 52V165C137 168.314 134.314 171 131 171H6C2.6863 171 0 168.314 0 165V52Z" fill="url(#paint1_linear_204_2758)"/>
<path fill-rule="evenodd" clip-rule="evenodd" d="M131 47H6C3.23858 47 1 49.2386 1 52V165C1 167.761 3.23858 170 6 170H131C133.761 170 136 167.761 136 165V52C136 49.2386 133.761 47 131 47ZM6 46C2.68629 46 0 48.6863 0 52V165C0 168.314 2.6863 171 6 171H131C134.314 171 137 168.314 137 165V52C137 48.6863 134.314 46 131 46H6Z" fill="#d6e2fb"/>
<path d="M40 94C40 78.536 52.536 66 68 66C83.464 66 96 78.536 96 94C96 109.464 83.464 122 68 122C52.536 122 40 109.464 40 94Z" fill="white"/>
<path d="M308 52C308 48.6863 310.686 46 314 46H439C442.314 46 445 48.6863 445 52V165C445 168.314 442.314 171 439 171H314C310.686 171 308 168.314 308 165V52Z" fill="#d6e2fb"/>
<path d="M308 52C308 48.6863 310.686 46 314 46H439C442.314 46 445 48.6863 445 52V165C445 168.314 442.314 171 439 171H314C310.686 171 308 168.314 308 165V52Z" fill="url(#paint2_linear_204_2758)"/>
<path fill-rule="evenodd" clip-rule="evenodd" d="M439 47H314C311.239 47 309 49.2386 309 52V165C309 167.761 311.239 170 314 170H439C441.761 170 444 167.761 444 165V52C444 49.2386 441.761 47 439 47ZM314 46C310.686 46 308 48.6863 308 52V165C308 168.314 310.686 171 314 171H439C442.314 171 445 168.314 445 165V52C445 48.6863 442.314 46 439 46H314Z" fill="#d6e2fb"/>
<path d="M348 73.2426C348 70.5699 351.231 69.2314 353.121 71.1213L398.879 116.879C400.769 118.769 399.43 122 396.757 122H351C349.343 122 348 120.657 348 119V73.2426Z" fill="white"/>
<path fill-rule="evenodd" clip-rule="evenodd" d="M533 459C540.18 459 546 453.18 546 446C546 438.82 540.18 433 533 433C525.82 433 520 438.82 520 446C520 453.18 525.82 459 533 459ZM533 461C541.284 461 548 454.284 548 446C548 437.716 541.284 431 533 431C524.716 431 518 437.716 518 446C518 454.284 524.716 461 533 461Z" fill="#2563eb"/>
<path d="M570.645 448.13C570.262 446.865 569.096 446 567.774 446H497.209C495.895 446 494.734 446.855 494.344 448.11L475.708 508.11C475.108 510.041 476.551 512 478.573 512H585.956C587.969 512 589.411 510.057 588.827 508.13L570.645 448.13Z" fill="#d6e2fb"/>
<path d="M570.645 448.13C570.262 446.865 569.096 446 567.774 446H497.209C495.895 446 494.734 446.855 494.344 448.11L475.708 508.11C475.108 510.041 476.551 512 478.573 512H585.956C587.969 512 589.411 510.057 588.827 508.13L570.645 448.13Z" fill="url(#paint3_linear_204_2758)"/>
<path fill-rule="evenodd" clip-rule="evenodd" d="M470 435C477.18 435 483 429.18 483 422C483 414.82 477.18 409 470 409C462.82 409 457 414.82 457 422C457 429.18 462.82 435 470 435ZM470 437C478.284 437 485 430.284 485 422C485 413.716 478.284 407 470 407C461.716 407 455 413.716 455 422C455 430.284 461.716 437 470 437Z" fill="#2563eb"/>
<path d="M442.478 424.349C442.783 422.977 444 422 445.406 422H515.315C516.843 422 518.127 423.149 518.296 424.669L527.63 508.669C527.827 510.446 526.436 512 524.648 512H426.739C424.82 512 423.395 510.223 423.811 508.349L442.478 424.349Z" fill="#d6e2fb"/>
<path d="M442.478 424.349C442.783 422.977 444 422 445.406 422H515.315C516.843 422 518.127 423.149 518.296 424.669L527.63 508.669C527.827 510.446 526.436 512 524.648 512H426.739C424.82 512 423.395 510.223 423.811 508.349L442.478 424.349Z" fill="url(#paint4_linear_204_2758)"/>
<path d="M429.478 424.349C429.783 422.977 431 422 432.406 422H501.648C503.436 422 504.827 423.554 504.63 425.331L495.296 509.331C495.127 510.851 493.843 512 492.315 512H413.739C411.82 512 410.395 510.223 410.811 508.349L429.478 424.349Z" fill="#d6e2fb"/>
<path d="M438.743 439.352C439.047 437.978 440.265 437 441.672 437H485.65C487.437 437 488.828 438.553 488.632 440.33L482.664 494.33C482.496 495.85 481.211 497 479.682 497H429.736C427.818 497 426.392 495.225 426.806 493.352L438.743 439.352Z" fill="url(#paint5_linear_204_2758)"/>
<path fill-rule="evenodd" clip-rule="evenodd" d="M145 460C152.18 460 158 454.18 158 447C158 439.82 152.18 434 145 434C137.82 434 132 439.82 132 447C132 454.18 137.82 460 145 460ZM145 462C153.284 462 160 455.284 160 447C160 438.716 153.284 432 145 432C136.716 432 130 438.716 130 447C130 455.284 136.716 462 145 462Z" fill="#2563eb"/>
<path d="M166.287 446.344C165.98 444.974 164.764 444 163.36 444H111.302C109.774 444 108.491 445.148 108.321 446.666L101.374 508.666C101.175 510.444 102.566 512 104.355 512H177.254C179.175 512 180.601 510.219 180.181 508.344L166.287 446.344Z" fill="#d6e2fb"/>
<path d="M166.287 446.344C165.98 444.974 164.764 444 163.36 444H111.302C109.774 444 108.491 445.148 108.321 446.666L101.374 508.666C101.175 510.444 102.566 512 104.355 512H177.254C179.175 512 180.601 510.219 180.181 508.344L166.287 446.344Z" fill="url(#paint6_linear_204_2758)"/>
<path d="M176.365 446.347C176.06 444.976 174.842 444 173.437 444H122.353C120.564 444 119.173 445.555 119.371 447.332L126.282 509.332C126.451 510.851 127.735 512 129.263 512H187.258C189.178 512 190.603 510.221 190.186 508.347L176.365 446.347Z" fill="#d6e2fb"/>
<path d="M348.5 491.5C356.5 481.9 343.5 461.167 341 452L356.5 443.5L381 499L377 508H325.5C327.5 501 338.5 503.5 348.5 491.5Z" fill="#F9FAFB"/>
<path d="M348.5 491.5C356.5 481.9 343.5 461.167 341 452L356.5 443.5L381 499L377 508H325.5C327.5 501 338.5 503.5 348.5 491.5Z" fill="url(#paint7_linear_204_2758)"/>
<path d="M350 508H325.5C324.672 508 324 508.671 324 509.5C324 510.328 324.672 511 325.5 511H381.654C383.753 511 385.203 508.899 384.458 506.936L381.745 499.783C381.091 498.059 379.052 497.321 377.431 498.199C374.329 499.878 369.771 502.255 365 504.5C358.2 507.7 352.167 508.167 350 508Z" fill="#111928"/>
<path d="M275 353C267.4 334.2 269.833 316.5 272 310L317 328.5L369.716 451.176C370.15 452.185 369.688 453.356 368.682 453.797L335.776 468.222C334.786 468.655 333.644 468.25 333.175 467.277C317.854 435.462 282.462 371.46 275 353Z" fill="#2563eb"/>
<path d="M275 353C267.4 334.2 269.833 316.5 272 310L317 328.5L369.716 451.176C370.15 452.185 369.688 453.356 368.682 453.797L335.776 468.222C334.786 468.655 333.644 468.25 333.175 467.277C317.854 435.462 282.462 371.46 275 353Z" fill="url(#paint8_linear_204_2758)"/>
<path fill-rule="evenodd" clip-rule="evenodd" d="M362.394 433.419L323.894 449.919L323.106 448.081L361.606 431.581L362.394 433.419Z" fill="#c8d8fa"/>
<path fill-rule="evenodd" clip-rule="evenodd" d="M359.39 426.921L320.39 443.421L319.61 441.579L358.61 425.079L359.39 426.921Z" fill="#c8d8fa"/>
<path d="M247.5 491.5C255.5 481.9 252.5 461.167 250 452L264.5 440L280 498.5L276 508H225C227 501 237.5 503.5 247.5 491.5Z" fill="#F9FAFB"/>
<path d="M247.5 491.5C255.5 481.9 252.5 461.167 250 452L264.5 440L280 498.5L276 508H225C227 501 237.5 503.5 247.5 491.5Z" fill="url(#paint9_linear_204_2758)"/>
<path d="M249 507.896H225.552C224.695 507.896 224 508.591 224 509.448C224 510.305 224.695 511 225.552 511H280.48C281.768 511 282.72 509.8 282.427 508.545L280.119 498.654C279.812 497.339 278.316 496.694 277.14 497.359C274.051 499.104 269.15 501.769 264 504.276C257.2 507.586 251.167 508.069 249 507.896Z" fill="#111928"/>
<path d="M311.5 270V259H367C368.833 263.833 372.5 278.1 372.5 296.5C372.5 314.9 357.833 322.5 350.5 324H258.5L281.171 448.688C281.357 449.712 280.726 450.708 279.721 450.977L242.442 460.979C241.371 461.266 240.277 460.651 239.996 459.578C232.127 429.507 216.089 365.207 211 333.5C205.8 301.1 220.167 288.333 228 286L311.5 270Z" fill="#2563eb"/>
<path d="M311.5 270V259H367C368.833 263.833 372.5 278.1 372.5 296.5C372.5 314.9 357.833 322.5 350.5 324H258.5L281.171 448.688C281.357 449.712 280.726 450.708 279.721 450.977L242.442 460.979C241.371 461.266 240.277 460.651 239.996 459.578C232.127 429.507 216.089 365.207 211 333.5C205.8 301.1 220.167 288.333 228 286L311.5 270Z" fill="url(#paint10_linear_204_2758)"/>
<path fill-rule="evenodd" clip-rule="evenodd" d="M279.272 436.462L236.772 448.462L236.229 446.538L278.729 434.538L279.272 436.462Z" fill="#c8d8fa"/>
<path fill-rule="evenodd" clip-rule="evenodd" d="M277.772 428.962L235.272 440.962L234.729 439.038L277.229 427.038L277.772 428.962Z" fill="#c8d8fa"/>
<path d="M239.5 324H258.5L277 426H264L239.5 324Z" fill="url(#paint11_linear_204_2758)"/>
<path d="M216 146.5C225.6 148.5 238.667 159.667 244 165C246.333 170.333 248.9 179.2 240.5 172C230 163 220.5 162 217 157C214.2 153 216.833 150.667 218.5 150C213.667 148 206.4 144.5 216 146.5Z" fill="#FDBA8C"/>
<path d="M367 259L363 225L313 218L311.5 259H367Z" fill="#F9FAFB"/>
<path d="M367 259L363 225L313 218L311.5 259H367Z" fill="url(#paint12_linear_204_2758)"/>
<path d="M233.582 173.868L241.685 162.947C242.683 161.602 244.589 161.334 245.919 162.353L305.5 208C312.3 197.6 323.667 185.667 328.5 181L340.5 197.5C335 208.667 322.1 232.5 314.5 238.5C306.9 244.5 297.334 238.333 293.5 234.5L233.924 177.829C232.826 176.785 232.679 175.085 233.582 173.868Z" fill="#F9FAFB"/>
<path d="M233.582 173.868L241.685 162.947C242.683 161.602 244.589 161.334 245.919 162.353L305.5 208C312.3 197.6 323.667 185.667 328.5 181L340.5 197.5C335 208.667 322.1 232.5 314.5 238.5C306.9 244.5 297.334 238.333 293.5 234.5L233.924 177.829C232.826 176.785 232.679 175.085 233.582 173.868Z" fill="url(#paint13_linear_204_2758)"/>
<path fill-rule="evenodd" clip-rule="evenodd" d="M254.297 168.604L241.797 185.104L240.203 183.896L252.703 167.396L254.297 168.604Z" fill="#c8d8fa"/>
<path d="M344 132.5C333.2 131.7 326.834 138.5 325 142L326 155L333.5 166.5C326 175.5 320 190 322 199.5C324.001 209 323.5 211.5 322 218C320.8 223.2 321.5 229.5 322 232H380C389 206 358.5 173.5 361 163C363.5 152.5 357.5 133.5 344 132.5Z" fill="#111928"/>
<path d="M320.501 155.5C322.501 148.3 324.334 143.5 325.001 142C329.001 144 331.001 156.5 332.501 156C334.001 155.5 341.501 152 338.001 161C334.501 170 326.001 172.5 322.501 171C319.701 169.8 319.334 164.167 319.501 161.5L319.001 160.5L320.501 155.5Z" fill="#FDBA8C"/>
<path d="M325.373 154.723C325.377 155.298 324.915 155.766 324.34 155.77C323.766 155.774 323.298 155.311 323.294 154.737C323.29 154.163 323.753 153.694 324.327 153.69C324.901 153.687 325.37 154.149 325.373 154.723Z" fill="#111928"/>
<path fill-rule="evenodd" clip-rule="evenodd" d="M324.167 150.791C323.432 150.805 322.837 151.119 322.276 151.56C322.058 151.73 321.744 151.692 321.574 151.475C321.403 151.258 321.441 150.944 321.658 150.773C322.307 150.264 323.109 149.811 324.148 149.791C325.182 149.772 326.363 150.183 327.775 151.214C327.998 151.377 328.046 151.69 327.883 151.913C327.72 152.136 327.408 152.184 327.185 152.021C325.878 151.066 324.907 150.777 324.167 150.791Z" fill="#111928"/>
<path fill-rule="evenodd" clip-rule="evenodd" d="M321.408 153.371C321.671 153.455 321.816 153.736 321.732 153.999L319.636 160.551C319.599 160.668 319.679 160.79 319.801 160.802L322.733 161.099C323.008 161.126 323.208 161.372 323.18 161.646C323.152 161.921 322.907 162.121 322.632 162.093L319.7 161.797C318.946 161.721 318.453 160.969 318.684 160.247L320.78 153.694C320.864 153.431 321.145 153.286 321.408 153.371Z" fill="#111928"/>
<path fill-rule="evenodd" clip-rule="evenodd" d="M323.145 165.215C323.902 164.928 324.493 164.34 324.948 163.525C325.083 163.284 325.388 163.198 325.629 163.333C325.87 163.468 325.956 163.772 325.821 164.014C325.287 164.969 324.537 165.756 323.5 166.15C322.463 166.545 321.212 166.517 319.734 165.988C319.474 165.895 319.339 165.608 319.432 165.348C319.525 165.088 319.811 164.953 320.071 165.046C321.393 165.519 322.389 165.503 323.145 165.215Z" fill="#111928"/>
<path fill-rule="evenodd" clip-rule="evenodd" d="M335.632 159.754C336.022 159.131 336.085 158.461 336.023 157.75C335.999 157.475 336.203 157.233 336.478 157.209C336.753 157.185 336.995 157.389 337.019 157.664C337.09 158.485 337.031 159.405 336.479 160.285C335.929 161.161 334.939 161.925 333.303 162.542C333.045 162.639 332.757 162.509 332.659 162.251C332.562 161.992 332.692 161.704 332.95 161.606C334.465 161.035 335.238 160.381 335.632 159.754Z" fill="#111928"/>
<path d="M330 343L330 494L314 494L314 343L330 343Z" fill="#F9FAFB"/>
<path d="M330 343L330 494L314 494L314 343L330 343Z" fill="url(#paint14_linear_204_2758)"/>
<path d="M267 326C267 324.895 267.895 324 269 324H376C377.105 324 378 324.895 378 326V341C378 342.105 377.105 343 376 343H269C267.895 343 267 342.105 267 341V326Z" fill="#F9FAFB"/>
<path d="M267 326C267 324.895 267.895 324 269 324H376C377.105 324 378 324.895 378 326V341C378 342.105 377.105 343 376 343H269C267.895 343 267 342.105 267 341V326Z" fill="url(#paint15_linear_204_2758)"/>
<path d="M377.385 511H267.697C265.506 511 264.13 508.763 265.44 507.006C272.232 497.899 289.832 485 322.751 485C355.711 485 373.064 497.931 379.661 507.04C380.935 508.798 379.556 511 377.385 511Z" fill="#F9FAFB"/>
<path d="M377.385 511H267.697C265.506 511 264.13 508.763 265.44 507.006C272.232 497.899 289.832 485 322.751 485C355.711 485 373.064 497.931 379.661 507.04C380.935 508.798 379.556 511 377.385 511Z" fill="url(#paint16_linear_204_2758)"/>
<defs>
<linearGradient id="paint0_linear_204_2758" x1="222.5" y1="208.054" x2="222.5" y2="81.2679" gradientUnits="userSpaceOnUse">
<stop stop-color="#F9FAFB"/>
<stop offset="1" stop-color="#F9FAFB" stop-opacity="0"/>
</linearGradient>
<linearGradient id="paint1_linear_204_2758" x1="68.5" y1="208.054" x2="68.5" y2="81.2679" gradientUnits="userSpaceOnUse">
<stop stop-color="#F9FAFB"/>
<stop offset="1" stop-color="#F9FAFB" stop-opacity="0"/>
</linearGradient>
<linearGradient id="paint2_linear_204_2758" x1="376.5" y1="208.054" x2="376.5" y2="81.2679" gradientUnits="userSpaceOnUse">
<stop stop-color="#F9FAFB"/>
<stop offset="1" stop-color="#F9FAFB" stop-opacity="0"/>
</linearGradient>
<linearGradient id="paint3_linear_204_2758" x1="503.957" y1="512" x2="503.957" y2="434.267" gradientUnits="userSpaceOnUse">
<stop stop-color="#9ab7f6"/>
<stop offset="0.830726" stop-color="#9ab7f6" stop-opacity="0"/>
</linearGradient>
<linearGradient id="paint4_linear_204_2758" x1="501.22" y1="588" x2="501.22" y2="406" gradientUnits="userSpaceOnUse">
<stop stop-color="#9ab7f6"/>
<stop offset="0.830726" stop-color="#9ab7f6" stop-opacity="0"/>
</linearGradient>
<linearGradient id="paint5_linear_204_2758" x1="472.932" y1="547.667" x2="472.932" y2="426.333" gradientUnits="userSpaceOnUse">
<stop stop-color="#9ab7f6"/>
<stop offset="0.830726" stop-color="#9ab7f6" stop-opacity="0"/>
</linearGradient>
<linearGradient id="paint6_linear_204_2758" x1="121.404" y1="569.422" x2="121.404" y2="431.911" gradientUnits="userSpaceOnUse">
<stop stop-color="#9ab7f6"/>
<stop offset="0.830726" stop-color="#9ab7f6" stop-opacity="0"/>
</linearGradient>
<linearGradient id="paint7_linear_204_2758" x1="380" y1="409" x2="392.887" y2="498.561" gradientUnits="userSpaceOnUse">
<stop stop-color="#c8d8fa"/>
<stop offset="1" stop-color="#c8d8fa" stop-opacity="0"/>
</linearGradient>
<linearGradient id="paint8_linear_204_2758" x1="168.5" y1="203.5" x2="126.772" y2="435.197" gradientUnits="userSpaceOnUse">
<stop stop-color="#111928"/>
<stop offset="1" stop-color="#111928" stop-opacity="0"/>
</linearGradient>
<linearGradient id="paint9_linear_204_2758" x1="302" y1="427" x2="295" y2="508" gradientUnits="userSpaceOnUse">
<stop stop-color="#c8d8fa"/>
<stop offset="1" stop-color="#c8d8fa" stop-opacity="0"/>
</linearGradient>
<linearGradient id="paint10_linear_204_2758" x1="356.5" y1="54.5" x2="198.581" y2="188.008" gradientUnits="userSpaceOnUse">
<stop stop-color="#111928"/>
<stop offset="1" stop-color="#111928" stop-opacity="0"/>
</linearGradient>
<linearGradient id="paint11_linear_204_2758" x1="258.195" y1="195.5" x2="148.919" y2="348.69" gradientUnits="userSpaceOnUse">
<stop stop-color="#111928"/>
<stop offset="1" stop-color="#111928" stop-opacity="0"/>
</linearGradient>
<linearGradient id="paint12_linear_204_2758" x1="320" y1="204.5" x2="358" y2="230.5" gradientUnits="userSpaceOnUse">
<stop stop-color="#c8d8fa"/>
<stop offset="1" stop-color="#c8d8fa" stop-opacity="0"/>
</linearGradient>
<linearGradient id="paint13_linear_204_2758" x1="520" y1="170" x2="364" y2="166.5" gradientUnits="userSpaceOnUse">
<stop stop-color="#c8d8fa"/>
<stop offset="1" stop-color="#c8d8fa" stop-opacity="0"/>
</linearGradient>
<linearGradient id="paint14_linear_204_2758" x1="316.341" y1="331" x2="292.769" y2="337.847" gradientUnits="userSpaceOnUse">
<stop stop-color="#c8d8fa"/>
<stop offset="1" stop-color="#c8d8fa" stop-opacity="0"/>
</linearGradient>
<linearGradient id="paint15_linear_204_2758" x1="331" y1="312.5" x2="331" y2="338.5" gradientUnits="userSpaceOnUse">
<stop stop-color="#c8d8fa"/>
<stop offset="1" stop-color="#c8d8fa" stop-opacity="0"/>
</linearGradient>
<linearGradient id="paint16_linear_204_2758" x1="322.249" y1="464.396" x2="322.249" y2="505.604" gradientUnits="userSpaceOnUse">
<stop stop-color="#c8d8fa"/>
<stop offset="1" stop-color="#c8d8fa" stop-opacity="0"/>
</linearGradient>
</defs>
</svg>