<svg class="w-auto max-w-[16rem] h-40 text-gray-800 dark:text-white" aria-hidden="true" width="600" height="548" viewBox="0 0 600 548" fill="none" xmlns="http://www.w3.org/2000/svg">
<path d="M572 274C572 425.326 449.326 548 298 548C146.674 548 24 425.326 24 274C24 122.674 146.674 0 298 0C449.326 0 572 122.674 572 274Z" fill="url(#paint0_linear_411_1557)"/>
<path d="M502 390H435.5C468.7 326.8 559 273.333 600 254.5C574.4 317.3 524 371 502 390Z" fill="#374151"/>
<path d="M502 390H435.5C468.7 326.8 559 273.333 600 254.5C574.4 317.3 524 371 502 390Z" fill="url(#paint1_linear_411_1557)" fill-opacity="0.7"/>
<path d="M445.5 390H379C412.2 326.8 509 190.5 562 147.5C544.5 231 467.5 371 445.5 390Z" fill="#374151"/>
<path d="M445.5 390H379C412.2 326.8 509 190.5 562 147.5C544.5 231 467.5 371 445.5 390Z" fill="url(#paint2_linear_411_1557)" fill-opacity="0.7"/>
<path d="M98 390H164.5C131.3 326.8 41 273.333 0 254.5C25.6 317.3 76 371 98 390Z" fill="#374151"/>
<path d="M98 390H164.5C131.3 326.8 41 273.333 0 254.5C25.6 317.3 76 371 98 390Z" fill="url(#paint3_linear_411_1557)" fill-opacity="0.7"/>
<path d="M154.5 390H221C187.8 326.8 91 190.5 38 147.5C55.5 231 132.5 371 154.5 390Z" fill="#374151"/>
<path d="M154.5 390H221C187.8 326.8 91 190.5 38 147.5C55.5 231 132.5 371 154.5 390Z" fill="url(#paint4_linear_411_1557)" fill-opacity="0.7"/>
<path fill-rule="evenodd" clip-rule="evenodd" d="M546.773 389C503.303 482.878 408.257 548 298.002 548C187.746 548 92.7005 482.878 49.2305 389H546.773Z" fill="url(#paint5_linear_411_1557)"/>
<path d="M219 253H489L439 439H169L219 253Z" fill="#1F2A37"/>
<path d="M219 253H489L439 439H169L219 253Z" fill="url(#paint6_linear_411_1557)" fill-opacity="0.7"/>
<path d="M205.672 139.85L269.855 154.39L275.301 177.156L461.433 219.324L425.86 376.345L165.459 317.352L205.672 139.85Z" fill="#d6e2fb"/>
<path d="M205.672 139.85L269.855 154.39L275.301 177.156L461.433 219.324L425.86 376.345L165.459 317.352L205.672 139.85Z" fill="url(#paint7_linear_411_1557)"/>
<path fill-rule="evenodd" clip-rule="evenodd" d="M247.819 164.266L213.197 156.422L213.639 154.471L248.261 162.315L247.819 164.266Z" fill="#2563eb"/>
<path d="M182.973 172.88L248.243 181.287L255.818 203.436L445.103 227.815L424.536 387.496L159.724 353.389L182.973 172.88Z" fill="#d6e2fb"/>
<path d="M182.973 172.88L248.243 181.287L255.818 203.436L445.103 227.815L424.536 387.496L159.724 353.389L182.973 172.88Z" fill="url(#paint8_linear_411_1557)"/>
<path fill-rule="evenodd" clip-rule="evenodd" d="M227.239 193.201L192.03 188.666L192.285 186.683L227.494 191.218L227.239 193.201Z" fill="#2563eb"/>
<path d="M158 213H223.81L234.151 234H425V395H158V213Z" fill="#d6e2fb"/>
<path d="M158 213H223.81L234.151 234H425V395H158V213Z" fill="url(#paint9_linear_411_1557)"/>
<path fill-rule="evenodd" clip-rule="evenodd" d="M204.5 227.5H169V225.5H204.5V227.5Z" fill="#2563eb"/>
<path d="M119 253H389L439 439H169L119 253Z" fill="#d6e2fb"/>
<path d="M119 253H389L439 439H169L119 253Z" fill="url(#paint10_linear_411_1557)"/>
<path d="M119 253H389L439 439H169L119 253Z" fill="url(#paint11_linear_411_1557)"/>
<path d="M119 253H389L439 439H169L119 253Z" fill="url(#paint12_linear_411_1557)"/>
<defs>
<linearGradient id="paint0_linear_411_1557" x1="298" y1="0" x2="298" y2="548" gradientUnits="userSpaceOnUse">
<stop stop-color="#1F2A37"/>
<stop offset="1" stop-color="#1F2A37" stop-opacity="0"/>
</linearGradient>
<linearGradient id="paint1_linear_411_1557" x1="551.959" y1="462.105" x2="489.878" y2="307.716" gradientUnits="userSpaceOnUse">
<stop stop-color="#111928"/>
<stop offset="1" stop-color="#111928" stop-opacity="0"/>
</linearGradient>
<linearGradient id="paint2_linear_411_1557" x1="508.556" y1="519.045" x2="362.173" y2="292.756" gradientUnits="userSpaceOnUse">
<stop stop-color="#111928"/>
<stop offset="1" stop-color="#111928" stop-opacity="0"/>
</linearGradient>
<linearGradient id="paint3_linear_411_1557" x1="48.0415" y1="462.105" x2="110.122" y2="307.716" gradientUnits="userSpaceOnUse">
<stop stop-color="#111928"/>
<stop offset="1" stop-color="#111928" stop-opacity="0"/>
</linearGradient>
<linearGradient id="paint4_linear_411_1557" x1="91.4443" y1="519.045" x2="237.827" y2="292.756" gradientUnits="userSpaceOnUse">
<stop stop-color="#111928"/>
<stop offset="1" stop-color="#111928" stop-opacity="0"/>
</linearGradient>
<linearGradient id="paint5_linear_411_1557" x1="298.002" y1="389" x2="298.002" y2="518.085" gradientUnits="userSpaceOnUse">
<stop stop-color="#2F3948"/>
<stop offset="1" stop-color="#2F3948" stop-opacity="0"/>
</linearGradient>
<linearGradient id="paint6_linear_411_1557" x1="377.5" y1="450" x2="421.605" y2="311.767" gradientUnits="userSpaceOnUse">
<stop stop-color="#111928"/>
<stop offset="1" stop-color="#111928" stop-opacity="0"/>
</linearGradient>
<linearGradient id="paint7_linear_411_1557" x1="372.5" y1="39" x2="311.238" y2="278.083" gradientUnits="userSpaceOnUse">
<stop stop-color="#9ab7f6" stop-opacity="0"/>
<stop offset="1" stop-color="#9ab7f6"/>
</linearGradient>
<linearGradient id="paint8_linear_411_1557" x1="341.5" y1="97.5" x2="244" y2="371.5" gradientUnits="userSpaceOnUse">
<stop stop-color="#9ab7f6" stop-opacity="0"/>
<stop offset="1" stop-color="#9ab7f6"/>
</linearGradient>
<linearGradient id="paint9_linear_411_1557" x1="326.5" y1="201" x2="273" y2="379.5" gradientUnits="userSpaceOnUse">
<stop stop-color="#9ab7f6" stop-opacity="0"/>
<stop offset="1" stop-color="#9ab7f6"/>
</linearGradient>
<linearGradient id="paint10_linear_411_1557" x1="279" y1="414.904" x2="279" y2="239.07" gradientUnits="userSpaceOnUse">
<stop stop-color="white" stop-opacity="0"/>
<stop offset="1" stop-color="white"/>
</linearGradient>
<linearGradient id="paint11_linear_411_1557" x1="279" y1="255.914" x2="279" y2="482.465" gradientUnits="userSpaceOnUse">
<stop stop-color="#c8d8fa" stop-opacity="0"/>
<stop offset="1" stop-color="#c8d8fa"/>
</linearGradient>
<linearGradient id="paint12_linear_411_1557" x1="279" y1="359.105" x2="279" y2="458.445" gradientUnits="userSpaceOnUse">
<stop stop-color="white" stop-opacity="0"/>
<stop offset="1" stop-color="white"/>
</linearGradient>
</defs>
</svg>