<svg class="w-auto max-w-[16rem] h-40 text-gray-800 dark:text-white" aria-hidden="true" width="463" height="534" viewBox="0 0 463 534" fill="none" xmlns="http://www.w3.org/2000/svg">
<path d="M231 15.6217H463V287.905C463 290.422 461.849 292.462 460.429 292.462H233.571C232.151 292.462 231 290.422 231 287.905V15.6217Z" fill="#1B2533"/>
<path d="M231 4.89916C231 2.74571 232.151 1 233.571 1H460.429C461.849 1 463 2.74571 463 4.89916V15.6218H231V4.89916Z" fill="#1C2633"/>
<path fill-rule="evenodd" clip-rule="evenodd" d="M231 15.6217H463V16.5965H231V15.6217Z" fill="#374151"/>
<path d="M245.622 7.82339C245.622 9.43847 244.313 10.7478 242.698 10.7478C241.083 10.7478 239.773 9.43847 239.773 7.82339C239.773 6.2083 241.083 4.89902 242.698 4.89902C244.313 4.89902 245.622 6.2083 245.622 7.82339Z" fill="#6B7280"/>
<path d="M256.345 7.82339C256.345 9.43847 255.036 10.7478 253.42 10.7478C251.805 10.7478 250.496 9.43847 250.496 7.82339C250.496 6.2083 251.805 4.89902 253.42 4.89902C255.036 4.89902 256.345 6.2083 256.345 7.82339Z" fill="#6B7280"/>
<path d="M267.067 7.82339C267.067 9.43847 265.758 10.7478 264.143 10.7478C262.528 10.7478 261.219 9.43847 261.219 7.82339C261.219 6.2083 262.528 4.89902 264.143 4.89902C265.758 4.89902 267.067 6.2083 267.067 7.82339Z" fill="#6B7280"/>
<path d="M295 45C295 42.7909 296.791 41 299 41H435C437.209 41 439 42.7909 439 45V96C439 98.2091 437.209 100 435 100H299C296.791 100 295 98.2091 295 96V45Z" fill="#374151"/>
<path d="M339 78H355V89H339V78Z" fill="#6B7280"/>
<path d="M359 65H375V89H359V65Z" fill="#6B7280"/>
<path d="M379 53H395V89H379V53Z" fill="#6B7280"/>
<path d="M256 127C256 124.791 257.791 123 260 123H396C398.209 123 400 124.791 400 127V178C400 180.209 398.209 182 396 182H260C257.791 182 256 180.209 256 178V127Z" fill="#374151"/>
<path d="M347 153C347 163.493 338.493 172 328 172C317.507 172 309 163.493 309 153C309 142.507 317.507 134 328 134C338.493 134 347 142.507 347 153Z" fill="#1B2533"/>
<path d="M327.085 163.818V142H328.483V163.818H327.085ZM331.116 148.98C331.037 148.236 330.702 147.656 330.111 147.241C329.526 146.827 328.764 146.619 327.827 146.619C327.168 146.619 326.602 146.719 326.131 146.918C325.659 147.116 325.298 147.386 325.048 147.727C324.798 148.068 324.67 148.457 324.665 148.895C324.665 149.259 324.747 149.574 324.912 149.841C325.082 150.108 325.312 150.335 325.602 150.523C325.892 150.705 326.213 150.858 326.565 150.983C326.918 151.108 327.273 151.213 327.631 151.298L329.267 151.707C329.926 151.861 330.56 152.068 331.168 152.33C331.781 152.591 332.33 152.92 332.813 153.318C333.301 153.716 333.688 154.196 333.972 154.759C334.256 155.321 334.398 155.98 334.398 156.736C334.398 157.759 334.136 158.659 333.614 159.438C333.091 160.21 332.335 160.815 331.347 161.253C330.364 161.685 329.173 161.901 327.776 161.901C326.418 161.901 325.239 161.69 324.239 161.27C323.244 160.849 322.466 160.236 321.903 159.429C321.347 158.622 321.045 157.639 321 156.48H324.111C324.156 157.088 324.344 157.594 324.673 157.997C325.003 158.401 325.432 158.702 325.96 158.901C326.494 159.099 327.091 159.199 327.75 159.199C328.438 159.199 329.04 159.097 329.557 158.892C330.08 158.682 330.489 158.392 330.784 158.023C331.08 157.648 331.23 157.21 331.236 156.71C331.23 156.256 331.097 155.881 330.835 155.585C330.574 155.284 330.207 155.034 329.736 154.835C329.27 154.631 328.724 154.449 328.099 154.29L326.114 153.778C324.676 153.409 323.54 152.849 322.705 152.099C321.875 151.344 321.46 150.341 321.46 149.091C321.46 148.062 321.739 147.162 322.295 146.389C322.858 145.616 323.622 145.017 324.588 144.591C325.554 144.159 326.648 143.943 327.869 143.943C329.108 143.943 330.193 144.159 331.125 144.591C332.063 145.017 332.798 145.611 333.332 146.372C333.866 147.128 334.142 147.997 334.159 148.98H331.116Z" fill="#6B7280"/>
<path d="M295 209C295 206.791 296.791 205 299 205H435C437.209 205 439 206.791 439 209V260C439 262.209 437.209 264 435 264H299C296.791 264 295 262.209 295 260V209Z" fill="#374151"/>
<path d="M334 222.5C334 223.881 332.881 225 331.5 225C330.119 225 329 223.881 329 222.5C329 221.119 330.119 220 331.5 220C332.881 220 334 221.119 334 222.5Z" fill="#6B7280"/>
<path d="M340 222.5C340 221.672 340.672 221 341.5 221H404.5C405.328 221 406 221.672 406 222.5C406 223.328 405.328 224 404.5 224H341.5C340.672 224 340 223.328 340 222.5Z" fill="#6B7280"/>
<path d="M334 234.5C334 235.881 332.881 237 331.5 237C330.119 237 329 235.881 329 234.5C329 233.119 330.119 232 331.5 232C332.881 232 334 233.119 334 234.5Z" fill="#6B7280"/>
<path d="M340 234.5C340 233.672 340.672 233 341.5 233H404.5C405.328 233 406 233.672 406 234.5C406 235.328 405.328 236 404.5 236H341.5C340.672 236 340 235.328 340 234.5Z" fill="#6B7280"/>
<path d="M334 246.5C334 247.881 332.881 249 331.5 249C330.119 249 329 247.881 329 246.5C329 245.119 330.119 244 331.5 244C332.881 244 334 245.119 334 246.5Z" fill="#6B7280"/>
<path d="M340 246.5C340 245.672 340.672 245 341.5 245H404.5C405.328 245 406 245.672 406 246.5C406 247.328 405.328 248 404.5 248H341.5C340.672 248 340 247.328 340 246.5Z" fill="#6B7280"/>
<path d="M155 491L158.972 522.021L193.361 532.21L216.712 529.663C217.42 528.672 218.58 526.266 217.561 524.568C216.287 522.445 209.07 520.323 197.182 513.954C187.672 508.86 182.313 495.529 181.323 491H155Z" fill="#d6e2fb"/>
<path d="M155 491L158.972 522.021L193.361 532.21L216.712 529.663C217.42 528.672 218.58 526.266 217.561 524.568C216.287 522.445 209.07 520.323 197.182 513.954C187.672 508.86 182.313 495.529 181.323 491H155Z" fill="url(#paint0_linear_344_2490)"/>
<path fill-rule="evenodd" clip-rule="evenodd" d="M191.804 518.048C184.654 515.759 180.199 510.432 177.14 504.433C174.83 499.902 173.364 495.096 172.128 491H170.037C170.061 491.081 170.086 491.161 170.11 491.243L170.11 491.243C171.365 495.404 172.916 500.552 175.359 505.342C178.55 511.601 183.345 517.441 191.195 519.952C196.337 521.598 201.505 521.937 205.682 521.698C207.772 521.579 209.626 521.314 211.118 520.99C211.239 520.964 211.357 520.937 211.473 520.91C210.992 520.688 210.485 520.455 209.952 520.21C209.424 519.968 208.871 519.714 208.292 519.447C207.451 519.558 206.538 519.646 205.568 519.702C201.577 519.93 196.662 519.602 191.804 518.048Z" fill="#9ab7f6"/>
<path d="M158.973 522.021L159.709 532.331C159.773 533.22 160.512 533.909 161.403 533.909H208.892C213.492 533.909 219.61 532.847 218.952 528.295C218.744 526.853 218.134 525.484 217.562 524.568C216.713 529.238 213.316 529.663 201.429 529.663C189.541 529.663 182.323 524.993 173.408 521.596C166.275 518.879 160.812 520.747 158.973 522.021Z" fill="#374151"/>
<path d="M100 491L96.0281 522.021L61.6388 532.21L38.2881 529.663C37.5805 528.672 36.42 526.266 37.4389 524.568C38.7126 522.445 45.9301 520.323 57.8178 513.954C67.3279 508.86 72.6867 495.529 73.6773 491H100Z" fill="#d6e2fb"/>
<path d="M100 491L96.0281 522.021L61.6388 532.21L38.2881 529.663C37.5805 528.672 36.42 526.266 37.4389 524.568C38.7126 522.445 45.9301 520.323 57.8178 513.954C67.3279 508.86 72.6867 495.529 73.6773 491H100Z" fill="url(#paint1_linear_344_2490)"/>
<path fill-rule="evenodd" clip-rule="evenodd" d="M63.1957 518.048C70.3463 515.759 74.801 510.432 77.8596 504.433C80.1698 499.902 81.6363 495.096 82.8721 491H84.9629C84.9386 491.081 84.9142 491.161 84.8897 491.243L84.8897 491.243C83.6352 495.404 82.0835 500.552 79.6413 505.342C76.4498 511.601 71.6545 517.441 63.8052 519.952C58.6633 521.598 53.4947 521.937 49.3184 521.698C47.2283 521.579 45.374 521.314 43.8818 520.99C43.7615 520.964 43.6431 520.937 43.5266 520.91C44.0075 520.688 44.5148 520.455 45.048 520.21C45.576 519.968 46.1295 519.714 46.7079 519.447C47.5489 519.558 48.4618 519.646 49.4325 519.702C53.4229 519.93 58.3376 519.602 63.1957 518.048Z" fill="#9ab7f6"/>
<path d="M96.0273 522.021L95.2909 532.331C95.2274 533.22 94.4879 533.909 93.597 533.909H46.1079C41.5082 533.909 35.3901 532.847 36.0482 528.295C36.2565 526.853 36.8659 525.484 37.4382 524.568C38.2873 529.238 41.6838 529.663 53.5714 529.663C65.4591 529.663 72.6766 524.993 81.5923 521.596C88.7249 518.879 94.1876 520.747 96.0273 522.021Z" fill="#374151"/>
<path d="M197.785 491.305L168.5 192H100.5L57.3295 491.214C57.1555 492.42 58.0908 493.5 59.309 493.5H105.73C106.74 493.5 107.592 492.746 107.715 491.743L134 277L149.863 491.647C149.94 492.692 150.81 493.5 151.857 493.5H195.794C196.976 493.5 197.9 492.481 197.785 491.305Z" fill="#2563eb"/>
<path d="M197.785 491.305L168.5 192H100.5L57.3295 491.214C57.1555 492.42 58.0908 493.5 59.309 493.5H105.73C106.74 493.5 107.592 492.746 107.715 491.743L134 277L149.863 491.647C149.94 492.692 150.81 493.5 151.857 493.5H195.794C196.976 493.5 197.9 492.481 197.785 491.305Z" fill="url(#paint2_linear_344_2490)"/>
<path d="M134 277L107.715 491.743C107.592 492.746 106.74 493.5 105.73 493.5H88.5L134 277Z" fill="url(#paint3_linear_344_2490)"/>
<path fill-rule="evenodd" clip-rule="evenodd" d="M149.029 481.5H196.825L196.629 479.5H148.868L149.029 481.5ZM109.373 479.5H59.019L58.7305 481.5H109.105L109.373 479.5Z" fill="#d6e2fb"/>
<path fill-rule="evenodd" clip-rule="evenodd" d="M99.5772 209.997C101.849 209.822 105.463 209.096 109.036 207.487C112.606 205.878 116.232 203.342 118.375 199.485L116.626 198.514C114.769 201.858 111.562 204.155 108.215 205.663C104.871 207.17 101.485 207.844 99.4238 208.003L99.5772 209.997ZM167.924 209.997C165.652 209.822 162.038 209.096 158.465 207.487C154.895 205.878 151.269 203.342 149.126 199.485L150.875 198.514C152.732 201.858 155.939 204.155 159.286 205.663C162.63 207.17 166.016 207.844 168.077 208.003L167.924 209.997Z" fill="#2563eb"/>
<path d="M102.922 308C102.922 332.301 83.2224 352 58.9219 352C34.6213 352 14.9219 332.301 14.9219 308C14.9219 283.699 34.6213 264 58.9219 264C83.2224 264 102.922 283.699 102.922 308Z" fill="#1B2533"/>
<path fill-rule="evenodd" clip-rule="evenodd" d="M58.9219 350C82.1178 350 100.922 331.196 100.922 308C100.922 284.804 82.1178 266 58.9219 266C35.7259 266 16.9219 284.804 16.9219 308C16.9219 331.196 35.7259 350 58.9219 350ZM58.9219 352C83.2224 352 102.922 332.301 102.922 308C102.922 283.699 83.2224 264 58.9219 264C34.6213 264 14.9219 283.699 14.9219 308C14.9219 332.301 34.6213 352 58.9219 352Z" fill="#2F3948"/>
<path fill-rule="evenodd" clip-rule="evenodd" d="M58.9219 267C59.4742 267 59.9219 267.448 59.9219 268V272C59.9219 272.552 59.4742 273 58.9219 273C58.3696 273 57.9219 272.552 57.9219 272V268C57.9219 267.448 58.3696 267 58.9219 267Z" fill="#6B7280"/>
<path fill-rule="evenodd" clip-rule="evenodd" d="M58.9219 343C59.4742 343 59.9219 343.448 59.9219 344V348C59.9219 348.552 59.4742 349 58.9219 349C58.3696 349 57.9219 348.552 57.9219 348V344C57.9219 343.448 58.3696 343 58.9219 343Z" fill="#6B7280"/>
<path fill-rule="evenodd" clip-rule="evenodd" d="M100.422 307.5C100.422 308.052 99.9742 308.5 99.4219 308.5L95.3719 308.5C94.8196 308.5 94.3719 308.052 94.3719 307.5C94.3719 306.948 94.8196 306.5 95.3719 306.5L99.4219 306.5C99.9742 306.5 100.422 306.948 100.422 307.5Z" fill="#6B7280"/>
<path fill-rule="evenodd" clip-rule="evenodd" d="M23.4727 307.5C23.4727 308.052 23.0249 308.5 22.4727 308.5L18.4227 308.5C17.8704 308.5 17.4227 308.052 17.4227 307.5C17.4227 306.948 17.8704 306.5 18.4227 306.5L22.4727 306.5C23.0249 306.5 23.4727 306.948 23.4727 307.5Z" fill="#6B7280"/>
<path fill-rule="evenodd" clip-rule="evenodd" d="M87.9141 279.009C88.3047 279.399 88.3047 280.033 87.9141 280.423L85.0857 283.252C84.6952 283.642 84.062 283.642 83.6715 283.252C83.281 282.861 83.281 282.228 83.6715 281.837L86.4999 279.009C86.8904 278.618 87.5236 278.618 87.9141 279.009Z" fill="#6B7280"/>
<path fill-rule="evenodd" clip-rule="evenodd" d="M34.1739 332.749C34.5644 333.14 34.5644 333.773 34.1739 334.163L31.3455 336.992C30.955 337.382 30.3218 337.382 29.9313 336.992C29.5407 336.601 29.5407 335.968 29.9313 335.577L32.7597 332.749C33.1502 332.358 33.7834 332.358 34.1739 332.749Z" fill="#6B7280"/>
<path fill-rule="evenodd" clip-rule="evenodd" d="M88.621 336.992C88.2305 337.382 87.5973 337.382 87.2068 336.992L84.343 334.128C83.9525 333.737 83.9525 333.104 84.343 332.714C84.7335 332.323 85.3667 332.323 85.7572 332.714L88.621 335.577C89.0115 335.968 89.0115 336.601 88.621 336.992Z" fill="#6B7280"/>
<path fill-rule="evenodd" clip-rule="evenodd" d="M34.2089 282.58C33.8184 282.97 33.1852 282.97 32.7947 282.58L29.9309 279.716C29.5404 279.325 29.5404 278.692 29.9309 278.302C30.3214 277.911 30.9546 277.911 31.3451 278.302L34.2089 281.166C34.5994 281.556 34.5994 282.189 34.2089 282.58Z" fill="#6B7280"/>
<path fill-rule="evenodd" clip-rule="evenodd" d="M58.9219 281C59.4742 281 59.9219 281.448 59.9219 282V307H74.4219C74.9742 307 75.4219 307.448 75.4219 308C75.4219 308.552 74.9742 309 74.4219 309H57.9219V282C57.9219 281.448 58.3696 281 58.9219 281Z" fill="#6B7280"/>
<path d="M58.5009 231C60.9009 205.4 68.1675 169 71.5009 154L89.0006 158.5L68.5006 247V270.167C68.5006 270.903 67.9038 271.5 67.1677 271.5C66.4996 271.5 65.9347 271.005 65.8464 270.343L65.0006 264C64.834 270.833 62.3 281.8 57.5 277C51.5 271 55.5009 263 58.5009 231Z" fill="#FDBA8C"/>
<path d="M58.5009 231C60.9009 205.4 68.1675 169 71.5009 154L89.0006 158.5L68.5006 247V270.167C68.5006 270.903 67.9038 271.5 67.1677 271.5C66.4996 271.5 65.9347 271.005 65.8464 270.343L65.0006 264C64.834 270.833 62.3 281.8 57.5 277C51.5 271 55.5009 263 58.5009 231Z" fill="url(#paint4_linear_344_2490)"/>
<path d="M212 98.0001L199.5 96.0001L177.5 113C184.833 115.5 202 120.1 212 118.5C221.719 116.945 265.285 81.8895 287.617 63.0896C288.809 62.0862 290.389 61.7221 291.937 61.8981C298.604 62.6561 307.081 61.1938 308.5 58C310.5 53.5 298 49.5001 288.5 51.5001C280.9 53.1001 234.333 83.1668 212 98.0001Z" fill="#FDBA8C"/>
<path d="M212 98.0001L199.5 96.0001L177.5 113C184.833 115.5 202 120.1 212 118.5C221.719 116.945 265.285 81.8895 287.617 63.0896C288.809 62.0862 290.389 61.7221 291.937 61.8981C298.604 62.6561 307.081 61.1938 308.5 58C310.5 53.5 298 49.5001 288.5 51.5001C280.9 53.1001 234.333 83.1668 212 98.0001Z" fill="url(#paint5_linear_344_2490)"/>
<path d="M95.5 167.5L62.5 157C64.8333 144.833 72.3 116.4 83.5 100C94.7 83.6 112.369 78.8333 119.803 78.5H142L203 94L197.5 130.5L169.5 126.5L171.5 194H97L95.5 167.5Z" fill="#F9FAFB"/>
<path fill-rule="evenodd" clip-rule="evenodd" d="M62.5 157L95.5 167.5L93 119.5H73.5413C67.8679 133.647 64.0505 148.915 62.5 157Z" fill="url(#paint6_linear_344_2490)"/>
<path fill-rule="evenodd" clip-rule="evenodd" d="M201.029 107.078L197.5 130.5L169.5 126.5L168 100L201.029 107.078Z" fill="url(#paint7_linear_344_2490)"/>
<path d="M137.565 29.3512C133.965 39.1827 128.595 60.9647 122.5 61.4999C108.5 58.6998 108.667 50.3333 110.5 46.5C109.667 46.5 107.401 45.8 105.001 43C102.601 40.2 104.001 36.1666 105.001 34.4999C101.667 32.7836 95.8006 27.9809 99.0006 22.4998C102.201 17.0186 109.667 15.8828 113.001 16C112.167 13.9999 111.7 9.1998 116.5 5.9998C121.3 2.7998 126.834 5.66643 129 7.49974C129.834 5.83308 132.713 2.99976 137.565 4.99976C142.416 6.99976 142.543 10.8332 142 12.4999C144.167 12.1665 148.701 13.0996 149.501 19.4996C150.301 25.8996 143.501 30.4996 140.001 31.9996L137.565 29.3512Z" fill="#374151"/>
<path d="M116 79L120 78L121.814 45.0302L136.5 55.5L138 77.5L142 78.5302L-nan -nanL142 78.5302C135.978 85.9047 125.053 86.846 117.858 80.6103L116 79Z" fill="#FDBA8C"/>
<path d="M116 79L120 78L121.814 45.0302L136.5 55.5L138 77.5L142 78.5302L-nan -nanL142 78.5302C135.978 85.9047 125.053 86.846 117.858 80.6103L116 79Z" fill="url(#paint8_linear_344_2490)"/>
<path d="M139.411 58.2273C147.404 55.0843 144.055 35.825 140.882 26.5883C132.5 21.5 128.85 39.96 125.148 37.0365C122.635 35.0523 116.417 29.5345 117.529 37.7055C118.64 45.8765 129.421 62.1561 139.411 58.2273Z" fill="#FDBA8C"/>
<path d="M135.797 37.4778C135.64 38.0302 135.96 38.6054 136.513 38.7626C137.065 38.9199 137.64 38.5996 137.797 38.0472C137.955 37.4949 137.634 36.9196 137.082 36.7624C136.53 36.6051 135.954 36.9254 135.797 37.4778Z" fill="#111928"/>
<path fill-rule="evenodd" clip-rule="evenodd" d="M136.986 33.7444C137.72 33.7799 138.306 34.1115 138.854 34.5687C139.066 34.7455 139.382 34.7169 139.559 34.5048C139.735 34.2927 139.707 33.9774 139.495 33.8006C138.861 33.2725 138.073 32.7958 137.035 32.7456C136.002 32.6956 134.809 33.0717 133.368 34.061C133.14 34.2172 133.082 34.5285 133.239 34.7561C133.395 34.9838 133.706 35.0417 133.934 34.8855C135.268 33.9695 136.247 33.7086 136.986 33.7444Z" fill="#111928"/>
<path fill-rule="evenodd" clip-rule="evenodd" d="M140.976 37.4208C140.709 37.4913 140.55 37.7649 140.62 38.0319L142.375 44.6834C142.407 44.8022 142.321 44.9196 142.198 44.9257L139.254 45.0701C138.979 45.0836 138.766 45.3182 138.78 45.594C138.793 45.8698 139.028 46.0824 139.303 46.0689L142.247 45.9245C143.005 45.8873 143.536 45.1618 143.342 44.4283L141.587 37.7768C141.517 37.5097 141.243 37.3504 140.976 37.4208Z" fill="#111928"/>
<path d="M141.824 53.0051C136.759 53.3743 134.423 50.991 133.603 47.626L142.311 48.5861L141.824 53.0051Z" fill="white"/>
<path fill-rule="evenodd" clip-rule="evenodd" d="M120.978 39.729C120.769 39.0245 120.888 38.3624 121.137 37.6934C121.234 37.4347 121.103 37.1467 120.844 37.0501C120.585 36.9535 120.297 37.085 120.201 37.3437C119.912 38.1163 119.723 39.0182 120.02 40.0143C120.315 41.0052 121.065 42.0059 122.476 43.0382C122.698 43.2013 123.011 43.1529 123.174 42.93C123.337 42.7071 123.289 42.3943 123.066 42.2312C121.76 41.2753 121.19 40.4388 120.978 39.729Z" fill="#111928"/>
<path d="M367 443.863L363.5 469.863H373C381.833 453.53 398.4 420.463 394 418.863C389.6 417.263 374.167 434.863 367 443.863Z" fill="#374151"/>
<path d="M367 443.863L363.5 469.863H373C381.833 453.53 398.4 420.463 394 418.863C389.6 417.263 374.167 434.863 367 443.863Z" fill="url(#paint9_linear_344_2490)"/>
<path d="M321 420.863C319.4 428.063 330.666 457.863 336.5 471.863H348.5L347 455.363C339 440.863 322.6 413.663 321 420.863Z" fill="#374151"/>
<path d="M321 420.863C319.4 428.063 330.666 457.863 336.5 471.863H348.5L347 455.363C339 440.863 322.6 413.663 321 420.863Z" fill="url(#paint10_linear_344_2490)"/>
<path d="M341.001 352.863C334.601 358.463 342.001 435.529 346.501 473.363H358.001L360.001 455.863C356.334 419.196 347.401 347.263 341.001 352.863Z" fill="#374151"/>
<path d="M341.001 352.863C334.601 358.463 342.001 435.529 346.501 473.363H358.001L360.001 455.863C356.334 419.196 347.401 347.263 341.001 352.863Z" fill="url(#paint11_linear_344_2490)"/>
<path d="M380 303.363C368 318.963 358 423.53 354.5 473.863H364.5C368.167 459.863 376.4 427.763 380 411.363C384.5 390.863 395 283.863 380 303.363Z" fill="#374151"/>
<path d="M393.846 470.144C393.93 468.986 393.013 468 391.851 468H321.151C319.99 468 319.073 468.986 319.157 470.144L323.644 532.144C323.72 533.19 324.59 534 325.639 534H387.364C388.412 534 389.283 533.19 389.359 532.144L393.846 470.144Z" fill="#374151"/>
<path d="M393.846 470.144C393.93 468.986 393.013 468 391.851 468H321.151C319.99 468 319.073 468.986 319.157 470.144L323.644 532.144C323.72 533.19 324.59 534 325.639 534H387.364C388.412 534 389.283 533.19 389.359 532.144L393.846 470.144Z" fill="url(#paint12_linear_344_2490)"/>
<defs>
<linearGradient id="paint0_linear_344_2490" x1="209.07" y1="491.877" x2="208.959" y2="515.537" gradientUnits="userSpaceOnUse">
<stop stop-color="#c8d8fa"/>
<stop offset="1" stop-color="#c8d8fa" stop-opacity="0"/>
</linearGradient>
<linearGradient id="paint1_linear_344_2490" x1="45.9301" y1="491.877" x2="46.0406" y2="515.537" gradientUnits="userSpaceOnUse">
<stop stop-color="#c8d8fa"/>
<stop offset="1" stop-color="#c8d8fa" stop-opacity="0"/>
</linearGradient>
<linearGradient id="paint2_linear_344_2490" x1="127.5" y1="76.5" x2="127.5" y2="294" gradientUnits="userSpaceOnUse">
<stop stop-color="#111928"/>
<stop offset="1" stop-color="#3C598E" stop-opacity="0"/>
</linearGradient>
<linearGradient id="paint3_linear_344_2490" x1="125.5" y1="555.5" x2="33.4861" y2="423.556" gradientUnits="userSpaceOnUse">
<stop stop-color="#111928"/>
<stop offset="1" stop-color="#111928" stop-opacity="0"/>
</linearGradient>
<linearGradient id="paint4_linear_344_2490" x1="118" y1="40.5" x2="4.74122" y2="174.53" gradientUnits="userSpaceOnUse">
<stop stop-color="#7F270F"/>
<stop offset="1" stop-color="#7F270F" stop-opacity="0"/>
</linearGradient>
<linearGradient id="paint5_linear_344_2490" x1="-13.0512" y1="227.089" x2="0.749922" y2="55.1246" gradientUnits="userSpaceOnUse">
<stop stop-color="#7F270F"/>
<stop offset="1" stop-color="#7F270F" stop-opacity="0"/>
</linearGradient>
<linearGradient id="paint6_linear_344_2490" x1="99.5" y1="181" x2="71.0963" y2="164.337" gradientUnits="userSpaceOnUse">
<stop stop-color="#c8d8fa"/>
<stop offset="1" stop-color="#c8d8fa" stop-opacity="0"/>
</linearGradient>
<linearGradient id="paint7_linear_344_2490" x1="165" y1="146" x2="163.223" y2="108.686" gradientUnits="userSpaceOnUse">
<stop stop-color="#c8d8fa"/>
<stop offset="1" stop-color="#c8d8fa" stop-opacity="0"/>
</linearGradient>
<linearGradient id="paint8_linear_344_2490" x1="144.5" y1="37" x2="112" y2="61.5" gradientUnits="userSpaceOnUse">
<stop stop-color="#7F270F"/>
<stop offset="1" stop-color="#7F270F" stop-opacity="0"/>
</linearGradient>
<linearGradient id="paint9_linear_344_2490" x1="364" y1="472.863" x2="392" y2="440.363" gradientUnits="userSpaceOnUse">
<stop stop-color="#1F2A37"/>
<stop offset="1" stop-color="#1F2A37" stop-opacity="0"/>
</linearGradient>
<linearGradient id="paint10_linear_344_2490" x1="354" y1="464.363" x2="326.5" y2="443.363" gradientUnits="userSpaceOnUse">
<stop stop-color="#1F2A37"/>
<stop offset="1" stop-color="#1F2A37" stop-opacity="0"/>
</linearGradient>
<linearGradient id="paint11_linear_344_2490" x1="374.001" y1="477.363" x2="332.501" y2="449.363" gradientUnits="userSpaceOnUse">
<stop stop-color="#1F2A37"/>
<stop offset="1" stop-color="#1F2A37" stop-opacity="0"/>
</linearGradient>
<linearGradient id="paint12_linear_344_2490" x1="229.001" y1="512.778" x2="423.001" y2="512.778" gradientUnits="userSpaceOnUse">
<stop stop-color="#1F2A37"/>
<stop offset="1" stop-color="#1F2A37" stop-opacity="0"/>
</linearGradient>
</defs>
</svg>