<svg class="w-auto max-w-[16rem] h-40 text-gray-800 dark:text-white" aria-hidden="true" width="420" height="568" viewBox="0 0 420 568" fill="none" xmlns="http://www.w3.org/2000/svg">
<path d="M420 210C420 325.98 325.98 420 210 420C94.0202 420 0 325.98 0 210C0 94.0202 94.0202 0 210 0C325.98 0 420 94.0202 420 210Z" fill="url(#paint0_linear_411_1559)"/>
<path fill-rule="evenodd" clip-rule="evenodd" d="M399.91 299.749C366.257 370.833 293.87 420 209.999 420C136.23 420 71.345 381.963 33.8867 324.432C57.2858 313.976 89.8328 305.109 122.499 311C124.597 311.378 126.668 311.754 128.714 312.124C186.191 322.54 224.613 329.503 297.999 301.5C328.754 289.765 366.007 292.119 399.91 299.749Z" fill="url(#paint1_linear_411_1559)"/>
<path d="M353.721 239.124V238.046C353.749 233.042 354.223 229.061 355.145 226.103C356.095 223.145 357.435 220.767 359.167 218.97C360.898 217.146 363.007 215.473 365.493 213.953C367.196 212.902 368.718 211.755 370.059 210.511C371.427 209.239 372.503 207.829 373.285 206.281C374.067 204.705 374.458 202.95 374.458 201.015C374.458 198.831 373.941 196.937 372.908 195.334C371.874 193.73 370.478 192.486 368.718 191.602C366.987 190.717 365.046 190.275 362.895 190.275C360.912 190.275 359.027 190.703 357.24 191.56C355.48 192.389 354.014 193.661 352.841 195.375C351.696 197.061 351.054 199.204 350.914 201.803H336C336.14 196.55 337.424 192.154 339.854 188.616C342.312 185.077 345.552 182.423 349.573 180.654C353.623 178.885 358.092 178 362.979 178C368.313 178 373.005 178.926 377.055 180.778C381.133 182.631 384.303 185.271 386.565 188.699C388.855 192.099 390 196.135 390 200.807C390 203.959 389.483 206.779 388.45 209.267C387.445 211.755 386.006 213.967 384.135 215.902C382.264 217.837 380.043 219.565 377.474 221.085C375.212 222.468 373.355 223.905 371.902 225.398C370.478 226.891 369.417 228.646 368.718 230.664C368.048 232.655 367.699 235.115 367.671 238.046V239.124H353.721ZM361.01 265C358.497 265 356.332 264.115 354.517 262.346C352.701 260.577 351.794 258.42 351.794 255.877C351.794 253.389 352.701 251.26 354.517 249.491C356.332 247.722 358.497 246.837 361.01 246.837C363.496 246.837 365.646 247.722 367.462 249.491C369.305 251.26 370.227 253.389 370.227 255.877C370.227 257.563 369.794 259.098 368.928 260.48C368.09 261.862 366.973 262.968 365.576 263.797C364.208 264.599 362.686 265 361.01 265Z" fill="#374151"/>
<path d="M59.6276 134.499V133.061C59.6649 126.389 60.2979 121.081 61.5268 117.137C62.7929 113.193 64.5803 110.023 66.8891 107.627C69.1978 105.194 72.0093 102.964 75.3235 100.937C77.595 99.5364 79.6245 98.0067 81.4119 96.348C83.2366 94.6524 84.6703 92.7725 85.713 90.7083C86.7556 88.6073 87.277 86.2666 87.277 83.6864C87.277 80.7744 86.5881 78.2494 85.2102 76.1115C83.8324 73.9736 81.9705 72.3149 79.6245 71.1354C77.3157 69.9558 74.7277 69.3661 71.8604 69.3661C69.2164 69.3661 66.7029 69.9374 64.3196 71.0801C61.9736 72.1859 60.0186 73.8815 58.4546 76.1668C56.9279 78.4153 56.0714 81.272 55.8852 84.7369H36C36.1862 77.7334 37.8991 71.8726 41.1389 67.1544C44.4158 62.4363 48.7355 58.8977 54.0978 56.5386C59.4973 54.1795 65.4554 53 71.9721 53C79.0846 53 85.3406 54.2348 90.7401 56.7045C96.1769 59.1741 100.403 62.6943 103.42 67.265C106.473 71.7989 108 77.1805 108 83.4099C108 87.612 107.311 91.3718 105.933 94.6892C104.593 98.0067 102.675 100.956 100.18 103.536C97.685 106.116 94.7246 108.42 91.2987 110.447C88.2824 112.29 85.8061 114.207 83.8697 116.197C81.9705 118.188 80.5555 120.528 79.6245 123.219C78.7308 125.873 78.2653 129.154 78.2281 133.061V134.499H59.6276ZM69.3468 169C65.9953 169 63.1094 167.82 60.6889 165.461C58.2684 163.102 57.0582 160.227 57.0582 156.836C57.0582 153.519 58.2684 150.68 60.6889 148.321C63.1094 145.962 65.9953 144.783 69.3468 144.783C72.661 144.783 75.5283 145.962 77.9488 148.321C80.4065 150.68 81.6354 153.519 81.6354 156.836C81.6354 159.085 81.0582 161.13 79.9038 162.973C78.7867 164.816 77.2971 166.291 75.4352 167.397C73.6106 168.466 71.5811 169 69.3468 169Z" fill="#374151"/>
<path d="M143.5 551C133.9 555 130.167 559 129.5 560.5L130 565.5L137 566.5L155 564L185.5 558.5L186 553C184 542.6 184.833 529 185.5 523.5H163.5C163 539.5 155.5 546 143.5 551Z" fill="#F9FAFB"/>
<path d="M143.5 551C133.9 555 130.167 559 129.5 560.5L130 565.5L137 566.5L155 564L185.5 558.5L186 553C184 542.6 184.833 529 185.5 523.5H163.5C163 539.5 155.5 546 143.5 551Z" fill="url(#paint2_linear_411_1559)"/>
<path d="M182.5 568H130C125.2 568 127.667 562.667 129.5 560C129.1 564 133.667 565 136 565C146.5 565 153 559 166 559.5C179 560 187 546.5 188 557C188.8 565.4 184.667 567.833 182.5 568Z" fill="#374151"/>
<path d="M292.602 551C302.202 555 305.935 559 306.602 560.5L306.102 565.5L299.102 566.5L281.102 564L250.602 558.5L250.102 553C252.102 542.6 251.268 529 250.602 523.5H272.602C273.102 539.5 280.602 546 292.602 551Z" fill="#F9FAFB"/>
<path d="M292.602 551C302.202 555 305.935 559 306.602 560.5L306.102 565.5L299.102 566.5L281.102 564L250.602 558.5L250.102 553C252.102 542.6 251.268 529 250.602 523.5H272.602C273.102 539.5 280.602 546 292.602 551Z" fill="url(#paint3_linear_411_1559)"/>
<path d="M253.601 568H306.101C310.901 568 308.435 562.667 306.601 560C307.001 564 302.435 565 300.101 565C289.601 565 283.101 559 270.101 559.5C257.101 560 249.101 546.5 248.101 557C247.301 565.4 251.435 567.833 253.601 568Z" fill="#374151"/>
<path d="M203.5 46.5C203.5 50.5 207.833 53.5 210 54.5L211.5 61L224 91.5C227.833 89.1667 237.3 81.5 244.5 69.5C251.7 57.5 245.167 50.1667 241 48C241 42.5 232.5 36 223 36C213.5 36 203.5 41.5 203.5 46.5Z" fill="#374151"/>
<path d="M212.499 101.5V86L226.499 75.5C226.666 81.5 227.3 95.1 228.5 101.5C229.7 107.9 233.667 109.5 235.5 109.5C235.333 111.333 233.299 115.4 226.499 117C217.999 119 206.499 113 209.499 109.5C211.899 106.7 212.499 103 212.499 101.5Z" fill="#FDBA8C"/>
<path d="M212.499 101.5V86L226.499 75.5C226.666 81.5 227.3 95.1 228.5 101.5C229.7 107.9 233.667 109.5 235.5 109.5C235.333 111.333 233.299 115.4 226.499 117C217.999 119 206.499 113 209.499 109.5C211.899 106.7 212.499 103 212.499 101.5Z" fill="url(#paint4_linear_411_1559)"/>
<path d="M204.498 85.5C201.698 76.3 206.998 61 209.998 54.5C211.832 56 215.8 59.9 217 63.5C218.5 68 220.5 71.5 223 69.5C225.5 67.5 232 63.5 230 72.5C228 81.5 207.998 97 204.498 85.5Z" fill="#FDBA8C"/>
<path fill-rule="evenodd" clip-rule="evenodd" d="M206.016 68.348C206.319 68.4277 206.5 68.7379 206.42 69.0408L204.434 76.5873C204.399 76.722 204.496 76.8552 204.636 76.862L207.975 77.0238C208.288 77.0389 208.529 77.3048 208.514 77.6177C208.499 77.9306 208.233 78.172 207.92 78.1568L204.581 77.995C203.721 77.9534 203.118 77.1307 203.337 76.2985L205.323 68.7521C205.403 68.4492 205.713 68.2683 206.016 68.348Z" fill="#111928"/>
<path fill-rule="evenodd" clip-rule="evenodd" d="M208.658 81.7042C209.375 81.6146 210.13 81.3974 211.281 81.0359C211.579 80.9421 211.898 81.1082 211.992 81.4071C212.085 81.706 211.919 82.0243 211.62 82.1182C210.479 82.4765 209.632 82.7257 208.799 82.8298C207.95 82.9358 207.142 82.8889 206.064 82.6967C205.756 82.6416 205.551 82.347 205.606 82.0386C205.661 81.7303 205.955 81.5249 206.264 81.58C207.269 81.7593 207.957 81.7918 208.658 81.7042Z" fill="#111928"/>
<path fill-rule="evenodd" clip-rule="evenodd" d="M226.367 73.6716C226.709 73.0579 226.735 72.4156 226.64 71.7399C226.604 71.4786 226.786 71.2371 227.048 71.2007C227.309 71.1642 227.55 71.3465 227.587 71.6078C227.696 72.3883 227.685 73.2686 227.202 74.1363C226.721 74.9995 225.815 75.7775 224.285 76.4481C224.043 76.554 223.761 76.444 223.655 76.2023C223.549 75.9607 223.659 75.6789 223.901 75.573C225.318 74.9521 226.023 74.2899 226.367 73.6716Z" fill="#111928"/>
<path fill-rule="evenodd" clip-rule="evenodd" d="M211.691 75.4112C212.267 74.3578 212.712 72.793 212.822 70.9736C212.932 69.1541 212.678 67.5471 212.233 66.4321C211.748 65.216 211.238 65.0062 211.086 64.997C210.933 64.9878 210.402 65.1347 209.774 66.2836C209.198 67.3369 208.753 68.9017 208.643 70.7212C208.533 72.5406 208.787 74.1477 209.232 75.2627C209.717 76.4788 210.227 76.6886 210.379 76.6978C210.531 76.707 211.063 76.5601 211.691 75.4112ZM210.303 77.9515C212.15 78.063 213.839 74.9728 214.075 71.0493C214.312 67.1258 213.008 63.8548 211.161 63.7433C209.315 63.6318 207.626 66.722 207.389 70.6455C207.152 74.5689 208.457 77.84 210.303 77.9515Z" fill="#111928"/>
<path fill-rule="evenodd" clip-rule="evenodd" d="M203.572 73.3705C204.147 72.3172 204.593 70.7524 204.703 68.9329C204.813 67.1135 204.559 65.5064 204.114 64.3915C203.629 63.1754 203.119 62.9655 202.967 62.9563C202.814 62.9471 202.283 63.094 201.655 64.2429C201.079 65.2963 200.634 66.8611 200.524 68.6805C200.414 70.5 200.668 72.107 201.112 73.222C201.598 74.4381 202.108 74.648 202.26 74.6572C202.412 74.6664 202.944 74.5194 203.572 73.3705ZM202.184 75.9108C204.031 76.0223 205.719 72.9321 205.956 69.0086C206.193 65.0852 204.889 61.8142 203.042 61.7026C201.196 61.5911 199.507 64.6813 199.27 68.6048C199.033 72.5283 200.338 75.7993 202.184 75.9108Z" fill="#111928"/>
<path d="M234.432 73.1191C235.301 74.9647 238.819 80.4474 240.47 82.958L243.627 81.1476C241.894 79.0005 238.14 74.366 236.979 73.0047C235.529 71.303 233.347 70.8121 234.432 73.1191Z" fill="#FDBA8C"/>
<path d="M234.432 73.1191C235.301 74.9647 238.819 80.4474 240.47 82.958L243.627 81.1476C241.894 79.0005 238.14 74.366 236.979 73.0047C235.529 71.303 233.347 70.8121 234.432 73.1191Z" fill="url(#paint5_linear_411_1559)"/>
<path d="M253.998 106C248.498 93 242.997 91 239.997 87C237.597 83.8 241.33 80.3333 243.497 79C243.664 78 245.198 76 249.998 76C255.998 76 254.498 83 255.998 87C257.198 90.2 261.165 97.3333 262.998 100.5C261.831 106.667 258.398 116.4 253.998 106Z" fill="#FDBA8C"/>
<path d="M253.998 106C248.498 93 242.997 91 239.997 87C237.597 83.8 241.33 80.3333 243.497 79C243.664 78 245.198 76 249.998 76C255.998 76 254.498 83 255.998 87C257.198 90.2 261.165 97.3333 262.998 100.5C261.831 106.667 258.398 116.4 253.998 106Z" fill="url(#paint6_linear_411_1559)"/>
<path fill-rule="evenodd" clip-rule="evenodd" d="M243.5 79C244.167 78.5 245.7 77.7 246.5 78.5C247.282 79.2823 243.029 84.9093 240.658 87.8073C241.367 88.6121 242.181 89.3673 243.077 90.1977C243.981 91.0361 244.968 91.9512 246.012 93.0717L256.659 88.5672C256.394 87.9813 256.169 87.4515 256 87C255.569 85.8508 255.386 84.454 255.201 83.0466C254.743 79.5556 254.276 76 250 76C245.203 76 243.667 77.9978 243.499 78.9984L243.5 79Z" fill="url(#paint7_linear_411_1559)"/>
<path d="M147.838 522.71L192.502 218.5H258.502L288.287 522.805C288.402 523.981 287.478 525 286.296 525H241.333C240.297 525 239.432 524.208 239.341 523.175L223.002 337.5L197.241 523.275C197.104 524.264 196.258 525 195.26 525H149.817C148.597 525 147.661 523.917 147.838 522.71Z" fill="#2563eb"/>
<path d="M147.838 522.71L192.502 218.5H258.502L288.287 522.805C288.402 523.981 287.478 525 286.296 525H241.333C240.297 525 239.432 524.208 239.341 523.175L223.002 337.5L197.241 523.275C197.104 524.264 196.258 525 195.26 525H149.817C148.597 525 147.661 523.917 147.838 522.71Z" fill="url(#paint8_linear_411_1559)"/>
<path fill-rule="evenodd" clip-rule="evenodd" d="M286.788 507.5H237.961L237.785 505.5H286.592L286.788 507.5ZM150.07 507.5L150.364 505.5H199.705L199.428 507.5H150.07Z" fill="#9ab7f6"/>
<path fill-rule="evenodd" clip-rule="evenodd" d="M215.73 227.687C208.717 235.112 199.093 237.648 195.089 237.996L194.916 236.004C198.579 235.685 207.689 233.288 214.276 226.313L215.73 227.687Z" fill="#2563eb"/>
<path fill-rule="evenodd" clip-rule="evenodd" d="M235.274 227.687C242.287 235.112 251.911 237.648 255.915 237.996L256.088 236.004C252.425 235.685 243.315 233.288 236.728 226.313L235.274 227.687Z" fill="#2563eb"/>
<path d="M212.289 415.198L210.017 413.886C199.504 407.739 191.686 401.904 186.562 396.382C181.471 390.802 178.075 385.112 176.374 379.313C174.614 373.48 173.628 367.046 173.418 360.01C173.256 355.178 172.671 350.606 171.664 346.296C170.632 341.894 168.955 337.935 166.635 334.42C164.255 330.871 161.026 327.919 156.948 325.564C152.345 322.907 147.732 321.68 143.108 321.885C138.483 322.09 134.18 323.489 130.196 326.083C126.246 328.619 122.976 332.131 120.385 336.617C117.997 340.754 116.629 345.208 116.283 349.98C115.911 354.66 116.826 359.266 119.025 363.799C121.2 368.24 124.942 372.187 130.251 375.64L112.287 406.754C101.385 400.071 93.6683 392.042 89.1371 382.667C84.6394 373.234 82.9481 363.246 84.0632 352.703C85.212 342.102 88.7298 331.703 94.6166 321.506C101.042 310.378 108.645 301.716 117.426 295.522C126.242 289.269 135.624 285.868 145.574 285.32C155.499 284.68 165.384 287.202 175.231 292.887C181.873 296.722 187.194 301.231 191.193 306.415C195.226 311.54 198.155 317.232 199.98 323.49C201.804 329.749 202.772 336.483 202.881 343.694C203.07 350.095 203.863 355.719 205.26 360.565C206.69 365.353 209.112 369.703 212.524 373.616C215.912 377.436 220.677 381.158 226.819 384.782L229.092 386.094L212.289 415.198ZM275.605 431.477C272.577 436.721 268.106 440.16 262.19 441.794C256.275 443.428 250.637 442.698 245.276 439.603C240.033 436.576 236.639 432.092 235.097 426.152C233.555 420.212 234.297 414.62 237.325 409.376C240.319 404.19 244.773 400.78 250.689 399.146C256.638 397.453 262.234 398.121 267.478 401.148C271.033 403.2 273.745 405.971 275.615 409.459C277.519 412.889 278.504 416.565 278.57 420.487C278.612 424.318 277.623 427.981 275.605 431.477Z" fill="#6B7280"/>
<path d="M212.289 415.198L210.017 413.886C199.504 407.739 191.686 401.904 186.562 396.382C181.471 390.802 178.075 385.112 176.374 379.313C174.614 373.48 173.628 367.046 173.418 360.01C173.256 355.178 172.671 350.606 171.664 346.296C170.632 341.894 168.955 337.935 166.635 334.42C164.255 330.871 161.026 327.919 156.948 325.564C152.345 322.907 147.732 321.68 143.108 321.885C138.483 322.09 134.18 323.489 130.196 326.083C126.246 328.619 122.976 332.131 120.385 336.617C117.997 340.754 116.629 345.208 116.283 349.98C115.911 354.66 116.826 359.266 119.025 363.799C121.2 368.24 124.942 372.187 130.251 375.64L112.287 406.754C101.385 400.071 93.6683 392.042 89.1371 382.667C84.6394 373.234 82.9481 363.246 84.0632 352.703C85.212 342.102 88.7298 331.703 94.6166 321.506C101.042 310.378 108.645 301.716 117.426 295.522C126.242 289.269 135.624 285.868 145.574 285.32C155.499 284.68 165.384 287.202 175.231 292.887C181.873 296.722 187.194 301.231 191.193 306.415C195.226 311.54 198.155 317.232 199.98 323.49C201.804 329.749 202.772 336.483 202.881 343.694C203.07 350.095 203.863 355.719 205.26 360.565C206.69 365.353 209.112 369.703 212.524 373.616C215.912 377.436 220.677 381.158 226.819 384.782L229.092 386.094L212.289 415.198ZM275.605 431.477C272.577 436.721 268.106 440.16 262.19 441.794C256.275 443.428 250.637 442.698 245.276 439.603C240.033 436.576 236.639 432.092 235.097 426.152C233.555 420.212 234.297 414.62 237.325 409.376C240.319 404.19 244.773 400.78 250.689 399.146C256.638 397.453 262.234 398.121 267.478 401.148C271.033 403.2 273.745 405.971 275.615 409.459C277.519 412.889 278.504 416.565 278.57 420.487C278.612 424.318 277.623 427.981 275.605 431.477Z" fill="url(#paint9_linear_411_1559)"/>
<path d="M148.501 305.5C143.301 298.7 145.668 277.333 147.501 267.5L157.5 268C157.167 271.833 156.7 280.4 157.5 284C158.235 287.308 157.901 294.528 157.583 298.522C157.539 299.078 157.073 299.5 156.516 299.5C155.945 299.5 155.474 299.055 155.44 298.486L155 291C155 298.667 153.701 312.3 148.501 305.5Z" fill="#FDBA8C"/>
<path d="M148.501 305.5C143.301 298.7 145.668 277.333 147.501 267.5L157.5 268C157.167 271.833 156.7 280.4 157.5 284C158.235 287.308 157.901 294.528 157.583 298.522C157.539 299.078 157.073 299.5 156.516 299.5C155.945 299.5 155.474 299.055 155.44 298.486L155 291C155 298.667 153.701 312.3 148.501 305.5Z" fill="url(#paint10_linear_411_1559)"/>
<path d="M234.5 107.5C221.3 112.7 212.333 109 209.5 106.5C200.333 107.833 178.4 118.4 164 150C149.6 181.6 143 243.167 141.5 270L168 274C170 243.2 180.5 192.5 185.5 171L189.355 220.156C189.437 221.197 190.305 222 191.349 222H260C261.105 222 262 221.105 262 220V166C276 185 303 188 303.5 171C303.9 157.4 278.667 115.333 266 96L247 105.5L249.5 112.5L234.5 107.5Z" fill="#F9FAFB"/>
<path d="M234.5 107.5C221.3 112.7 212.333 109 209.5 106.5C200.333 107.833 178.4 118.4 164 150C149.6 181.6 143 243.167 141.5 270L168 274C170 243.2 180.5 192.5 185.5 171L189.355 220.156C189.437 221.197 190.305 222 191.349 222H260C261.105 222 262 221.105 262 220V166C276 185 303 188 303.5 171C303.9 157.4 278.667 115.333 266 96L247 105.5L249.5 112.5L234.5 107.5Z" fill="url(#paint11_linear_411_1559)"/>
<path fill-rule="evenodd" clip-rule="evenodd" d="M155.504 174.877C156.31 171.835 157.154 168.876 158.037 166.024C158.462 166.927 158.699 167.936 158.699 169C158.699 171.463 157.427 173.629 155.504 174.877ZM150.222 198.523C150.963 194.605 151.755 190.716 152.598 186.899L158.699 193L151.699 200L150.222 198.523ZM146.429 221.607C146.925 218.116 147.459 214.582 148.033 211.036C149.099 210.379 150.355 210 151.699 210C155.565 210 158.699 213.134 158.699 217C158.699 220.866 155.565 224 151.699 224C149.597 224 147.712 223.074 146.429 221.607ZM153.389 271.795L148.081 270.993C146.054 269.767 144.699 267.542 144.699 265C144.699 261.134 147.833 258 151.699 258C155.565 258 158.699 261.134 158.699 265C158.699 268.283 156.439 271.039 153.389 271.795ZM168.766 264.933C168.762 264.974 168.758 265.014 168.754 265.055L168.699 265L168.766 264.933ZM172.928 234.57C172.283 238.513 171.673 242.436 171.112 246.287C169.634 245.004 168.699 243.111 168.699 241C168.699 238.118 170.441 235.643 172.928 234.57ZM177.05 211.351C176.314 215.226 175.584 219.186 174.875 223.176L168.699 217L175.699 210L177.05 211.351ZM181.51 189.095C180.856 192.201 180.179 195.479 179.492 198.884C178.399 199.59 177.097 200 175.699 200C171.833 200 168.699 196.866 168.699 193C168.699 189.134 171.833 186 175.699 186C178.119 186 180.253 187.228 181.51 189.095ZM204.598 222H194.8C193.504 220.729 192.699 218.959 192.699 217C192.699 213.134 195.833 210 199.699 210C203.565 210 206.699 213.134 206.699 217C206.699 218.959 205.895 220.729 204.598 222ZM225.699 222H221.699L216.699 217L223.699 210L230.699 217L225.699 222ZM252.598 222H242.8C241.504 220.729 240.699 218.959 240.699 217C240.699 213.134 243.833 210 247.699 210C251.565 210 254.699 213.134 254.699 217C254.699 218.959 253.895 220.729 252.598 222ZM272.001 175.698C271.206 175.149 270.42 174.565 269.647 173.948L264.699 169L271.699 162L278.699 169L272.001 175.698ZM292.539 141.16C294.2 144.401 295.746 147.564 297.123 150.576L295.699 152L288.699 145L292.539 141.16ZM271.113 103.976C267.521 103.678 264.699 100.669 264.699 97C264.699 96.8811 264.702 96.763 264.708 96.6456L265.999 96C267.541 98.3527 269.268 101.042 271.113 103.976ZM247.699 186L254.699 193L247.699 200L240.699 193L247.699 186ZM230.699 193C230.699 196.866 227.565 200 223.699 200C219.833 200 216.699 196.866 216.699 193C216.699 189.134 219.833 186 223.699 186C227.565 186 230.699 189.134 230.699 193ZM206.699 193L199.699 186L192.699 193L199.699 200L206.699 193ZM151.699 234L158.699 241L151.699 248L144.699 241L151.699 234ZM199.699 128C195.833 128 192.699 124.866 192.699 121C192.699 117.134 195.833 114 199.699 114C203.565 114 206.699 117.134 206.699 121C206.699 124.866 203.565 128 199.699 128ZM223.699 114L216.699 121L223.699 128L230.699 121L223.699 114ZM240.699 121C240.699 124.866 243.833 128 247.699 128C251.565 128 254.699 124.866 254.699 121C254.699 117.134 251.565 114 247.699 114C243.833 114 240.699 117.134 240.699 121ZM264.699 121L271.699 114L278.699 121L271.699 128L264.699 121ZM271.699 152C275.565 152 278.699 148.866 278.699 145C278.699 141.134 275.565 138 271.699 138C267.833 138 264.699 141.134 264.699 145C264.699 148.866 267.833 152 271.699 152ZM247.699 138L254.699 145L247.699 152L240.699 145L247.699 138ZM175.699 152C179.565 152 182.699 148.866 182.699 145C182.699 141.134 179.565 138 175.699 138C171.833 138 168.699 141.134 168.699 145C168.699 148.866 171.833 152 175.699 152ZM230.699 145C230.699 148.866 227.565 152 223.699 152C219.833 152 216.699 148.866 216.699 145C216.699 141.134 219.833 138 223.699 138C227.565 138 230.699 141.134 230.699 145ZM206.699 145L199.699 138L192.699 145L199.699 152L206.699 145ZM199.699 176C195.833 176 192.699 172.866 192.699 169C192.699 165.134 195.833 162 199.699 162C203.565 162 206.699 165.134 206.699 169C206.699 172.866 203.565 176 199.699 176ZM168.699 169L175.699 162L182.699 169L175.699 176L168.699 169ZM223.699 162L216.699 169L223.699 176L230.699 169L223.699 162ZM295.699 176C291.833 176 288.699 172.866 288.699 169C288.699 165.134 291.833 162 295.699 162C299.565 162 302.699 165.134 302.699 169C302.699 172.866 299.565 176 295.699 176ZM240.699 169C240.699 172.866 243.833 176 247.699 176C251.565 176 254.699 172.866 254.699 169C254.699 165.134 251.565 162 247.699 162C243.833 162 240.699 165.134 240.699 169Z" fill="url(#paint12_linear_411_1559)"/>
<path fill-rule="evenodd" clip-rule="evenodd" d="M230.355 108.891C231.685 108.523 233.067 108.064 234.499 107.5L249.499 112.5L246.999 105.5L265.499 156.5L234.499 126.5L230.355 108.891Z" fill="url(#paint13_linear_411_1559)"/>
<defs>
<linearGradient id="paint0_linear_411_1559" x1="210" y1="0" x2="210" y2="420" gradientUnits="userSpaceOnUse">
<stop stop-color="#1F2A37"/>
<stop offset="1" stop-color="#1F2A37" stop-opacity="0"/>
</linearGradient>
<linearGradient id="paint1_linear_411_1559" x1="243.75" y1="414" x2="243.75" y2="138" gradientUnits="userSpaceOnUse">
<stop stop-color="#374151" stop-opacity="0"/>
<stop offset="1" stop-color="#374151"/>
</linearGradient>
<linearGradient id="paint2_linear_411_1559" x1="192" y1="494" x2="113.482" y2="524.556" gradientUnits="userSpaceOnUse">
<stop stop-color="#c8d8fa"/>
<stop offset="1" stop-color="#c8d8fa" stop-opacity="0"/>
</linearGradient>
<linearGradient id="paint3_linear_411_1559" x1="244.102" y1="494" x2="322.619" y2="524.556" gradientUnits="userSpaceOnUse">
<stop stop-color="#c8d8fa"/>
<stop offset="1" stop-color="#c8d8fa" stop-opacity="0"/>
</linearGradient>
<linearGradient id="paint4_linear_411_1559" x1="225.826" y1="67.4096" x2="225.826" y2="107.604" gradientUnits="userSpaceOnUse">
<stop stop-color="#7F270F"/>
<stop offset="1" stop-color="#7F270F" stop-opacity="0"/>
</linearGradient>
<linearGradient id="paint5_linear_411_1559" x1="255.5" y1="94" x2="238.5" y2="76.5" gradientUnits="userSpaceOnUse">
<stop stop-color="#7F270F"/>
<stop offset="1" stop-color="#7F270F" stop-opacity="0"/>
</linearGradient>
<linearGradient id="paint6_linear_411_1559" x1="263.998" y1="111" x2="252.998" y2="91.5" gradientUnits="userSpaceOnUse">
<stop stop-color="#7F270F"/>
<stop offset="1" stop-color="#7F270F" stop-opacity="0"/>
</linearGradient>
<linearGradient id="paint7_linear_411_1559" x1="239.002" y1="79.5" x2="243.466" y2="85.2022" gradientUnits="userSpaceOnUse">
<stop stop-color="#7F270F"/>
<stop offset="1" stop-color="#7F270F" stop-opacity="0"/>
</linearGradient>
<linearGradient id="paint8_linear_411_1559" x1="218.002" y1="372" x2="218.002" y2="99" gradientUnits="userSpaceOnUse">
<stop stop-color="#111928" stop-opacity="0"/>
<stop offset="1" stop-color="#111928"/>
</linearGradient>
<linearGradient id="paint9_linear_411_1559" x1="225.5" y1="290" x2="226.218" y2="669.708" gradientUnits="userSpaceOnUse">
<stop stop-color="#F9FAFB" stop-opacity="0"/>
<stop offset="1" stop-color="#F9FAFB"/>
</linearGradient>
<linearGradient id="paint10_linear_411_1559" x1="163" y1="221.5" x2="186.724" y2="267.957" gradientUnits="userSpaceOnUse">
<stop stop-color="#7F270F"/>
<stop offset="1" stop-color="#7F270F" stop-opacity="0"/>
</linearGradient>
<linearGradient id="paint11_linear_411_1559" x1="204.414" y1="329.5" x2="239.455" y2="208.115" gradientUnits="userSpaceOnUse">
<stop stop-color="#c8d8fa"/>
<stop offset="1" stop-color="#c8d8fa" stop-opacity="0"/>
</linearGradient>
<linearGradient id="paint12_linear_411_1559" x1="223.699" y1="96" x2="223.699" y2="271.795" gradientUnits="userSpaceOnUse">
<stop stop-color="#c8d8fa" stop-opacity="0"/>
<stop offset="1" stop-color="#c8d8fa"/>
</linearGradient>
<linearGradient id="paint13_linear_411_1559" x1="250" y1="133" x2="266" y2="124.5" gradientUnits="userSpaceOnUse">
<stop stop-color="#c8d8fa" stop-opacity="0"/>
<stop offset="1" stop-color="#c8d8fa"/>
</linearGradient>
</defs>
</svg>