<svg class="w-auto max-w-[16rem] h-40 text-gray-800 dark:text-white" aria-hidden="true" width="524" height="524" viewBox="0 0 524 524" fill="none" xmlns="http://www.w3.org/2000/svg">
<circle cx="262" cy="262" r="262" fill="url(#paint0_linear_383_366)"/>
<path fill-rule="evenodd" clip-rule="evenodd" d="M496.907 378.16C487.508 397.131 475.878 414.801 462.361 430.827C459.348 417.569 454.563 387.513 454.948 352.397C454.958 351.4 456.248 351.049 456.756 351.907C462.51 361.618 470.72 377.162 476.079 391.851C476.702 376.385 478.576 355.714 482.98 333.344C483.172 332.366 484.504 332.256 484.847 333.192C488.916 344.289 494.466 362.165 496.907 378.16Z" fill="#1C2734"/>
<path fill-rule="evenodd" clip-rule="evenodd" d="M88.1334 458C84.8446 455.08 81.6298 452.079 78.4922 449H290V458H88.1334Z" fill="#374151"/>
<rect x="184" y="393" width="41" height="50" fill="#374151"/>
<rect x="184" y="393" width="41" height="50" fill="url(#paint1_linear_383_366)"/>
<path d="M49.4184 267.076C48.7059 264.526 50.623 262 53.2709 262H275.964C277.759 262 279.334 263.195 279.817 264.924L315.582 392.924C316.294 395.474 314.377 398 311.729 398H89.0356C87.241 398 85.666 396.805 85.1831 395.076L49.4184 267.076Z" fill="#6B7280"/>
<path d="M49.4184 267.076C48.7059 264.526 50.623 262 53.2709 262H275.964C277.759 262 279.334 263.195 279.817 264.924L315.582 392.924C316.294 395.474 314.377 398 311.729 398H89.0356C87.241 398 85.666 396.805 85.1831 395.076L49.4184 267.076Z" fill="url(#paint2_linear_383_366)"/>
<path fill-rule="evenodd" clip-rule="evenodd" d="M312.531 382L315.583 392.924C316.296 395.474 314.379 398 311.731 398H89.0374C87.2428 398 85.6679 396.805 85.1849 395.076L81.5312 382H312.531Z" fill="#374151"/>
<path d="M117.413 283.477C117.185 282.661 117.901 282 119.012 282H223.988C225.099 282 226.185 282.661 226.413 283.477L247.41 358.527C247.638 359.343 246.923 360.005 245.812 360.005H140.835C139.724 360.005 138.638 359.343 138.41 358.527L117.413 283.477Z" fill="#1B2533"/>
<path d="M153.891 327.385C153.742 326.852 154.07 326.42 154.623 326.42H212.933C213.486 326.42 214.055 326.852 214.204 327.385L216.222 334.597C216.371 335.13 216.044 335.562 215.49 335.562H157.181C156.627 335.562 156.058 335.13 155.909 334.597L153.891 327.385Z" fill="#6B7280"/>
<path fill-rule="evenodd" clip-rule="evenodd" d="M171.34 330.991C171.271 330.745 171.422 330.545 171.678 330.545H198.188C198.444 330.545 198.707 330.745 198.776 330.991C198.845 331.238 198.693 331.437 198.438 331.437H171.927C171.672 331.437 171.409 331.238 171.34 330.991Z" fill="#1B2533"/>
<path d="M157.914 341.767C157.765 341.234 158.093 340.802 158.646 340.802H216.956C217.509 340.802 218.079 341.234 218.228 341.767L220.246 348.979C220.395 349.512 220.067 349.944 219.514 349.944H161.204C160.651 349.944 160.081 349.512 159.932 348.979L157.914 341.767Z" fill="#6B7280"/>
<path d="M170.503 345.373C170.658 345.927 170.317 346.376 169.742 346.376C169.167 346.376 168.574 345.927 168.419 345.373C168.264 344.818 168.605 344.369 169.181 344.369C169.756 344.369 170.348 344.818 170.503 345.373Z" fill="#1B2533"/>
<path d="M174.439 345.373C174.594 345.927 174.253 346.376 173.678 346.376C173.102 346.376 172.51 345.927 172.355 345.373C172.2 344.818 172.541 344.369 173.116 344.369C173.692 344.369 174.284 344.818 174.439 345.373Z" fill="#1B2533"/>
<path d="M178.374 345.373C178.529 345.927 178.188 346.376 177.613 346.376C177.038 346.376 176.446 345.927 176.29 345.373C176.135 344.818 176.476 344.369 177.052 344.369C177.627 344.369 178.219 344.818 178.374 345.373Z" fill="#1B2533"/>
<path d="M182.314 345.373C182.469 345.927 182.128 346.376 181.553 346.376C180.977 346.376 180.385 345.927 180.23 345.373C180.075 344.818 180.416 344.369 180.991 344.369C181.567 344.369 182.159 344.818 182.314 345.373Z" fill="#1B2533"/>
<path d="M186.247 345.373C186.402 345.927 186.062 346.376 185.486 346.376C184.911 346.376 184.319 345.927 184.164 345.373C184.008 344.818 184.349 344.369 184.925 344.369C185.5 344.369 186.092 344.818 186.247 345.373Z" fill="#1B2533"/>
<path d="M190.183 345.373C190.338 345.927 189.997 346.376 189.422 346.376C188.846 346.376 188.254 345.927 188.099 345.373C187.944 344.818 188.285 344.369 188.86 344.369C189.436 344.369 190.028 344.818 190.183 345.373Z" fill="#1B2533"/>
<path d="M194.118 345.373C194.273 345.927 193.933 346.376 193.357 346.376C192.782 346.376 192.19 345.927 192.035 345.373C191.88 344.818 192.22 344.369 192.796 344.369C193.371 344.369 193.963 344.818 194.118 345.373Z" fill="#1B2533"/>
<path d="M198.054 345.373C198.209 345.927 197.868 346.376 197.293 346.376C196.717 346.376 196.125 345.927 195.97 345.373C195.815 344.818 196.156 344.369 196.731 344.369C197.307 344.369 197.899 344.818 198.054 345.373Z" fill="#1B2533"/>
<path d="M201.989 345.373C202.145 345.927 201.804 346.376 201.228 346.376C200.653 346.376 200.061 345.927 199.906 345.373C199.751 344.818 200.091 344.369 200.667 344.369C201.242 344.369 201.834 344.818 201.989 345.373Z" fill="#1B2533"/>
<path d="M205.929 345.373C206.084 345.927 205.743 346.376 205.168 346.376C204.592 346.376 204 345.927 203.845 345.373C203.69 344.818 204.031 344.369 204.606 344.369C205.182 344.369 205.774 344.818 205.929 345.373Z" fill="#1B2533"/>
<path d="M209.864 345.373C210.02 345.927 209.679 346.376 209.103 346.376C208.528 346.376 207.936 345.927 207.781 345.373C207.626 344.818 207.966 344.369 208.542 344.369C209.117 344.369 209.709 344.818 209.864 345.373Z" fill="#1B2533"/>
<path d="M192.299 303.288C194.53 311.261 189.627 317.725 181.347 317.725C173.067 317.725 164.547 311.261 162.316 303.288C160.086 295.314 164.989 288.851 173.269 288.851C181.548 288.851 190.069 295.314 192.299 303.288Z" fill="#6B7280"/>
<path d="M177.061 302.717C178.32 302.717 179.065 301.734 178.726 300.522C178.387 299.31 177.092 298.327 175.833 298.327C174.574 298.327 173.829 299.31 174.168 300.522C174.507 301.734 175.802 302.717 177.061 302.717Z" fill="#1B2533"/>
<path d="M176.285 304.598H178.89C179.58 304.598 180.317 304.862 180.937 305.333C181.557 305.803 182.01 306.441 182.196 307.106L182.547 308.361H174.733L174.382 307.106C174.196 306.441 174.292 305.803 174.649 305.333C175.006 304.862 175.594 304.598 176.285 304.598Z" fill="#1B2533"/>
<path d="M310.496 219.5C284.496 225.1 290.663 181.833 296.996 159.5L329.998 163L337.498 209L348.498 249.5C346.998 251.333 341.898 255.3 333.498 256.5C325.098 257.7 317.665 256 314.998 255L310.496 219.5Z" fill="#FDBA8C"/>
<path fill-rule="evenodd" clip-rule="evenodd" d="M310.494 219.501L310.494 219.5C310.495 219.5 310.495 219.5 310.496 219.5C310.495 219.5 310.495 219.5 310.494 219.501ZM327.436 256.912C321.678 256.894 316.997 255.75 314.997 255L310.496 219.5C314.57 217.933 318.996 210 320.496 202.5L338.471 212.592L348.496 249.5C346.996 251.333 341.896 255.3 333.496 256.5C331.593 256.772 329.739 256.895 327.98 256.911C327.797 256.913 327.616 256.913 327.436 256.912Z" fill="url(#paint3_linear_383_366)"/>
<path d="M298.973 183.714C299.348 184.8 298.772 185.986 297.686 186.362C296.599 186.737 295.414 186.161 295.038 185.075C294.662 183.988 295.238 182.803 296.325 182.427C297.411 182.051 298.597 182.627 298.973 183.714Z" fill="#111928"/>
<path fill-rule="evenodd" clip-rule="evenodd" d="M293.32 175.726C295.29 175.563 297.616 176.143 300.473 177.76C300.954 178.032 301.123 178.643 300.85 179.124C300.578 179.605 299.967 179.774 299.486 179.502C296.666 177.905 294.67 177.554 293.201 177.753C293.126 177.763 293.052 177.774 292.978 177.788C293.088 177.097 293.202 176.41 293.32 175.726Z" fill="#111928"/>
<path fill-rule="evenodd" clip-rule="evenodd" d="M293.191 184.828C293.732 184.939 294.08 185.469 293.969 186.01L291.188 199.498C291.138 199.739 291.323 199.964 291.569 199.963L294.469 199.93C295.021 199.927 295.472 200.372 295.475 200.925C295.478 201.478 295.033 201.929 294.48 201.932L291.58 201.965C290.061 201.973 288.92 200.581 289.227 199.094L292.008 185.606C292.12 185.064 292.649 184.716 293.191 184.828Z" fill="#111928"/>
<path fill-rule="evenodd" clip-rule="evenodd" d="M293.014 208.473C293.284 208.528 293.552 208.572 293.822 208.606C295.087 208.766 296.472 208.724 298.598 208.608C299.15 208.578 299.622 209.001 299.652 209.553C299.682 210.105 299.259 210.577 298.707 210.607C296.67 210.718 295.146 210.774 293.719 210.61C293.46 209.926 293.225 209.212 293.014 208.473Z" fill="#111928"/>
<path fill-rule="evenodd" clip-rule="evenodd" d="M318.203 184.325C318.543 182.893 318.232 181.583 317.658 180.274C317.436 179.767 317.667 179.177 318.173 178.955C318.68 178.733 319.27 178.964 319.492 179.47C320.154 180.983 320.632 182.764 320.15 184.788C319.671 186.802 318.283 188.886 315.578 191.106C315.151 191.457 314.52 191.395 314.169 190.968C313.819 190.54 313.881 189.909 314.308 189.559C316.813 187.503 317.859 185.767 318.203 184.325Z" fill="#111928"/>
<path d="M311.008 179.167L310.276 181.948C310.113 182.568 309.552 183 308.911 183C308.131 183 307.5 182.368 307.493 181.588C307.366 167.586 305.185 168.764 295.499 161.5C285.499 154 293.999 136.5 314.499 133C330.899 130.2 339.666 137.834 341.999 142C351.999 140.5 362.999 147 358.499 171C354.899 190.2 344.332 209 339.499 216C336.332 215.167 328.299 212.6 321.499 209C312.999 204.5 315.499 194.5 319.499 189.5C321.084 187.519 322.325 184.967 323.296 182.449C324.694 178.822 322.132 174.982 318.291 174.391C314.999 173.885 311.855 175.946 311.008 179.167Z" fill="#2F3A48"/>
<path d="M311.008 179.167L310.276 181.948C310.113 182.568 309.552 183 308.911 183C308.131 183 307.5 182.368 307.493 181.588C307.366 167.586 305.185 168.764 295.499 161.5C285.499 154 293.999 136.5 314.499 133C330.899 130.2 339.666 137.834 341.999 142C351.999 140.5 362.999 147 358.499 171C354.899 190.2 344.332 209 339.499 216C336.332 215.167 328.299 212.6 321.499 209C312.999 204.5 315.499 194.5 319.499 189.5C321.084 187.519 322.325 184.967 323.296 182.449C324.694 178.822 322.132 174.982 318.291 174.391C314.999 173.885 311.855 175.946 311.008 179.167Z" fill="url(#paint4_linear_383_366)"/>
<path d="M337.499 137C336.84 135.022 339.984 128.154 342.509 123.281C343.466 121.435 344.897 119.891 346.818 119.097C349.444 118.012 353.857 116.533 360.5 115C370.9 112.6 376.833 115.333 378.5 117C402.833 152.5 452.3 228.1 455.5 246.5C458.7 264.9 438.5 277.833 428 282L412 245L425.5 241.5L368.5 132.5C363 133 355 131.5 351 130C347.8 128.8 347 127.833 347 127.5C344.166 131.667 338.299 139.4 337.499 137Z" fill="#FDBA8C"/>
<path d="M337.499 137C336.84 135.022 339.984 128.154 342.509 123.281C343.466 121.435 344.897 119.891 346.818 119.097C349.444 118.012 353.857 116.533 360.5 115C370.9 112.6 376.833 115.333 378.5 117C402.833 152.5 452.3 228.1 455.5 246.5C458.7 264.9 438.5 277.833 428 282L412 245L425.5 241.5L368.5 132.5C363 133 355 131.5 351 130C347.8 128.8 347 127.833 347 127.5C344.166 131.667 338.299 139.4 337.499 137Z" fill="url(#paint5_linear_383_366)"/>
<path fill-rule="evenodd" clip-rule="evenodd" d="M354.765 116.452C359.807 118.069 364.809 123.488 367 126.5C366.5 126.833 363.7 127.2 356.5 126C349.3 124.8 347.167 126.5 347 127.5C344.612 131.011 340.069 137.057 338.221 137.434L337.446 136.788C337.047 134.571 340.067 127.993 342.509 123.281C343.466 121.435 344.897 119.891 346.818 119.097C348.599 118.361 351.202 117.444 354.765 116.452Z" fill="url(#paint6_linear_383_366)"/>
<path d="M229.5 419.5L240 361L277 365.5C273.833 382.667 266.4 420.2 262 433C257.6 445.8 236.167 449 226 449H120.5C121.5 446.667 124.3 441.5 127.5 439.5C130.7 437.5 141.833 438.667 147 439.5L229.5 419.5Z" fill="#FDBA8C"/>
<path d="M229.5 419.5L240 361L277 365.5C273.833 382.667 266.4 420.2 262 433C257.6 445.8 236.167 449 226 449H120.5C121.5 446.667 124.3 441.5 127.5 439.5C130.7 437.5 141.833 438.667 147 439.5L229.5 419.5Z" fill="url(#paint7_linear_383_366)"/>
<path fill-rule="evenodd" clip-rule="evenodd" d="M390.143 490.578C352.259 511.862 308.547 524 262 524C227.176 524 193.939 517.206 163.543 504.871L163 504.5C165.167 501.167 173.3 493.8 188.5 491C203.7 488.2 254.167 478.833 277.5 474.5L391 466.5C392.251 471.296 392.993 480.578 390.143 490.578Z" fill="#2563eb"/>
<path fill-rule="evenodd" clip-rule="evenodd" d="M390.143 490.578C352.259 511.862 308.547 524 262 524C227.176 524 193.939 517.206 163.543 504.871L163 504.5C165.167 501.167 173.3 493.8 188.5 491C203.7 488.2 254.167 478.833 277.5 474.5L391 466.5C392.251 471.296 392.993 480.578 390.143 490.578Z" fill="url(#paint8_linear_383_366)"/>
<path d="M258 281.5C266.4 273.9 298.167 263 313 258.5C329.8 264.1 346.667 257.167 353 253C367.114 253.371 395.255 247.736 410.279 244.26C412.154 243.826 414.071 244.772 414.859 246.528L433.893 288.92C434.785 290.908 433.922 293.245 431.952 294.176L399.5 309.5L394 466.5C354.4 482.1 299.5 478.333 277 474.5L274 368L239.094 363.077C236.855 362.762 235.319 360.668 235.725 358.444C240.283 333.459 250.052 288.691 258 281.5Z" fill="#F9FAFB"/>
<path d="M258 281.5C266.4 273.9 298.167 263 313 258.5C329.8 264.1 346.667 257.167 353 253C367.114 253.371 395.255 247.736 410.279 244.26C412.154 243.826 414.071 244.772 414.859 246.528L433.893 288.92C434.785 290.908 433.922 293.245 431.952 294.176L399.5 309.5L394 466.5C354.4 482.1 299.5 478.333 277 474.5L274 368L239.094 363.077C236.855 362.762 235.319 360.668 235.725 358.444C240.283 333.459 250.052 288.691 258 281.5Z" fill="url(#paint9_linear_383_366)" fill-opacity="0.7"/>
<path fill-rule="evenodd" clip-rule="evenodd" d="M244.336 318.191L271.5 326.5L274 368L239.094 363.077C236.855 362.762 235.32 360.668 235.725 358.444C237.763 347.272 240.843 332.145 244.336 318.191Z" fill="url(#paint10_linear_383_366)" fill-opacity="0.7"/>
<path d="M312 259C312.4 256.2 314.5 254.833 315.5 254.5C333.5 258.1 344.667 252.333 348 249C351.6 249 353.5 251.667 354 253C352.833 255 347.8 259.6 337 262C326.2 264.4 315.833 261 312 259Z" fill="#F9FAFB"/>
<path d="M312 259C312.4 256.2 314.5 254.833 315.5 254.5C333.5 258.1 344.667 252.333 348 249C351.6 249 353.5 251.667 354 253C352.833 255 347.8 259.6 337 262C326.2 264.4 315.833 261 312 259Z" fill="url(#paint11_linear_383_366)" fill-opacity="0.7"/>
<path d="M227 456H243L253 524H237L227 456Z" fill="#c8d8fa"/>
<path d="M227 456H243L253 524H237L227 456Z" fill="url(#paint12_linear_383_366)"/>
<path d="M170 454.112C170 451.289 172.289 449 175.112 449H274.667C278.717 449 282 452.283 282 456.333C282 460.511 278.514 463.844 274.34 463.658L174.884 459.218C172.152 459.096 170 456.846 170 454.112Z" fill="white"/>
<path fill-rule="evenodd" clip-rule="evenodd" d="M337.645 512.914C323.261 512.246 298.49 507.706 295.499 493.5C291.499 474.5 291.999 308.5 364.999 308.5C436.929 308.5 439.926 425.006 439.998 454.253C411.151 480.975 376.277 501.284 337.645 512.914Z" fill="#c8d8fa"/>
<path fill-rule="evenodd" clip-rule="evenodd" d="M337.645 512.914C323.261 512.246 298.49 507.706 295.499 493.5C291.499 474.5 291.999 308.5 364.999 308.5C436.929 308.5 439.926 425.006 439.998 454.253C411.151 480.975 376.277 501.284 337.645 512.914Z" fill="url(#paint13_linear_383_366)"/>
<path fill-rule="evenodd" clip-rule="evenodd" d="M363 503.824V403C363 398.029 367.029 394 372 394C376.971 394 381 398.029 381 403V495.478C375.125 498.479 369.121 501.264 363 503.824Z" fill="#d6e2fb"/>
<path fill-rule="evenodd" clip-rule="evenodd" d="M363 503.824V403C363 398.029 367.029 394 372 394C376.971 394 381 398.029 381 403V495.478C375.125 498.479 369.121 501.264 363 503.824Z" fill="url(#paint14_linear_383_366)"/>
<path fill-rule="evenodd" clip-rule="evenodd" d="M280.972 68C282.644 68 284 69.3558 284 71.0283V130.081C284 131.754 282.644 133.109 280.972 133.109H262.044V142.329C262.044 143.47 260.83 144.201 259.822 143.668L239.879 133.109H121.983C120.311 133.109 118.955 131.754 118.955 130.081V71.0283C118.955 69.3558 120.311 68 121.983 68H280.972Z" fill="#6B7280"/>
<path d="M198.91 105.025V104.756C198.929 103.003 199.103 101.608 199.433 100.571C199.773 99.5341 200.253 98.6952 200.875 98.0543C201.498 97.4133 202.247 96.8289 203.124 96.301C203.689 95.9428 204.198 95.5422 204.651 95.0992C205.103 94.6562 205.461 94.1472 205.725 93.5722C205.989 92.9972 206.121 92.3609 206.121 91.6634C206.121 90.8245 205.923 90.0987 205.527 89.486C205.131 88.8733 204.603 88.402 203.944 88.0721C203.293 87.7327 202.567 87.563 201.766 87.563C201.04 87.563 200.348 87.7139 199.688 88.0155C199.028 88.3171 198.481 88.7884 198.048 89.4294C197.614 90.061 197.364 90.8763 197.298 91.8755H193C193.066 90.1788 193.495 88.746 194.287 87.5772C195.078 86.3989 196.125 85.5082 197.426 84.9049C198.736 84.3016 200.183 84 201.766 84C203.501 84 205.018 84.3252 206.319 84.9756C207.62 85.6166 208.628 86.5168 209.345 87.6762C210.071 88.8261 210.433 90.1694 210.433 91.7058C210.433 92.7615 210.269 93.7136 209.939 94.5619C209.609 95.4008 209.137 96.1502 208.525 96.81C207.921 97.4698 207.196 98.0543 206.347 98.5633C205.546 99.0628 204.896 99.5813 204.396 100.119C203.906 100.656 203.548 101.292 203.322 102.027C203.095 102.763 202.973 103.672 202.954 104.756V105.025H198.91ZM201.045 113.621C200.272 113.621 199.608 113.348 199.052 112.801C198.495 112.245 198.217 111.576 198.217 110.794C198.217 110.021 198.495 109.361 199.052 108.814C199.608 108.258 200.272 107.98 201.045 107.98C201.809 107.98 202.468 108.258 203.025 108.814C203.59 109.361 203.873 110.021 203.873 110.794C203.873 111.312 203.741 111.788 203.477 112.222C203.223 112.646 202.883 112.985 202.459 113.24C202.035 113.494 201.564 113.621 201.045 113.621Z" fill="#111928"/>
<defs>
<linearGradient id="paint0_linear_383_366" x1="262" y1="0" x2="262" y2="524" gradientUnits="userSpaceOnUse">
<stop stop-color="#1F2A37"/>
<stop offset="1" stop-color="#1F2A37" stop-opacity="0"/>
</linearGradient>
<linearGradient id="paint1_linear_383_366" x1="204.5" y1="426.5" x2="204.5" y2="371.5" gradientUnits="userSpaceOnUse">
<stop stop-color="#111928" stop-opacity="0"/>
<stop offset="1" stop-color="#111928"/>
</linearGradient>
<linearGradient id="paint2_linear_383_366" x1="182.5" y1="412.5" x2="182.5" y2="218.5" gradientUnits="userSpaceOnUse">
<stop stop-color="#374151" stop-opacity="0"/>
<stop offset="1" stop-color="#374151"/>
</linearGradient>
<linearGradient id="paint3_linear_383_366" x1="289.998" y1="243.5" x2="319.498" y2="245" gradientUnits="userSpaceOnUse">
<stop stop-color="#7F270F"/>
<stop offset="1" stop-color="#7F270F" stop-opacity="0"/>
</linearGradient>
<linearGradient id="paint4_linear_383_366" x1="401.5" y1="237.5" x2="331.006" y2="159.305" gradientUnits="userSpaceOnUse">
<stop stop-color="#111928"/>
<stop offset="1" stop-color="#111928" stop-opacity="0"/>
</linearGradient>
<linearGradient id="paint5_linear_383_366" x1="611.42" y1="442.645" x2="492.006" y2="178.984" gradientUnits="userSpaceOnUse">
<stop stop-color="#7F270F"/>
<stop offset="1" stop-color="#7F270F" stop-opacity="0"/>
</linearGradient>
<linearGradient id="paint6_linear_383_366" x1="371" y1="177" x2="391.466" y2="143.028" gradientUnits="userSpaceOnUse">
<stop stop-color="#7F270F"/>
<stop offset="1" stop-color="#7F270F" stop-opacity="0"/>
</linearGradient>
<linearGradient id="paint7_linear_383_366" x1="482.593" y1="533.175" x2="453.628" y2="371.884" gradientUnits="userSpaceOnUse">
<stop stop-color="#7F270F"/>
<stop offset="1" stop-color="#7F270F" stop-opacity="0"/>
</linearGradient>
<linearGradient id="paint8_linear_383_366" x1="365.7" y1="376.652" x2="240.298" y2="368.382" gradientUnits="userSpaceOnUse">
<stop stop-color="#111928"/>
<stop offset="1" stop-color="#111928" stop-opacity="0"/>
</linearGradient>
<linearGradient id="paint9_linear_383_366" x1="185" y1="196.5" x2="319.781" y2="264.995" gradientUnits="userSpaceOnUse">
<stop stop-color="#c8d8fa"/>
<stop offset="1" stop-color="#c8d8fa" stop-opacity="0"/>
</linearGradient>
<linearGradient id="paint10_linear_383_366" x1="274" y1="370" x2="255.494" y2="351.513" gradientUnits="userSpaceOnUse">
<stop stop-color="#c8d8fa"/>
<stop offset="1" stop-color="#c8d8fa" stop-opacity="0"/>
</linearGradient>
<linearGradient id="paint11_linear_383_366" x1="322.472" y1="266.51" x2="321.747" y2="256.311" gradientUnits="userSpaceOnUse">
<stop stop-color="#c8d8fa"/>
<stop offset="1" stop-color="#c8d8fa" stop-opacity="0"/>
</linearGradient>
<linearGradient id="paint12_linear_383_366" x1="232" y1="452.5" x2="240" y2="478" gradientUnits="userSpaceOnUse">
<stop stop-color="#c8d8fa"/>
<stop offset="1" stop-color="#c8d8fa" stop-opacity="0"/>
</linearGradient>
<linearGradient id="paint13_linear_383_366" x1="367.086" y1="513" x2="367.086" y2="341" gradientUnits="userSpaceOnUse">
<stop stop-color="#c8d8fa"/>
<stop offset="1" stop-color="#c8d8fa" stop-opacity="0"/>
</linearGradient>
<linearGradient id="paint14_linear_383_366" x1="361.422" y1="586.5" x2="360.715" y2="436.003" gradientUnits="userSpaceOnUse">
<stop stop-color="#9ab7f6"/>
<stop offset="1" stop-color="#9ab7f6" stop-opacity="0"/>
</linearGradient>
</defs>
</svg>