<svg class="w-auto max-w-[16rem] h-40 text-gray-800 dark:text-white" aria-hidden="true" width="604" height="512" viewBox="0 0 604 512" fill="none" xmlns="http://www.w3.org/2000/svg">
<path d="M105.108 297.593H161.551C162.468 297.593 163.211 298.336 163.211 299.253V371.466C163.211 372.383 162.468 373.126 161.551 373.126H105.108C104.191 373.126 103.448 372.383 103.448 371.466V299.253C103.448 298.336 104.191 297.593 105.108 297.593Z" fill="#d6e2fb"/>
<path d="M105.108 297.593H161.551C162.468 297.593 163.211 298.336 163.211 299.253V371.466C163.211 372.383 162.468 373.126 161.551 373.126H105.108C104.191 373.126 103.448 372.383 103.448 371.466V299.253C103.448 298.336 104.191 297.593 105.108 297.593Z" fill="url(#paint0_linear_748_161)"/>
<path d="M86.8449 373.126L30.4023 373.126C29.4854 373.126 28.7422 372.383 28.7422 371.466L28.7422 338.265C28.7422 337.348 29.4854 336.605 30.4023 336.605L86.8449 336.605C87.7617 336.605 88.505 337.348 88.505 338.265L88.505 371.466C88.505 372.383 87.7617 373.126 86.8449 373.126Z" fill="#d6e2fb"/>
<path d="M86.8449 373.126L30.4023 373.126C29.4854 373.126 28.7422 372.383 28.7422 371.466L28.7422 338.265C28.7422 337.348 29.4854 336.605 30.4023 336.605L86.8449 336.605C87.7617 336.605 88.505 337.348 88.505 338.265L88.505 371.466C88.505 372.383 87.7617 373.126 86.8449 373.126Z" fill="url(#paint1_linear_748_161)"/>
<path d="M289.793 318.508L230.254 307.638C229.352 307.474 228.755 306.609 228.919 305.707L238.588 252.744C238.753 251.842 239.618 251.244 240.52 251.409L300.059 262.278C300.961 262.443 301.558 263.308 301.394 264.21L291.725 317.173C291.56 318.075 290.695 318.672 289.793 318.508Z" fill="#d6e2fb"/>
<path d="M289.793 318.508L230.254 307.638C229.352 307.474 228.755 306.609 228.919 305.707L238.588 252.744C238.753 251.842 239.618 251.244 240.52 251.409L300.059 262.278C300.961 262.443 301.558 263.308 301.394 264.21L291.725 317.173C291.56 318.075 290.695 318.672 289.793 318.508Z" fill="url(#paint2_linear_748_161)"/>
<path d="M141.996 271.713L81.8946 278.847C80.9842 278.955 80.1585 278.304 80.0504 277.394L73.7043 223.931C73.5963 223.02 74.2467 222.194 75.1572 222.086L135.259 214.952C136.169 214.844 136.995 215.495 137.103 216.405L143.449 269.868C143.557 270.779 142.906 271.605 141.996 271.713Z" fill="#d6e2fb"/>
<path d="M141.996 271.713L81.8946 278.847C80.9842 278.955 80.1585 278.304 80.0504 277.394L73.7043 223.931C73.5963 223.02 74.2467 222.194 75.1572 222.086L135.259 214.952C136.169 214.844 136.995 215.495 137.103 216.405L143.449 269.868C143.557 270.779 142.906 271.605 141.996 271.713Z" fill="url(#paint3_linear_748_161)"/>
<path d="M259.509 229.322L180.85 219.39C179.859 219.265 178.982 220.038 178.982 221.037V286.132C178.982 286.984 179.628 287.697 180.475 287.783L251.245 294.94C252.141 295.03 252.946 294.39 253.059 293.497L260.948 231.177C261.063 230.267 260.418 229.436 259.509 229.322Z" fill="#d6e2fb"/>
<path d="M259.509 229.322L180.85 219.39C179.859 219.265 178.982 220.038 178.982 221.037V286.132C178.982 286.984 179.628 287.697 180.475 287.783L251.245 294.94C252.141 295.03 252.946 294.39 253.059 293.497L260.948 231.177C261.063 230.267 260.418 229.436 259.509 229.322Z" fill="url(#paint4_linear_748_161)"/>
<path fill-rule="evenodd" clip-rule="evenodd" d="M249.116 297.147C234.459 292.733 226.13 277.61 230.4 263.428C234.67 249.246 249.965 241.235 264.623 245.649C279.28 250.063 287.609 265.186 283.339 279.368C279.069 293.55 263.774 301.56 249.116 297.147ZM248.638 298.736C233.141 294.07 224.264 278.048 228.811 262.949C233.357 247.851 249.605 239.393 265.101 244.059C280.598 248.726 289.475 264.748 284.928 279.847C280.382 294.945 264.134 303.402 248.638 298.736Z" fill="#2563eb"/>
<path fill-rule="evenodd" clip-rule="evenodd" d="M165.366 238.47C153.934 233.06 149.002 219.687 154.229 208.642C159.456 197.598 172.924 192.932 184.356 198.342C195.788 203.752 200.72 217.126 195.494 228.17C190.267 239.215 176.798 243.88 165.366 238.47ZM164.656 239.971C152.432 234.186 147.092 219.842 152.728 207.932C158.364 196.022 172.843 191.057 185.066 196.842C197.29 202.626 202.63 216.971 196.994 228.88C191.358 240.79 176.88 245.756 164.656 239.971Z" fill="#2563eb"/>
<path d="M126.83 192.154L226.038 238.128C226.858 238.509 227.223 239.476 226.859 240.303L183.807 338.075C183.426 338.94 182.4 339.313 181.552 338.894L75.5083 286.476C74.6626 286.058 74.3348 285.02 74.787 284.192L124.675 192.865C125.095 192.097 126.037 191.787 126.83 192.154Z" fill="#d6e2fb"/>
<path d="M126.83 192.154L226.038 238.128C226.858 238.509 227.223 239.476 226.859 240.303L183.807 338.075C183.426 338.94 182.4 339.313 181.552 338.894L75.5083 286.476C74.6626 286.058 74.3348 285.02 74.787 284.192L124.675 192.865C125.095 192.097 126.037 191.787 126.83 192.154Z" fill="url(#paint5_linear_748_161)"/>
<path fill-rule="evenodd" clip-rule="evenodd" d="M150.759 286.482C139.028 286.482 129.518 276.972 129.518 265.241C129.518 253.51 139.028 244 150.759 244C162.49 244 172 253.51 172 265.241C172 276.972 162.49 286.482 150.759 286.482ZM150.759 288.482C137.923 288.482 127.518 278.077 127.518 265.241C127.518 252.405 137.923 242 150.759 242C163.595 242 174 252.405 174 265.241C174 278.077 163.595 288.482 150.759 288.482Z" fill="#d6e2fb"/>
<path d="M209.422 255.248L297.078 280.58C297.89 280.815 298.396 281.622 298.253 282.455L282.969 371.746C282.833 372.543 282.142 373.126 281.333 373.126H158.286C157.086 373.126 156.283 371.892 156.768 370.795L207.443 256.172C207.779 255.412 208.625 255.018 209.422 255.248Z" fill="#c8d8fa"/>
<path d="M209.422 255.248L297.078 280.58C297.89 280.815 298.396 281.622 298.253 282.455L282.969 371.746C282.833 372.543 282.142 373.126 281.333 373.126H158.286C157.086 373.126 156.283 371.892 156.768 370.795L207.443 256.172C207.779 255.412 208.625 255.018 209.422 255.248Z" fill="url(#paint6_linear_748_161)"/>
<path d="M74.3935 327.474H174.828C175.745 327.474 176.488 328.217 176.488 329.134V371.466C176.488 372.383 175.745 373.126 174.828 373.126H74.3935C73.4767 373.126 72.7334 372.383 72.7334 371.466V329.134C72.7334 328.217 73.4767 327.474 74.3935 327.474Z" fill="#d6e2fb"/>
<path d="M74.3935 327.474H174.828C175.745 327.474 176.488 328.217 176.488 329.134V371.466C176.488 372.383 175.745 373.126 174.828 373.126H74.3935C73.4767 373.126 72.7334 372.383 72.7334 371.466V329.134C72.7334 328.217 73.4767 327.474 74.3935 327.474Z" fill="url(#paint7_linear_748_161)"/>
<path d="M88.5038 353.62C88.5038 364.393 97.2369 373.126 108.01 373.126C118.783 373.126 127.516 364.393 127.516 353.62C127.516 342.848 118.783 334.115 108.01 334.115C97.2369 334.115 88.5038 342.848 88.5038 353.62Z" fill="url(#paint8_linear_748_161)"/>
<path fill-rule="evenodd" clip-rule="evenodd" d="M44.669 256.627C32.5623 260.286 19.9323 253.679 16.3975 241.983C12.8628 230.286 19.7195 217.79 31.8262 214.131C43.9329 210.472 56.563 217.08 60.0977 228.776C63.6324 240.472 56.7757 252.969 44.669 256.627ZM45.1492 258.217C32.2042 262.129 18.6201 255.076 14.8084 242.463C10.9968 229.85 18.4009 216.454 31.346 212.542C44.2911 208.63 57.8751 215.683 61.6868 228.296C65.4985 240.908 58.0943 254.304 45.1492 258.217Z" fill="#2563eb"/>
<path d="M82.142 215.424L5.59279 238.669C4.81995 238.904 4.32816 239.66 4.42773 240.462L20.6754 371.256C20.7787 372.087 21.4851 372.711 22.3228 372.711H29.687C29.8852 372.711 30.0817 372.676 30.2673 372.606L136.213 333.081C137.118 332.743 137.545 331.705 137.139 330.828L84.1309 216.315C83.783 215.563 82.9344 215.183 82.142 215.424Z" fill="#d6e2fb"/>
<path d="M82.142 215.424L5.59279 238.669C4.81995 238.904 4.32816 239.66 4.42773 240.462L20.6754 371.256C20.7787 372.087 21.4851 372.711 22.3228 372.711H29.687C29.8852 372.711 30.0817 372.676 30.2673 372.606L136.213 333.081C137.118 332.743 137.545 331.705 137.139 330.828L84.1309 216.315C83.783 215.563 82.9344 215.183 82.142 215.424Z" fill="url(#paint9_linear_748_161)"/>
<path fill-rule="evenodd" clip-rule="evenodd" d="M92.2346 233.82L75.7727 217.358L73.6031 218.017L94.6723 239.086L92.2346 233.82ZM111.909 276.323L109.471 271.057L60.4313 222.016L58.2617 222.675L111.909 276.323ZM129.146 313.56L126.708 308.293L45.09 226.675L42.9203 227.334L129.146 313.56ZM130.717 335.131L132.777 334.363L29.7486 231.334L27.579 231.993L130.717 335.131ZM116.152 340.565L118.212 339.797L14.4072 235.992L12.2376 236.651L116.152 340.565ZM101.513 346.027L103.573 345.258L5.23003 246.915L5.63123 250.145L101.513 346.027ZM86.9471 351.461L89.007 350.692L8.06691 269.752L8.4681 272.982L86.9471 351.461ZM72.3813 356.895L74.4412 356.126L10.9038 292.589L11.305 295.819L72.3813 356.895ZM57.8155 362.329L59.8754 361.561L13.7407 315.426L14.1419 318.656L57.8155 362.329ZM43.2496 367.763L45.3095 366.995L16.5775 338.263L16.9787 341.492L43.2496 367.763ZM28.1975 372.711H29.6877C29.8858 372.711 30.0823 372.676 30.268 372.606L30.7437 372.429L19.4144 361.1L19.8156 364.329L28.1975 372.711Z" fill="#c8d8fa"/>
<path d="M232.102 448.66H201.39L209.387 482.246C209.565 482.994 210.233 483.521 211.002 483.521H222.49C223.259 483.521 223.927 482.994 224.105 482.246L232.102 448.66Z" fill="#1F2A37"/>
<path d="M232.102 448.66H201.39L209.387 482.246C209.565 482.994 210.233 483.521 211.002 483.521H222.49C223.259 483.521 223.927 482.994 224.105 482.246L232.102 448.66Z" fill="url(#paint10_linear_748_161)"/>
<path d="M193.92 487.672C193.92 500.507 204.326 510.913 217.161 510.913C229.997 510.913 240.402 500.507 240.402 487.672C240.402 474.836 229.997 464.431 217.161 464.431C204.326 464.431 193.92 474.836 193.92 487.672Z" fill="#374151"/>
<path d="M193.92 487.672C193.92 500.507 204.326 510.913 217.161 510.913C229.997 510.913 240.402 500.507 240.402 487.672C240.402 474.836 229.997 464.431 217.161 464.431C204.326 464.431 193.92 474.836 193.92 487.672Z" fill="url(#paint11_linear_748_161)"/>
<path d="M204.708 487.672C204.708 494.548 210.283 500.122 217.159 500.122C224.035 500.122 229.609 494.548 229.609 487.672C229.609 480.795 224.035 475.221 217.159 475.221C210.283 475.221 204.708 480.795 204.708 487.672Z" fill="#1F2A37"/>
<path d="M87.2734 448.66H56.562L64.5587 482.246C64.7367 482.994 65.4049 483.521 66.1736 483.521H77.6618C78.4305 483.521 79.0987 482.994 79.2768 482.246L87.2734 448.66Z" fill="#1F2A37"/>
<path d="M87.2734 448.66H56.562L64.5587 482.246C64.7367 482.994 65.4049 483.521 66.1736 483.521H77.6618C78.4305 483.521 79.0987 482.994 79.2768 482.246L87.2734 448.66Z" fill="url(#paint12_linear_748_161)"/>
<path d="M49.0921 487.672C49.0921 500.507 59.4974 510.913 72.3331 510.913C85.1688 510.913 95.5742 500.507 95.5742 487.672C95.5742 474.836 85.1688 464.431 72.3331 464.431C59.4974 464.431 49.0921 474.836 49.0921 487.672Z" fill="#374151"/>
<path d="M49.0921 487.672C49.0921 500.507 59.4974 510.913 72.3331 510.913C85.1688 510.913 95.5742 500.507 95.5742 487.672C95.5742 474.836 85.1688 464.431 72.3331 464.431C59.4974 464.431 49.0921 474.836 49.0921 487.672Z" fill="url(#paint13_linear_748_161)"/>
<path d="M59.8801 487.672C59.8801 494.548 65.4544 500.122 72.3307 500.122C79.2069 500.122 84.7812 494.548 84.7812 487.672C84.7812 480.795 79.2069 475.221 72.3307 475.221C65.4544 475.221 59.8801 480.795 59.8801 487.672Z" fill="#1F2A37"/>
<path fill-rule="evenodd" clip-rule="evenodd" d="M74.4398 209.194H1.87405L8.79871 266.466H81.3819L74.4398 209.194ZM76.112 209.194H154.91V266.466H83.0542L76.112 209.194ZM156.57 209.194H235.368L228.425 266.466H156.57V209.194ZM237.04 209.194H310.957V207.534H0.00115967L20.1228 373.956H283.151V372.296H217.27L223.407 321.664H292.696V320.004H223.608L229.896 268.126H300.582V266.466H230.098L237.04 209.194ZM215.598 372.296H156.57V321.664H221.735L215.598 372.296ZM154.91 372.296H95.882L89.7448 321.664H154.91V372.296ZM94.2098 372.296H21.5943L15.4724 321.664H88.0725L94.2098 372.296ZM15.2718 320.004L8.99942 268.126H81.5831L87.8713 320.004H15.2718ZM221.936 320.004L228.224 268.126H156.57V320.004H221.936ZM154.91 320.004H89.5435L83.2554 268.126H154.91V320.004Z" fill="#c8d8fa"/>
<path fill-rule="evenodd" clip-rule="evenodd" d="M74.4398 209.194H1.87405L8.79871 266.466H81.3819L74.4398 209.194ZM76.112 209.194H154.91V266.466H83.0542L76.112 209.194ZM156.57 209.194H235.368L228.425 266.466H156.57V209.194ZM237.04 209.194H310.957V207.534H0.00115967L20.1228 373.956H283.151V372.296H217.27L223.407 321.664H292.696V320.004H223.608L229.896 268.126H300.582V266.466H230.098L237.04 209.194ZM215.598 372.296H156.57V321.664H221.735L215.598 372.296ZM154.91 372.296H95.882L89.7448 321.664H154.91V372.296ZM94.2098 372.296H21.5943L15.4724 321.664H88.0725L94.2098 372.296ZM15.2718 320.004L8.99942 268.126H81.5831L87.8713 320.004H15.2718ZM221.936 320.004L228.224 268.126H156.57V320.004H221.936ZM154.91 320.004H89.5435L83.2554 268.126H154.91V320.004Z" fill="url(#paint14_radial_748_161)"/>
<path fill-rule="evenodd" clip-rule="evenodd" d="M368.23 185.123C368.23 183.747 367.116 182.632 365.74 182.632H343.19C325.763 182.632 310.885 195.217 307.993 212.403L274.069 414.045C270.909 432.829 254.646 446.585 235.598 446.585H34.5549C33.1797 446.585 32.0648 447.7 32.0648 449.075C32.0648 450.45 33.1797 451.565 34.5549 451.565H235.598C257.078 451.565 275.417 436.053 278.98 414.871L312.905 213.229C315.392 198.441 328.195 187.613 343.19 187.613H365.74C367.116 187.613 368.23 186.498 368.23 185.123Z" fill="#c8d8fa"/>
<path fill-rule="evenodd" clip-rule="evenodd" d="M368.23 185.123C368.23 183.747 367.116 182.632 365.74 182.632H343.19C325.763 182.632 310.885 195.217 307.993 212.403L274.069 414.045C270.909 432.829 254.646 446.585 235.598 446.585H34.5549C33.1797 446.585 32.0648 447.7 32.0648 449.075C32.0648 450.45 33.1797 451.565 34.5549 451.565H235.598C257.078 451.565 275.417 436.053 278.98 414.871L312.905 213.229C315.392 198.441 328.195 187.613 343.19 187.613H365.74C367.116 187.613 368.23 186.498 368.23 185.123Z" fill="url(#paint15_linear_748_161)"/>
<path d="M362 185C362 189.971 366.253 194 371.5 194C376.747 194 381 189.971 381 185C381 180.029 376.747 176 371.5 176C366.253 176 362 180.029 362 185Z" fill="#c8d8fa"/>
<path d="M362 185C362 189.971 366.253 194 371.5 194C376.747 194 381 189.971 381 185C381 180.029 376.747 176 371.5 176C366.253 176 362 180.029 362 185Z" fill="url(#paint16_linear_748_161)"/>
<path d="M330 491.5C322.86 495.325 315.834 499.167 313.5 501C304.5 512.5 383.5 511 379 499C375.4 489.4 382.833 472 387 464.5C380 455 364.5 440.4 358.5 458C351 480 344 484 330 491.5Z" fill="#374151"/>
<path d="M335.5 505C320.7 506.6 314.667 503 313.5 501C308.3 505.8 311.333 509.667 313.5 511H379C382.5 508 387.9 501.3 381.5 498.5C373.5 495 354 503 335.5 505Z" fill="#1F2A37"/>
<path d="M335.5 505C320.7 506.6 314.667 503 313.5 501C308.3 505.8 311.333 509.667 313.5 511H379C382.5 508 387.9 501.3 381.5 498.5C373.5 495 354 503 335.5 505Z" fill="url(#paint17_linear_748_161)"/>
<path d="M549.218 483.828C546.874 491.58 544.623 499.265 544.269 502.212C546.037 516.707 600.837 459.786 589.17 454.483C579.836 450.24 572.789 432.68 570.432 424.431C558.764 422.663 537.48 423.299 545.683 439.987C555.936 460.847 553.815 468.624 549.218 483.828Z" fill="#374151"/>
<path d="M562.657 489.484C553.323 501.081 546.511 502.801 544.272 502.212C543.989 509.283 548.868 509.872 551.343 509.283L597.659 462.968C598.012 458.371 597.093 449.815 590.587 452.361C582.456 455.543 574.324 474.988 562.657 489.484Z" fill="#1F2A37"/>
<path d="M562.657 489.484C553.323 501.081 546.511 502.801 544.272 502.212C543.989 509.283 548.868 509.872 551.343 509.283L597.659 462.968C598.012 458.371 597.093 449.815 590.587 452.361C582.456 455.543 574.324 474.988 562.657 489.484Z" fill="url(#paint18_linear_748_161)"/>
<path d="M541.81 461.756C459.248 375.004 443.511 291.853 445.999 261L496 201C497.333 215.167 497.2 247.3 506 292.5C514.63 336.829 561.478 402.415 585.133 431.338C585.876 432.246 585.669 433.573 584.703 434.239L544.4 462.034C543.592 462.591 542.487 462.466 541.81 461.756Z" fill="#2563eb"/>
<path d="M541.81 461.756C459.248 375.004 443.511 291.853 445.999 261L496 201C497.333 215.167 497.2 247.3 506 292.5C514.63 336.829 561.478 402.415 585.133 431.338C585.876 432.246 585.669 433.573 584.703 434.239L544.4 462.034C543.592 462.591 542.487 462.466 541.81 461.756Z" fill="url(#paint19_linear_748_161)"/>
<path fill-rule="evenodd" clip-rule="evenodd" d="M573.778 417.016L529.578 448.316L528.422 446.684L572.622 415.384L573.778 417.016Z" fill="#F9FAFB"/>
<path d="M400.647 477.888L348.401 460.628C347.35 460.282 346.781 459.148 347.13 458.099L445.498 162H490.998C500.498 204 499.498 216.5 485.998 250C475.297 276.556 426.727 411.02 403.142 476.707C402.775 477.728 401.677 478.229 400.647 477.888Z" fill="#2563eb"/>
<path d="M400.647 477.888L348.401 460.628C347.35 460.282 346.781 459.148 347.13 458.099L445.498 162H490.998C500.498 204 499.498 216.5 485.998 250C475.297 276.556 426.727 411.02 403.142 476.707C402.775 477.728 401.677 478.229 400.647 477.888Z" fill="url(#paint20_linear_748_161)"/>
<path fill-rule="evenodd" clip-rule="evenodd" d="M481.395 191.495C466.495 189.953 458.609 181.194 454.242 176.155L455.754 174.845C460.053 179.806 467.501 188.047 481.601 189.505L481.395 191.495Z" fill="#F9FAFB"/>
<path fill-rule="evenodd" clip-rule="evenodd" d="M409.195 459.453L352.695 441.453L353.302 439.547L409.802 457.547L409.195 459.453Z" fill="#F9FAFB"/>
<path d="M437.502 4.5C431.502 9.7 433.335 14.3333 435.002 16C441.334 22.3333 455.6 41.6 462 68C470 101 486 125.5 506 112.5C525.895 99.5685 500.273 69.8156 484.746 51.7855L484.5 51.5C469 33.5 479 22.5 471.5 10.5C464 -1.5 445.002 -2 437.502 4.5Z" fill="#374151"/>
<path d="M463 51.5C492 67 494.333 91.1667 494 99.5L485 110L486 167.5H443.001C440.501 153.167 435.801 120.6 437.001 105C438.201 89.4 448.168 67.8333 453.001 59C459.001 58.6 461.833 53.8333 463 51.5Z" fill="#F9FAFB"/>
<path d="M463 51.5C492 67 494.333 91.1667 494 99.5L485 110L486 167.5H443.001C440.501 153.167 435.801 120.6 437.001 105C438.201 89.4 448.168 67.8333 453.001 59C459.001 58.6 461.833 53.8333 463 51.5Z" fill="url(#paint21_linear_748_161)"/>
<path d="M463 51.5C492 67 494.333 91.1667 494 99.5L485 110L486 167.5H443.001C440.501 153.167 435.801 120.6 437.001 105C438.201 89.4 448.168 67.8333 453.001 59C459.001 58.6 461.833 53.8333 463 51.5Z" fill="url(#paint22_linear_748_161)"/>
<path d="M494.686 167.972L455.5 167.5L490.5 119.5L496.693 165.707C496.855 166.916 495.906 167.987 494.686 167.972Z" fill="#F9FAFB"/>
<path d="M494.686 167.972L455.5 167.5L490.5 119.5L496.693 165.707C496.855 166.916 495.906 167.987 494.686 167.972Z" fill="url(#paint23_linear_748_161)"/>
<path d="M444.648 153L457.148 135L480.148 140C477.648 145.667 471.748 158.7 468.148 165.5C463.648 174 400.648 172.5 384.648 175C368.648 177.5 358.648 190.5 360.148 177.5C361.348 167.1 416.982 156.833 444.648 153Z" fill="#FDBA8C"/>
<path d="M444.648 153L457.148 135L480.148 140C477.648 145.667 471.748 158.7 468.148 165.5C463.648 174 400.648 172.5 384.648 175C368.648 177.5 358.648 190.5 360.148 177.5C361.348 167.1 416.982 156.833 444.648 153Z" fill="url(#paint24_linear_748_161)"/>
<path d="M443.269 140.815L454.82 108.521C464.276 93.6494 484.455 93.0298 493.363 94.5789C497.356 115.041 481.634 152.098 472.565 169.508C472.114 170.374 471.098 170.779 470.191 170.418C456.663 165.02 446.929 150.015 443.33 142.294C443.114 141.829 443.097 141.298 443.269 140.815Z" fill="#F9FAFB"/>
<path d="M445 40C450.2 48 453 55.8333 453 59.5C454.205 68 469 58.5 464 52.5C460 47.7 456 34.8333 454.5 29L445 40Z" fill="#FDBA8C"/>
<path d="M445 40C450.2 48 453 55.8333 453 59.5C454.205 68 469 58.5 464 52.5C460 47.7 456 34.8333 454.5 29L445 40Z" fill="url(#paint25_linear_748_161)"/>
<path d="M443.5 41C434.7 40.6 434.166 22.1667 435 13C445.499 13 447 23 451.5 23.5C456 24 458 19.5 460 23C462 26.5 454.5 41.5 443.5 41Z" fill="#FDBA8C"/>
<path d="M441.294 23.6212C441.551 24.1349 441.343 24.7595 440.829 25.0163C440.315 25.2731 439.691 25.0649 439.434 24.5512C439.177 24.0375 439.385 23.4129 439.899 23.1561C440.413 22.8993 441.037 23.1075 441.294 23.6212Z" fill="#111928"/>
<path fill-rule="evenodd" clip-rule="evenodd" d="M439.431 20.1738C438.716 20.3446 438.202 20.7789 437.748 21.3297C437.572 21.5428 437.257 21.573 437.044 21.3973C436.831 21.2216 436.801 20.9065 436.976 20.6935C437.501 20.0572 438.188 19.4427 439.198 19.2012C440.204 18.9609 441.446 19.1096 443.045 19.8148C443.298 19.9262 443.412 20.2213 443.301 20.474C443.19 20.7267 442.894 20.8412 442.642 20.7298C441.161 20.0768 440.151 20.0017 439.431 20.1738Z" fill="#111928"/>
<path fill-rule="evenodd" clip-rule="evenodd" d="M436.196 24.5244C436.471 24.5442 436.679 24.7835 436.659 25.059L436.166 31.9204C436.157 32.043 436.264 32.1425 436.385 32.1257L439.305 31.7225C439.578 31.6847 439.831 31.8758 439.868 32.1494C439.906 32.4229 439.715 32.6753 439.441 32.7131L436.522 33.1163C435.771 33.2201 435.114 32.6054 435.169 31.8488L435.661 24.9873C435.681 24.7119 435.921 24.5047 436.196 24.5244Z" fill="#111928"/>
<path fill-rule="evenodd" clip-rule="evenodd" d="M437.227 35.6598L445.331 33.1877C445.172 36.2011 443.744 38.6953 440.042 39.6679C438.884 38.7267 437.959 37.3381 437.227 35.6598Z" fill="white"/>
<path fill-rule="evenodd" clip-rule="evenodd" d="M457.402 25.8578C457.478 25.1266 457.238 24.4979 456.869 23.8868C456.726 23.6504 456.802 23.3431 457.038 23.2003C457.274 23.0574 457.582 23.1333 457.725 23.3696C458.151 24.0755 458.504 24.9268 458.397 25.9606C458.29 26.989 457.739 28.1112 456.544 29.387C456.355 29.5885 456.038 29.5988 455.837 29.41C455.635 29.2212 455.625 28.9048 455.814 28.7033C456.92 27.522 457.326 26.5943 457.402 25.8578Z" fill="#111928"/>
<defs>
<linearGradient id="paint0_linear_748_161" x1="133.33" y1="297.593" x2="133.33" y2="373.126" gradientUnits="userSpaceOnUse">
<stop stop-color="#2563eb"/>
<stop offset="1" stop-color="#2563eb" stop-opacity="0"/>
</linearGradient>
<linearGradient id="paint1_linear_748_161" x1="58.6236" y1="373.126" x2="58.6236" y2="336.605" gradientUnits="userSpaceOnUse">
<stop stop-color="#2563eb"/>
<stop offset="1" stop-color="#2563eb" stop-opacity="0"/>
</linearGradient>
<linearGradient id="paint2_linear_748_161" x1="260.024" y1="313.073" x2="270.289" y2="256.844" gradientUnits="userSpaceOnUse">
<stop stop-color="#2563eb"/>
<stop offset="1" stop-color="#2563eb" stop-opacity="0"/>
</linearGradient>
<linearGradient id="paint3_linear_748_161" x1="111.945" y1="275.28" x2="105.208" y2="218.519" gradientUnits="userSpaceOnUse">
<stop stop-color="#2563eb"/>
<stop offset="1" stop-color="#2563eb" stop-opacity="0"/>
</linearGradient>
<linearGradient id="paint4_linear_748_161" x1="188.943" y1="269.371" x2="222.482" y2="206.074" gradientUnits="userSpaceOnUse">
<stop stop-color="#c8d8fa"/>
<stop offset="1" stop-color="#c8d8fa" stop-opacity="0"/>
</linearGradient>
<linearGradient id="paint5_linear_748_161" x1="145.341" y1="349.623" x2="120.653" y2="255.885" gradientUnits="userSpaceOnUse">
<stop stop-color="#c8d8fa"/>
<stop offset="1" stop-color="#c8d8fa" stop-opacity="0"/>
</linearGradient>
<linearGradient id="paint6_linear_748_161" x1="343.5" y1="418" x2="291" y2="258.5" gradientUnits="userSpaceOnUse">
<stop stop-color="#2563eb"/>
<stop offset="1" stop-color="#2563eb" stop-opacity="0"/>
</linearGradient>
<linearGradient id="paint7_linear_748_161" x1="43.6821" y1="330.379" x2="86.117" y2="397.473" gradientUnits="userSpaceOnUse">
<stop stop-color="#c8d8fa"/>
<stop offset="1" stop-color="#c8d8fa" stop-opacity="0"/>
</linearGradient>
<linearGradient id="paint8_linear_748_161" x1="108.01" y1="334.115" x2="108.01" y2="383.087" gradientUnits="userSpaceOnUse">
<stop stop-color="#2563eb"/>
<stop offset="1" stop-color="#2563eb" stop-opacity="0"/>
</linearGradient>
<linearGradient id="paint9_linear_748_161" x1="-9.44022" y1="390.557" x2="98.8798" y2="310.043" gradientUnits="userSpaceOnUse">
<stop stop-color="#c8d8fa"/>
<stop offset="1" stop-color="#c8d8fa" stop-opacity="0"/>
</linearGradient>
<linearGradient id="paint10_linear_748_161" x1="207.615" y1="502.197" x2="207.615" y2="456.13" gradientUnits="userSpaceOnUse">
<stop stop-color="#6B7280"/>
<stop offset="1" stop-color="#6B7280" stop-opacity="0"/>
</linearGradient>
<linearGradient id="paint11_linear_748_161" x1="217.161" y1="464.431" x2="217.161" y2="510.913" gradientUnits="userSpaceOnUse">
<stop stop-color="#6B7280"/>
<stop offset="1" stop-color="#6B7280" stop-opacity="0"/>
</linearGradient>
<linearGradient id="paint12_linear_748_161" x1="62.7873" y1="502.197" x2="62.7873" y2="456.13" gradientUnits="userSpaceOnUse">
<stop stop-color="#6B7280"/>
<stop offset="1" stop-color="#6B7280" stop-opacity="0"/>
</linearGradient>
<linearGradient id="paint13_linear_748_161" x1="72.3331" y1="464.431" x2="72.3331" y2="510.913" gradientUnits="userSpaceOnUse">
<stop stop-color="#6B7280"/>
<stop offset="1" stop-color="#6B7280" stop-opacity="0"/>
</linearGradient>
<radialGradient id="paint14_radial_748_161" cx="0" cy="0" r="1" gradientUnits="userSpaceOnUse" gradientTransform="translate(155.479 290.952) rotate(90) scale(83.0039 184.897)">
<stop stop-color="white"/>
<stop offset="1" stop-color="white" stop-opacity="0"/>
</radialGradient>
<linearGradient id="paint15_linear_748_161" x1="409.317" y1="135.32" x2="300.582" y2="173.502" gradientUnits="userSpaceOnUse">
<stop stop-color="#d6e2fb"/>
<stop offset="1" stop-color="#d6e2fb" stop-opacity="0"/>
</linearGradient>
<linearGradient id="paint16_linear_748_161" x1="371.5" y1="226.538" x2="371.5" y2="179.462" gradientUnits="userSpaceOnUse">
<stop stop-color="#d6e2fb"/>
<stop offset="1" stop-color="#d6e2fb" stop-opacity="0"/>
</linearGradient>
<linearGradient id="paint17_linear_748_161" x1="207" y1="652" x2="352" y2="511" gradientUnits="userSpaceOnUse">
<stop stop-color="#6B7280"/>
<stop offset="1" stop-color="#6B7280" stop-opacity="0"/>
</linearGradient>
<linearGradient id="paint18_linear_748_161" x1="575.738" y1="684.292" x2="578.567" y2="482.059" gradientUnits="userSpaceOnUse">
<stop stop-color="#6B7280"/>
<stop offset="1" stop-color="#6B7280" stop-opacity="0"/>
</linearGradient>
<linearGradient id="paint19_linear_748_161" x1="400.5" y1="164.5" x2="563.8" y2="363.536" gradientUnits="userSpaceOnUse">
<stop stop-color="#111928"/>
<stop offset="1" stop-color="#111928" stop-opacity="0"/>
</linearGradient>
<linearGradient id="paint20_linear_748_161" x1="605.498" y1="-174" x2="476.998" y2="279.5" gradientUnits="userSpaceOnUse">
<stop stop-color="#111928"/>
<stop offset="1" stop-color="#111928" stop-opacity="0"/>
</linearGradient>
<linearGradient id="paint21_linear_748_161" x1="397.5" y1="37.5" x2="473.735" y2="78.8693" gradientUnits="userSpaceOnUse">
<stop stop-color="#c8d8fa"/>
<stop offset="1" stop-color="#c8d8fa" stop-opacity="0"/>
</linearGradient>
<linearGradient id="paint22_linear_748_161" x1="434.5" y1="173" x2="424.339" y2="115.215" gradientUnits="userSpaceOnUse">
<stop stop-color="#c8d8fa"/>
<stop offset="1" stop-color="#c8d8fa" stop-opacity="0"/>
</linearGradient>
<linearGradient id="paint23_linear_748_161" x1="555.26" y1="119.821" x2="526.379" y2="181.761" gradientUnits="userSpaceOnUse">
<stop stop-color="#c8d8fa"/>
<stop offset="1" stop-color="#c8d8fa" stop-opacity="0"/>
</linearGradient>
<linearGradient id="paint24_linear_748_161" x1="573.167" y1="137.877" x2="509.263" y2="237.21" gradientUnits="userSpaceOnUse">
<stop stop-color="#7F270F"/>
<stop offset="1" stop-color="#7F270F" stop-opacity="0"/>
</linearGradient>
<linearGradient id="paint25_linear_748_161" x1="465" y1="14" x2="459.657" y2="60.7044" gradientUnits="userSpaceOnUse">
<stop stop-color="#7F270F"/>
<stop offset="1" stop-color="#7F270F" stop-opacity="0"/>
</linearGradient>
</defs>
</svg>