<svg class="w-auto max-w-[16rem] h-40 text-gray-800 dark:text-white" aria-hidden="true" width="563" height="395" viewBox="0 0 563 395" fill="none" xmlns="http://www.w3.org/2000/svg">
<path d="M563 217C563 315.307 483.307 395 385 395C286.693 395 207 315.307 207 217C207 118.693 286.693 39 385 39C483.307 39 563 118.693 563 217Z" fill="#374151"/>
<path d="M88 15H449V254C449 256.209 447.209 258 445 258H92C89.7909 258 88 256.209 88 254V15Z" fill="#1F2A37"/>
<path d="M88 4C88 1.79086 89.7909 0 92 0H445C447.209 0 449 1.79086 449 4V15H88V4Z" fill="#1F2A37"/>
<path fill-rule="evenodd" clip-rule="evenodd" d="M88 14.5H449V15.5H88V14.5Z" fill="#6B7280"/>
<path d="M103 7C103 8.65685 101.657 10 100 10C98.3431 10 97 8.65685 97 7C97 5.34315 98.3431 4 100 4C101.657 4 103 5.34315 103 7Z" fill="#6B7280"/>
<path d="M114 7C114 8.65685 112.657 10 111 10C109.343 10 108 8.65685 108 7C108 5.34315 109.343 4 111 4C112.657 4 114 5.34315 114 7Z" fill="#6B7280"/>
<path d="M125 7C125 8.65685 123.657 10 122 10C120.343 10 119 8.65685 119 7C119 5.34315 120.343 4 122 4C123.657 4 125 5.34315 125 7Z" fill="#6B7280"/>
<path d="M292 47.76C292 44.5788 294.549 42 297.693 42H416.307C419.451 42 422 44.5788 422 47.76V156.24C422 159.421 419.451 162 416.307 162H297.693C294.549 162 292 159.421 292 156.24V47.76Z" fill="#374151"/>
<path fill-rule="evenodd" clip-rule="evenodd" d="M383 76H331V128H383V76ZM329 74V130H385V74H329Z" fill="#6B7280"/>
<path d="M146 47.76C146 44.5788 148.549 42 151.693 42H270.307C273.451 42 276 44.5788 276 47.76V156.24C276 159.421 273.451 162 270.307 162H151.693C148.549 162 146 159.421 146 156.24V47.76Z" fill="#374151"/>
<path fill-rule="evenodd" clip-rule="evenodd" d="M192.615 83.2132C182.462 93.3668 182.462 109.829 192.615 119.983C202.769 130.136 219.231 130.136 229.385 119.983C239.538 109.829 239.538 93.3668 229.385 83.2132C219.231 73.0596 202.769 73.0596 192.615 83.2132ZM230.799 81.799C219.864 70.8643 202.136 70.8643 191.201 81.799C180.266 92.7337 180.266 110.462 191.201 121.397C202.136 132.332 219.864 132.332 230.799 121.397C241.734 110.462 241.734 92.7337 230.799 81.799Z" fill="#6B7280"/>
<path d="M0 47.76C0 44.5788 2.54904 42 5.69343 42H124.307C127.451 42 130 44.5788 130 47.76V156.24C130 159.421 127.451 162 124.307 162H5.69343C2.54904 162 0 159.421 0 156.24V47.76Z" fill="#374151"/>
<path fill-rule="evenodd" clip-rule="evenodd" d="M101.77 101.598L65 64.8284L28.2304 101.598L65 138.368L101.77 101.598ZM65 62L25.402 101.598L65 141.196L104.598 101.598L65 62Z" fill="#6B7280"/>
<path fill-rule="evenodd" clip-rule="evenodd" d="M473.94 371.221C447.772 386.345 417.397 395 385 395C374.564 395 364.338 394.102 354.395 392.379L358 336.5H467.5L473.94 371.221Z" fill="#2563eb"/>
<path fill-rule="evenodd" clip-rule="evenodd" d="M473.94 371.221C447.772 386.345 417.397 395 385 395C374.564 395 364.338 394.102 354.395 392.379L358 336.5H467.5L473.94 371.221Z" fill="url(#paint0_linear_243_2086)"/>
<path d="M239 130C252.2 136 272.167 156.167 280.5 165.5C278.167 173.667 271.6 186.3 264 171.5C254.5 153 239 160 239 151.5C239 144.7 245.333 142.667 248.5 142.5L238 132L239 130Z" fill="#FDBA8C"/>
<path d="M239 130C252.2 136 272.167 156.167 280.5 165.5C278.167 173.667 271.6 186.3 264 171.5C254.5 153 239 160 239 151.5C239 144.7 245.333 142.667 248.5 142.5L238 132L239 130Z" fill="url(#paint1_linear_243_2086)"/>
<path d="M281.782 162.13C270.085 163.543 259.271 169.801 254.207 173.564C253.481 174.104 253.249 175.056 253.62 175.881C263.957 198.871 287.214 248.307 302.5 273.001C318.1 298.201 345 299.167 356.5 296.501V336.501C356.5 337.605 357.396 338.501 358.5 338.501H466.636C467.873 338.501 468.813 337.389 468.608 336.169L443.5 187.001H404.997C394.136 187.001 383.742 191.417 376.203 199.235L334 243.001L283.653 163.038C283.253 162.401 282.528 162.04 281.782 162.13Z" fill="#F9FAFB"/>
<path d="M281.782 162.13C270.085 163.543 259.271 169.801 254.207 173.564C253.481 174.104 253.249 175.056 253.62 175.881C263.957 198.871 287.214 248.307 302.5 273.001C318.1 298.201 345 299.167 356.5 296.501V336.501C356.5 337.605 357.396 338.501 358.5 338.501H466.636C467.873 338.501 468.813 337.389 468.608 336.169L443.5 187.001H404.997C394.136 187.001 383.742 191.417 376.203 199.235L334 243.001L283.653 163.038C283.253 162.401 282.528 162.04 281.782 162.13Z" fill="url(#paint2_linear_243_2086)" fill-opacity="0.7"/>
<path opacity="0.2" fill-rule="evenodd" clip-rule="evenodd" d="M345.885 230.675L362.565 233.289C364.279 233.557 364.862 235.731 363.512 236.821L349.371 248.233C347.595 249.665 349.218 252.476 351.347 251.655L368.3 245.114C369.919 244.49 371.51 246.082 370.886 247.7L364.345 264.654C363.524 266.782 366.335 268.405 367.768 266.63L379.179 252.489C380.269 251.139 382.443 251.721 382.712 253.435L385.524 271.388C385.877 273.641 389.123 273.641 389.476 271.388L392.288 253.435C392.557 251.721 394.731 251.138 395.821 252.489L407.233 266.63C408.665 268.405 411.476 266.782 410.655 264.654L404.114 247.7C403.49 246.082 405.082 244.49 406.7 245.114L423.654 251.655C425.782 252.476 427.405 249.665 425.63 248.233L411.488 236.821C410.138 235.731 410.721 233.557 412.435 233.289L430.387 230.476C432.641 230.123 432.641 226.877 430.387 226.524L412.435 223.712C410.721 223.443 410.138 221.269 411.488 220.18L425.63 208.768C427.405 207.335 425.782 204.524 423.654 205.345L406.7 211.886C405.082 212.51 403.49 210.919 404.114 209.3L410.655 192.347C411.476 190.218 408.665 188.595 407.233 190.371L395.821 204.512C394.731 205.862 392.557 205.279 392.288 203.565L390.141 189.861C388.162 190.653 386.246 191.603 384.414 192.702L382.712 203.565C382.443 205.279 380.269 205.862 379.179 204.512L375.505 199.958L369.632 206.049L370.886 209.3C371.51 210.919 369.919 212.51 368.3 211.886L365.168 210.678L359.29 216.773L363.512 220.18C364.862 221.269 364.279 223.443 362.565 223.712L350.826 225.551L345.885 230.675Z" fill="#2563eb"/>
<path opacity="0.2" fill-rule="evenodd" clip-rule="evenodd" d="M462.058 297.261L457.82 302.512C456.731 303.862 454.556 303.28 454.288 301.566L451.476 283.613C451.122 281.359 447.877 281.359 447.524 283.613L444.711 301.566C444.443 303.28 442.269 303.862 441.179 302.512L429.767 288.371C428.334 286.596 425.524 288.219 426.345 290.347L432.885 307.301C433.51 308.919 431.918 310.511 430.3 309.886L413.346 303.346C411.218 302.525 409.595 305.335 411.37 306.768L425.511 318.18C426.861 319.27 426.279 321.444 424.565 321.712L406.612 324.525C404.358 324.878 404.358 328.123 406.612 328.477L424.565 331.289C426.279 331.557 426.861 333.732 425.511 334.821L420.952 338.501H466.635C467.872 338.501 468.812 337.389 468.607 336.169L462.058 297.261Z" fill="#2563eb"/>
<path opacity="0.2" fill-rule="evenodd" clip-rule="evenodd" d="M297.869 185.616C297.292 185.582 296.691 185.802 296.232 186.371L284.821 200.512C283.731 201.862 281.557 201.28 281.288 199.566L278.476 181.613C278.123 179.359 274.877 179.359 274.524 181.613L271.712 199.566C271.443 201.28 269.269 201.862 268.179 200.512L260.581 191.097C270.57 212.61 284.899 242.256 296.618 263.006C298.11 264.13 300.407 262.604 299.655 260.654L293.114 243.701C292.49 242.082 294.081 240.49 295.7 241.115L312.654 247.655C314.782 248.477 316.405 245.666 314.629 244.233L300.488 232.821C299.138 231.732 299.721 229.557 301.435 229.289L319.387 226.477C321.641 226.123 321.641 222.878 319.387 222.525L301.435 219.712C299.721 219.444 299.138 217.27 300.488 216.18L311.512 207.284L308.727 202.861L295.7 207.886C294.081 208.511 292.49 206.919 293.114 205.301L299.63 188.412L297.869 185.616Z" fill="#2563eb"/>
<path d="M423 215C425.8 204.6 423.167 191 422 187L407.5 176.5L381.5 117C383 112.167 389.8 101.6 405 98.0005C424 93.5005 433 105.5 439.5 120C446 134.5 450.5 165 473 176.5C495.5 188 509 207 508 235.5C507.356 253.851 514.659 272.138 520.575 283.007C522.114 285.835 520.123 289.5 516.904 289.5H435.391C433.919 289.5 432.552 288.674 431.872 287.368C411.785 248.733 419.563 227.768 423 215Z" fill="#F9FAFB"/>
<path d="M423 215C425.8 204.6 423.167 191 422 187L407.5 176.5L381.5 117C383 112.167 389.8 101.6 405 98.0005C424 93.5005 433 105.5 439.5 120C446 134.5 450.5 165 473 176.5C495.5 188 509 207 508 235.5C507.356 253.851 514.659 272.138 520.575 283.007C522.114 285.835 520.123 289.5 516.904 289.5H435.391C433.919 289.5 432.552 288.674 431.872 287.368C411.785 248.733 419.563 227.768 423 215Z" fill="url(#paint3_linear_243_2086)"/>
<path d="M404.5 187L392 163C394.333 157 401.2 146.9 402 154.5C403 164 408 171.5 414.5 177C418.173 180.108 420.677 184.064 422 187H404.5Z" fill="#FDBA8C"/>
<path d="M404.5 187L392 163C394.333 157 401.2 146.9 402 154.5C403 164 408 171.5 414.5 177C418.173 180.108 420.677 184.064 422 187H404.5Z" fill="url(#paint4_linear_243_2086)"/>
<path d="M399 138.5L387 120.5C382.167 125.833 372.6 139.1 373 149.5C373.5 162.5 378.5 169 391 164.5C399.529 161.43 406.967 152.565 410.832 145.783C411.972 143.783 411.748 141.337 410.497 139.404C408.532 136.367 404.543 135.382 401.391 137.156L399 138.5Z" fill="#FDBA8C"/>
<path d="M399 138.5L387 120.5C382.167 125.833 372.6 139.1 373 149.5C373.5 162.5 378.5 169 391 164.5C399.529 161.43 406.967 152.565 410.832 145.783C411.972 143.783 411.748 141.337 410.497 139.404C408.532 136.367 404.543 135.382 401.391 137.156L399 138.5Z" fill="url(#paint5_linear_243_2086)"/>
<path fill-rule="evenodd" clip-rule="evenodd" d="M379.02 155.757C379.923 155.543 380.857 155.16 382.277 154.537C382.646 154.376 383.076 154.543 383.238 154.912C383.399 155.281 383.231 155.711 382.863 155.873C381.455 156.49 380.406 156.927 379.357 157.176C378.287 157.43 377.247 157.483 375.844 157.387C375.442 157.36 375.139 157.012 375.166 156.611C375.193 156.209 375.541 155.905 375.943 155.933C377.252 156.022 378.136 155.967 379.02 155.757Z" fill="#111928"/>
<path fill-rule="evenodd" clip-rule="evenodd" d="M374.573 338.5C393.66 312.621 399.596 274.23 400 255C386.4 277.4 365.333 292 356.5 296.5C356.5 296.5 356.5 296.5 356.5 296.5C356.5 296.5 356.5 296.5 356.5 296.5V338.5H374.573Z" fill="url(#paint6_linear_243_2086)"/>
<path fill-rule="evenodd" clip-rule="evenodd" d="M405.831 145.169C406.247 144.181 406.18 143.203 405.925 142.193C405.827 141.803 406.063 141.406 406.454 141.308C406.844 141.209 407.24 141.446 407.339 141.836C407.634 143.002 407.763 144.339 407.174 145.736C406.588 147.125 405.342 148.455 403.132 149.726C402.783 149.927 402.337 149.806 402.136 149.457C401.936 149.108 402.056 148.663 402.405 148.462C404.451 147.285 405.411 146.164 405.831 145.169Z" fill="#111928"/>
<path fill-rule="evenodd" clip-rule="evenodd" d="M406.465 136.496C404.808 136.067 402.991 136.256 401.39 137.157L399 138.501C399 138.501 399 138.501 399 138.501L385.563 133.027L387 127.001L406.465 136.496Z" fill="#111928"/>
<path d="M388.54 118.087C386.95 116.209 378.646 115.284 373.528 114.791C371.737 114.619 370.04 115.662 369.402 117.344C365.297 128.158 363.768 134.581 362.825 141.439C362.611 142.996 363.343 144.553 364.612 145.48L364.75 145.581C368.189 148.097 373.949 152.31 377.42 151.945C382.98 151.362 391.012 121.006 388.54 118.087Z" fill="#c8d8fa"/>
<path d="M388.54 118.087C386.95 116.209 378.646 115.284 373.528 114.791C371.737 114.619 370.04 115.662 369.402 117.344C365.297 128.158 363.768 134.581 362.825 141.439C362.611 142.996 363.343 144.553 364.612 145.48L364.75 145.581C368.189 148.097 373.949 152.31 377.42 151.945C382.98 151.362 391.012 121.006 388.54 118.087Z" fill="url(#paint7_linear_243_2086)"/>
<path d="M381.5 118C380.331 116.539 376.603 115.523 373.508 114.952C371.67 114.612 369.827 115.466 368.909 117.095C363.968 125.869 362.566 135.718 362.456 141.46C362.425 143.059 363.289 144.53 364.734 145.213C366.937 146.253 369.959 147.282 372.5 147C377 146.5 383.5 120.5 381.5 118Z" fill="#2563eb"/>
<path d="M381.5 118C380.331 116.539 376.603 115.523 373.508 114.952C371.67 114.612 369.827 115.466 368.909 117.095C363.968 125.869 362.566 135.718 362.456 141.46C362.425 143.059 363.289 144.53 364.734 145.213C366.937 146.253 369.959 147.282 372.5 147C377 146.5 383.5 120.5 381.5 118Z" fill="url(#paint8_linear_243_2086)"/>
<defs>
<linearGradient id="paint0_linear_243_2086" x1="416.5" y1="226.5" x2="416.5" y2="398.5" gradientUnits="userSpaceOnUse">
<stop stop-color="#111928"/>
<stop offset="1" stop-color="#111928" stop-opacity="0"/>
</linearGradient>
<linearGradient id="paint1_linear_243_2086" x1="304.5" y1="226" x2="253.5" y2="140" gradientUnits="userSpaceOnUse">
<stop stop-color="#7F270F"/>
<stop offset="0.83338" stop-color="#7F270F" stop-opacity="0"/>
</linearGradient>
<linearGradient id="paint2_linear_243_2086" x1="460" y1="376.501" x2="308.5" y2="256.001" gradientUnits="userSpaceOnUse">
<stop stop-color="#c8d8fa"/>
<stop offset="1" stop-color="#c8d8fa" stop-opacity="0"/>
</linearGradient>
<linearGradient id="paint3_linear_243_2086" x1="453" y1="48.5005" x2="453" y2="172.5" gradientUnits="userSpaceOnUse">
<stop stop-color="#c8d8fa"/>
<stop offset="1" stop-color="#c8d8fa" stop-opacity="0"/>
</linearGradient>
<linearGradient id="paint4_linear_243_2086" x1="408" y1="118" x2="408" y2="187" gradientUnits="userSpaceOnUse">
<stop stop-color="#7F270F"/>
<stop offset="0.83338" stop-color="#7F270F" stop-opacity="0"/>
</linearGradient>
<linearGradient id="paint5_linear_243_2086" x1="394.061" y1="76.942" x2="394.061" y2="165.922" gradientUnits="userSpaceOnUse">
<stop stop-color="#7F270F"/>
<stop offset="0.83338" stop-color="#7F270F" stop-opacity="0"/>
</linearGradient>
<linearGradient id="paint6_linear_243_2086" x1="284" y1="263.5" x2="382" y2="302.5" gradientUnits="userSpaceOnUse">
<stop stop-color="#2563eb"/>
<stop offset="1" stop-color="#2563eb" stop-opacity="0"/>
</linearGradient>
<linearGradient id="paint7_linear_243_2086" x1="362" y1="152.001" x2="389" y2="136.001" gradientUnits="userSpaceOnUse">
<stop stop-color="#d6e2fb"/>
<stop offset="1" stop-color="#d6e2fb" stop-opacity="0"/>
</linearGradient>
<linearGradient id="paint8_linear_243_2086" x1="387.5" y1="88.5002" x2="372.16" y2="147.048" gradientUnits="userSpaceOnUse">
<stop stop-color="#111928"/>
<stop offset="1" stop-color="#111928" stop-opacity="0"/>
</linearGradient>
</defs>
</svg>