<svg class="w-auto max-w-[16rem] h-40 text-gray-800 dark:text-white" aria-hidden="true" width="485" height="480" viewBox="0 0 485 480" fill="none" xmlns="http://www.w3.org/2000/svg">
<path d="M64.5 120C45.7 147.6 36.3333 194.833 34 215C44.8333 225.667 67.5 237.5 71.5 199.5C75.5 161.5 68.5 130.667 64.5 120Z" fill="#d6e2fb"/>
<path d="M64.5 120C45.7 147.6 36.3333 194.833 34 215C44.8333 225.667 67.5 237.5 71.5 199.5C75.5 161.5 68.5 130.667 64.5 120Z" fill="url(#paint0_linear_344_2328)"/>
<path d="M112.5 106C93.7 133.6 84.3333 180.833 82 201C92.8333 211.667 115.5 223.5 119.5 185.5C123.5 147.5 116.5 116.667 112.5 106Z" fill="#d6e2fb"/>
<path d="M112.5 106C93.7 133.6 84.3333 180.833 82 201C92.8333 211.667 115.5 223.5 119.5 185.5C123.5 147.5 116.5 116.667 112.5 106Z" fill="url(#paint1_linear_344_2328)"/>
<path d="M162.999 103C149.799 124.6 154.499 137.667 158.499 141.5L235.999 161.5C273.166 159.167 347.599 151.1 347.999 137.5C348.499 120.5 341.999 91.5 312.499 82.5C282.999 73.5 279.999 57.0001 268.499 29.0001C256.999 1.0001 205.499 -13.9999 177.499 19.0001C149.499 52.0001 179.499 76.0001 162.999 103Z" fill="#374151"/>
<path d="M366.5 137C333.7 108.2 298.833 103.333 288 105.499L198.5 133L252 168.5L379.5 308.5L448 252C437 229 407.5 173 366.5 137Z" fill="#F9FAFB"/>
<path d="M366.5 137C333.7 108.2 298.833 103.333 288 105.499L198.5 133L252 168.5L379.5 308.5L448 252C437 229 407.5 173 366.5 137Z" fill="url(#paint2_linear_344_2328)"/>
<path d="M366.5 137C333.7 108.2 298.833 103.333 288 105.499L198.5 133L252 168.5L379.5 308.5L448 252C437 229 407.5 173 366.5 137Z" fill="url(#paint3_linear_344_2328)"/>
<path fill-rule="evenodd" clip-rule="evenodd" d="M299.297 105.358C297.444 129.991 285.373 147.029 279.177 152.736L277.822 151.264C283.68 145.869 295.497 129.284 297.305 105.188C297.949 105.233 298.613 105.289 299.297 105.358Z" fill="#c8d8fa"/>
<path d="M269 146L228.672 99.6369L238.202 73.2159L288 105.5C288 127.5 274.459 141.744 269 146Z" fill="#FDBA8C"/>
<path d="M269 146L228.672 99.6369L238.202 73.2159L288 105.5C288 127.5 274.459 141.744 269 146Z" fill="url(#paint4_linear_344_2328)"/>
<path d="M236.394 47.9263C242.771 49.2846 248.289 94.3564 221.436 104.406C212.155 107.88 203.774 101.788 196.794 91.9237C196.274 91.1891 196.036 92.5225 195.532 91.7484C195.041 90.9937 194.282 88.1324 193.806 87.3446C186.149 74.6797 180.5 58.0356 177.654 46.6321C182.815 47.0811 195.052 49.9803 202.712 57.9847C212.287 67.9902 223.213 67.0665 225.481 60.2337C227.924 52.8745 230.018 46.5681 236.394 47.9263Z" fill="#FDBA8C"/>
<path fill-rule="evenodd" clip-rule="evenodd" d="M188.875 74.701C189.493 74.4987 190.158 74.8358 190.36 75.4539L195.401 90.8525C195.491 91.1275 195.811 91.2498 196.061 91.1047L202.067 87.6241C202.63 87.2979 203.35 87.4897 203.676 88.0524C204.002 88.6151 203.811 89.3357 203.248 89.6618L197.242 93.1425C195.696 94.0384 193.718 93.2833 193.162 91.5852L188.122 76.1866C187.92 75.5685 188.257 74.9034 188.875 74.701Z" fill="#111928"/>
<path fill-rule="evenodd" clip-rule="evenodd" d="M209.5 101.5C206.5 100 204.805 99.1242 201.84 96.0749L214.248 85.7473C215 93.5 212.5 97.5 209.5 101.5Z" fill="white"/>
<path fill-rule="evenodd" clip-rule="evenodd" d="M236.038 60.4981C235.925 58.7705 235.12 57.4057 234.021 56.1328C233.595 55.6406 233.65 54.8969 234.142 54.4718C234.634 54.0467 235.378 54.1011 235.803 54.5934C237.073 56.0636 238.228 57.9008 238.389 60.3433C238.549 62.7732 237.712 65.5971 235.442 69.0321C235.083 69.5747 234.352 69.7238 233.81 69.3652C233.267 69.0066 233.118 68.276 233.477 67.7334C235.579 64.5528 236.153 62.2384 236.038 60.4981Z" fill="#111928"/>
<path d="M201.49 71.902C202.012 73.0094 201.537 74.33 200.429 74.8517C199.322 75.3734 198.001 74.8986 197.48 73.7912C196.958 72.6838 197.433 71.3632 198.54 70.8415C199.648 70.3198 200.968 70.7946 201.49 71.902Z" fill="#111928"/>
<path fill-rule="evenodd" clip-rule="evenodd" d="M197.699 64.4606C196.167 64.7891 195.05 65.689 194.055 66.8402C193.67 67.2854 192.997 67.3342 192.552 66.9492C192.106 66.5642 192.058 65.8912 192.443 65.446C193.592 64.1163 195.086 62.841 197.252 62.3765C199.407 61.9145 202.045 62.2931 205.419 63.8754C205.951 64.1253 206.181 64.7599 205.931 65.2928C205.681 65.8257 205.046 66.0551 204.513 65.8052C201.39 64.3401 199.242 64.1297 197.699 64.4606Z" fill="#111928"/>
<circle cx="208.5" cy="303.5" r="176.5" fill="#d6e2fb"/>
<circle cx="208.5" cy="303.5" r="176.5" fill="url(#paint5_linear_344_2328)"/>
<path fill-rule="evenodd" clip-rule="evenodd" d="M357.51 398.138C374.916 370.788 385 338.322 385 303.5C385 277.572 379.409 252.95 369.368 230.773C367.253 231.244 364.894 231.94 362.433 232.666C358.687 233.771 354.706 234.945 351 235.501C344.7 236.446 341.972 235.207 337.189 233.036C334.381 231.762 330.864 230.165 325.5 228.501C313.765 224.859 297.116 231.697 287.219 235.762C284.887 236.72 282.93 237.524 281.5 238.001C277.089 239.471 275.099 243.709 272.479 249.291C270.644 253.198 268.501 257.765 265 262.501C259.455 270.002 261.57 277.079 263.433 283.313C264.426 286.636 265.348 289.719 265 292.501C264 300.501 266 311 281.5 312.5C287.945 313.124 295.428 312.364 302.726 311.623C312.979 310.583 322.866 309.579 329 312.5C338.956 317.241 339.472 338.163 339.925 356.515C339.937 357.011 339.949 357.505 339.962 357.998C339.974 358.501 339.987 359.002 340 359.501C340.34 372.411 350.323 388.64 357.51 398.138ZM307.871 157.611C331.939 174.036 351.732 196.261 365.24 222.274C360.165 220.431 353.007 215.606 351 214.001C349.397 212.718 346.15 208.763 343.63 205.695C342.22 203.978 341.038 202.539 340.5 202.001C339 200.501 331 200.501 330 202.001C329.923 202.116 329.844 202.228 329.765 202.339C328.82 203.669 328.038 204.769 334.5 208.001C341.5 211.501 343 220.001 339.5 222.001C336.362 223.794 336.44 219.557 336.489 216.86V216.858V216.856V216.854V216.853V216.851C336.495 216.544 336.5 216.256 336.5 216.001C336.5 213.501 325.5 204.5 321 203.5C317.512 202.725 312.821 205.856 309.258 208.235C308.225 208.925 307.287 209.551 306.5 210.001C304.887 210.923 302.423 213.97 299.747 217.28C296.617 221.152 293.195 225.384 290.5 227.001C285.5 230.001 280 226.001 281.5 220.001C282.591 215.638 287.382 213.655 291.069 212.128C292.453 211.555 293.681 211.046 294.5 210.501C296.585 209.111 296.497 206.756 296.417 204.609C296.381 203.666 296.348 202.763 296.5 202.001C296.73 200.853 298.644 199.601 300.794 198.194C303.328 196.536 306.189 194.665 307 192.501C308.5 188.501 310.5 187.501 311.5 187.001C311.936 186.783 312.562 186.66 313.336 186.508C314.338 186.311 315.59 186.065 317 185.501C319.5 184.501 322.5 180.5 322.5 176.501C322.5 172.501 312.5 165.501 312.5 167.501C312.5 167.975 312.584 168.757 312.68 169.643C312.986 172.494 313.408 176.408 311.5 174.501C309 172.001 308.5 164.501 309 161.501C309.165 160.511 308.656 159.09 307.871 157.611ZM115.424 153.508C116.318 154.067 117.104 154.8 117.907 155.547C119.721 157.237 121.615 159.001 125 159.001C127.517 159.001 129.433 158.476 131.041 158.036C133.586 157.34 135.355 156.856 137.5 159.001C139.446 160.947 137.373 162.738 135.579 164.289C134.146 165.527 132.89 166.613 134 167.501C136.006 169.106 140.589 166.203 144.129 163.96L144.129 163.96C145.001 163.408 145.809 162.896 146.5 162.501C148.079 161.598 148.64 159.577 149.194 157.584C149.868 155.159 150.53 152.775 153 152.501C155.423 152.231 157.266 155.731 158.998 159.019C160.482 161.838 161.885 164.501 163.5 164.501C164.778 164.501 166.122 164.234 167.339 163.993C169.454 163.574 171.183 163.231 171.5 164.501C171.75 165.501 169.75 166.751 167.25 168.313C164.75 169.876 161.75 171.751 160 174.001C157.078 177.757 149.279 181.514 143.291 184.398C142.106 184.968 140.992 185.505 140 186.001C134 189.001 132.5 195.001 140 198.5C147.5 202 154.5 198.5 160 195.001C162.786 193.228 163.776 189.531 164.724 185.989C165.648 182.538 166.533 179.234 169 178C174 175.5 175 175.5 182 180.5C186.194 183.496 187.696 182.902 189.301 182.267C190.375 181.842 191.496 181.399 193.5 182C198.5 183.5 204.5 198 201.5 198.5C200.099 198.734 199.788 199.841 199.448 201.055C199.059 202.441 198.631 203.967 196.5 204.5C192.5 205.5 189 206 185 203.5C181 201 176 202 175 204.5C174.655 205.364 174.966 206.824 175.294 208.366C175.916 211.287 176.6 214.5 173 214.5C167.5 214.5 154.5 221.5 154.5 235.5C154.5 243.27 147.571 246.727 140.89 250.061C135.533 252.734 130.335 255.327 129 260C126 270.5 125.5 271 121.5 267.5C117.5 264.001 104.5 264 97.5002 266.5C90.5002 269 74.5002 294.5 89.5002 295.5C98.6472 296.11 99.7993 293.187 100.78 290.7C101.407 289.108 101.964 287.695 104.5 287.5C107.66 287.257 107.748 288.786 107.865 290.824C107.989 292.978 108.146 295.701 112 297.5C119.5 301 121.5 306.5 122.5 312.5C123.5 318.5 132 315 137.5 311C141.033 308.431 144.153 309.162 147.788 310.014C149.812 310.488 151.996 311 154.5 311C156.732 311 159.421 310.644 162.227 310.273C168.223 309.48 174.754 308.616 178.5 311C178.75 311.159 178.999 311.318 179.248 311.477C184.476 314.818 189.705 318.159 204.5 321.5C212.911 323.399 212.783 330.745 212.584 342.18C212.416 351.819 212.198 364.363 217 379C227.181 410.026 221.38 412.38 210.991 416.597C210.665 416.729 210.335 416.863 210 417C209.489 417.209 208.99 417.412 208.503 417.609L208.49 417.615C198.494 421.671 193.43 423.726 192 438.5C191.16 447.178 194.709 455.699 197.205 461.694C199.168 466.408 200.481 469.56 198.5 470C194 471 179 464 178.5 454C178.15 447 177.065 445.145 173.873 439.688C172.505 437.349 170.75 434.35 168.5 430C162.624 418.639 162.886 411.575 163.276 401.112L163.276 401.112C163.383 398.221 163.5 395.072 163.5 391.5C163.5 375 157.5 367 137.5 356.5C125.632 350.269 128.025 343.686 130.053 338.109C131.442 334.288 132.659 330.94 129 328.5C120 322.5 111.5 316 109 311C106.5 306 100.5 306 85.0002 307.5C69.5002 309 65.5002 298 65.5002 289C65.5002 280 49.0002 260.5 46.5002 267.5C45.1581 271.258 48.427 276.169 51.2789 280.453C53.7395 284.149 55.8897 287.379 54.5002 289C52.1217 291.775 39.3983 286.268 33.168 283.086C38.6176 235.768 62.7808 194.145 98.0684 165.807C106.079 169.954 118.059 168.965 120.5 167.501C123 166.001 117 164.501 113 164.501C110.282 164.501 108.025 162.653 106.388 161.313C105.942 160.948 105.542 160.62 105.191 160.378C108.517 157.973 111.93 155.681 115.424 153.508ZM201.5 165.501C201.667 162.501 200.3 156.101 193.5 154.501C191.627 154.06 189.851 153.619 188.182 153.205C182.281 151.74 177.729 150.611 175 151.001C171.5 151.501 176 156.999 180.5 158C181.4 158.2 182.24 158.34 183.008 158.468C186.08 158.981 188 159.301 188 162.501C188 164.17 186.955 166.014 185.955 167.778C184.559 170.239 183.252 172.545 185 174.001C188 176.5 199.5 173.001 201.5 165.501ZM291 174.501C290.6 173.301 289.167 173.334 288.5 173.501C287.465 174.191 287.621 175.119 287.816 176.286C287.904 176.81 288 177.381 288 178.001C288 179.86 289.729 182.151 291.177 184.071L291.185 184.082C291.292 184.224 291.397 184.363 291.5 184.501C292.82 186.26 291.43 188.794 290.737 190.059C290.642 190.231 290.56 190.38 290.5 190.501C290 191.501 292.5 193.501 294.5 193.501C296.5 193.501 300 190.501 300 188.501C300 187.331 297.266 184.624 294.795 182.177C293.039 180.439 291.416 178.831 291 178.001C290.44 176.881 290.664 176.388 290.882 175.908C291.053 175.531 291.22 175.161 291 174.501ZM280.5 193.501C281.333 192.667 282.9 190.701 282.5 189.501C282 188.001 279.5 187.001 278.5 187.001C277.5 187.001 276 190.001 276 191.501C276 193.001 279 195.001 280.5 193.501ZM201 207.001C202.2 206.601 204.5 207.167 205.5 207.501C210.5 209.001 207.5 214.001 205.5 214.001C203.5 214.001 199.5 207.501 201 207.001Z" fill="#9ab7f6"/>
<path fill-rule="evenodd" clip-rule="evenodd" d="M357.51 398.138C374.916 370.788 385 338.322 385 303.5C385 277.572 379.409 252.95 369.368 230.773C367.253 231.244 364.894 231.94 362.433 232.666C358.687 233.771 354.706 234.945 351 235.501C344.7 236.446 341.972 235.207 337.189 233.036C334.381 231.762 330.864 230.165 325.5 228.501C313.765 224.859 297.116 231.697 287.219 235.762C284.887 236.72 282.93 237.524 281.5 238.001C277.089 239.471 275.099 243.709 272.479 249.291C270.644 253.198 268.501 257.765 265 262.501C259.455 270.002 261.57 277.079 263.433 283.313C264.426 286.636 265.348 289.719 265 292.501C264 300.501 266 311 281.5 312.5C287.945 313.124 295.428 312.364 302.726 311.623C312.979 310.583 322.866 309.579 329 312.5C338.956 317.241 339.472 338.163 339.925 356.515C339.937 357.011 339.949 357.505 339.962 357.998C339.974 358.501 339.987 359.002 340 359.501C340.34 372.411 350.323 388.64 357.51 398.138ZM307.871 157.611C331.939 174.036 351.732 196.261 365.24 222.274C360.165 220.431 353.007 215.606 351 214.001C349.397 212.718 346.15 208.763 343.63 205.695C342.22 203.978 341.038 202.539 340.5 202.001C339 200.501 331 200.501 330 202.001C329.923 202.116 329.844 202.228 329.765 202.339C328.82 203.669 328.038 204.769 334.5 208.001C341.5 211.501 343 220.001 339.5 222.001C336.362 223.794 336.44 219.557 336.489 216.86V216.858V216.856V216.854V216.853V216.851C336.495 216.544 336.5 216.256 336.5 216.001C336.5 213.501 325.5 204.5 321 203.5C317.512 202.725 312.821 205.856 309.258 208.235C308.225 208.925 307.287 209.551 306.5 210.001C304.887 210.923 302.423 213.97 299.747 217.28C296.617 221.152 293.195 225.384 290.5 227.001C285.5 230.001 280 226.001 281.5 220.001C282.591 215.638 287.382 213.655 291.069 212.128C292.453 211.555 293.681 211.046 294.5 210.501C296.585 209.111 296.497 206.756 296.417 204.609C296.381 203.666 296.348 202.763 296.5 202.001C296.73 200.853 298.644 199.601 300.794 198.194C303.328 196.536 306.189 194.665 307 192.501C308.5 188.501 310.5 187.501 311.5 187.001C311.936 186.783 312.562 186.66 313.336 186.508C314.338 186.311 315.59 186.065 317 185.501C319.5 184.501 322.5 180.5 322.5 176.501C322.5 172.501 312.5 165.501 312.5 167.501C312.5 167.975 312.584 168.757 312.68 169.643C312.986 172.494 313.408 176.408 311.5 174.501C309 172.001 308.5 164.501 309 161.501C309.165 160.511 308.656 159.09 307.871 157.611ZM115.424 153.508C116.318 154.067 117.104 154.8 117.907 155.547C119.721 157.237 121.615 159.001 125 159.001C127.517 159.001 129.433 158.476 131.041 158.036C133.586 157.34 135.355 156.856 137.5 159.001C139.446 160.947 137.373 162.738 135.579 164.289C134.146 165.527 132.89 166.613 134 167.501C136.006 169.106 140.589 166.203 144.129 163.96L144.129 163.96C145.001 163.408 145.809 162.896 146.5 162.501C148.079 161.598 148.64 159.577 149.194 157.584C149.868 155.159 150.53 152.775 153 152.501C155.423 152.231 157.266 155.731 158.998 159.019C160.482 161.838 161.885 164.501 163.5 164.501C164.778 164.501 166.122 164.234 167.339 163.993C169.454 163.574 171.183 163.231 171.5 164.501C171.75 165.501 169.75 166.751 167.25 168.313C164.75 169.876 161.75 171.751 160 174.001C157.078 177.757 149.279 181.514 143.291 184.398C142.106 184.968 140.992 185.505 140 186.001C134 189.001 132.5 195.001 140 198.5C147.5 202 154.5 198.5 160 195.001C162.786 193.228 163.776 189.531 164.724 185.989C165.648 182.538 166.533 179.234 169 178C174 175.5 175 175.5 182 180.5C186.194 183.496 187.696 182.902 189.301 182.267C190.375 181.842 191.496 181.399 193.5 182C198.5 183.5 204.5 198 201.5 198.5C200.099 198.734 199.788 199.841 199.448 201.055C199.059 202.441 198.631 203.967 196.5 204.5C192.5 205.5 189 206 185 203.5C181 201 176 202 175 204.5C174.655 205.364 174.966 206.824 175.294 208.366C175.916 211.287 176.6 214.5 173 214.5C167.5 214.5 154.5 221.5 154.5 235.5C154.5 243.27 147.571 246.727 140.89 250.061C135.533 252.734 130.335 255.327 129 260C126 270.5 125.5 271 121.5 267.5C117.5 264.001 104.5 264 97.5002 266.5C90.5002 269 74.5002 294.5 89.5002 295.5C98.6472 296.11 99.7993 293.187 100.78 290.7C101.407 289.108 101.964 287.695 104.5 287.5C107.66 287.257 107.748 288.786 107.865 290.824C107.989 292.978 108.146 295.701 112 297.5C119.5 301 121.5 306.5 122.5 312.5C123.5 318.5 132 315 137.5 311C141.033 308.431 144.153 309.162 147.788 310.014C149.812 310.488 151.996 311 154.5 311C156.732 311 159.421 310.644 162.227 310.273C168.223 309.48 174.754 308.616 178.5 311C178.75 311.159 178.999 311.318 179.248 311.477C184.476 314.818 189.705 318.159 204.5 321.5C212.911 323.399 212.783 330.745 212.584 342.18C212.416 351.819 212.198 364.363 217 379C227.181 410.026 221.38 412.38 210.991 416.597C210.665 416.729 210.335 416.863 210 417C209.489 417.209 208.99 417.412 208.503 417.609L208.49 417.615C198.494 421.671 193.43 423.726 192 438.5C191.16 447.178 194.709 455.699 197.205 461.694C199.168 466.408 200.481 469.56 198.5 470C194 471 179 464 178.5 454C178.15 447 177.065 445.145 173.873 439.688C172.505 437.349 170.75 434.35 168.5 430C162.624 418.639 162.886 411.575 163.276 401.112L163.276 401.112C163.383 398.221 163.5 395.072 163.5 391.5C163.5 375 157.5 367 137.5 356.5C125.632 350.269 128.025 343.686 130.053 338.109C131.442 334.288 132.659 330.94 129 328.5C120 322.5 111.5 316 109 311C106.5 306 100.5 306 85.0002 307.5C69.5002 309 65.5002 298 65.5002 289C65.5002 280 49.0002 260.5 46.5002 267.5C45.1581 271.258 48.427 276.169 51.2789 280.453C53.7395 284.149 55.8897 287.379 54.5002 289C52.1217 291.775 39.3983 286.268 33.168 283.086C38.6176 235.768 62.7808 194.145 98.0684 165.807C106.079 169.954 118.059 168.965 120.5 167.501C123 166.001 117 164.501 113 164.501C110.282 164.501 108.025 162.653 106.388 161.313C105.942 160.948 105.542 160.62 105.191 160.378C108.517 157.973 111.93 155.681 115.424 153.508ZM201.5 165.501C201.667 162.501 200.3 156.101 193.5 154.501C191.627 154.06 189.851 153.619 188.182 153.205C182.281 151.74 177.729 150.611 175 151.001C171.5 151.501 176 156.999 180.5 158C181.4 158.2 182.24 158.34 183.008 158.468C186.08 158.981 188 159.301 188 162.501C188 164.17 186.955 166.014 185.955 167.778C184.559 170.239 183.252 172.545 185 174.001C188 176.5 199.5 173.001 201.5 165.501ZM291 174.501C290.6 173.301 289.167 173.334 288.5 173.501C287.465 174.191 287.621 175.119 287.816 176.286C287.904 176.81 288 177.381 288 178.001C288 179.86 289.729 182.151 291.177 184.071L291.185 184.082C291.292 184.224 291.397 184.363 291.5 184.501C292.82 186.26 291.43 188.794 290.737 190.059C290.642 190.231 290.56 190.38 290.5 190.501C290 191.501 292.5 193.501 294.5 193.501C296.5 193.501 300 190.501 300 188.501C300 187.331 297.266 184.624 294.795 182.177C293.039 180.439 291.416 178.831 291 178.001C290.44 176.881 290.664 176.388 290.882 175.908C291.053 175.531 291.22 175.161 291 174.501ZM280.5 193.501C281.333 192.667 282.9 190.701 282.5 189.501C282 188.001 279.5 187.001 278.5 187.001C277.5 187.001 276 190.001 276 191.501C276 193.001 279 195.001 280.5 193.501ZM201 207.001C202.2 206.601 204.5 207.167 205.5 207.501C210.5 209.001 207.5 214.001 205.5 214.001C203.5 214.001 199.5 207.501 201 207.001Z" fill="url(#paint6_linear_344_2328)"/>
<path d="M93.549 340.213C67.8822 327.93 54.9683 315.73 51.7197 311.165C36.8279 310.058 12.2186 312.804 32.9152 332.652C58.786 357.461 84.6875 368.754 95.3057 368.442C105.924 368.13 125.633 355.568 93.549 340.213Z" fill="#FDBA8C"/>
<path d="M93.549 340.213C67.8822 327.93 54.9683 315.73 51.7197 311.165C36.8279 310.058 12.2186 312.804 32.9152 332.652C58.786 357.461 84.6875 368.754 95.3057 368.442C105.924 368.13 125.633 355.568 93.549 340.213Z" fill="url(#paint7_linear_344_2328)"/>
<path d="M93.549 340.213C67.8822 327.93 54.9683 315.73 51.7197 311.165C36.8279 310.058 12.2186 312.804 32.9152 332.652C58.786 357.461 84.6875 368.754 95.3057 368.442C105.924 368.13 125.633 355.568 93.549 340.213Z" fill="url(#paint8_linear_344_2328)"/>
<path d="M94.9993 168.5C52.9993 209.5 40.0986 242.102 34.7128 272.5L57.6831 304.368C58.1735 305.048 58.1882 305.954 57.7456 306.667C53.3972 313.666 44.7156 331.885 38.684 358.846C38.3601 360.294 36.6444 360.914 35.5371 359.926C23.1347 348.862 2.12107 321.263 0.999385 283.5C-0.500615 233 60.9995 189.5 94.9993 168.5Z" fill="#F9FAFB"/>
<path d="M94.9993 168.5C52.9993 209.5 40.0986 242.102 34.7128 272.5L57.6831 304.368C58.1735 305.048 58.1882 305.954 57.7456 306.667C53.3972 313.666 44.7156 331.885 38.684 358.846C38.3601 360.294 36.6444 360.914 35.5371 359.926C23.1347 348.862 2.12107 321.263 0.999385 283.5C-0.500615 233 60.9995 189.5 94.9993 168.5Z" fill="url(#paint9_linear_344_2328)"/>
<path fill-rule="evenodd" clip-rule="evenodd" d="M26.141 349.968C25.6242 349.333 25.1048 348.681 24.584 348.01C26.5878 340.409 29.5263 330.688 33.1406 321.158C37.4207 309.872 42.6971 298.72 48.5645 291.716L49.7729 293.392C44.2769 300.126 39.2089 310.797 35.0106 321.867C31.1898 331.942 28.1281 342.24 26.141 349.968Z" fill="#c8d8fa"/>
<path d="M324.5 238C305.7 265.6 296.333 312.833 294 333C304.833 343.667 327.5 355.5 331.5 317.5C335.5 279.5 328.5 248.667 324.5 238Z" fill="#d6e2fb"/>
<path d="M324.5 238C305.7 265.6 296.333 312.833 294 333C304.833 343.667 327.5 355.5 331.5 317.5C335.5 279.5 328.5 248.667 324.5 238Z" fill="url(#paint10_linear_344_2328)"/>
<path d="M376.5 201C357.7 228.6 348.333 275.833 346 296C356.833 306.667 379.5 318.5 383.5 280.5C387.5 242.5 380.5 211.667 376.5 201Z" fill="#d6e2fb"/>
<path d="M376.5 201C357.7 228.6 348.333 275.833 346 296C356.833 306.667 379.5 318.5 383.5 280.5C387.5 242.5 380.5 211.667 376.5 201Z" fill="url(#paint11_linear_344_2328)"/>
<path d="M116.5 350.5C148.9 354.9 169 351.333 175 349C190 357.333 211.9 375.5 179.5 381.5C139 389 107 383.5 96.9996 376.5C86.9996 369.5 75.9996 345 116.5 350.5Z" fill="#FDBA8C"/>
<path d="M116.5 350.5C148.9 354.9 169 351.333 175 349C190 357.333 211.9 375.5 179.5 381.5C139 389 107 383.5 96.9996 376.5C86.9996 369.5 75.9996 345 116.5 350.5Z" fill="url(#paint12_linear_344_2328)"/>
<path d="M182.134 406.905L171.794 347.684C171.625 346.714 172.186 345.766 173.117 345.447L448 251.5C467.077 296.188 441.334 347.291 394.069 358.56L184.568 408.507C183.447 408.774 182.333 408.041 182.134 406.905Z" fill="#F9FAFB"/>
<path d="M182.134 406.905L171.794 347.684C171.625 346.714 172.186 345.766 173.117 345.447L448 251.5C467.077 296.188 441.334 347.291 394.069 358.56L184.568 408.507C183.447 408.774 182.333 408.041 182.134 406.905Z" fill="url(#paint13_linear_344_2328)"/>
<path fill-rule="evenodd" clip-rule="evenodd" d="M201.794 404.4L199.845 404.865L188.461 340.203L190.376 339.549L201.794 404.4Z" fill="#c8d8fa"/>
<defs>
<linearGradient id="paint0_linear_344_2328" x1="53.402" y1="260.203" x2="54.1068" y2="166.341" gradientUnits="userSpaceOnUse">
<stop stop-color="#9ab7f6"/>
<stop offset="1" stop-color="#9ab7f6" stop-opacity="0"/>
</linearGradient>
<linearGradient id="paint1_linear_344_2328" x1="101.402" y1="246.203" x2="102.107" y2="152.341" gradientUnits="userSpaceOnUse">
<stop stop-color="#9ab7f6"/>
<stop offset="1" stop-color="#9ab7f6" stop-opacity="0"/>
</linearGradient>
<linearGradient id="paint2_linear_344_2328" x1="313" y1="322" x2="384.5" y2="229.5" gradientUnits="userSpaceOnUse">
<stop stop-color="#9ab7f6"/>
<stop offset="1" stop-color="#9ab7f6" stop-opacity="0"/>
</linearGradient>
<linearGradient id="paint3_linear_344_2328" x1="6.00011" y1="332.5" x2="384.5" y2="229.5" gradientUnits="userSpaceOnUse">
<stop stop-color="#9ab7f6"/>
<stop offset="1" stop-color="#9ab7f6" stop-opacity="0"/>
</linearGradient>
<linearGradient id="paint4_linear_344_2328" x1="202.5" y1="62.5" x2="278" y2="112.5" gradientUnits="userSpaceOnUse">
<stop stop-color="#7F270F"/>
<stop offset="1" stop-color="#7F270F" stop-opacity="0"/>
</linearGradient>
<linearGradient id="paint5_linear_344_2328" x1="209" y1="596" x2="209.865" y2="282.002" gradientUnits="userSpaceOnUse">
<stop stop-color="#9ab7f6"/>
<stop offset="1" stop-color="#9ab7f6" stop-opacity="0"/>
</linearGradient>
<linearGradient id="paint6_linear_344_2328" x1="209.084" y1="141.5" x2="209.084" y2="457" gradientUnits="userSpaceOnUse">
<stop stop-color="#c8d8fa"/>
<stop offset="1" stop-color="#c8d8fa" stop-opacity="0"/>
</linearGradient>
<linearGradient id="paint7_linear_344_2328" x1="-25" y1="251" x2="75.8454" y2="345.762" gradientUnits="userSpaceOnUse">
<stop stop-color="#7F270F"/>
<stop offset="1" stop-color="#7F270F" stop-opacity="0"/>
</linearGradient>
<linearGradient id="paint8_linear_344_2328" x1="240.5" y1="369" x2="75.8454" y2="345.762" gradientUnits="userSpaceOnUse">
<stop stop-color="#7F270F"/>
<stop offset="1" stop-color="#7F270F" stop-opacity="0"/>
</linearGradient>
<linearGradient id="paint9_linear_344_2328" x1="-91.0005" y1="-429.5" x2="126.166" y2="-402.997" gradientUnits="userSpaceOnUse">
<stop stop-color="#9ab7f6"/>
<stop offset="1" stop-color="#9ab7f6" stop-opacity="0"/>
</linearGradient>
<linearGradient id="paint10_linear_344_2328" x1="313.402" y1="378.203" x2="328.315" y2="203.112" gradientUnits="userSpaceOnUse">
<stop stop-color="#9ab7f6"/>
<stop offset="1" stop-color="#9ab7f6" stop-opacity="0"/>
</linearGradient>
<linearGradient id="paint11_linear_344_2328" x1="365.402" y1="341.203" x2="369.023" y2="205.027" gradientUnits="userSpaceOnUse">
<stop stop-color="#9ab7f6"/>
<stop offset="1" stop-color="#9ab7f6" stop-opacity="0"/>
</linearGradient>
<linearGradient id="paint12_linear_344_2328" x1="272" y1="331" x2="130" y2="367" gradientUnits="userSpaceOnUse">
<stop stop-color="#7F270F"/>
<stop offset="1" stop-color="#7F270F" stop-opacity="0"/>
</linearGradient>
<linearGradient id="paint13_linear_344_2328" x1="365.5" y1="493" x2="306.598" y2="392.82" gradientUnits="userSpaceOnUse">
<stop stop-color="#9ab7f6"/>
<stop offset="1" stop-color="#9ab7f6" stop-opacity="0"/>
</linearGradient>
</defs>
</svg>