<svg class="w-auto max-w-[16rem] h-40 text-gray-800 dark:text-white" aria-hidden="true" width="603" height="642" viewBox="0 0 603 642" fill="none" xmlns="http://www.w3.org/2000/svg">
<path d="M31 106C31 102.686 33.6863 100 37 100H578C581.314 100 584 102.686 584 106V459C584 462.314 581.314 465 578 465H37C33.6863 465 31 462.314 31 459V106Z" fill="#1F2A37"/>
<path d="M428 372.5L217 161.5H204.5L428 385V372.5Z" fill="url(#paint0_linear_204_2432)" fill-opacity="0.1"/>
<path d="M428 259.5L329.5 161H355.5L428 233.5V259.5Z" fill="url(#paint1_linear_204_2432)" fill-opacity="0.1"/>
<path d="M385 465L187 267V306L346 465H385Z" fill="url(#paint2_linear_204_2432)" fill-opacity="0.1"/>
<path d="M282 465L187 370V384L268 465H282Z" fill="url(#paint3_linear_204_2432)" fill-opacity="0.1"/>
<path fill-rule="evenodd" clip-rule="evenodd" d="M94.7967 161L170 236.171V216.329L114.647 161H94.7967ZM31 193.007V183.468L170 322.408V331.947L31 193.007ZM31 316.639V286.875L137.17 393H107.394L31 316.639ZM31 376.165V365.481L58.5311 393H47.8423L31 376.165Z" fill="url(#paint4_linear_204_2432)" fill-opacity="0.1"/>
<path fill-rule="evenodd" clip-rule="evenodd" d="M573.647 161H553.797L584 191.19V171.348L573.647 161ZM584 277.427L467.905 161.382H458.361L584 286.967V277.427ZM584 380.835L445 241.895V271.658L566.394 393H581C582.657 393 584 391.657 584 390V380.835ZM517.531 393L445 320.5V331.184L506.842 393H517.531Z" fill="url(#paint5_linear_204_2432)" fill-opacity="0.1"/>
<path d="M31 393L170 393L170 309L31 309L31 393Z" fill="#374151" fill-opacity="0.2"/>
<path d="M445 393L584 393L584 309L445 309L445 393Z" fill="#374151" fill-opacity="0.2"/>
<path fill-rule="evenodd" clip-rule="evenodd" d="M448 162H584V160H448C445.791 160 444 161.791 444 164V390C444 392.209 445.791 394 448 394H584V392H448C446.895 392 446 391.105 446 390V164C446 162.895 446.895 162 448 162Z" fill="#182230"/>
<path fill-rule="evenodd" clip-rule="evenodd" d="M190 162C188.895 162 188 162.895 188 164V465H186V164C186 161.791 187.791 160 190 160H425C427.209 160 429 161.791 429 164V465H427V164C427 162.895 426.105 162 425 162H190Z" fill="#182230"/>
<path fill-rule="evenodd" clip-rule="evenodd" d="M306 465V161H308V465H306Z" fill="#374151"/>
<path fill-rule="evenodd" clip-rule="evenodd" d="M167 162H31V160H167C169.209 160 171 161.791 171 164V390C171 392.209 169.209 394 167 394H31V392H167C168.105 392 169 391.105 169 390V164C169 162.895 168.105 162 167 162Z" fill="#182230"/>
<path d="M60 237C60 214.909 77.9086 197 100 197C122.091 197 140 214.909 140 237C140 259.091 122.091 277 100 277C77.9086 277 60 259.091 60 237Z" fill="#374151" fill-opacity="0.5"/>
<path d="M474 237C474 214.909 491.909 197 514 197C536.091 197 554 214.909 554 237C554 259.091 536.091 277 514 277C491.909 277 474 259.091 474 237Z" fill="#374151" fill-opacity="0.5"/>
<path fill-rule="evenodd" clip-rule="evenodd" d="M0 117L19.9669 19H583.033L603 117C597.338 120.833 582.117 128.5 566.53 128.5C551.208 128.5 539.781 121.092 535.758 117.199C529.875 121.092 514.908 128.5 499.586 128.5C484.264 128.5 472.836 121.092 468.814 117.199C462.931 121.092 447.963 128.5 432.641 128.5C417.319 128.5 405.892 121.092 401.869 117.199C395.986 121.092 381.019 128.5 365.697 128.5C350.375 128.5 338.947 121.092 334.925 117.199C329.042 121.092 314.074 128.5 298.752 128.5C283.43 128.5 272.003 121.092 267.98 117.199C262.097 121.092 247.13 128.5 231.808 128.5C216.486 128.5 205.058 121.092 201.036 117.199C195.153 121.092 180.185 128.5 164.863 128.5C149.541 128.5 138.114 121.092 134.091 117.199C128.208 121.092 113.241 128.5 97.9188 128.5C82.597 128.5 71.1692 121.092 67.1467 117.199C61.2639 121.092 46.2961 128.5 30.9743 128.5C15.3872 128.5 3.83016 120.833 0 117Z" fill="#1F2A37"/>
<path fill-rule="evenodd" clip-rule="evenodd" d="M0 117L19.9669 19H583.033L603 117C597.338 120.833 582.117 128.5 566.53 128.5C551.208 128.5 539.781 121.092 535.758 117.199C529.875 121.092 514.908 128.5 499.586 128.5C484.264 128.5 472.836 121.092 468.814 117.199C462.931 121.092 447.963 128.5 432.641 128.5C417.319 128.5 405.892 121.092 401.869 117.199C395.986 121.092 381.019 128.5 365.697 128.5C350.375 128.5 338.947 121.092 334.925 117.199C329.042 121.092 314.074 128.5 298.752 128.5C283.43 128.5 272.003 121.092 267.98 117.199C262.097 121.092 247.13 128.5 231.808 128.5C216.486 128.5 205.058 121.092 201.036 117.199C195.153 121.092 180.185 128.5 164.863 128.5C149.541 128.5 138.114 121.092 134.091 117.199C128.208 121.092 113.241 128.5 97.9188 128.5C82.597 128.5 71.1692 121.092 67.1467 117.199C61.2639 121.092 46.2961 128.5 30.9743 128.5C15.3872 128.5 3.83016 120.833 0 117Z" fill="url(#paint6_linear_204_2432)"/>
<path fill-rule="evenodd" clip-rule="evenodd" d="M0 117L19.9669 19H583.033L603 117C597.338 120.833 582.117 128.5 566.53 128.5C551.208 128.5 539.781 121.092 535.758 117.199C529.875 121.092 514.908 128.5 499.586 128.5C484.264 128.5 472.836 121.092 468.814 117.199C462.931 121.092 447.963 128.5 432.641 128.5C417.319 128.5 405.892 121.092 401.869 117.199C395.986 121.092 381.019 128.5 365.697 128.5C350.375 128.5 338.947 121.092 334.925 117.199C329.042 121.092 314.074 128.5 298.752 128.5C283.43 128.5 272.003 121.092 267.98 117.199C262.097 121.092 247.13 128.5 231.808 128.5C216.486 128.5 205.058 121.092 201.036 117.199C195.153 121.092 180.185 128.5 164.863 128.5C149.541 128.5 138.114 121.092 134.091 117.199C128.208 121.092 113.241 128.5 97.9188 128.5C82.597 128.5 71.1692 121.092 67.1467 117.199C61.2639 121.092 46.2961 128.5 30.9743 128.5C15.3872 128.5 3.83016 120.833 0 117Z" fill="url(#paint7_linear_204_2432)"/>
<path fill-rule="evenodd" clip-rule="evenodd" d="M602 113H1V111H602V113Z" fill="#1F2A37"/>
<path fill-rule="evenodd" clip-rule="evenodd" d="M526.994 19.8904L536.994 110.89L535.006 111.109L525.006 20.1089L526.994 19.8904Z" fill="#1F2A37"/>
<path fill-rule="evenodd" clip-rule="evenodd" d="M461.996 19.9122L469.996 110.912L468.004 111.087L460.004 20.0874L461.996 19.9122Z" fill="#1F2A37"/>
<path fill-rule="evenodd" clip-rule="evenodd" d="M77.0061 19.8904L67.0061 110.89L68.9941 111.109L78.9941 20.1089L77.0061 19.8904Z" fill="#1F2A37"/>
<path fill-rule="evenodd" clip-rule="evenodd" d="M142.004 19.9122L134.004 110.912L135.996 111.087L143.996 20.0874L142.004 19.9122Z" fill="#1F2A37"/>
<path fill-rule="evenodd" clip-rule="evenodd" d="M207.002 19.9343L201.002 110.934L202.998 111.066L208.998 20.0659L207.002 19.9343Z" fill="#1F2A37"/>
<path fill-rule="evenodd" clip-rule="evenodd" d="M271 19.9668L268 110.967L269.999 111.033L272.999 20.0327L271 19.9668Z" fill="#1F2A37"/>
<path fill-rule="evenodd" clip-rule="evenodd" d="M396.998 19.9343L402.998 110.934L401.002 111.066L395.002 20.0659L396.998 19.9343Z" fill="#1F2A37"/>
<path fill-rule="evenodd" clip-rule="evenodd" d="M333 19.9668L336 110.967L334.001 111.033L331.001 20.0327L333 19.9668Z" fill="#1F2A37"/>
<path d="M20 3C20 1.34315 21.3431 0 23 0H580C581.657 0 583 1.34315 583 3V19H20V3Z" fill="#1F2A37"/>
<path d="M35 9.5C35 11.433 33.433 13 31.5 13C29.567 13 28 11.433 28 9.5C28 7.567 29.567 6 31.5 6C33.433 6 35 7.567 35 9.5Z" fill="#374151"/>
<path d="M45 9.5C45 11.433 43.433 13 41.5 13C39.567 13 38 11.433 38 9.5C38 7.567 39.567 6 41.5 6C43.433 6 45 7.567 45 9.5Z" fill="#6B7280"/>
<path d="M55 9.5C55 11.433 53.433 13 51.5 13C49.567 13 48 11.433 48 9.5C48 7.567 49.567 6 51.5 6C53.433 6 55 7.567 55 9.5Z" fill="#374151"/>
<path fill-rule="evenodd" clip-rule="evenodd" d="M280.5 392C289.613 392 297 384.613 297 375.5C297 366.387 289.613 359 280.5 359C271.387 359 264 366.387 264 375.5C264 384.613 271.387 392 280.5 392ZM280.5 394C290.717 394 299 385.717 299 375.5C299 365.283 290.717 357 280.5 357C270.283 357 262 365.283 262 375.5C262 385.717 270.283 394 280.5 394Z" fill="#F4F7FB"/>
<path d="M253.364 378.318C253.68 376.96 254.891 376 256.285 376H337.579C338.992 376 340.213 376.985 340.511 378.366L363.214 483.366C363.618 485.235 362.194 487 360.282 487H231.781C229.848 487 228.42 485.2 228.859 483.318L253.364 378.318Z" fill="#d6e2fb"/>
<path d="M253.364 378.318C253.68 376.96 254.891 376 256.285 376H337.579C338.992 376 340.213 376.985 340.511 378.366L363.214 483.366C363.618 485.235 362.194 487 360.282 487H231.781C229.848 487 228.42 485.2 228.859 483.318L253.364 378.318Z" fill="url(#paint8_linear_204_2432)"/>
<path d="M236.317 378.345C236.624 376.974 237.84 376 239.245 376H318.721C320.289 376 321.592 377.208 321.712 378.771L329.752 483.771C329.886 485.513 328.508 487 326.761 487H215.745C213.824 487 212.398 485.22 212.818 483.345L236.317 378.345Z" fill="#d6e2fb"/>
<path d="M236.317 378.345C236.624 376.974 237.84 376 239.245 376H318.721C320.289 376 321.592 377.208 321.712 378.771L329.752 483.771C329.886 485.513 328.508 487 326.761 487H215.745C213.824 487 212.398 485.22 212.818 483.345L236.317 378.345Z" fill="url(#paint9_linear_204_2432)"/>
<path d="M280.5 418C261.7 418 259 410.667 260 407L262.5 402L278 395.5L333.5 391L368.5 397C373.5 409 349.5 417 329 415.5C308.5 414 304 418 280.5 418Z" fill="#111928"/>
<path d="M472.5 619.5C464.1 629.1 459.5 632.5 452.5 632.5C452 625.5 456.5 618.5 458 614C461.162 604.513 464 595 441 568C418 541 375.5 513.5 350.5 482C330.5 456.8 315.833 412.167 311 393L350.5 383.5L375.5 464C400.5 480.5 472.5 576.5 481.5 583.5C488.7 589.1 490.167 593.5 490 595C487.667 599.167 480.9 609.9 472.5 619.5Z" fill="#FDBA8C"/>
<path d="M472.5 619.5C464.1 629.1 459.5 632.5 452.5 632.5C452 625.5 456.5 618.5 458 614C461.162 604.513 464 595 441 568C418 541 375.5 513.5 350.5 482C330.5 456.8 315.833 412.167 311 393L350.5 383.5L375.5 464C400.5 480.5 472.5 576.5 481.5 583.5C488.7 589.1 490.167 593.5 490 595C487.667 599.167 480.9 609.9 472.5 619.5Z" fill="url(#paint10_linear_204_2432)"/>
<path d="M453.212 622.157L465 628L479.924 610.943L459.505 605.645L453.212 622.157Z" fill="#374151"/>
<path fill-rule="evenodd" clip-rule="evenodd" d="M495.785 592.901C497.265 593.648 497.841 595.439 497.028 596.883C494.616 601.163 489.633 609.669 482.684 621.098C472.844 637.281 459.225 642 452.453 642C451.098 642 450 640.902 450 639.547V634.453C450 633.098 451.098 632 452.453 632C455.487 632 465.982 629.319 474.14 615.902C480.983 604.648 485.779 596.457 488.093 592.371C488.909 590.93 490.735 590.352 492.215 591.099L495.785 592.901Z" fill="#374151"/>
<path d="M262.413 632.5H214.5C213 622.5 242.116 623 252.5 605C260 592 279.5 486 280.5 466.5C281.3 450.9 284.5 409.333 286 390.5H333.5C328.334 404.667 317.4 440.1 315 468.5C312 504 270.015 604.605 271.5 615C272.198 619.888 271.957 623.621 271.383 626.399C270.552 630.417 266.516 632.5 262.413 632.5Z" fill="#FDBA8C"/>
<path d="M262.413 632.5H214.5C213 622.5 242.116 623 252.5 605C260 592 279.5 486 280.5 466.5C281.3 450.9 284.5 409.333 286 390.5H333.5C328.334 404.667 317.4 440.1 315 468.5C312 504 270.015 604.605 271.5 615C272.198 619.888 271.957 623.621 271.383 626.399C270.552 630.417 266.516 632.5 262.413 632.5Z" fill="url(#paint11_linear_204_2432)"/>
<path d="M212 635C212 633.343 213.343 632 215 632H269C270.657 632 272 633.343 272 635V639C272 640.657 270.657 642 269 642H215C213.343 642 212 640.657 212 639V635Z" fill="#374151"/>
<path d="M223.5 624L227 633L250.5 634.5L239.5 616.5L223.5 624Z" fill="#374151"/>
<path d="M294 267.5V262H344C345.333 269.167 350.5 289.3 348.5 312.5C346.5 335.7 361 378.5 368.5 397C361 397 343.1 398.9 331.5 406.5C317 416 299.5 411 287.5 404C277.9 398.4 265.167 403.333 260 406.5L294 267.5Z" fill="#2563eb"/>
<path d="M294 267.5V262H344C345.333 269.167 350.5 289.3 348.5 312.5C346.5 335.7 361 378.5 368.5 397C361 397 343.1 398.9 331.5 406.5C317 416 299.5 411 287.5 404C277.9 398.4 265.167 403.333 260 406.5L294 267.5Z" fill="url(#paint12_linear_204_2432)"/>
<path fill-rule="evenodd" clip-rule="evenodd" d="M288.118 291.544L288.594 289.601C296.784 291.794 304.45 291.636 309.293 286.793C320.702 275.384 333.453 273.15 338.569 273.502L338.431 275.498C333.88 275.184 321.698 277.216 310.707 288.207C305.085 293.829 296.494 293.777 288.118 291.544ZM269.264 368.624L269.748 366.648C272.929 366.813 276.204 366.672 279.205 366.034C282.512 365.332 285.409 364.043 287.494 361.976C289.558 359.93 290.906 357.046 291 352.977C291.124 347.662 290.722 342.68 290.332 338.109L290.277 337.468L290.277 337.468C289.908 333.172 289.568 329.205 289.751 325.76C289.944 322.135 290.719 318.931 292.775 316.435C294.841 313.926 298.07 312.286 302.84 311.513C307.134 310.817 309.894 308.545 312.156 305.477C313.298 303.929 314.304 302.187 315.315 300.339C315.58 299.855 315.846 299.362 316.115 298.864L316.115 298.864C316.861 297.481 317.629 296.058 318.454 294.675C320.709 290.895 323.494 287.232 327.905 284.833C332.323 282.429 338.24 281.365 346.635 282.509L346.365 284.491C338.26 283.386 332.802 284.446 328.861 286.59C324.912 288.737 322.353 292.043 320.171 295.7C319.37 297.043 318.633 298.409 317.893 299.78L317.892 299.782C317.62 300.287 317.347 300.793 317.07 301.299C316.051 303.161 314.991 305.001 313.766 306.664C311.293 310.018 308.116 312.684 303.16 313.487C298.679 314.214 295.972 315.699 294.319 317.706C292.656 319.726 291.931 322.428 291.749 325.866C291.573 329.168 291.902 333.006 292.276 337.367L292.324 337.938C292.715 342.508 293.126 347.588 293 353.023C292.894 357.554 291.371 360.949 288.902 363.396C286.455 365.822 283.158 367.239 279.62 367.991C276.306 368.695 272.713 368.829 269.264 368.624ZM270.041 402.406C269.263 402.599 268.503 402.814 267.769 403.046C268.571 400.161 269.535 397.794 270.631 395.833C273.196 391.241 276.445 388.939 279.85 387.401C281.413 386.695 283.016 386.148 284.562 385.62L284.562 385.62L284.901 385.504C286.568 384.934 288.169 384.372 289.699 383.625C292.711 382.155 295.468 379.962 297.6 375.564C301.629 367.253 305.459 361.726 310.503 357.717C315.541 353.713 321.701 351.295 330.244 349.033C336.706 347.323 342.701 341.68 347.612 335.114C348.31 334.18 348.984 333.232 349.631 332.278C349.775 333.213 349.929 334.158 350.093 335.11C349.805 335.513 349.511 335.913 349.213 336.312C344.233 342.97 337.894 349.077 330.756 350.967C322.299 353.206 316.459 355.538 311.747 359.283C307.04 363.024 303.37 368.247 299.4 376.436C297.047 381.288 293.937 383.783 290.576 385.422C288.92 386.23 287.209 386.828 285.548 387.396L285.228 387.506L285.228 387.506C283.663 388.04 282.146 388.558 280.673 389.224C277.573 390.624 274.692 392.665 272.377 396.808C271.517 398.349 270.73 400.188 270.041 402.406ZM363.125 382.703C363.382 383.435 363.639 384.157 363.893 384.866C358.819 383.953 352.827 383.32 346.528 383.5C341.961 383.63 338.689 382.358 336.689 380.045C334.7 377.744 334.141 374.61 334.571 371.369C335.427 364.918 340.247 357.53 347 353.634C349.076 352.436 351.078 350.792 352.973 348.864C353.155 349.617 353.341 350.37 353.53 351.124C351.78 352.799 349.93 354.252 348 355.366C341.753 358.97 337.323 365.832 336.554 371.632C336.171 374.515 336.706 377.006 338.202 378.737C339.686 380.454 342.289 381.62 346.471 381.501C352.458 381.329 358.174 381.874 363.125 382.703Z" fill="#c8d8fa"/>
<path fill-rule="evenodd" clip-rule="evenodd" d="M333.5 268.5H294V266.5H333.5V268.5Z" fill="#c8d8fa"/>
<path fill-rule="evenodd" clip-rule="evenodd" d="M315.5 424C324.613 424 332 416.613 332 407.5C332 398.387 324.613 391 315.5 391C306.387 391 299 398.387 299 407.5C299 416.613 306.387 424 315.5 424ZM315.5 426C325.717 426 334 417.717 334 407.5C334 397.283 325.717 389 315.5 389C305.283 389 297 397.283 297 407.5C297 417.717 305.283 426 315.5 426Z" fill="#F4F7FB"/>
<path d="M288.364 410.318C288.68 408.96 289.891 408 291.285 408H372.579C373.992 408 375.213 408.985 375.511 410.366L398.214 515.366C398.618 517.235 397.194 519 395.282 519H266.781C264.848 519 263.42 517.2 263.859 515.318L288.364 410.318Z" fill="#d6e2fb"/>
<path d="M288.364 410.318C288.68 408.96 289.891 408 291.285 408H372.579C373.992 408 375.213 408.985 375.511 410.366L398.214 515.366C398.618 517.235 397.194 519 395.282 519H266.781C264.848 519 263.42 517.2 263.859 515.318L288.364 410.318Z" fill="url(#paint13_linear_204_2432)"/>
<path d="M271.317 410.345C271.624 408.974 272.84 408 274.245 408H353.721C355.289 408 356.592 409.208 356.712 410.771L364.752 515.771C364.886 517.513 363.508 519 361.761 519H250.745C248.824 519 247.398 517.22 247.818 515.345L271.317 410.345Z" fill="#d6e2fb"/>
<path d="M281.737 427.344C282.044 425.974 283.26 425 284.664 425H338.314C339.882 425 341.185 426.207 341.305 427.771L346.752 498.771C346.885 500.513 345.508 502 343.76 502H268.746C266.825 502 265.399 500.219 265.819 498.344L281.737 427.344Z" fill="url(#paint14_linear_204_2432)"/>
<path d="M307.5 383C308.3 373 311.166 361.167 312.5 356.5L325 361C322.333 365.667 317.6 376.4 320 382C323 389 321.5 398 316.5 398C311.5 398 306.5 395.5 307.5 383Z" fill="#FDBA8C"/>
<path d="M307.5 383C308.3 373 311.166 361.167 312.5 356.5L325 361C322.333 365.667 317.6 376.4 320 382C323 389 321.5 398 316.5 398C311.5 398 306.5 395.5 307.5 383Z" fill="url(#paint15_linear_204_2432)"/>
<path d="M288.5 214.5C291.3 193.7 300 183.833 304 181.5L312 178.5C336 181.5 350 228 360 257.5C367.764 280.403 343.506 336.551 329.271 364.069C328.556 365.45 326.9 366.037 325.467 365.434L311.431 359.523C310.041 358.938 309.301 357.412 309.704 355.958L333.216 271.027C333.4 270.363 333.349 269.655 333.073 269.024L330 262H294C291 254.833 285.7 235.3 288.5 214.5Z" fill="#F9FAFB"/>
<path d="M312 224L330 262H312V224Z" fill="url(#paint16_linear_204_2432)"/>
<path d="M302.445 185.797L297.689 168.505L306.335 160.292L314.116 180.177C311.695 183.289 305.326 185.22 302.445 185.797Z" fill="#FDBA8C"/>
<path d="M302.445 185.797L297.689 168.505L306.335 160.292L314.116 180.177C311.695 183.289 305.326 185.22 302.445 185.797Z" fill="url(#paint17_linear_204_2432)"/>
<path d="M332.825 126.392C329.072 133.932 320.75 137.416 314.237 134.174C307.724 130.931 305.488 122.191 309.241 114.652C312.994 107.112 321.317 103.628 327.829 106.87C334.342 110.112 336.579 118.853 332.825 126.392Z" fill="#F9FAFB"/>
<path d="M332.825 126.392C329.072 133.932 320.75 137.416 314.237 134.174C307.724 130.931 305.488 122.191 309.241 114.652C312.994 107.112 321.317 103.628 327.829 106.87C334.342 110.112 336.579 118.853 332.825 126.392Z" fill="url(#paint18_linear_204_2432)"/>
<path d="M308.929 129.6C294.75 126.487 288.9 135.22 287.747 139.975C290.485 149.773 298.381 168.506 308.064 165.047C320.168 160.724 326.653 133.49 308.929 129.6Z" fill="#F9FAFB"/>
<path d="M308.929 129.6C294.75 126.487 288.9 135.22 287.747 139.975C290.485 149.773 298.381 168.506 308.064 165.047C320.168 160.724 326.653 133.49 308.929 129.6Z" fill="url(#paint19_linear_204_2432)"/>
<path d="M309.793 151.646C311.955 153.375 305.47 171.531 293.366 170.234C289.182 169.786 287.161 165.879 286.39 160.807C286.332 160.429 285.988 160.89 285.944 160.5C285.901 160.12 286.158 158.89 286.127 158.5C285.632 152.236 286.656 144.844 287.746 139.975C289.62 141.127 293.712 144.557 295.096 149.053C296.825 154.672 301.147 156.401 303.309 154.24C305.637 151.912 307.632 149.917 309.793 151.646Z" fill="#FDBA8C"/>
<path d="M291.782 153.302C291.877 153.868 291.496 154.404 290.93 154.5C290.363 154.596 289.827 154.215 289.731 153.648C289.635 153.082 290.017 152.545 290.583 152.45C291.149 152.354 291.686 152.735 291.782 153.302Z" fill="#111928"/>
<path fill-rule="evenodd" clip-rule="evenodd" d="M289.96 149.613C289.237 149.745 288.7 150.15 288.216 150.676C288.029 150.879 287.713 150.892 287.51 150.705C287.307 150.518 287.294 150.201 287.481 149.998C288.039 149.392 288.759 148.815 289.781 148.629C290.798 148.444 292.03 148.661 293.589 149.452C293.835 149.577 293.933 149.878 293.808 150.125C293.683 150.371 293.382 150.469 293.136 150.344C291.693 149.611 290.689 149.481 289.96 149.613Z" fill="#111928"/>
<path fill-rule="evenodd" clip-rule="evenodd" d="M286.663 152.763C286.936 152.804 287.124 153.058 287.084 153.331L286.066 160.135C286.047 160.256 286.146 160.363 286.268 160.356L289.21 160.178C289.486 160.161 289.723 160.371 289.739 160.647C289.756 160.923 289.546 161.16 289.27 161.176L286.329 161.354C285.571 161.4 284.964 160.737 285.077 159.987L286.095 153.183C286.135 152.91 286.39 152.722 286.663 152.763Z" fill="#111928"/>
<path fill-rule="evenodd" clip-rule="evenodd" d="M290.256 164.214C290.876 164.067 291.516 163.805 292.49 163.378C292.743 163.267 293.038 163.382 293.149 163.635C293.26 163.888 293.145 164.183 292.892 164.293C291.926 164.717 291.207 165.016 290.487 165.187C289.754 165.361 289.041 165.398 288.078 165.332C287.803 165.314 287.595 165.075 287.613 164.8C287.632 164.524 287.871 164.316 288.146 164.335C289.044 164.396 289.65 164.358 290.256 164.214Z" fill="#111928"/>
<path fill-rule="evenodd" clip-rule="evenodd" d="M307.266 156.35C307.551 155.673 307.505 155.002 307.331 154.309C307.263 154.042 307.425 153.77 307.693 153.702C307.961 153.634 308.232 153.797 308.3 154.064C308.502 154.864 308.591 155.781 308.187 156.739C307.785 157.691 306.93 158.604 305.415 159.475C305.175 159.613 304.87 159.531 304.732 159.291C304.594 159.052 304.677 158.746 304.916 158.608C306.319 157.802 306.978 157.032 307.266 156.35Z" fill="#111928"/>
<defs>
<linearGradient id="paint0_linear_204_2432" x1="138.5" y1="167" x2="501" y2="556" gradientUnits="userSpaceOnUse">
<stop stop-color="white"/>
<stop offset="1" stop-color="#F9FAFB" stop-opacity="0"/>
</linearGradient>
<linearGradient id="paint1_linear_204_2432" x1="138.5" y1="167" x2="501" y2="556" gradientUnits="userSpaceOnUse">
<stop stop-color="white"/>
<stop offset="1" stop-color="#F9FAFB" stop-opacity="0"/>
</linearGradient>
<linearGradient id="paint2_linear_204_2432" x1="138.5" y1="167" x2="501" y2="556" gradientUnits="userSpaceOnUse">
<stop stop-color="white"/>
<stop offset="1" stop-color="#F9FAFB" stop-opacity="0"/>
</linearGradient>
<linearGradient id="paint3_linear_204_2432" x1="138.5" y1="167" x2="501" y2="556" gradientUnits="userSpaceOnUse">
<stop stop-color="white"/>
<stop offset="1" stop-color="#F9FAFB" stop-opacity="0"/>
</linearGradient>
<linearGradient id="paint4_linear_204_2432" x1="3.02697" y1="165.579" x2="274.385" y2="385.652" gradientUnits="userSpaceOnUse">
<stop stop-color="white"/>
<stop offset="1" stop-color="#F9FAFB" stop-opacity="0"/>
</linearGradient>
<linearGradient id="paint5_linear_204_2432" x1="417.027" y1="165.579" x2="688.385" y2="385.652" gradientUnits="userSpaceOnUse">
<stop stop-color="white"/>
<stop offset="1" stop-color="#F9FAFB" stop-opacity="0"/>
</linearGradient>
<linearGradient id="paint6_linear_204_2432" x1="301.5" y1="129" x2="301.5" y2="59" gradientUnits="userSpaceOnUse">
<stop stop-color="#374151"/>
<stop offset="1" stop-color="#374151" stop-opacity="0"/>
</linearGradient>
<linearGradient id="paint7_linear_204_2432" x1="301.5" y1="34" x2="301.5" y2="103" gradientUnits="userSpaceOnUse">
<stop stop-color="#374151"/>
<stop offset="1" stop-color="#374151" stop-opacity="0"/>
</linearGradient>
<linearGradient id="paint8_linear_204_2432" x1="329.314" y1="580.733" x2="329.314" y2="356.267" gradientUnits="userSpaceOnUse">
<stop stop-color="#9ab7f6"/>
<stop offset="0.830726" stop-color="#9ab7f6" stop-opacity="0"/>
</linearGradient>
<linearGradient id="paint9_linear_204_2432" x1="303.5" y1="610" x2="303.5" y2="388.5" gradientUnits="userSpaceOnUse">
<stop stop-color="#9ab7f6"/>
<stop offset="0.830726" stop-color="#9ab7f6" stop-opacity="0"/>
</linearGradient>
<linearGradient id="paint10_linear_204_2432" x1="347" y1="127.5" x2="401.464" y2="579.344" gradientUnits="userSpaceOnUse">
<stop stop-color="#7F270F"/>
<stop offset="1" stop-color="#7F270F" stop-opacity="0"/>
</linearGradient>
<linearGradient id="paint11_linear_204_2432" x1="323.5" y1="271" x2="274.61" y2="580.839" gradientUnits="userSpaceOnUse">
<stop stop-color="#7F270F"/>
<stop offset="1" stop-color="#7F270F" stop-opacity="0"/>
</linearGradient>
<linearGradient id="paint12_linear_204_2432" x1="436.5" y1="43" x2="350.749" y2="358.197" gradientUnits="userSpaceOnUse">
<stop stop-color="#111928"/>
<stop offset="1" stop-color="#111928" stop-opacity="0"/>
</linearGradient>
<linearGradient id="paint13_linear_204_2432" x1="364.314" y1="612.733" x2="364.314" y2="388.267" gradientUnits="userSpaceOnUse">
<stop stop-color="#9ab7f6"/>
<stop offset="0.830726" stop-color="#9ab7f6" stop-opacity="0"/>
</linearGradient>
<linearGradient id="paint14_linear_204_2432" x1="305.999" y1="564" x2="305.999" y2="449.5" gradientUnits="userSpaceOnUse">
<stop stop-color="#9ab7f6"/>
<stop offset="1" stop-color="#9ab7f6" stop-opacity="0"/>
</linearGradient>
<linearGradient id="paint15_linear_204_2432" x1="335" y1="307.5" x2="316.28" y2="389.141" gradientUnits="userSpaceOnUse">
<stop stop-color="#7F270F"/>
<stop offset="1" stop-color="#7F270F" stop-opacity="0"/>
</linearGradient>
<linearGradient id="paint16_linear_204_2432" x1="323.953" y1="196.612" x2="300.948" y2="262.25" gradientUnits="userSpaceOnUse">
<stop stop-color="#c8d8fa"/>
<stop offset="1" stop-color="#c8d8fa" stop-opacity="0"/>
</linearGradient>
<linearGradient id="paint17_linear_204_2432" x1="305.991" y1="155.695" x2="305.991" y2="180.352" gradientUnits="userSpaceOnUse">
<stop stop-color="#7F270F"/>
<stop offset="1" stop-color="#7F270F" stop-opacity="0"/>
</linearGradient>
<linearGradient id="paint18_linear_204_2432" x1="310.693" y1="144.775" x2="323.379" y2="119.292" gradientUnits="userSpaceOnUse">
<stop stop-color="#c8d8fa"/>
<stop offset="1" stop-color="#c8d8fa" stop-opacity="0"/>
</linearGradient>
<linearGradient id="paint19_linear_204_2432" x1="305.688" y1="178.724" x2="305.688" y2="144.636" gradientUnits="userSpaceOnUse">
<stop stop-color="#c8d8fa"/>
<stop offset="1" stop-color="#c8d8fa" stop-opacity="0"/>
</linearGradient>
</defs>
</svg>