<svg class="w-auto max-w-[16rem] h-40 text-gray-800 dark:text-white" aria-hidden="true" width="565" height="585" viewBox="0 0 565 585" fill="none" xmlns="http://www.w3.org/2000/svg">
<path d="M565 269C565 417.565 444.565 538 296 538C147.435 538 27 417.565 27 269C27 120.435 147.435 0 296 0C444.565 0 565 120.435 565 269Z" fill="url(#paint0_linear_748_163)"/>
<path fill-rule="evenodd" clip-rule="evenodd" d="M563.984 292.541C552.06 430.081 436.633 538 296 538C147.435 538 27 417.565 27 269C27 223.705 38.1951 181.024 57.9692 143.575C73.3714 148.386 90.1702 156.207 106 168.5C153 205 182.5 213 224.5 220C227.481 220.497 230.552 221.004 233.698 221.523C274.873 228.318 328.736 237.206 358 253C376.566 263.02 405.033 262.791 434.801 262.553C455.538 262.386 476.907 262.215 496 265.5C522.708 270.095 547.578 282.353 563.984 292.541Z" fill="url(#paint1_linear_748_163)"/>
<path fill-rule="evenodd" clip-rule="evenodd" d="M441.188 495.493C456.188 424.934 486.297 298.078 501.366 287.113C502.017 286.639 502.849 286.893 503.169 287.632C505.552 293.126 507.156 314.219 497.999 365.5C491.14 403.909 483.106 441.534 477.121 467.889C465.962 478.057 453.943 487.299 441.188 495.493Z" fill="#111928"/>
<path fill-rule="evenodd" clip-rule="evenodd" d="M477.246 467.775C495.893 403.499 520.915 325.815 532.857 317.905C533.528 317.461 534.351 317.76 534.623 318.518C536.561 323.931 536.906 343.944 525.585 391.62C523.3 401.241 520.939 410.804 518.57 420.121C506.688 437.588 492.803 453.582 477.246 467.775Z" fill="#111928"/>
<path d="M263 511.5L275.5 453L300 455.5V518.5L263 511.5Z" fill="#FDBA8C"/>
<path d="M263 511.5L275.5 453L300 455.5V518.5L263 511.5Z" fill="url(#paint2_linear_748_163)"/>
<path d="M305.534 98.7385C305.934 122.339 327.367 126.572 338.034 125.739C368.033 142.539 384.535 136.5 390.535 109.239C393.868 110.239 402.135 108.939 408.535 95.7385C414.935 82.5385 405.868 71.5719 400.535 67.7385C400.535 54.1385 389.868 48.0719 384.535 46.7385C385.035 42.5719 382.635 33.3385 369.035 29.7385C355.435 26.1385 345.368 36.5719 342.035 42.2385C338.868 40.9052 331.035 39.6385 325.035 45.2385C319.035 50.8385 320.202 66.2385 321.535 73.2385C318.868 73.2385 311.934 74.6385 305.534 80.2385C299.134 85.8385 302.867 94.9052 305.534 98.7385Z" fill="#374151"/>
<path d="M305.534 98.7385C305.934 122.339 327.367 126.572 338.034 125.739C368.033 142.539 384.535 136.5 390.535 109.239C393.868 110.239 402.135 108.939 408.535 95.7385C414.935 82.5385 405.868 71.5719 400.535 67.7385C400.535 54.1385 389.868 48.0719 384.535 46.7385C385.035 42.5719 382.635 33.3385 369.035 29.7385C355.435 26.1385 345.368 36.5719 342.035 42.2385C338.868 40.9052 331.035 39.6385 325.035 45.2385C319.035 50.8385 320.202 66.2385 321.535 73.2385C318.868 73.2385 311.934 74.6385 305.534 80.2385C299.134 85.8385 302.867 94.9052 305.534 98.7385Z" fill="url(#paint3_linear_748_163)"/>
<path d="M322.499 117.5C296.099 116.7 286.5 136.5 295.498 151.5C300.697 178.7 342.5 220.5 363.001 240C377.167 260.5 409.801 301.4 427.001 301C448.501 300.5 451.501 276.5 454.501 252C457.501 227.5 414.501 219 408.501 203.5C402.501 188 414.001 182 410.001 162C406.001 142 383.001 133.5 373.001 133.5C363.001 133.5 355.499 118.5 322.499 117.5Z" fill="#374151"/>
<path d="M276 389C286.8 340.2 299.833 309 305 299.5C305 354.5 302.8 464.7 294 465.5C285.2 466.3 269.333 459.167 262.5 455.5C262.5 453.667 265.2 437.8 276 389Z" fill="#F9FAFB"/>
<path d="M276 389C286.8 340.2 299.833 309 305 299.5C305 354.5 302.8 464.7 294 465.5C285.2 466.3 269.333 459.167 262.5 455.5C262.5 453.667 265.2 437.8 276 389Z" fill="url(#paint4_linear_748_163)"/>
<path d="M449.002 297.5C441.002 279.9 400.335 260.5 381.002 253C373.668 252 357.3 250.6 350.5 253C342 256 310.5 288 303.5 302C296.5 316 282.502 403.5 280.502 431C278.902 453 288.502 497.5 293.502 517L333.002 530.5L340.002 585C477.502 564.5 461.502 476 463.002 416C464.502 356 459.002 319.5 449.002 297.5Z" fill="#F9FAFB"/>
<path d="M449.002 297.5C441.002 279.9 400.335 260.5 381.002 253C373.668 252 357.3 250.6 350.5 253C342 256 310.5 288 303.5 302C296.5 316 282.502 403.5 280.502 431C278.902 453 288.502 497.5 293.502 517L333.002 530.5L340.002 585C477.502 564.5 461.502 476 463.002 416C464.502 356 459.002 319.5 449.002 297.5Z" fill="url(#paint5_linear_748_163)"/>
<path d="M330.5 493.5L337 536L292.5 522.5L295 431.5L393.5 409.5L388.5 480L387.5 481.5L330.5 493.5Z" fill="url(#paint6_linear_748_163)"/>
<path fill-rule="evenodd" clip-rule="evenodd" d="M397.497 374.074L389.608 480.083C389.509 481.409 388.549 482.512 387.248 482.793L330.71 494.978L330.289 493.022L386.827 480.838C387.26 480.744 387.581 480.376 387.613 479.934L395.502 373.926L397.497 374.074Z" fill="#c8d8fa"/>
<path d="M342.043 259.5L321.796 211.703L347.5 188L383.5 253.5C353.5 338 342.043 291.5 342.043 259.5Z" fill="#FDBA8C"/>
<path d="M342.043 259.5L321.796 211.703L347.5 188L383.5 253.5C353.5 338 342.043 291.5 342.043 259.5Z" fill="url(#paint7_linear_748_163)"/>
<path d="M358.629 170.62C365.1 174.475 354.386 225.839 321.271 226.855C309.825 227.206 302.92 217.425 298.949 204.038C298.653 203.041 297.898 204.412 297.634 203.378C297.377 202.369 297.61 198.957 297.382 197.918C293.712 181.216 294.38 165.035 295.504 151.5C300.984 153.91 321.096 153.896 326.502 165.5C333.259 180.006 337.093 186.662 342.114 180.029C347.522 172.885 352.157 166.764 358.629 170.62Z" fill="#FDBA8C"/>
<path fill-rule="evenodd" clip-rule="evenodd" d="M298.049 182.627C298.601 182.633 299.043 183.086 299.037 183.638L298.835 201.773L306.126 200.312C306.667 200.204 307.194 200.555 307.303 201.096C307.411 201.638 307.06 202.165 306.519 202.273L298.654 203.849C297.703 204.04 296.818 203.306 296.829 202.336L297.037 183.615C297.044 183.063 297.496 182.621 298.049 182.627Z" fill="#111928"/>
<path fill-rule="evenodd" clip-rule="evenodd" d="M311.272 213.389C313.054 212.697 314.807 211.669 317.26 210.163C317.731 209.874 318.347 210.021 318.636 210.492C318.925 210.963 318.777 211.578 318.307 211.867C315.869 213.364 313.97 214.487 311.997 215.253C309.962 216.043 307.947 216.421 305.263 216.608C304.713 216.646 304.235 216.23 304.196 215.679C304.158 215.129 304.574 214.651 305.125 214.612C307.679 214.434 309.482 214.084 311.272 213.389Z" fill="#111928"/>
<path fill-rule="evenodd" clip-rule="evenodd" d="M354.533 184.502C353.936 186.732 352.273 189.219 348.688 191.997C348.252 192.336 347.624 192.256 347.285 191.82C346.947 191.383 347.027 190.755 347.463 190.417C350.843 187.797 352.156 185.648 352.602 183.984C353.041 182.346 352.743 180.791 352.055 179.092C351.848 178.58 352.095 177.997 352.607 177.79C353.119 177.583 353.702 177.83 353.909 178.341C354.68 180.246 355.13 182.276 354.533 184.502Z" fill="#111928"/>
<path fill-rule="evenodd" clip-rule="evenodd" d="M315.014 195.62C315.783 192.658 315.896 188.602 315.066 184.191C314.237 179.78 312.658 176.042 310.866 173.561C308.973 170.941 307.321 170.308 306.349 170.491C305.376 170.673 304.067 171.863 303.255 174.993C302.486 177.954 302.374 182.011 303.203 186.422C304.033 190.832 305.611 194.571 307.403 197.051C309.297 199.672 310.949 200.305 311.921 200.122C312.893 199.939 314.202 198.749 315.014 195.62ZM317.032 183.821C318.774 193.089 316.652 201.267 312.29 202.087C307.929 202.907 302.98 196.059 301.238 186.791C299.495 177.523 301.618 169.345 305.979 168.525C310.34 167.705 315.289 174.553 317.032 183.821Z" fill="#111928"/>
<path fill-rule="evenodd" clip-rule="evenodd" d="M294.928 195.62C295.697 192.658 295.81 188.602 294.98 184.191C294.151 179.78 292.572 176.042 290.78 173.561C288.887 170.941 287.235 170.308 286.263 170.491C285.291 170.673 283.982 171.863 283.169 174.993C282.4 177.954 282.288 182.011 283.117 186.422C283.947 190.832 285.525 194.571 287.317 197.051C289.211 199.672 290.863 200.305 291.835 200.122C292.807 199.939 294.116 198.749 294.928 195.62ZM296.946 183.821C298.689 193.089 296.566 201.267 292.204 202.087C287.843 202.907 282.895 196.059 281.152 186.791C279.409 177.523 281.532 169.345 285.893 168.525C290.254 167.705 295.203 174.553 296.946 183.821Z" fill="#111928"/>
<path d="M133.5 484C176 501.333 270 539.1 306 551.5C319.603 556.185 331.112 558.496 340.5 559.36L333.5 513.07C259.975 496.412 143.733 469.865 133.5 469.5C119.5 469 71.0005 472 74.0005 477.5C76.4005 481.9 114.667 483.667 133.5 484Z" fill="#FDBA8C"/>
<path d="M133.5 484C176 501.333 270 539.1 306 551.5C319.603 556.185 331.112 558.496 340.5 559.36L333.5 513.07C259.975 496.412 143.733 469.865 133.5 469.5C119.5 469 71.0005 472 74.0005 477.5C76.4005 481.9 114.667 483.667 133.5 484Z" fill="url(#paint8_linear_748_163)"/>
<path d="M108.358 423C123.448 423 135.681 428.755 135.681 435.853L135.647 442.98H81L81.0344 435.853C81.0344 428.755 93.2674 423 108.358 423Z" fill="#111928"/>
<path d="M108.358 423C123.448 423 135.681 428.755 135.681 435.853L135.647 442.98H81L81.0344 435.853C81.0344 428.755 93.2674 423 108.358 423Z" fill="url(#paint9_linear_748_163)"/>
<path d="M135.647 442.981C135.647 435.882 123.413 430.128 108.323 430.128C93.233 430.128 81 435.882 81 442.981C81 450.08 93.233 455.834 108.323 455.834C123.413 455.834 135.647 450.08 135.647 442.981Z" fill="#111928"/>
<path d="M135.647 442.981C135.647 435.882 123.413 430.128 108.323 430.128C93.233 430.128 81 435.882 81 442.981C81 450.08 93.233 455.834 108.323 455.834C123.413 455.834 135.647 450.08 135.647 442.981Z" fill="url(#paint10_linear_748_163)"/>
<path d="M108.358 372C123.448 372 135.681 379.01 135.681 387.658L135.647 396.34H81L81.0344 387.658C81.0344 379.01 93.2674 372 108.358 372Z" fill="#111928"/>
<path d="M108.358 372C123.448 372 135.681 379.01 135.681 387.658L135.647 396.34H81L81.0344 387.658C81.0344 379.01 93.2674 372 108.358 372Z" fill="url(#paint11_linear_748_163)"/>
<path d="M135.647 396.342C135.647 387.694 123.413 380.683 108.323 380.683C93.233 380.683 81 387.694 81 396.342C81 404.989 93.233 412 108.323 412C123.413 412 135.647 404.989 135.647 396.342Z" fill="#111928"/>
<path d="M135.647 396.342C135.647 387.694 123.413 380.683 108.323 380.683C93.233 380.683 81 387.694 81 396.342C81 404.989 93.233 412 108.323 412C123.413 412 135.647 404.989 135.647 396.342Z" fill="url(#paint12_linear_748_163)"/>
<path d="M108.322 240.834C93.2319 240.834 80.9989 235.079 80.9989 227.981L81.0332 220.854L135.68 220.854L135.645 227.981C135.645 235.079 123.412 240.834 108.322 240.834Z" fill="#111928"/>
<path d="M108.322 240.834C93.2319 240.834 80.9989 235.079 80.9989 227.981L81.0332 220.854L135.68 220.854L135.645 227.981C135.645 235.079 123.412 240.834 108.322 240.834Z" fill="url(#paint13_linear_748_163)"/>
<path d="M81.0332 220.853C81.0332 227.952 93.2662 233.707 108.356 233.707C123.447 233.707 135.68 227.952 135.68 220.853C135.68 213.755 123.447 208 108.356 208C93.2662 208 81.0332 213.755 81.0332 220.853Z" fill="#111928"/>
<path d="M81.0332 220.853C81.0332 227.952 93.2662 233.707 108.356 233.707C123.447 233.707 135.68 227.952 135.68 220.853C135.68 213.755 123.447 208 108.356 208C93.2662 208 81.0332 213.755 81.0332 220.853Z" fill="url(#paint14_linear_748_163)"/>
<path d="M108.322 291.834C93.2319 291.834 80.9989 284.824 80.9989 276.176L81.0332 267.494L135.68 267.494L135.645 276.176C135.645 284.824 123.412 291.834 108.322 291.834Z" fill="#111928"/>
<path d="M108.322 291.834C93.2319 291.834 80.9989 284.824 80.9989 276.176L81.0332 267.494L135.68 267.494L135.645 276.176C135.645 284.824 123.412 291.834 108.322 291.834Z" fill="url(#paint15_linear_748_163)"/>
<path d="M81.0332 267.493C81.0332 276.141 93.2662 283.151 108.356 283.151C123.447 283.151 135.68 276.141 135.68 267.493C135.68 258.845 123.447 251.834 108.356 251.834C93.2662 251.834 81.0332 258.845 81.0332 267.493Z" fill="#111928"/>
<path d="M81.0332 267.493C81.0332 276.141 93.2662 283.151 108.356 283.151C123.447 283.151 135.68 276.141 135.68 267.493C135.68 258.845 123.447 251.834 108.356 251.834C93.2662 251.834 81.0332 258.845 81.0332 267.493Z" fill="url(#paint16_linear_748_163)"/>
<path d="M108.322 355.1C93.2319 355.1 80.9989 345.285 80.9989 333.178L81.0332 324.924L135.68 324.924L135.645 333.178C135.645 345.285 123.412 355.1 108.322 355.1Z" fill="#111928"/>
<path d="M108.322 355.1C93.2319 355.1 80.9989 345.285 80.9989 333.178L81.0332 324.924L135.68 324.924L135.645 333.178C135.645 345.285 123.412 355.1 108.322 355.1Z" fill="url(#paint17_linear_748_163)"/>
<path d="M81.0332 324.922C81.0332 337.029 93.2662 346.844 108.356 346.844C123.447 346.844 135.68 337.029 135.68 324.922C135.68 312.815 123.447 303 108.356 303C93.2662 303 81.0332 312.815 81.0332 324.922Z" fill="#111928"/>
<path d="M81.0332 324.922C81.0332 337.029 93.2662 346.844 108.356 346.844C123.447 346.844 135.68 337.029 135.68 324.922C135.68 312.815 123.447 303 108.356 303C93.2662 303 81.0332 312.815 81.0332 324.922Z" fill="url(#paint18_linear_748_163)"/>
<path fill-rule="evenodd" clip-rule="evenodd" d="M34.2969 251.884L62 260L41.1198 279.934L38.4788 269.076C19.191 280.449 5.5 305.524 5.5 335C5.5 355.176 11.9296 373.353 22.2141 386.447C23.0669 387.533 22.9403 389.107 21.8873 390C20.8343 390.893 19.2539 390.767 18.3982 389.683C7.29855 375.627 0.5 356.278 0.5 335C0.5 303.511 15.423 276.103 37.2489 264.02L34.2969 251.884Z" fill="#2563eb"/>
<path fill-rule="evenodd" clip-rule="evenodd" d="M181.703 398.116L154 390L174.88 370.066L177.521 380.924C196.809 369.551 210.5 344.476 210.5 315C210.5 294.824 204.07 276.647 193.786 263.553C192.933 262.467 193.06 260.893 194.113 260C195.166 259.107 196.746 259.233 197.602 260.317C208.701 274.373 215.5 293.722 215.5 315C215.5 346.489 200.577 373.897 178.751 385.98L181.703 398.116Z" fill="#2563eb"/>
<defs>
<linearGradient id="paint0_linear_748_163" x1="296" y1="0" x2="296" y2="538" gradientUnits="userSpaceOnUse">
<stop stop-color="#1F2A37"/>
<stop offset="1" stop-color="#1F2A37" stop-opacity="0"/>
</linearGradient>
<linearGradient id="paint1_linear_748_163" x1="334.886" y1="519.313" x2="334.886" y2="-340.306" gradientUnits="userSpaceOnUse">
<stop stop-color="#374151" stop-opacity="0"/>
<stop offset="1" stop-color="#374151"/>
</linearGradient>
<linearGradient id="paint2_linear_748_163" x1="327.545" y1="441.384" x2="263" y2="558" gradientUnits="userSpaceOnUse">
<stop stop-color="#7F270F"/>
<stop offset="1" stop-color="#7F270F" stop-opacity="0"/>
</linearGradient>
<linearGradient id="paint3_linear_748_163" x1="362" y1="72.5" x2="356" y2="190" gradientUnits="userSpaceOnUse">
<stop stop-color="#111928" stop-opacity="0"/>
<stop offset="1" stop-color="#111928"/>
</linearGradient>
<linearGradient id="paint4_linear_748_163" x1="421" y1="405.5" x2="262.407" y2="370.24" gradientUnits="userSpaceOnUse">
<stop stop-color="#c8d8fa"/>
<stop offset="1" stop-color="#c8d8fa" stop-opacity="0"/>
</linearGradient>
<linearGradient id="paint5_linear_748_163" x1="628.5" y1="694" x2="325.999" y2="621.234" gradientUnits="userSpaceOnUse">
<stop stop-color="#c8d8fa"/>
<stop offset="1" stop-color="#c8d8fa" stop-opacity="0"/>
</linearGradient>
<linearGradient id="paint6_linear_748_163" x1="371" y1="558" x2="331" y2="467" gradientUnits="userSpaceOnUse">
<stop stop-color="#c8d8fa"/>
<stop offset="1" stop-color="#c8d8fa" stop-opacity="0"/>
</linearGradient>
<linearGradient id="paint7_linear_748_163" x1="331.5" y1="152" x2="369" y2="260" gradientUnits="userSpaceOnUse">
<stop stop-color="#7F270F"/>
<stop offset="1" stop-color="#7F270F" stop-opacity="0"/>
</linearGradient>
<linearGradient id="paint8_linear_748_163" x1="539" y1="453.5" x2="267.084" y2="528.317" gradientUnits="userSpaceOnUse">
<stop stop-color="#7F270F"/>
<stop offset="1" stop-color="#7F270F" stop-opacity="0"/>
</linearGradient>
<linearGradient id="paint9_linear_748_163" x1="154.168" y1="441.646" x2="104.074" y2="415.689" gradientUnits="userSpaceOnUse">
<stop stop-color="#374151"/>
<stop offset="1" stop-color="#374151" stop-opacity="0"/>
</linearGradient>
<linearGradient id="paint10_linear_748_163" x1="124.712" y1="454.878" x2="95.4073" y2="405.307" gradientUnits="userSpaceOnUse">
<stop stop-color="#374151"/>
<stop offset="1" stop-color="#374151" stop-opacity="0"/>
</linearGradient>
<linearGradient id="paint11_linear_748_163" x1="154.168" y1="394.715" x2="100.359" y2="371.828" gradientUnits="userSpaceOnUse">
<stop stop-color="#374151"/>
<stop offset="1" stop-color="#374151" stop-opacity="0"/>
</linearGradient>
<linearGradient id="paint12_linear_748_163" x1="124.712" y1="410.835" x2="86.0656" y2="357.173" gradientUnits="userSpaceOnUse">
<stop stop-color="#374151"/>
<stop offset="1" stop-color="#374151" stop-opacity="0"/>
</linearGradient>
<linearGradient id="paint13_linear_748_163" x1="62.5121" y1="222.189" x2="112.606" y2="248.145" gradientUnits="userSpaceOnUse">
<stop stop-color="#374151"/>
<stop offset="1" stop-color="#374151" stop-opacity="0"/>
</linearGradient>
<linearGradient id="paint14_linear_748_163" x1="91.9673" y1="208.957" x2="121.272" y2="258.527" gradientUnits="userSpaceOnUse">
<stop stop-color="#374151"/>
<stop offset="1" stop-color="#374151" stop-opacity="0"/>
</linearGradient>
<linearGradient id="paint15_linear_748_163" x1="62.5121" y1="269.12" x2="116.321" y2="292.006" gradientUnits="userSpaceOnUse">
<stop stop-color="#374151"/>
<stop offset="1" stop-color="#374151" stop-opacity="0"/>
</linearGradient>
<linearGradient id="paint16_linear_748_163" x1="91.9673" y1="253" x2="130.614" y2="306.661" gradientUnits="userSpaceOnUse">
<stop stop-color="#374151"/>
<stop offset="1" stop-color="#374151" stop-opacity="0"/>
</linearGradient>
<linearGradient id="paint17_linear_748_163" x1="62.5121" y1="326.939" x2="119.364" y2="346.443" gradientUnits="userSpaceOnUse">
<stop stop-color="#374151"/>
<stop offset="1" stop-color="#374151" stop-opacity="0"/>
</linearGradient>
<linearGradient id="paint18_linear_748_163" x1="91.9673" y1="304.632" x2="149.012" y2="361.207" gradientUnits="userSpaceOnUse">
<stop stop-color="#374151"/>
<stop offset="1" stop-color="#374151" stop-opacity="0"/>
</linearGradient>
</defs>
</svg>